<?xml version="1.0" encoding="utf-8"?>
<!-- Generator: Adobe Illustrator 22.0.1, SVG Export Plug-In . SVG Version: 6.00 Build 0)  -->
<svg version="1.1" xmlns="http://www.w3.org/2000/svg" xmlns:xlink="http://www.w3.org/1999/xlink" x="0px" y="0px"
	 viewBox="0 0 500 308.7" style="enable-background:new 0 0 500 308.7;" xml:space="preserve">
<style type="text/css">
	.st0{fill:#FFFFFF;}
	.st1{fill:#414042;}
	.st2{fill:#E6E7E8;}
	.st3{fill:#BCBEC0;}
	.st4{fill:#D1D3D4;}
	.st5{fill:#19B5FE;}
	.st6{fill:#6D6E71;}
	.st7{fill:#EC8365;}
	.st8{fill:#E7643E;}
	.st9{fill:#58595B;}
	.st10{fill:#939598;}
	.st11{fill:#75D3FE;}
	.st12{fill:#F1F2F2;}
	.st13{fill:#F1A28B;}
	.st14{fill:#A7A9AC;}
	.st15{fill:#808285;}
	.st16{fill:#EEEEEE;}
</style>
<g id="Bg">
	<rect class="st0" width="500" height="308.7"/>
</g>
<g id="Graphics">
	<g id="lines">
		<g id="_x31_">
		</g>
		<g id="Icons_outline">
		</g>
		<g>
			<g>
				<path class="st1" d="M230.1,75.4h-3.6c-0.2,0-0.3-0.1-0.3-0.3c0-0.2,0.1-0.3,0.3-0.3h3.6c0.2,0,0.3,0.1,0.3,0.3
					C230.4,75.2,230.3,75.4,230.1,75.4z"/>
			</g>
			<g>
				<path class="st1" d="M228.3,77.2c-0.2,0-0.3-0.1-0.3-0.3v-3.6c0-0.2,0.1-0.3,0.3-0.3c0.2,0,0.3,0.1,0.3,0.3v3.6
					C228.6,77,228.5,77.2,228.3,77.2z"/>
			</g>
		</g>
		<g>
			<g>
				<path class="st1" d="M306.1,95.6h-3.6c-0.2,0-0.3-0.1-0.3-0.3c0-0.2,0.1-0.3,0.3-0.3h3.6c0.2,0,0.3,0.1,0.3,0.3
					C306.4,95.4,306.2,95.6,306.1,95.6z"/>
			</g>
			<g>
				<path class="st1" d="M304.3,97.4c-0.2,0-0.3-0.1-0.3-0.3v-3.6c0-0.2,0.1-0.3,0.3-0.3c0.2,0,0.3,0.1,0.3,0.3V97
					C304.6,97.2,304.5,97.4,304.3,97.4z"/>
			</g>
		</g>
		<g>
			<g>
				<path class="st1" d="M105.9,162.1h-4.3c-0.2,0-0.4-0.2-0.4-0.4c0-0.2,0.2-0.4,0.4-0.4h4.3c0.2,0,0.4,0.2,0.4,0.4
					C106.3,161.9,106.2,162.1,105.9,162.1z"/>
			</g>
			<g>
				<path class="st1" d="M103.8,164.3c-0.2,0-0.4-0.2-0.4-0.4v-4.3c0-0.2,0.2-0.4,0.4-0.4c0.2,0,0.4,0.2,0.4,0.4v4.3
					C104.2,164.1,104,164.3,103.8,164.3z"/>
			</g>
		</g>
		<g>
			<g>
				<path class="st1" d="M159.3,182.2h-2.6c-0.1,0-0.2-0.1-0.2-0.2c0-0.1,0.1-0.2,0.2-0.2h2.6c0.1,0,0.2,0.1,0.2,0.2
					C159.5,182.1,159.4,182.2,159.3,182.2z"/>
			</g>
			<g>
				<path class="st1" d="M158,183.5c-0.1,0-0.2-0.1-0.2-0.2v-2.6c0-0.1,0.1-0.2,0.2-0.2c0.1,0,0.2,0.1,0.2,0.2v2.6
					C158.3,183.4,158.2,183.5,158,183.5z"/>
			</g>
		</g>
		<g>
			<g>
				<path class="st1" d="M355.7,85.5h-3.6c-0.2,0-0.3-0.1-0.3-0.3c0-0.2,0.1-0.3,0.3-0.3h3.6c0.2,0,0.3,0.1,0.3,0.3
					C356,85.4,355.8,85.5,355.7,85.5z"/>
			</g>
			<g>
				<path class="st1" d="M353.9,87.3c-0.2,0-0.3-0.1-0.3-0.3v-3.6c0-0.2,0.1-0.3,0.3-0.3c0.2,0,0.3,0.1,0.3,0.3V87
					C354.2,87.2,354.1,87.3,353.9,87.3z"/>
			</g>
		</g>
		<g>
			<g>
				<path class="st1" d="M407.7,146.8h-4.1c-0.2,0-0.4-0.2-0.4-0.4c0-0.2,0.2-0.4,0.4-0.4h4.1c0.2,0,0.4,0.2,0.4,0.4
					C408.1,146.6,407.9,146.8,407.7,146.8z"/>
			</g>
			<g>
				<path class="st1" d="M405.7,148.9c-0.2,0-0.4-0.2-0.4-0.4v-4.1c0-0.2,0.2-0.4,0.4-0.4c0.2,0,0.4,0.2,0.4,0.4v4.1
					C406,148.7,405.9,148.9,405.7,148.9z"/>
			</g>
		</g>
		<g>
			<g>
				<path class="st1" d="M390.7,181.8h-4.1c-0.2,0-0.4-0.2-0.4-0.4c0-0.2,0.2-0.4,0.4-0.4h4.1c0.2,0,0.4,0.2,0.4,0.4
					C391.1,181.6,390.9,181.8,390.7,181.8z"/>
			</g>
			<g>
				<path class="st1" d="M388.7,183.9c-0.2,0-0.4-0.2-0.4-0.4v-4.1c0-0.2,0.2-0.4,0.4-0.4c0.2,0,0.4,0.2,0.4,0.4v4.1
					C389.1,183.7,388.9,183.9,388.7,183.9z"/>
			</g>
		</g>
		<g>
			<g>
				<path class="st1" d="M391.1,103.5H387c-0.2,0-0.4-0.2-0.4-0.4c0-0.2,0.2-0.4,0.4-0.4h4.1c0.2,0,0.4,0.2,0.4,0.4
					C391.5,103.3,391.3,103.5,391.1,103.5z"/>
			</g>
			<g>
				<path class="st1" d="M389.1,105.6c-0.2,0-0.4-0.2-0.4-0.4v-4.1c0-0.2,0.2-0.4,0.4-0.4c0.2,0,0.4,0.2,0.4,0.4v4.1
					C389.4,105.4,389.3,105.6,389.1,105.6z"/>
			</g>
		</g>
		<g>
			<g>
				<path class="st1" d="M386.7,209.2H384c-0.1,0-0.3-0.1-0.3-0.3c0-0.1,0.1-0.3,0.3-0.3h2.7c0.1,0,0.3,0.1,0.3,0.3
					C386.9,209.1,386.8,209.2,386.7,209.2z"/>
			</g>
			<g>
				<path class="st1" d="M385.3,210.6c-0.1,0-0.3-0.1-0.3-0.3v-2.7c0-0.1,0.1-0.3,0.3-0.3c0.1,0,0.3,0.1,0.3,0.3v2.7
					C385.6,210.5,385.5,210.6,385.3,210.6z"/>
			</g>
		</g>
		<g>
			<g>
				<path class="st1" d="M334.1,154.6h-2.2c-0.1,0-0.2-0.1-0.2-0.2c0-0.1,0.1-0.2,0.2-0.2h2.2c0.1,0,0.2,0.1,0.2,0.2
					C334.3,154.5,334.2,154.6,334.1,154.6z"/>
			</g>
			<g>
				<path class="st1" d="M333,155.7c-0.1,0-0.2-0.1-0.2-0.2v-2.2c0-0.1,0.1-0.2,0.2-0.2c0.1,0,0.2,0.1,0.2,0.2v2.2
					C333.2,155.6,333.1,155.7,333,155.7z"/>
			</g>
		</g>
		<g>
			<g>
				<path class="st1" d="M122.9,79.4h-5.1c-0.3,0-0.5-0.2-0.5-0.5c0-0.3,0.2-0.5,0.5-0.5h5.1c0.3,0,0.5,0.2,0.5,0.5
					C123.4,79.2,123.1,79.4,122.9,79.4z"/>
			</g>
			<g>
				<path class="st1" d="M120.3,81.9c-0.3,0-0.5-0.2-0.5-0.5v-5.1c0-0.3,0.2-0.5,0.5-0.5c0.3,0,0.5,0.2,0.5,0.5v5.1
					C120.8,81.7,120.6,81.9,120.3,81.9z"/>
			</g>
		</g>
		<g>
			<g>
				<path class="st1" d="M106.8,129.1h-3.6c-0.2,0-0.3-0.1-0.3-0.3c0-0.2,0.1-0.3,0.3-0.3h3.6c0.2,0,0.3,0.1,0.3,0.3
					C107.1,129,107,129.1,106.8,129.1z"/>
			</g>
			<g>
				<path class="st1" d="M105,130.9c-0.2,0-0.3-0.1-0.3-0.3V127c0-0.2,0.1-0.3,0.3-0.3c0.2,0,0.3,0.1,0.3,0.3v3.6
					C105.3,130.7,105.2,130.9,105,130.9z"/>
			</g>
		</g>
		<g>
			<path class="st1" d="M177.5,92.2c-1,0-1.9-0.9-1.9-1.9c0-1,0.9-1.9,1.9-1.9c1,0,1.9,0.9,1.9,1.9
				C179.4,91.4,178.6,92.2,177.5,92.2z M177.5,89.2c-0.6,0-1.2,0.5-1.2,1.2c0,0.6,0.5,1.2,1.2,1.2c0.6,0,1.2-0.5,1.2-1.2
				C178.7,89.7,178.2,89.2,177.5,89.2z"/>
		</g>
		<g>
			<path class="st1" d="M392.7,163.5c-1,0-1.9-0.9-1.9-1.9c0-1,0.9-1.9,1.9-1.9c1,0,1.9,0.9,1.9,1.9
				C394.6,162.6,393.8,163.5,392.7,163.5z M392.7,160.4c-0.6,0-1.2,0.5-1.2,1.2c0,0.6,0.5,1.2,1.2,1.2c0.6,0,1.2-0.5,1.2-1.2
				C393.9,160.9,393.3,160.4,392.7,160.4z"/>
		</g>
		<g>
			<path class="st1" d="M328.4,199.9c-1,0-1.9-0.9-1.9-1.9c0-1,0.9-1.9,1.9-1.9c1,0,1.9,0.9,1.9,1.9
				C330.3,199,329.4,199.9,328.4,199.9z M328.4,196.8c-0.6,0-1.2,0.5-1.2,1.2c0,0.6,0.5,1.2,1.2,1.2c0.6,0,1.2-0.5,1.2-1.2
				C329.5,197.4,329,196.8,328.4,196.8z"/>
		</g>
		<g>
			<path class="st1" d="M89.4,140.9c-1,0-1.9-0.9-1.9-1.9c0-1,0.9-1.9,1.9-1.9c1,0,1.9,0.9,1.9,1.9C91.3,140,90.4,140.9,89.4,140.9z
				 M89.4,137.8c-0.6,0-1.2,0.5-1.2,1.2c0,0.6,0.5,1.2,1.2,1.2c0.6,0,1.2-0.5,1.2-1.2C90.5,138.3,90,137.8,89.4,137.8z"/>
		</g>
		<g>
			<path class="st1" d="M252.7,99.1c-1,0-1.9-0.9-1.9-1.9c0-1,0.9-1.9,1.9-1.9c1,0,1.9,0.9,1.9,1.9
				C254.6,98.2,253.7,99.1,252.7,99.1z M252.7,96c-0.6,0-1.2,0.5-1.2,1.2c0,0.6,0.5,1.2,1.2,1.2c0.6,0,1.2-0.5,1.2-1.2
				C253.9,96.5,253.3,96,252.7,96z"/>
		</g>
		<g>
			<path class="st1" d="M370.8,112c-1,0-1.9-0.9-1.9-1.9c0-1,0.9-1.9,1.9-1.9c1,0,1.9,0.9,1.9,1.9C372.8,111.2,371.9,112,370.8,112z
				 M370.8,109c-0.6,0-1.2,0.5-1.2,1.2c0,0.6,0.5,1.2,1.2,1.2c0.6,0,1.2-0.5,1.2-1.2C372,109.5,371.5,109,370.8,109z"/>
		</g>
		<g>
			<path class="st1" d="M366.5,182.5c-0.6,0-1.1-0.5-1.1-1.1c0-0.6,0.5-1.1,1.1-1.1s1.1,0.5,1.1,1.1
				C367.6,182,367.1,182.5,366.5,182.5z M366.5,180.8c-0.4,0-0.7,0.3-0.7,0.7s0.3,0.7,0.7,0.7c0.4,0,0.7-0.3,0.7-0.7
				S366.9,180.8,366.5,180.8z"/>
		</g>
		<g>
			<path class="st1" d="M165.7,100.8c-0.6,0-1.1-0.5-1.1-1.1c0-0.6,0.5-1.1,1.1-1.1c0.6,0,1.1,0.5,1.1,1.1
				C166.8,100.4,166.3,100.8,165.7,100.8z M165.7,99.1c-0.4,0-0.7,0.3-0.7,0.7c0,0.4,0.3,0.7,0.7,0.7c0.4,0,0.7-0.3,0.7-0.7
				C166.4,99.4,166.1,99.1,165.7,99.1z"/>
		</g>
		<g>
			<path class="st1" d="M130.1,168.6c-0.6,0-1.1-0.5-1.1-1.1c0-0.6,0.5-1.1,1.1-1.1c0.6,0,1.1,0.5,1.1,1.1
				C131.2,168.1,130.7,168.6,130.1,168.6z M130.1,166.8c-0.4,0-0.7,0.3-0.7,0.7c0,0.4,0.3,0.7,0.7,0.7c0.4,0,0.7-0.3,0.7-0.7
				C130.7,167.1,130.4,166.8,130.1,166.8z"/>
		</g>
		<g>
			<path class="st1" d="M142,68.3c-1.4,0-2.5-1.1-2.5-2.5c0-1.4,1.1-2.5,2.5-2.5c1.4,0,2.5,1.1,2.5,2.5
				C144.5,67.2,143.3,68.3,142,68.3z M142,64.3c-0.8,0-1.5,0.7-1.5,1.5c0,0.8,0.7,1.5,1.5,1.5c0.8,0,1.5-0.7,1.5-1.5
				C143.5,65,142.8,64.3,142,64.3z"/>
		</g>
		<g>
			<path class="st1" d="M167.6,158.4c-1,0-1.9-0.9-1.9-1.9c0-1,0.9-1.9,1.9-1.9c1,0,1.9,0.9,1.9,1.9
				C169.5,157.5,168.7,158.4,167.6,158.4z M167.6,155.3c-0.6,0-1.2,0.5-1.2,1.2c0,0.6,0.5,1.2,1.2,1.2c0.6,0,1.2-0.5,1.2-1.2
				C168.8,155.9,168.3,155.3,167.6,155.3z"/>
		</g>
		<g>
			<path class="st1" d="M212.4,91.4h-0.8v-1h0.8V91.4z M210.3,91.4h-1.4v-1h1.4V91.4z M207.5,91.4h-1.4v-1h1.4V91.4z M204.7,91.4
				h-1.4v-1h1.4V91.4z M202,91.4h-1.4v-1h1.4V91.4z M199.2,91.4h-1.4v-1h1.4V91.4z M196.4,91.4h-1.4v-1h1.4V91.4z M193.7,91.4h-1.4
				v-1h1.4V91.4z M190.9,91.4h-1.4v-1h1.4V91.4z M188.1,91.4h-1.4v-1h1.4V91.4z M185.4,91.4H184v-1h1.4V91.4z"/>
		</g>
		<g>
			<path class="st1" d="M310.7,75.6h-0.8v-1h0.8V75.6z M308.5,75.6h-1.4v-1h1.4V75.6z M305.7,75.6h-1.4v-1h1.4V75.6z M303,75.6h-1.4
				v-1h1.4V75.6z M300.2,75.6h-1.4v-1h1.4V75.6z M297.4,75.6h-1.4v-1h1.4V75.6z M294.7,75.6h-1.4v-1h1.4V75.6z M291.9,75.6h-1.4v-1
				h1.4V75.6z M289.1,75.6h-1.4v-1h1.4V75.6z M286.4,75.6H285v-1h1.4V75.6z M283.6,75.6h-1.4v-1h1.4V75.6z"/>
		</g>
		<g>
			<path class="st1" d="M410.6,135.4h-0.8v-1h0.8V135.4z M408.4,135.4h-1.4v-1h1.4V135.4z M405.7,135.4h-1.4v-1h1.4V135.4z
				 M402.9,135.4h-1.4v-1h1.4V135.4z M400.1,135.4h-1.4v-1h1.4V135.4z M397.4,135.4H396v-1h1.4V135.4z M394.6,135.4h-1.4v-1h1.4
				V135.4z M391.8,135.4h-1.4v-1h1.4V135.4z M389.1,135.4h-1.4v-1h1.4V135.4z M386.3,135.4h-1.4v-1h1.4V135.4z M383.6,135.4h-1.4v-1
				h1.4V135.4z"/>
		</g>
		<g>
			<path class="st1" d="M354,224.8h-0.8v-1h0.8V224.8z M351.8,224.8h-1.4v-1h1.4V224.8z M349,224.8h-1.4v-1h1.4V224.8z M346.3,224.8
				h-1.4v-1h1.4V224.8z M343.5,224.8h-1.4v-1h1.4V224.8z M340.7,224.8h-1.4v-1h1.4V224.8z M338,224.8h-1.4v-1h1.4V224.8z
				 M335.2,224.8h-1.4v-1h1.4V224.8z M332.4,224.8h-1.4v-1h1.4V224.8z M329.7,224.8h-1.4v-1h1.4V224.8z M326.9,224.8h-1.4v-1h1.4
				V224.8z"/>
		</g>
		<g>
			<path class="st1" d="M188.9,108.6h-0.8v-1h0.8V108.6z M186.8,108.6h-1.4v-1h1.4V108.6z M184,108.6h-1.4v-1h1.4V108.6z
				 M181.2,108.6h-1.4v-1h1.4V108.6z M178.5,108.6h-1.4v-1h1.4V108.6z M175.7,108.6h-1.4v-1h1.4V108.6z M172.9,108.6h-1.4v-1h1.4
				V108.6z M170.2,108.6h-1.4v-1h1.4V108.6z M167.4,108.6H166v-1h1.4V108.6z M164.6,108.6h-1.4v-1h1.4V108.6z M161.9,108.6h-1.4v-1
				h1.4V108.6z"/>
		</g>
		<g>
			<path class="st1" d="M119.4,155.7h38.8c0.5,0,0.9-0.2,0.9-0.5c0-0.3-0.4-0.5-0.9-0.5h-38.8c-0.5,0-0.9,0.2-0.9,0.5
				C118.5,155.5,118.9,155.7,119.4,155.7z"/>
		</g>
		<g>
			<path class="st1" d="M329.3,162.1h38.8c0.5,0,0.9-0.2,0.9-0.5c0-0.3-0.4-0.5-0.9-0.5h-38.8c-0.5,0-0.9,0.2-0.9,0.5
				C328.4,161.8,328.8,162.1,329.3,162.1z"/>
		</g>
		<g>
			<path class="st1" d="M376.5,118.2h19.4c0.3,0,0.5-0.2,0.5-0.5c0-0.3-0.2-0.5-0.5-0.5h-19.4c-0.3,0-0.5,0.2-0.5,0.5
				C376.1,117.9,376.3,118.2,376.5,118.2z"/>
		</g>
		<g>
			<path class="st1" d="M333,213.5h38.8c0.5,0,0.9-0.2,0.9-0.5s-0.4-0.5-0.9-0.5H333c-0.5,0-0.9,0.2-0.9,0.5S332.5,213.5,333,213.5z
				"/>
		</g>
		<g>
			<path class="st1" d="M368.9,193.8h26.8c0.4,0,0.7-0.2,0.7-0.5s-0.3-0.5-0.7-0.5h-26.8c-0.4,0-0.7,0.2-0.7,0.5
				S368.5,193.8,368.9,193.8z"/>
		</g>
		<g>
			<path class="st1" d="M385.1,162.1h-11.7c-0.2,0-0.3-0.2-0.3-0.5c0-0.3,0.1-0.5,0.3-0.5h11.7c0.2,0,0.3,0.2,0.3,0.5
				C385.3,161.8,385.2,162.1,385.1,162.1z"/>
		</g>
		<g>
			<path class="st1" d="M107.6,176.6H127c0.3,0,0.5-0.2,0.5-0.5c0-0.3-0.2-0.5-0.5-0.5h-19.4c-0.3,0-0.5,0.2-0.5,0.5
				C107.1,176.4,107.3,176.6,107.6,176.6z"/>
		</g>
		<g>
			<path class="st1" d="M353,167.5h25.6c0.3,0,0.6-0.2,0.6-0.5c0-0.3-0.3-0.5-0.6-0.5H353c-0.3,0-0.6,0.2-0.6,0.5
				C352.4,167.3,352.7,167.5,353,167.5z"/>
		</g>
		<g>
			<path class="st1" d="M319.2,210h25.6c0.3,0,0.6-0.2,0.6-0.5c0-0.3-0.3-0.5-0.6-0.5h-25.6c-0.3,0-0.6,0.2-0.6,0.5
				C318.5,209.8,318.8,210,319.2,210z"/>
		</g>
		<g>
			<path class="st1" d="M132.8,209.5h38.8c0.5,0,0.9-0.2,0.9-0.5c0-0.3-0.4-0.5-0.9-0.5h-38.8c-0.5,0-0.9,0.2-0.9,0.5
				C131.8,209.3,132.2,209.5,132.8,209.5z"/>
		</g>
		<g>
			<path class="st1" d="M123.6,213.5h24.2c0.3,0,0.6-0.2,0.6-0.5s-0.3-0.5-0.6-0.5h-24.2c-0.3,0-0.6,0.2-0.6,0.5
				S123.2,213.5,123.6,213.5z"/>
		</g>
		<g>
			<path class="st1" d="M120.6,213.5h-14.6c-0.2,0-0.4-0.2-0.4-0.5s0.2-0.5,0.4-0.5h14.6c0.2,0,0.4,0.2,0.4,0.5
				S120.8,213.5,120.6,213.5z"/>
		</g>
		<g>
			<path class="st1" d="M136.9,84.6h25.8c0.3,0,0.6-0.2,0.6-0.5c0-0.3-0.3-0.5-0.6-0.5h-25.8c-0.3,0-0.6,0.2-0.6,0.5
				C136.3,84.3,136.6,84.6,136.9,84.6z"/>
		</g>
		<g>
			<path class="st1" d="M221.9,70.5h25.8c0.3,0,0.6-0.2,0.6-0.5c0-0.3-0.3-0.5-0.6-0.5h-25.8c-0.3,0-0.6,0.2-0.6,0.5
				C221.3,70.3,221.6,70.5,221.9,70.5z"/>
		</g>
		<g>
			<path class="st1" d="M297.7,54.9h42.2c0.6,0,1-0.2,1-0.5s-0.5-0.5-1-0.5h-42.2c-0.6,0-1,0.2-1,0.5S297.1,54.9,297.7,54.9z"/>
		</g>
		<g>
			<path class="st1" d="M252.9,70.5h25.8c0.3,0,0.6-0.2,0.6-0.5c0-0.3-0.3-0.5-0.6-0.5h-25.8c-0.3,0-0.6,0.2-0.6,0.5
				C252.3,70.3,252.6,70.5,252.9,70.5z"/>
		</g>
		<g>
			<path class="st1" d="M105.6,147.6h25.8c0.3,0,0.6-0.2,0.6-0.5c0-0.3-0.3-0.5-0.6-0.5h-25.8c-0.3,0-0.6,0.2-0.6,0.5
				C105,147.4,105.3,147.6,105.6,147.6z"/>
		</g>
		<g>
			<path class="st1" d="M90,91.9h25.8c0.3,0,0.6-0.2,0.6-0.5c0-0.3-0.3-0.5-0.6-0.5H90c-0.3,0-0.6,0.2-0.6,0.5
				C89.4,91.6,89.7,91.9,90,91.9z"/>
		</g>
		<g>
			<path class="st1" d="M209.5,84.6h16.1c0.2,0,0.4-0.2,0.4-0.5c0-0.3-0.2-0.5-0.4-0.5h-16.1c-0.2,0-0.4,0.2-0.4,0.5
				C209.1,84.3,209.3,84.6,209.5,84.6z"/>
		</g>
		<g>
			<path class="st1" d="M298.3,104.5H328c0.4,0,0.7-0.2,0.7-0.5s-0.3-0.5-0.7-0.5h-29.7c-0.4,0-0.7,0.2-0.7,0.5
				S297.9,104.5,298.3,104.5z"/>
		</g>
		<g>
			<path class="st1" d="M362.3,87.7H392c0.4,0,0.7-0.2,0.7-0.5c0-0.3-0.3-0.5-0.7-0.5h-29.7c-0.4,0-0.7,0.2-0.7,0.5
				C361.6,87.5,361.9,87.7,362.3,87.7z"/>
		</g>
		<g>
			<path class="st1" d="M309.5,110.1h29.7c0.4,0,0.7-0.2,0.7-0.5c0-0.3-0.3-0.5-0.7-0.5h-29.7c-0.4,0-0.7,0.2-0.7,0.5
				C308.7,109.9,309.1,110.1,309.5,110.1z"/>
		</g>
		<g>
			<path class="st1" d="M354.9,110.1h-11.7c-0.2,0-0.3-0.2-0.3-0.5c0-0.3,0.1-0.5,0.3-0.5h11.7c0.2,0,0.3,0.2,0.3,0.5
				C355.2,109.9,355,110.1,354.9,110.1z"/>
		</g>
		<g>
			<path class="st1" d="M158.2,139.5h16.1c0.2,0,0.4-0.2,0.4-0.5c0-0.3-0.2-0.5-0.4-0.5h-16.1c-0.2,0-0.4,0.2-0.4,0.5
				C157.8,139.2,158,139.5,158.2,139.5z"/>
		</g>
		<g>
			<path class="st1" d="M154.6,139.5h-8.8c-0.1,0-0.2-0.2-0.2-0.5c0-0.3,0.1-0.5,0.2-0.5h8.8c0.1,0,0.2,0.2,0.2,0.5
				C154.8,139.2,154.8,139.5,154.6,139.5z"/>
		</g>
		<g>
			<path class="st1" d="M178.6,57.9h29.2c0.4,0,0.7-0.2,0.7-0.5c0-0.3-0.3-0.5-0.7-0.5h-29.2c-0.4,0-0.7,0.2-0.7,0.5
				C177.9,57.7,178.2,57.9,178.6,57.9z"/>
		</g>
		<g>
			<path class="st1" d="M283.8,60.3c-0.2,0.1-0.7,0.2-1.3,0.2c-1.6,0-2.5-1-2.5-2.5c0-1.6,1.1-2.6,2.7-2.6c0.6,0,1,0.1,1.2,0.2
				l-0.2,0.7c-0.2-0.1-0.6-0.2-1-0.2c-1,0-1.7,0.6-1.7,1.8c0,1.1,0.6,1.8,1.7,1.8c0.4,0,0.8-0.1,1-0.2L283.8,60.3z"/>
			<path class="st1" d="M284.6,59.4c0.3,0.2,0.7,0.3,1.2,0.3c0.6,0,0.9-0.3,0.9-0.7c0-0.4-0.3-0.6-0.9-0.8c-0.8-0.3-1.3-0.7-1.3-1.5
				c0-0.8,0.7-1.4,1.8-1.4c0.5,0,0.9,0.1,1.2,0.3l-0.2,0.7c-0.2-0.1-0.5-0.2-1-0.2c-0.6,0-0.8,0.3-0.8,0.6c0,0.4,0.3,0.6,1,0.8
				c0.9,0.3,1.3,0.8,1.3,1.5c0,0.8-0.6,1.5-1.9,1.5c-0.5,0-1.1-0.1-1.3-0.3L284.6,59.4z"/>
			<path class="st1" d="M288.4,59.4c0.3,0.2,0.7,0.3,1.2,0.3c0.6,0,0.9-0.3,0.9-0.7c0-0.4-0.3-0.6-0.9-0.8c-0.8-0.3-1.3-0.7-1.3-1.5
				c0-0.8,0.7-1.4,1.8-1.4c0.5,0,0.9,0.1,1.2,0.3l-0.2,0.7c-0.2-0.1-0.5-0.2-1-0.2c-0.6,0-0.8,0.3-0.8,0.6c0,0.4,0.3,0.6,1,0.8
				c0.9,0.3,1.3,0.8,1.3,1.5c0,0.8-0.6,1.5-1.9,1.5c-0.5,0-1.1-0.1-1.3-0.3L288.4,59.4z"/>
		</g>
		<g>
			<path class="st1" d="M236.6,44.9c-0.2,0.1-0.7,0.2-1.4,0.2c-1.7,0-2.7-1-2.7-2.7c0-1.7,1.2-2.8,2.8-2.8c0.6,0,1.1,0.1,1.3,0.2
				l-0.2,0.8c-0.3-0.1-0.6-0.2-1-0.2c-1.1,0-1.8,0.7-1.8,1.9c0,1.2,0.7,1.9,1.8,1.9c0.4,0,0.8-0.1,1-0.2L236.6,44.9z"/>
			<path class="st1" d="M239.6,40.8v1.8h1.7v0.6h-1.7V45h-0.6v-1.8h-1.7v-0.6h1.7v-1.8H239.6z"/>
			<path class="st1" d="M244.2,40.8v1.8h1.7v0.6h-1.7V45h-0.6v-1.8h-1.7v-0.6h1.7v-1.8H244.2z"/>
		</g>
		<g>
			<path class="st1" d="M250.6,33.1v2h2.1v-2h0.9V38h-0.9v-2.2h-2.1V38h-0.9v-4.9H250.6z"/>
			<path class="st1" d="M255.6,33.9h-1.4v-0.8h3.7v0.8h-1.4V38h-0.9V33.9z"/>
			<path class="st1" d="M262.7,36c0-0.6-0.1-1.4-0.1-2.1h0c-0.2,0.6-0.4,1.3-0.6,1.9l-0.7,2.1h-0.7l-0.7-2.1
				c-0.2-0.6-0.4-1.3-0.5-1.9h0c0,0.6-0.1,1.4-0.1,2.1l-0.1,2h-0.8l0.3-4.9h1.2l0.6,2c0.2,0.6,0.3,1.2,0.5,1.7h0
				c0.1-0.5,0.3-1.1,0.5-1.7l0.7-2h1.2l0.3,4.9h-0.9L262.7,36z"/>
			<path class="st1" d="M264.6,33.1h0.9v4.2h2V38h-2.9V33.1z"/>
		</g>
		<g>
			<path class="st1" d="M220.9,54.4c0.3-0.1,0.8-0.1,1.4-0.1c0.7,0,1.2,0.1,1.5,0.4c0.3,0.3,0.5,0.7,0.5,1.1c0,0.5-0.2,0.9-0.4,1.2
				c-0.4,0.4-1,0.6-1.6,0.6c-0.2,0-0.3,0-0.5,0v2h-0.9V54.4z M221.9,56.8c0.1,0,0.3,0,0.5,0c0.7,0,1.1-0.3,1.1-1
				c0-0.6-0.4-0.9-1.1-0.9c-0.3,0-0.4,0-0.5,0V56.8z"/>
			<path class="st1" d="M226.2,54.4v2.1h2.2v-2.1h0.9v5.2h-0.9v-2.3h-2.2v2.3h-0.9v-5.2H226.2z"/>
			<path class="st1" d="M230.4,54.4c0.3-0.1,0.8-0.1,1.4-0.1c0.7,0,1.2,0.1,1.5,0.4c0.3,0.3,0.5,0.7,0.5,1.1c0,0.5-0.2,0.9-0.4,1.2
				c-0.4,0.4-1,0.6-1.6,0.6c-0.2,0-0.3,0-0.5,0v2h-0.9V54.4z M231.3,56.8c0.1,0,0.3,0,0.5,0c0.7,0,1.1-0.3,1.1-1
				c0-0.6-0.4-0.9-1.1-0.9c-0.3,0-0.4,0-0.5,0V56.8z"/>
		</g>
		<g>
			<path class="st1" d="M275.5,40.2h1.1V44c0,1.6-0.8,2.2-2,2.2c-0.3,0-0.7-0.1-0.9-0.1l0.1-0.9c0.2,0.1,0.4,0.1,0.7,0.1
				c0.6,0,1-0.3,1-1.3V40.2z"/>
			<path class="st1" d="M277.8,44.9c0.4,0.2,0.9,0.4,1.4,0.4c0.7,0,1.1-0.3,1.1-0.8c0-0.4-0.3-0.7-1.1-1c-1-0.4-1.6-0.9-1.6-1.7
				c0-1,0.8-1.7,2.1-1.7c0.6,0,1.1,0.1,1.4,0.3l-0.3,0.9c-0.2-0.1-0.6-0.3-1.2-0.3c-0.7,0-1,0.4-1,0.7c0,0.5,0.3,0.7,1.1,1
				c1,0.4,1.5,0.9,1.5,1.8c0,0.9-0.7,1.8-2.2,1.8c-0.6,0-1.3-0.2-1.6-0.4L277.8,44.9z"/>
		</g>
		<g>
			<g>
				<path class="st1" d="M381.4,81.4h-1.9c-0.2,0-0.3-0.1-0.3-0.3c0-0.2,0.1-0.3,0.3-0.3h1.6V79c0-0.2,0.1-0.3,0.3-0.3
					c0.2,0,0.3,0.1,0.3,0.3v1.9c0,0,0,0.1,0,0.1c0,0,0,0.1,0,0.1C381.7,81.2,381.6,81.4,381.4,81.4z M377.7,81.4h-1.9
					c-0.2,0-0.3-0.1-0.3-0.3c0-0.2,0.1-0.3,0.3-0.3h1.9c0.2,0,0.3,0.1,0.3,0.3C378,81.2,377.8,81.4,377.7,81.4z M373.9,81.4h-1.9
					c-0.2,0-0.3-0.1-0.3-0.3c0-0.2,0.1-0.3,0.3-0.3h1.9c0.2,0,0.3,0.1,0.3,0.3C374.2,81.2,374.1,81.4,373.9,81.4z M370.2,81.4h-1.9
					c-0.2,0-0.3-0.1-0.3-0.3c0-0.2,0.1-0.3,0.3-0.3h1.9c0.2,0,0.3,0.1,0.3,0.3C370.5,81.2,370.4,81.4,370.2,81.4z M366.5,81.4h-1.9
					c-0.2,0-0.3-0.1-0.3-0.3c0-0.2,0.1-0.3,0.3-0.3h1.9c0.2,0,0.3,0.1,0.3,0.3C366.8,81.2,366.6,81.4,366.5,81.4z M364.1,80
					c-0.2,0-0.3-0.1-0.3-0.3v-1.9c0-0.2,0.1-0.3,0.3-0.3c0.2,0,0.3,0.1,0.3,0.3v1.9C364.4,79.9,364.3,80,364.1,80z M381.4,77.4
					c-0.2,0-0.3-0.1-0.3-0.3v-1.9c0-0.2,0.1-0.3,0.3-0.3c0.2,0,0.3,0.1,0.3,0.3v1.9C381.7,77.3,381.6,77.4,381.4,77.4z M364.1,76.3
					c-0.2,0-0.3-0.1-0.3-0.3v-1.9c0-0.2,0.1-0.3,0.3-0.3c0.2,0,0.3,0.1,0.3,0.3V76C364.4,76.1,364.3,76.3,364.1,76.3z M381.4,73.7
					c-0.2,0-0.3-0.1-0.3-0.3v-1.9c0-0.2,0.1-0.3,0.3-0.3c0.2,0,0.3,0.1,0.3,0.3v1.9C381.7,73.6,381.6,73.7,381.4,73.7z M364.1,72.5
					c-0.2,0-0.3-0.1-0.3-0.3v-1.9c0-0.2,0.1-0.3,0.3-0.3c0.2,0,0.3,0.1,0.3,0.3v1.9C364.4,72.4,364.3,72.5,364.1,72.5z M381.4,70
					c-0.2,0-0.3-0.1-0.3-0.3v-1.9c0-0.2,0.1-0.3,0.3-0.3c0.2,0,0.3,0.1,0.3,0.3v1.9C381.7,69.9,381.6,70,381.4,70z M364.1,68.8
					c-0.2,0-0.3-0.1-0.3-0.3v-1.9c0-0.2,0.1-0.3,0.3-0.3c0.2,0,0.3,0.1,0.3,0.3v1.9C364.4,68.7,364.3,68.8,364.1,68.8z M381.4,66.3
					c-0.2,0-0.3-0.1-0.3-0.3v-1.9c0-0.2,0.1-0.3,0.3-0.3c0.2,0,0.3,0.1,0.3,0.3v1.9C381.7,66.1,381.6,66.3,381.4,66.3z M364.1,65.1
					c-0.2,0-0.3-0.1-0.3-0.3v-1.3h1.2c0.2,0,0.3,0.1,0.3,0.3c0,0.2-0.1,0.3-0.3,0.3h-0.5v0.7C364.4,64.9,364.3,65.1,364.1,65.1z
					 M379.9,64.1H378c-0.2,0-0.3-0.1-0.3-0.3c0-0.2,0.1-0.3,0.3-0.3h1.9c0.2,0,0.3,0.1,0.3,0.3C380.2,63.9,380,64.1,379.9,64.1z
					 M376.1,64.1h-1.9c-0.2,0-0.3-0.1-0.3-0.3c0-0.2,0.1-0.3,0.3-0.3h1.9c0.2,0,0.3,0.1,0.3,0.3C376.4,63.9,376.3,64.1,376.1,64.1z
					 M372.4,64.1h-1.9c-0.2,0-0.3-0.1-0.3-0.3c0-0.2,0.1-0.3,0.3-0.3h1.9c0.2,0,0.3,0.1,0.3,0.3C372.7,63.9,372.6,64.1,372.4,64.1z
					 M368.7,64.1h-1.9c-0.2,0-0.3-0.1-0.3-0.3c0-0.2,0.1-0.3,0.3-0.3h1.9c0.2,0,0.3,0.1,0.3,0.3C369,63.9,368.8,64.1,368.7,64.1z"/>
			</g>
			<g>
				<path class="st1" d="M370.9,71.7c0-0.2,0-0.4,0-0.6h0.3l0,0.3h0c0.1-0.2,0.4-0.4,0.7-0.4c0.5,0,0.8,0.4,0.8,1c0,0.7-0.4,1-0.9,1
					c-0.3,0-0.5-0.1-0.6-0.3h0v1h-0.3V71.7z M371.2,72.2c0,0.1,0,0.1,0,0.1c0.1,0.2,0.3,0.4,0.5,0.4c0.4,0,0.6-0.3,0.6-0.7
					c0-0.4-0.2-0.7-0.6-0.7c-0.2,0-0.5,0.2-0.5,0.4c0,0,0,0.1,0,0.1V72.2z"/>
				<path class="st1" d="M373.3,71.1l0.3,0.4c0.1,0.1,0.1,0.2,0.2,0.3h0c0.1-0.1,0.1-0.2,0.2-0.3l0.3-0.4h0.4l-0.7,0.9l0.7,1h-0.4
					l-0.3-0.4c-0.1-0.1-0.1-0.2-0.2-0.3h0c-0.1,0.1-0.1,0.2-0.2,0.3l-0.3,0.4h-0.4l0.7-1l-0.7-0.9H373.3z"/>
			</g>
		</g>
		<g>
			<g>
				<path class="st1" d="M112.4,200.1h-1.9c-0.2,0-0.3-0.1-0.3-0.3c0-0.2,0.1-0.3,0.3-0.3h1.6v-1.7c0-0.2,0.1-0.3,0.3-0.3
					c0.2,0,0.3,0.1,0.3,0.3v1.9c0,0,0,0.1,0,0.1c0,0,0,0.1,0,0.1C112.7,200,112.6,200.1,112.4,200.1z M108.7,200.1h-1.9
					c-0.2,0-0.3-0.1-0.3-0.3c0-0.2,0.1-0.3,0.3-0.3h1.9c0.2,0,0.3,0.1,0.3,0.3C109,200,108.9,200.1,108.7,200.1z M104.9,200.1h-1.9
					c-0.2,0-0.3-0.1-0.3-0.3c0-0.2,0.1-0.3,0.3-0.3h1.9c0.2,0,0.3,0.1,0.3,0.3C105.3,200,105.1,200.1,104.9,200.1z M101.2,200.1
					h-1.9c-0.2,0-0.3-0.1-0.3-0.3c0-0.2,0.1-0.3,0.3-0.3h1.9c0.2,0,0.3,0.1,0.3,0.3C101.5,200,101.4,200.1,101.2,200.1z M97.5,200.1
					h-1.9c-0.2,0-0.3-0.1-0.3-0.3c0-0.2,0.1-0.3,0.3-0.3h1.9c0.2,0,0.3,0.1,0.3,0.3C97.8,200,97.7,200.1,97.5,200.1z M95.1,198.7
					c-0.2,0-0.3-0.1-0.3-0.3v-1.9c0-0.2,0.1-0.3,0.3-0.3c0.2,0,0.3,0.1,0.3,0.3v1.9C95.4,198.6,95.3,198.7,95.1,198.7z M112.4,196.2
					c-0.2,0-0.3-0.1-0.3-0.3V194c0-0.2,0.1-0.3,0.3-0.3c0.2,0,0.3,0.1,0.3,0.3v1.9C112.7,196,112.6,196.2,112.4,196.2z M95.1,195
					c-0.2,0-0.3-0.1-0.3-0.3v-1.9c0-0.2,0.1-0.3,0.3-0.3c0.2,0,0.3,0.1,0.3,0.3v1.9C95.4,194.9,95.3,195,95.1,195z M112.4,192.5
					c-0.2,0-0.3-0.1-0.3-0.3v-1.9c0-0.2,0.1-0.3,0.3-0.3c0.2,0,0.3,0.1,0.3,0.3v1.9C112.7,192.3,112.6,192.5,112.4,192.5z
					 M95.1,191.3c-0.2,0-0.3-0.1-0.3-0.3v-1.9c0-0.2,0.1-0.3,0.3-0.3c0.2,0,0.3,0.1,0.3,0.3v1.9C95.4,191.1,95.3,191.3,95.1,191.3z
					 M112.4,188.7c-0.2,0-0.3-0.1-0.3-0.3v-1.9c0-0.2,0.1-0.3,0.3-0.3c0.2,0,0.3,0.1,0.3,0.3v1.9
					C112.7,188.6,112.6,188.7,112.4,188.7z M95.1,187.5c-0.2,0-0.3-0.1-0.3-0.3v-1.9c0-0.2,0.1-0.3,0.3-0.3c0.2,0,0.3,0.1,0.3,0.3
					v1.9C95.4,187.4,95.3,187.5,95.1,187.5z M112.4,185c-0.2,0-0.3-0.1-0.3-0.3v-1.9c0-0.2,0.1-0.3,0.3-0.3c0.2,0,0.3,0.1,0.3,0.3
					v1.9C112.7,184.9,112.6,185,112.4,185z M95.1,183.8c-0.2,0-0.3-0.1-0.3-0.3v-1.3H96c0.2,0,0.3,0.1,0.3,0.3
					c0,0.2-0.1,0.3-0.3,0.3h-0.5v0.7C95.4,183.7,95.3,183.8,95.1,183.8z M110.9,182.8H109c-0.2,0-0.3-0.1-0.3-0.3
					c0-0.2,0.1-0.3,0.3-0.3h1.9c0.2,0,0.3,0.1,0.3,0.3C111.2,182.7,111.1,182.8,110.9,182.8z M107.1,182.8h-1.9
					c-0.2,0-0.3-0.1-0.3-0.3c0-0.2,0.1-0.3,0.3-0.3h1.9c0.2,0,0.3,0.1,0.3,0.3C107.5,182.7,107.3,182.8,107.1,182.8z M103.4,182.8
					h-1.9c-0.2,0-0.3-0.1-0.3-0.3c0-0.2,0.1-0.3,0.3-0.3h1.9c0.2,0,0.3,0.1,0.3,0.3C103.7,182.7,103.6,182.8,103.4,182.8z
					 M99.7,182.8h-1.9c-0.2,0-0.3-0.1-0.3-0.3c0-0.2,0.1-0.3,0.3-0.3h1.9c0.2,0,0.3,0.1,0.3,0.3C100,182.7,99.9,182.8,99.7,182.8z"
					/>
			</g>
			<g>
				<path class="st1" d="M101.9,190.5c0-0.2,0-0.4,0-0.6h0.3l0,0.3h0c0.1-0.2,0.4-0.4,0.7-0.4c0.5,0,0.8,0.4,0.8,1
					c0,0.7-0.4,1-0.9,1c-0.3,0-0.5-0.1-0.6-0.3h0v1h-0.3V190.5z M102.3,191c0,0.1,0,0.1,0,0.1c0.1,0.2,0.3,0.4,0.5,0.4
					c0.4,0,0.6-0.3,0.6-0.7c0-0.4-0.2-0.7-0.6-0.7c-0.2,0-0.5,0.2-0.5,0.4c0,0,0,0.1,0,0.1V191z"/>
				<path class="st1" d="M104.3,189.8l0.3,0.4c0.1,0.1,0.1,0.2,0.2,0.3h0c0.1-0.1,0.1-0.2,0.2-0.3l0.3-0.4h0.4l-0.7,0.9l0.7,1h-0.4
					l-0.3-0.4c-0.1-0.1-0.1-0.2-0.2-0.3h0c-0.1,0.1-0.1,0.2-0.2,0.3l-0.3,0.4h-0.4l0.7-1l-0.7-0.9H104.3z"/>
			</g>
		</g>
	</g>
	<g id="Icons_filled">
		<g>
			<path class="st2" d="M227.9,243.8c0,0,0.9-1.4,2-3c1.1-1.7,2-4.8,2-7v-13.2h35.8v13.2c0,2.2,0.9,5.3,2,7l2,3H227.9z"/>
			<polygon class="st3" points="231.9,220.5 231.9,227.2 267.7,231.1 267.7,220.5 			"/>
			<g>
				<path class="st1" d="M273.1,244.5h-46.6l0.8-1.2c0,0,0.9-1.4,2-3c1-1.5,1.9-4.6,1.9-6.6v-13.9h37.3v13.9c0,2,0.9,5,1.9,6.6
					L273.1,244.5z M229.3,243h41l-1.2-1.9c-1.2-1.8-2.1-5.1-2.1-7.4v-12.4h-34.3v12.4c0,2.3-0.9,5.6-2.1,7.4
					C230.1,241.8,229.7,242.5,229.3,243z"/>
			</g>
			<path class="st0" d="M315.2,224.3H184.5c-2.2,0-4-1.8-4-4v-76.6c0-2.2,1.8-4,4-4h130.7c2.2,0,4,1.8,4,4v76.6
				C319.1,222.5,317.3,224.3,315.2,224.3z"/>
			<g>
				<path class="st1" d="M315.2,225H184.5c-2.6,0-4.7-2.1-4.7-4.7v-76.6c0-2.6,2.1-4.7,4.7-4.7h130.7c2.6,0,4.7,2.1,4.7,4.7v76.6
					C319.9,222.9,317.8,225,315.2,225z M184.5,140.5c-1.8,0-3.2,1.4-3.2,3.2v76.6c0,1.8,1.4,3.2,3.2,3.2h130.7
					c1.8,0,3.2-1.4,3.2-3.2v-76.6c0-1.8-1.4-3.2-3.2-3.2H184.5z"/>
			</g>
			<rect x="186.9" y="145.8" class="st4" width="125.8" height="62.5"/>
			<g>
				<path class="st1" d="M313.5,209H186.2v-64h127.3V209z M187.7,207.5H312v-61H187.7V207.5z"/>
			</g>
		</g>
		<g>
			<path class="st4" d="M360.6,181.6c0-6.4-5.2-11.5-11.5-11.5c-6.4,0-11.5,5.2-11.5,11.5c0,4.8,2.9,8.9,7.1,10.6v4h8.9v-4
				C357.7,190.5,360.6,186.4,360.6,181.6z"/>
			<g>
				<path class="st1" d="M354.3,197h-10.4v-4.3c-4.3-2-7.1-6.3-7.1-11.1c0-6.8,5.5-12.3,12.3-12.3c6.8,0,12.3,5.5,12.3,12.3
					c0,4.8-2.8,9.1-7.1,11.1V197z M345.4,195.5h7.4v-3.7l0.5-0.2c4-1.7,6.6-5.6,6.6-9.9c0-5.9-4.8-10.8-10.8-10.8
					c-5.9,0-10.8,4.8-10.8,10.8c0,4.4,2.6,8.3,6.6,9.9l0.5,0.2V195.5z"/>
			</g>
			<path class="st5" d="M356.6,180.5l-1.3,0c-0.2-0.7-0.4-1.3-0.8-1.9l1-1c0.3-0.3,0.3-0.9,0-1.2l-0.7-0.7c-0.3-0.3-0.9-0.3-1.2,0
				l-1,1c-0.6-0.4-1.2-0.6-1.9-0.8v-1.3c0-0.5-0.4-0.9-0.9-0.9h-1c-0.5,0-0.9,0.4-0.9,0.9v1.3c-0.7,0.2-1.3,0.4-1.9,0.8l-0.9-1
				c-0.3-0.3-0.9-0.3-1.2,0l-0.7,0.7c-0.3,0.3-0.3,0.9,0,1.2l0.9,1c-0.4,0.6-0.7,1.2-0.8,1.9l-1.3,0c-0.5,0-0.9,0.4-0.9,0.9l0,1
				c0,0.5,0.4,0.9,0.9,0.9l1.3,0c0.2,0.7,0.4,1.4,0.8,1.9l-1,0.9c-0.3,0.3-0.3,0.9,0,1.2l0.7,0.7c0.3,0.3,0.9,0.3,1.2,0l1-0.9
				c0.6,0.4,1.2,0.7,1.9,0.8l0,1.3c0,0.5,0.4,0.9,0.9,0.9l1,0c0.5,0,0.9-0.4,0.9-0.9l0-1.3c0.7-0.2,1.4-0.4,1.9-0.8l0.9,1
				c0.3,0.3,0.9,0.3,1.2,0l0.7-0.7c0.3-0.3,0.3-0.9,0-1.2l-0.9-1c0.4-0.6,0.6-1.2,0.8-1.9l1.3,0c0.5,0,0.9-0.4,0.9-0.9v-1
				C357.5,180.9,357.1,180.5,356.6,180.5z M349.2,184.7c-1.5,0-2.8-1.2-2.8-2.8c0-1.5,1.2-2.8,2.8-2.8c1.5,0,2.8,1.2,2.8,2.8
				C352,183.4,350.7,184.7,349.2,184.7z"/>
			<g>
				<path class="st1" d="M349.7,190.9l-1,0c-0.9,0-1.6-0.7-1.6-1.6l0-0.8c-0.4-0.1-0.7-0.3-1.1-0.4l-0.5,0.5c-0.6,0.6-1.7,0.6-2.3,0
					l-0.7-0.7c-0.3-0.3-0.5-0.7-0.5-1.1c0-0.4,0.2-0.8,0.5-1.1l0.5-0.5c-0.2-0.3-0.3-0.7-0.4-1.1l-0.8,0c-0.4,0-0.8-0.2-1.1-0.5
					c-0.3-0.3-0.5-0.7-0.5-1.1l0-1c0-0.9,0.7-1.6,1.6-1.6l0.8,0c0.1-0.4,0.3-0.7,0.4-1.1l-0.5-0.5c-0.6-0.6-0.6-1.7,0-2.3l0.7-0.7
					c0.6-0.6,1.7-0.6,2.3,0l0.5,0.5c0.3-0.2,0.7-0.3,1-0.4v-0.8c0-0.9,0.7-1.6,1.6-1.6h1c0.9,0,1.6,0.7,1.6,1.6v0.8
					c0.4,0.1,0.7,0.3,1.1,0.4l0.5-0.5c0.6-0.6,1.7-0.6,2.3,0l0.7,0.7c0.3,0.3,0.5,0.7,0.5,1.1c0,0.4-0.2,0.8-0.5,1.1l-0.5,0.5
					c0.2,0.3,0.3,0.7,0.4,1.1l0.8,0c0.9,0,1.6,0.7,1.6,1.6v1c0,0.9-0.7,1.6-1.6,1.6l-0.8,0c-0.1,0.4-0.3,0.7-0.4,1.1l0.5,0.5
					c0.3,0.3,0.5,0.7,0.5,1.1c0,0.4-0.2,0.8-0.5,1.1l-0.7,0.7c-0.6,0.6-1.7,0.6-2.3,0l-0.5-0.5c-0.3,0.2-0.7,0.3-1.1,0.4l0,0.8
					C351.3,190.2,350.6,190.9,349.7,190.9z M345.8,186.2l0.5,0.3c0.5,0.3,1.1,0.6,1.7,0.7l0.6,0.1l0,1.9c0,0.1,0.1,0.1,0.1,0.1l1,0
					c0.1,0,0.1-0.1,0.1-0.1l0-1.9l0.6-0.1c0.6-0.1,1.2-0.4,1.7-0.7l0.5-0.3l1.4,1.4l0.7,0.5l-0.5-0.5l0.7-0.7l0,0l0-0.2l-1.4-1.4
					l0.3-0.5c0.3-0.5,0.6-1.1,0.7-1.7l0.1-0.6l1.9,0c0.1,0,0.1-0.1,0.1-0.1v-1c0-0.1-0.1-0.1-0.1-0.1l-1.9,0l-0.1-0.6
					c-0.1-0.6-0.4-1.2-0.7-1.7l-0.3-0.5l1.4-1.4l0-0.2l-0.7-0.7l-0.2,0l-1.4,1.4l-0.5-0.3c-0.5-0.3-1.1-0.6-1.7-0.7l-0.6-0.1v-1.9
					c0-0.1-0.1-0.1-0.1-0.1h-1c-0.1,0-0.1,0.1-0.1,0.1v1.9l-0.6,0.1c-0.6,0.1-1.2,0.4-1.7,0.7l-0.5,0.3l-1.4-1.4l-0.2,0l-0.7,0.7
					c0,0,0,0.1,0,0.2l1.4,1.4l-0.3,0.5c-0.3,0.5-0.6,1.1-0.7,1.7l-0.1,0.6l-1.9,0l0,0c-0.1,0-0.1,0.1-0.1,0.1l0,1l0.1,0.1l1.9,0
					l0.1,0.6c0.1,0.6,0.4,1.2,0.7,1.7l0.3,0.5l-1.4,1.4l0,0.2l0.7,0.7l0.2,0L345.8,186.2z M349.2,185.4c-1.9,0-3.5-1.6-3.5-3.5
					c0-1.9,1.6-3.5,3.5-3.5c1.9,0,3.5,1.6,3.5,3.5C352.7,183.8,351.2,185.4,349.2,185.4z M349.2,179.9c-1.1,0-2,0.9-2,2
					c0,1.1,0.9,2,2,2c1.1,0,2-0.9,2-2C351.2,180.8,350.3,179.9,349.2,179.9z"/>
			</g>
			<rect x="344.7" y="194.1" class="st6" width="8.8" height="7.2"/>
			<g>
				<path class="st1" d="M354.3,202h-10.4v-8.7h10.4V202z M345.4,200.5h7.4v-5.7h-7.4V200.5z"/>
			</g>
			<g>
				<path class="st1" d="M351.6,197.3h-5c-0.4,0-0.8-0.3-0.8-0.8c0-0.4,0.3-0.8,0.8-0.8h5c0.4,0,0.8,0.3,0.8,0.8
					C352.3,197,352,197.3,351.6,197.3z"/>
			</g>
			<g>
				<path class="st1" d="M351.6,199.5h-5c-0.4,0-0.8-0.3-0.8-0.8c0-0.4,0.3-0.8,0.8-0.8h5c0.4,0,0.8,0.3,0.8,0.8
					C352.3,199.2,352,199.5,351.6,199.5z"/>
			</g>
			<g>
				<path class="st1" d="M351.6,203h-5c-0.4,0-0.8-0.3-0.8-0.8c0-0.4,0.3-0.8,0.8-0.8h5c0.4,0,0.8,0.3,0.8,0.8
					C352.3,202.6,352,203,351.6,203z"/>
			</g>
		</g>
		<g>
			<polygon class="st7" points="290,84.8 286.2,79 272.7,79 268.8,84.8 			"/>
			<g>
				<path class="st1" d="M292.8,91.3c-0.2,0-0.3-0.1-0.4-0.2c-0.2-0.2-0.2-0.6,0-0.8l2.7-2.7l-2.5-2.5c-0.2-0.2-0.2-0.6,0-0.8
					c0.2-0.2,0.6-0.2,0.8,0l3.3,3.3l-3.5,3.5C293.1,91.2,292.9,91.3,292.8,91.3z"/>
			</g>
			<g>
				<path class="st1" d="M266.1,91.3c-0.2,0-0.3-0.1-0.4-0.2l-3.5-3.5l3.3-3.3c0.2-0.2,0.6-0.2,0.8,0c0.2,0.2,0.2,0.6,0,0.8
					l-2.5,2.5l2.7,2.7c0.2,0.2,0.2,0.6,0,0.8C266.4,91.2,266.3,91.3,266.1,91.3z"/>
			</g>
			<polygon class="st8" points="269.5,85.1 279.4,96.7 289.4,85.1 279.4,85.1 			"/>
			<g>
				<path class="st1" d="M279.4,97.6l-11.3-13.1h22.5L279.4,97.6z M270.8,85.7l8.6,10.1l8.6-10.1H270.8z"/>
			</g>
			<g>
				<polygon class="st1" points="269.3,85.2 268.3,84.5 272.4,78.4 286.5,78.4 290.5,84.5 289.5,85.1 285.8,79.6 273,79.6 				"/>
			</g>
			<g>
				
					<rect x="274.1" y="78.8" transform="matrix(0.8403 -0.5421 0.5421 0.8403 -0.644 162.0177)" class="st1" width="1.2" height="6.6"/>
			</g>
			<g>
				
					<rect x="280.7" y="81.5" transform="matrix(0.5424 -0.8401 0.8401 0.5424 60.985 276.1647)" class="st1" width="6.6" height="1.2"/>
			</g>
			<g>
				<rect x="274.6" y="81.4" transform="matrix(0.493 -0.87 0.87 0.493 69.4804 283.3197)" class="st1" width="6.5" height="1.2"/>
			</g>
			<g>
				
					<rect x="280.2" y="78.9" transform="matrix(0.9054 -0.4246 0.4246 0.9054 -8.2709 126.9693)" class="st1" width="1.2" height="6.3"/>
			</g>
			<g>
				
					<rect x="277.2" y="84.8" transform="matrix(0.9641 -0.2655 0.2655 0.9641 -14.149 77.0202)" class="st1" width="1.2" height="12.1"/>
			</g>
			<g>
				
					<rect x="274.8" y="90.3" transform="matrix(0.2217 -0.9751 0.9751 0.2217 129.9203 344.4792)" class="st1" width="11.9" height="1.2"/>
			</g>
		</g>
		<g>
			<path class="st9" d="M146.6,133.4c0,1.1-0.9,2.1-2.1,2.1h-19.1c-1.1,0-2.1-0.9-2.1-2.1V98.2c0-1.1,0.9-2.1,2.1-2.1h19.1
				c1.1,0,2.1,0.9,2.1,2.1V133.4z"/>
			<g>
				<path class="st1" d="M144.5,136.3h-19.1c-1.6,0-3-1.3-3-3V98.2c0-1.6,1.3-3,3-3h19.1c1.6,0,3,1.3,3,3v35.1
					C147.5,135,146.2,136.3,144.5,136.3z M125.4,97.1c-0.6,0-1.1,0.5-1.1,1.1v35.1c0,0.6,0.5,1.1,1.1,1.1h19.1
					c0.6,0,1.1-0.5,1.1-1.1V98.2c0-0.6-0.5-1.1-1.1-1.1H125.4z"/>
			</g>
			<rect x="126.6" y="100.7" class="st2" width="16.8" height="29.9"/>
			<g>
				<path class="st1" d="M144.3,131.5h-18.7V99.8h18.7V131.5z M127.5,129.6h15v-28h-15V129.6z"/>
			</g>
			<g>
				<path class="st1" d="M137.4,99.4h-4.9c-0.5,0-0.9-0.4-0.9-0.9c0-0.5,0.4-0.9,0.9-0.9h4.9c0.5,0,0.9,0.4,0.9,0.9
					C138.4,99,138,99.4,137.4,99.4z"/>
			</g>
			<rect x="130.1" y="105.3" class="st5" width="2.2" height="2.2"/>
			<rect x="133.9" y="105.3" class="st10" width="2.2" height="2.2"/>
			<rect x="137.7" y="105.3" class="st0" width="2.2" height="2.2"/>
			<rect x="130.1" y="109.6" class="st10" width="2.2" height="2.2"/>
			<rect x="133.9" y="109.6" class="st5" width="2.2" height="2.2"/>
			<rect x="137.7" y="109.6" class="st0" width="2.2" height="2.2"/>
			<rect x="130.1" y="113.9" class="st5" width="2.2" height="2.2"/>
			<rect x="133.9" y="113.9" class="st10" width="2.2" height="2.2"/>
			<rect x="137.7" y="113.9" class="st0" width="2.2" height="2.2"/>
			<rect x="130.1" y="118.2" class="st10" width="2.2" height="2.2"/>
			<rect x="133.9" y="118.2" class="st5" width="2.2" height="2.2"/>
			<rect x="137.7" y="118.2" class="st10" width="2.2" height="2.2"/>
			<rect x="130.1" y="122.5" class="st10" width="2.2" height="2.2"/>
			<rect x="133.9" y="122.5" class="st10" width="2.2" height="2.2"/>
			<rect x="137.7" y="122.5" class="st5" width="2.2" height="2.2"/>
			<rect x="138.1" y="104" class="st8" width="17.7" height="14.4"/>
			<g>
				<path class="st1" d="M156.6,119.4h-19.4v-16.3h19.4V119.4z M139.1,117.6h15.7V105h-15.7V117.6z"/>
			</g>
			<path class="st0" d="M151.1,110.3l-0.8,0c-0.1-0.4-0.2-0.8-0.5-1.1l0.5-0.5c0.2-0.2,0.2-0.5,0-0.7l-0.4-0.4
				c-0.2-0.2-0.5-0.2-0.7,0l-0.5,0.5c-0.3-0.2-0.7-0.4-1.1-0.5v-0.8c0-0.3-0.2-0.5-0.5-0.5h-0.6c-0.3,0-0.5,0.2-0.5,0.5v0.8
				c-0.4,0.1-0.8,0.2-1.1,0.4l-0.5-0.5c-0.2-0.2-0.5-0.2-0.7,0l-0.4,0.4c-0.2,0.2-0.2,0.5,0,0.7l0.5,0.5c-0.2,0.3-0.4,0.7-0.5,1.1
				l-0.8,0c-0.3,0-0.5,0.2-0.5,0.5l0,0.6c0,0.3,0.2,0.5,0.5,0.5l0.8,0c0.1,0.4,0.2,0.8,0.5,1.1l-0.5,0.5c-0.2,0.2-0.2,0.5,0,0.7
				l0.4,0.4c0.2,0.2,0.5,0.2,0.7,0l0.5-0.5c0.3,0.2,0.7,0.4,1.1,0.5l0,0.8c0,0.3,0.2,0.5,0.5,0.5l0.6,0c0.3,0,0.5-0.2,0.5-0.5l0-0.8
				c0.4-0.1,0.8-0.2,1.1-0.5l0.5,0.5c0.2,0.2,0.5,0.2,0.7,0l0.4-0.4c0.2-0.2,0.2-0.5,0-0.7l-0.5-0.5c0.2-0.3,0.4-0.7,0.5-1.1l0.8,0
				c0.3,0,0.5-0.2,0.5-0.5v-0.6C151.6,110.5,151.4,110.3,151.1,110.3z M147,112.7c-0.9,0-1.6-0.7-1.6-1.6c0-0.9,0.7-1.6,1.6-1.6
				c0.9,0,1.6,0.7,1.6,1.6C148.5,112,147.8,112.7,147,112.7z"/>
		</g>
		<g>
			<rect x="228.1" y="176.6" class="st5" width="92.2" height="17.1"/>
			<rect x="228.1" y="176.6" class="st11" width="92.2" height="8.6"/>
			<g>
				<path class="st1" d="M317,194.7h-85.6c-2.4,0-4.3-1.9-4.3-4.3v-10.6c0-2.4,1.9-4.3,4.3-4.3H317c2.4,0,4.3,1.9,4.3,4.3v10.6
					C321.3,192.8,319.3,194.7,317,194.7z M231.3,177.6c-1.2,0-2.3,1-2.3,2.3v10.6c0,1.2,1,2.3,2.3,2.3H317c1.2,0,2.3-1,2.3-2.3
					v-10.6c0-1.2-1-2.3-2.3-2.3H231.3z"/>
			</g>
			<g>
				<path class="st1" d="M308.7,186.1c-0.6,0-1-0.4-1-1v-8.6c0-0.6,0.5-1,1-1c0.6,0,1,0.4,1,1v8.6
					C309.7,185.7,309.2,186.1,308.7,186.1z"/>
			</g>
			<g>
				<path class="st1" d="M297,186.1c-0.6,0-1-0.4-1-1v-8.6c0-0.6,0.5-1,1-1c0.6,0,1,0.4,1,1v8.6C298,185.7,297.6,186.1,297,186.1z"
					/>
			</g>
			<g>
				<path class="st1" d="M285.4,186.1c-0.6,0-1-0.4-1-1v-8.6c0-0.6,0.4-1,1-1c0.6,0,1,0.4,1,1v8.6
					C286.4,185.7,285.9,186.1,285.4,186.1z"/>
			</g>
			<g>
				<path class="st1" d="M273.8,186.1c-0.6,0-1-0.4-1-1v-8.6c0-0.6,0.4-1,1-1c0.6,0,1,0.4,1,1v8.6
					C274.8,185.7,274.3,186.1,273.8,186.1z"/>
			</g>
			<g>
				<path class="st1" d="M262.1,186.1c-0.6,0-1-0.4-1-1v-8.6c0-0.6,0.4-1,1-1c0.6,0,1,0.4,1,1v8.6
					C263.1,185.7,262.7,186.1,262.1,186.1z"/>
			</g>
			<g>
				<path class="st1" d="M250.5,186.1c-0.6,0-1-0.4-1-1v-8.6c0-0.6,0.4-1,1-1c0.6,0,1,0.4,1,1v8.6
					C251.5,185.7,251,186.1,250.5,186.1z"/>
			</g>
			<g>
				<path class="st1" d="M238.9,186.1c-0.6,0-1-0.4-1-1v-8.6c0-0.6,0.4-1,1-1s1,0.4,1,1v8.6C239.9,185.7,239.4,186.1,238.9,186.1z"
					/>
			</g>
		</g>
		<g>
			<rect x="180.1" y="176.6" class="st5" width="92.2" height="17.1"/>
			<rect x="180.1" y="176.6" class="st11" width="92.2" height="8.6"/>
			<g>
				<path class="st1" d="M269,194.7h-85.6c-2.4,0-4.3-1.9-4.3-4.3v-10.6c0-2.4,1.9-4.3,4.3-4.3H269c2.4,0,4.3,1.9,4.3,4.3v10.6
					C273.3,192.8,271.3,194.7,269,194.7z M183.3,177.6c-1.2,0-2.3,1-2.3,2.3v10.6c0,1.2,1,2.3,2.3,2.3H269c1.2,0,2.3-1,2.3-2.3
					v-10.6c0-1.2-1-2.3-2.3-2.3H183.3z"/>
			</g>
			<g>
				<path class="st1" d="M260.7,186.1c-0.6,0-1-0.4-1-1v-8.6c0-0.6,0.5-1,1-1c0.6,0,1,0.4,1,1v8.6
					C261.7,185.7,261.2,186.1,260.7,186.1z"/>
			</g>
			<g>
				<path class="st1" d="M249,186.1c-0.6,0-1-0.4-1-1v-8.6c0-0.6,0.5-1,1-1c0.6,0,1,0.4,1,1v8.6C250,185.7,249.6,186.1,249,186.1z"
					/>
			</g>
			<g>
				<path class="st1" d="M237.4,186.1c-0.6,0-1-0.4-1-1v-8.6c0-0.6,0.4-1,1-1c0.6,0,1,0.4,1,1v8.6
					C238.4,185.7,237.9,186.1,237.4,186.1z"/>
			</g>
			<g>
				<path class="st1" d="M225.8,186.1c-0.6,0-1-0.4-1-1v-8.6c0-0.6,0.4-1,1-1c0.6,0,1,0.4,1,1v8.6
					C226.8,185.7,226.3,186.1,225.8,186.1z"/>
			</g>
			<g>
				<path class="st1" d="M214.1,186.1c-0.6,0-1-0.4-1-1v-8.6c0-0.6,0.4-1,1-1c0.6,0,1,0.4,1,1v8.6
					C215.1,185.7,214.7,186.1,214.1,186.1z"/>
			</g>
			<g>
				<path class="st1" d="M202.5,186.1c-0.6,0-1-0.4-1-1v-8.6c0-0.6,0.4-1,1-1c0.6,0,1,0.4,1,1v8.6
					C203.5,185.7,203,186.1,202.5,186.1z"/>
			</g>
			<g>
				<path class="st1" d="M190.9,186.1c-0.6,0-1-0.4-1-1v-8.6c0-0.6,0.4-1,1-1s1,0.4,1,1v8.6C191.9,185.7,191.4,186.1,190.9,186.1z"
					/>
			</g>
		</g>
		<g>
			<rect x="206.3" y="105.7" class="st0" width="87.1" height="101.5"/>
			<rect x="206.3" y="105.7" class="st4" width="87.1" height="7.2"/>
			<g>
				<path class="st1" d="M293.4,208c-0.4,0-0.8-0.3-0.8-0.8V106.5H207v100.8c0,0.4-0.3,0.8-0.8,0.8c-0.4,0-0.8-0.3-0.8-0.8V105h88.6
					v102.3C294.1,207.7,293.8,208,293.4,208z"/>
			</g>
			<path class="st6" d="M275.9,109.4c0,0.7-0.6,1.2-1.2,1.2c-0.7,0-1.2-0.6-1.2-1.2c0-0.7,0.6-1.2,1.2-1.2
				C275.4,108.1,275.9,108.7,275.9,109.4z"/>
			<path class="st6" d="M280.6,109.4c0,0.7-0.6,1.2-1.2,1.2c-0.7,0-1.2-0.6-1.2-1.2c0-0.7,0.6-1.2,1.2-1.2
				C280.1,108.1,280.6,108.7,280.6,109.4z"/>
			<path class="st6" d="M285.3,109.4c0,0.7-0.6,1.2-1.2,1.2c-0.7,0-1.2-0.6-1.2-1.2c0-0.7,0.6-1.2,1.2-1.2
				C284.8,108.1,285.3,108.7,285.3,109.4z"/>
			<g>
				<rect x="206.3" y="112.2" class="st1" width="87.1" height="1.5"/>
			</g>
			<rect x="211.7" y="180.4" class="st12" width="75.6" height="25.7"/>
			<rect x="237.9" y="120.8" class="st11" width="49.7" height="23.3"/>
			<rect x="212.1" y="120.8" class="st13" width="23.3" height="23.3"/>
			<rect x="212.1" y="147.5" class="st5" width="23.3" height="23.3"/>
			<rect x="238.2" y="147.5" class="st4" width="23.3" height="23.3"/>
			<rect x="264.3" y="147.5" class="st13" width="23.3" height="23.3"/>
			<g>
				<polygon class="st0" points="246.8,142.4 254,133.8 257.1,137 263.2,128.8 274.5,142.4 				"/>
				<path class="st0" d="M283.1,129.9c0,2.1-1.7,3.8-3.8,3.8c-2.1,0-3.8-1.7-3.8-3.8c0-2.1,1.7-3.8,3.8-3.8
					C281.4,126.1,283.1,127.8,283.1,129.9z"/>
				<path class="st0" d="M258.1,127c0,0.5-0.4,0.9-0.9,0.9h-16.5c-0.5,0-0.9-0.4-0.9-0.9l0,0c0-0.5,0.4-0.9,0.9-0.9h16.5
					C257.7,126.1,258.1,126.5,258.1,127L258.1,127z"/>
				<path class="st0" d="M265.8,123.3c0,0.5-0.4,0.9-0.9,0.9h-12.7c-0.5,0-0.9-0.4-0.9-0.9l0,0c0-0.5,0.4-0.9,0.9-0.9H265
					C265.4,122.4,265.8,122.8,265.8,123.3L265.8,123.3z"/>
				<path class="st0" d="M260.7,127c0,0.5-0.4,0.9-0.9,0.9c-0.5,0-0.9-0.4-0.9-0.9c0-0.5,0.4-0.9,0.9-0.9
					C260.3,126.1,260.7,126.5,260.7,127z"/>
				<path class="st0" d="M263.5,127c0,0.5-0.4,0.9-0.9,0.9s-0.9-0.4-0.9-0.9c0-0.5,0.4-0.9,0.9-0.9S263.5,126.5,263.5,127z"/>
				<path class="st0" d="M250.8,123.3c0,0.5-0.4,0.9-0.9,0.9c-0.5,0-0.9-0.4-0.9-0.9c0-0.5,0.4-0.9,0.9-0.9
					C250.3,122.4,250.8,122.8,250.8,123.3z"/>
				<path class="st0" d="M247.7,123.3c0,0.5-0.4,0.9-0.9,0.9c-0.5,0-0.9-0.4-0.9-0.9c0-0.5,0.4-0.9,0.9-0.9
					C247.3,122.4,247.7,122.8,247.7,123.3z"/>
				<path class="st0" d="M266.3,127c0,0.5-0.4,0.9-0.9,0.9c-0.5,0-0.9-0.4-0.9-0.9c0-0.5,0.4-0.9,0.9-0.9
					C265.9,126.1,266.3,126.5,266.3,127z"/>
			</g>
			<rect x="219" y="175.2" class="st14" width="61.7" height="1.8"/>
		</g>
		<g>
			<rect x="217.5" y="251.4" class="st15" width="61.8" height="8.7"/>
			<rect x="217.5" y="251.4" class="st4" width="61.8" height="4.4"/>
			<rect x="217.5" y="251.4" class="st8" width="5.8" height="8.7"/>
			<rect x="217.5" y="251.4" class="st13" width="5.8" height="4.4"/>
			<polygon class="st16" points="292.5,255.8 279.3,251.4 279.3,260.2 			"/>
			<polygon class="st9" points="292.5,255.8 286.8,253.9 286.8,257.7 			"/>
			<g>
				<path class="st1" d="M280.1,261h-63.5v-10.4h63.5V261z M218.3,259.3h60.1v-7.1h-60.1V259.3z"/>
			</g>
			<g>
				<path class="st1" d="M280.4,261c-0.3,0-0.7-0.2-0.8-0.6c-0.2-0.4,0.1-0.9,0.5-1.1l9.9-3.6l-9.9-3.6c-0.4-0.2-0.7-0.6-0.5-1.1
					c0.2-0.4,0.6-0.7,1.1-0.5l14.3,5.2l-14.3,5.2C280.6,261,280.5,261,280.4,261z"/>
			</g>
		</g>
		<g>
			<path class="st4" d="M212.7,76.4c0,1.3-1.1,2.4-2.4,2.4h-42.1c-1.3,0-2.4-1.1-2.4-2.4v-9.6c0-1.3,1.1-2.4,2.4-2.4h42.1
				c1.3,0,2.4,1.1,2.4,2.4V76.4z"/>
			<path class="st12" d="M212.7,73.4v-6.6c0-1.3-1.1-2.4-2.4-2.4h-42.1c-1.3,0-2.4,1.1-2.4,2.4v6.6H212.7z"/>
			<path class="st1" d="M210.3,63.8h-42.1c-1.7,0-3,1.3-3,3v9.6c0,1.7,1.3,3,3,3h42.1c1.7,0,3-1.3,3-3v-9.6
				C213.3,65.1,212,63.8,210.3,63.8z M210.3,78.2h-42.1c-1,0-1.8-0.8-1.8-1.8v-9.6c0-1,0.8-1.8,1.8-1.8h42.1c1,0,1.8,0.8,1.8,1.8
				v9.6C212.1,77.4,211.3,78.2,210.3,78.2z"/>
			<path class="st1" d="M194.9,65.8h-13.2c-0.3,0-0.6,0.3-0.6,0.6c0,0.3,0.3,0.6,0.6,0.6h13.2c0.3,0,0.6-0.3,0.6-0.6
				C195.5,66.1,195.2,65.8,194.9,65.8z"/>
			<path class="st1" d="M178.7,65.8h-8.4c-1.7,0-3,1.3-3,3v4.8c0,0.3,0.3,0.6,0.6,0.6c0.3,0,0.6-0.3,0.6-0.6v-4.8
				c0-1,0.8-1.8,1.8-1.8h8.4c0.3,0,0.6-0.3,0.6-0.6C179.3,66.1,179,65.8,178.7,65.8z"/>
			<g>
				<path class="st9" d="M183.2,72.1l4.1-2v0.8l-3.3,1.5v0l3.3,1.5v0.8l-4.1-2V72.1z"/>
				<path class="st9" d="M187.9,75.1l2.1-6.3h0.7l-2.1,6.3H187.9z"/>
				<path class="st9" d="M195.4,72.7l-4.1,2v-0.8l3.3-1.5v0l-3.3-1.5v-0.8l4.1,2V72.7z"/>
			</g>
		</g>
		<g>
			<g>
				<path class="st8" d="M182.4,129.9c0,1.2-1,2.1-2.1,2.1h-6.9c-1.2,0-2.1-1-2.1-2.1V123c0-1.2,1-2.1,2.1-2.1h6.9
					c1.2,0,2.1,1,2.1,2.1V129.9z"/>
				<g>
					<path class="st1" d="M180.3,132h-6.9c-1.6,0-2.9-1.3-2.9-2.9v-6.9c0-1.6,1.3-2.9,2.9-2.9h6.9c1.6,0,2.9,1.3,2.9,2.9v6.9
						C183.2,130.7,181.9,132,180.3,132z M173.4,120.8c-0.8,0-1.4,0.6-1.4,1.4v6.9c0,0.8,0.6,1.4,1.4,1.4h6.9c0.8,0,1.4-0.6,1.4-1.4
						v-6.9c0-0.8-0.6-1.4-1.4-1.4H173.4z"/>
				</g>
				<path class="st2" d="M197.7,129.9c0,1.2-1,2.1-2.1,2.1h-6.9c-1.2,0-2.1-1-2.1-2.1V123c0-1.2,1-2.1,2.1-2.1h6.9
					c1.2,0,2.1,1,2.1,2.1V129.9z"/>
				<g>
					<path class="st1" d="M195.6,132h-6.9c-1.6,0-2.9-1.3-2.9-2.9v-6.9c0-1.6,1.3-2.9,2.9-2.9h6.9c1.6,0,2.9,1.3,2.9,2.9v6.9
						C198.5,130.7,197.2,132,195.6,132z M188.7,120.8c-0.8,0-1.4,0.6-1.4,1.4v6.9c0,0.8,0.6,1.4,1.4,1.4h6.9c0.8,0,1.4-0.6,1.4-1.4
						v-6.9c0-0.8-0.6-1.4-1.4-1.4H188.7z"/>
				</g>
				<path class="st3" d="M213,129.9c0,1.2-1,2.1-2.1,2.1H204c-1.2,0-2.1-1-2.1-2.1V123c0-1.2,1-2.1,2.1-2.1h6.9c1.2,0,2.1,1,2.1,2.1
					V129.9z"/>
				<g>
					<path class="st1" d="M210.9,132H204c-1.6,0-2.9-1.3-2.9-2.9v-6.9c0-1.6,1.3-2.9,2.9-2.9h6.9c1.6,0,2.9,1.3,2.9,2.9v6.9
						C213.7,130.7,212.5,132,210.9,132z M204,120.8c-0.8,0-1.4,0.6-1.4,1.4v6.9c0,0.8,0.6,1.4,1.4,1.4h6.9c0.8,0,1.4-0.6,1.4-1.4
						v-6.9c0-0.8-0.6-1.4-1.4-1.4H204z"/>
				</g>
				<path class="st0" d="M228.3,128.8c0,1.2-1,2.2-2.1,2.2h-6.9c-1.2,0-2.1-1-2.1-2.2v-7c0-1.2,1.4-1.4,1.4-1.4h8.3
					c0,0,1.5,0.2,1.5,1.4V128.8z"/>
				<path class="st5" d="M228.3,130.6c0,0.8-1,1.4-2.1,1.4h-6.9c-1.2,0-2.1-0.6-2.1-1.4v-4.6c0-0.8,0.1-1.4,0.1-1.4h10.9
					c0,0,0.1,0.6,0.1,1.4V130.6z"/>
				<g>
					<path class="st1" d="M226.2,132h-6.9c-1.6,0-2.9-1.3-2.9-2.9v-6.9c0-1.6,1.3-2.9,2.9-2.9h6.9c1.6,0,2.9,1.3,2.9,2.9v6.9
						C229,130.7,227.7,132,226.2,132z M219.3,120.8c-0.8,0-1.4,0.6-1.4,1.4v6.9c0,0.8,0.6,1.4,1.4,1.4h6.9c0.8,0,1.4-0.6,1.4-1.4
						v-6.9c0-0.8-0.6-1.4-1.4-1.4H219.3z"/>
				</g>
			</g>
			<g>
				<path class="st0" d="M237.8,88.3l-12.6,12.6c-0.5,0.5-0.5,1.2-0.1,1.7l-1,1c-0.2,0.2-0.2,0.5,0,0.7l0.9,0.9
					c0.2,0.2,0.5,0.2,0.7,0l1-1c0.5,0.4,1.2,0.4,1.7-0.1l12.6-12.6c0.5-0.5,0.5-1.3,0-1.8l-1.4-1.4
					C239.1,87.8,238.3,87.8,237.8,88.3z"/>
				<path class="st12" d="M224.5,104.7l0.4,0.4c0.2,0.2,0.5,0.2,0.7,0l1-1c0.5,0.4,1.2,0.4,1.7-0.1l12.6-12.6c0.5-0.5,0.5-1.3,0-1.8
					l-0.7-0.7L224.5,104.7z"/>
				<path class="st5" d="M227,113.8c0,1.7-1.4,3.1-3.1,3.1s-3.1-1.4-3.1-3.1c0-1.7,3.3-6.2,3.3-6.2S227,112.2,227,113.8z"/>
				<g>
					<path class="st1" d="M223.9,117.7c-2.1,0-3.8-1.7-3.8-3.8c0-1.8,2.9-5.8,3.4-6.6l0.6-0.9l0.6,0.9c0.5,0.8,3,4.7,3,6.6
						C227.7,115.9,226,117.7,223.9,117.7z M224.1,109.1c-1.2,1.7-2.5,4-2.5,4.8c0,1.3,1,2.3,2.3,2.3c1.3,0,2.3-1,2.3-2.3
						C226.2,113,225.1,110.7,224.1,109.1z"/>
				</g>
				<g>
					<path class="st1" d="M225.3,106.1c-0.3,0-0.6-0.1-0.9-0.4l-0.9-0.9c-0.5-0.5-0.5-1.3,0-1.8l0.6-0.6c-0.2-0.7-0.1-1.5,0.5-2
						l12.6-12.6c0.8-0.8,2.1-0.8,2.8,0l1.4,1.4c0.8,0.8,0.8,2,0,2.8l-12.6,12.6c-0.4,0.4-0.9,0.6-1.4,0.6l0,0c-0.2,0-0.4,0-0.6-0.1
						l-0.6,0.6C226,105.9,225.6,106.1,225.3,106.1z M224.8,103.9l0.5,0.5l1.3-1.3l0.5,0.4c0.2,0.2,0.5,0.1,0.7,0l12.6-12.6
						c0.2-0.2,0.2-0.5,0-0.7l-1.4-1.4c-0.2-0.2-0.5-0.2-0.7,0l-12.6,12.6c-0.2,0.2-0.2,0.5,0,0.7l0.4,0.5L224.8,103.9z"/>
				</g>
				<path class="st7" d="M239.7,92.9l3.9-3.9c0.9-0.9,0.9-2.4,0-3.4l0,0c-0.9-0.9-2.4-0.9-3.4,0l-3.9,3.9L239.7,92.9z"/>
				<path class="st8" d="M239.7,92.9l3.9-3.9c0.9-0.9,0.9-2.4,0-3.4l-5.6,5.6L239.7,92.9z"/>
				<g>
					<path class="st1" d="M239.7,94l-4.4-4.4l4.4-4.4c1.2-1.2,3.2-1.2,4.4,0c0.6,0.6,0.9,1.4,0.9,2.2c0,0.8-0.3,1.6-0.9,2.2
						L239.7,94z M237.4,89.6l2.3,2.3l3.4-3.4c0.3-0.3,0.5-0.7,0.5-1.1c0-0.4-0.2-0.8-0.5-1.1c-0.6-0.6-1.7-0.6-2.3,0L237.4,89.6z"/>
				</g>
				<path class="st1" d="M241.8,93.8c0.4,0.4,0.4,1,0,1.3l0,0c-0.4,0.4-1,0.4-1.3,0l-6.3-6.3c-0.4-0.4-0.4-1,0-1.3l0,0
					c0.4-0.4,1-0.4,1.3,0L241.8,93.8z"/>
			</g>
		</g>
		<g>
			<g>
				<path class="st1" d="M142.7,188.6c-3.1,0-6.1-1.2-8.3-3.4c-0.3-0.3-0.3-0.8,0-1.1c0.3-0.3,0.8-0.3,1.1,0c1.9,1.9,4.5,3,7.3,3
					c2.7,0,5.3-1.1,7.3-3c0.3-0.3,0.8-0.3,1.1,0c0.3,0.3,0.3,0.8,0,1.1C148.8,187.4,145.8,188.6,142.7,188.6z"/>
			</g>
			<g>
				<path class="st1" d="M142.4,174.2c-0.4,0-0.8-0.3-0.8-0.8v-5.7c0-0.4,0.3-0.8,0.8-0.8c0.4,0,0.8,0.3,0.8,0.8v5.7
					C143.2,173.8,142.8,174.2,142.4,174.2z"/>
			</g>
			<path class="st4" d="M134.1,198.9l9.1-23.8c0.2-0.4-0.1-0.8-0.5-0.8h-2.1c-0.5,0-0.9,0.4-1,0.8l-5.6,23.7
				C133.9,199.3,133.9,199.3,134.1,198.9z"/>
			<g>
				<path class="st1" d="M133.9,200L133.9,200h-0.4l-0.2-0.3c-0.2-0.3-0.2-0.7-0.1-1l5.6-23.7c0.2-0.8,0.9-1.4,1.7-1.4h2.1
					c0.5,0,0.9,0.2,1.1,0.5c0.2,0.4,0.3,0.8,0.1,1.2l-9.1,23.8C134.7,199.5,134.5,200,133.9,200z M140.6,175.1
					c-0.1,0-0.3,0.1-0.3,0.2L137,189l5.3-14H140.6z"/>
			</g>
			<path class="st4" d="M151.3,198.9l-9.1-23.8c-0.2-0.4,0.1-0.8,0.5-0.8h2.1c0.5,0,0.9,0.4,1,0.8l5.6,23.7
				C151.5,199.3,151.5,199.3,151.3,198.9z"/>
			<g>
				<path class="st1" d="M151.5,200c-0.5,0-0.7-0.5-0.9-0.8l-9.1-23.8c-0.2-0.4-0.1-0.9,0.1-1.2c0.2-0.3,0.6-0.5,1.1-0.5h2.1
					c0.8,0,1.6,0.6,1.7,1.4l5.6,23.7c0.1,0.3,0.2,0.7-0.1,1l-0.2,0.3L151.5,200z M143,175.1l5.3,14l-3.2-13.7c0-0.1-0.2-0.2-0.3-0.2
					H143z"/>
			</g>
			<path class="st5" d="M145.9,173.7c0,1.9-1.6,3.5-3.5,3.5c-1.9,0-3.5-1.6-3.5-3.5c0-1.9,1.6-3.5,3.5-3.5
				C144.4,170.1,145.9,171.7,145.9,173.7z"/>
			<g>
				<path class="st1" d="M142.4,177.9c-2.4,0-4.3-1.9-4.3-4.3c0-2.4,1.9-4.3,4.3-4.3c2.4,0,4.3,1.9,4.3,4.3
					C146.7,176,144.8,177.9,142.4,177.9z M142.4,170.9c-1.5,0-2.8,1.2-2.8,2.8c0,1.5,1.2,2.8,2.8,2.8c1.5,0,2.8-1.2,2.8-2.8
					C145.2,172.1,144,170.9,142.4,170.9z"/>
			</g>
			<path class="st1" d="M143.1,173.7c0,0.4-0.3,0.7-0.7,0.7c-0.4,0-0.7-0.3-0.7-0.7c0-0.4,0.3-0.7,0.7-0.7
				C142.8,173,143.1,173.3,143.1,173.7z"/>
			<rect x="141.2" y="161.6" class="st4" width="2.3" height="6.2"/>
			<g>
				<path class="st1" d="M144.3,168.5h-3.8v-7.7h3.8V168.5z M142,167h0.8v-4.7H142V167z"/>
			</g>
			<g>
				<path class="st1" d="M163.3,200h-1.1v-1.5h1.1V200z M160.1,200h-2v-1.5h2V200z M156.1,200h-2v-1.5h2V200z M152.1,200h-2v-1.5h2
					V200z M148.1,200h-2v-1.5h2V200z M144.1,200h-2v-1.5h2V200z M140.1,200h-2v-1.5h2V200z M136.1,200h-2v-1.5h2V200z M132.1,200h-2
					v-1.5h2V200z M128.1,200h-2v-1.5h2V200z M124.1,200h-2v-1.5h2V200z"/>
			</g>
		</g>
		<g>
			<path class="st12" d="M324.4,154.4h-35.8c-0.6,0-1.1-0.5-1.1-1.1v-35.8c0-0.6,0.5-1.1,1.1-1.1h35.8c0.6,0,1.1,0.5,1.1,1.1v35.8
				C325.5,153.9,325,154.4,324.4,154.4z"/>
			<path class="st4" d="M287.6,121.6v-4.1c0-0.6,0.5-1.1,1.1-1.1h35.8c0.6,0,1.1,0.5,1.1,1.1v4.1
				C325.5,122.2,287.6,122.2,287.6,121.6z"/>
			<g>
				<path class="st1" d="M324.4,155.2h-35.8c-1.1,0-1.9-0.9-1.9-1.9v-35.8c0-1.1,0.9-1.9,1.9-1.9h35.8c1.1,0,1.9,0.9,1.9,1.9v35.8
					C326.4,154.4,325.5,155.2,324.4,155.2z M288.7,117.4c-0.1,0-0.2,0.1-0.2,0.2v35.8c0,0.1,0.1,0.2,0.2,0.2h35.8
					c0.1,0,0.2-0.1,0.2-0.2v-35.8c0-0.1-0.1-0.2-0.2-0.2H288.7z"/>
			</g>
			<g>
				<path class="st1" d="M325.5,122.9h-37.9c-0.5,0-0.9-0.4-0.9-0.9c0-0.5,0.4-0.9,0.9-0.9h37.9c0.5,0,0.9,0.4,0.9,0.9
					C326.4,122.5,326,122.9,325.5,122.9z"/>
			</g>
			<path class="st1" d="M292.2,119.1c0,0.3-0.3,0.6-0.6,0.6s-0.6-0.3-0.6-0.6s0.3-0.6,0.6-0.6S292.2,118.8,292.2,119.1z"/>
			<path class="st1" d="M295,119.1c0,0.3-0.3,0.6-0.6,0.6c-0.3,0-0.6-0.3-0.6-0.6s0.3-0.6,0.6-0.6C294.7,118.5,295,118.8,295,119.1z
				"/>
			<path class="st1" d="M297.7,119.1c0,0.3-0.3,0.6-0.6,0.6c-0.3,0-0.6-0.3-0.6-0.6s0.3-0.6,0.6-0.6
				C297.5,118.5,297.7,118.8,297.7,119.1z"/>
			<rect x="290.5" y="125.3" class="st1" width="1.8" height="1.8"/>
			<rect x="290.5" y="129.2" class="st1" width="1.8" height="1.8"/>
			<rect x="290.5" y="133.1" class="st1" width="1.8" height="1.8"/>
			<rect x="290.5" y="136.9" class="st1" width="1.8" height="1.8"/>
			<rect x="290.5" y="140.8" class="st1" width="1.8" height="1.8"/>
			<rect x="290.5" y="144.7" class="st1" width="1.8" height="1.8"/>
			<rect x="290.5" y="148.6" class="st1" width="1.8" height="1.8"/>
			<g>
				<path class="st1" d="M305.1,127.1H295c-0.5,0-0.9-0.4-0.9-0.9c0-0.5,0.4-0.9,0.9-0.9h10.1c0.5,0,0.9,0.4,0.9,0.9
					C306,126.7,305.6,127.1,305.1,127.1z"/>
			</g>
			<g>
				<path class="st1" d="M308.3,130.9h-11.1c-0.5,0-0.9-0.4-0.9-0.9c0-0.5,0.4-0.9,0.9-0.9h11.1c0.5,0,0.9,0.4,0.9,0.9
					C309.2,130.5,308.8,130.9,308.3,130.9z"/>
			</g>
			<g>
				<path class="st1" d="M299.7,134.8h-3.6c-0.5,0-0.9-0.4-0.9-0.9c0-0.5,0.4-0.9,0.9-0.9h3.6c0.5,0,0.9,0.4,0.9,0.9
					C300.6,134.4,300.2,134.8,299.7,134.8z"/>
			</g>
			<g>
				<path class="st8" d="M306.1,134.8h-3.6c-0.5,0-0.9-0.4-0.9-0.9c0-0.5,0.4-0.9,0.9-0.9h3.6c0.5,0,0.9,0.4,0.9,0.9
					C307,134.4,306.6,134.8,306.1,134.8z"/>
			</g>
			<g>
				<path class="st1" d="M320.7,134.8h-11.9c-0.5,0-0.9-0.4-0.9-0.9c0-0.5,0.4-0.9,0.9-0.9h11.9c0.5,0,0.9,0.4,0.9,0.9
					C321.6,134.4,321.2,134.8,320.7,134.8z"/>
			</g>
			<g>
				<path class="st1" d="M311.6,138.7h-13.4c-0.5,0-0.9-0.4-0.9-0.9c0-0.5,0.4-0.9,0.9-0.9h13.4c0.5,0,0.9,0.4,0.9,0.9
					C312.5,138.3,312.1,138.7,311.6,138.7z"/>
			</g>
			<g>
				<path class="st5" d="M318,138.7h-3.5c-0.5,0-0.9-0.4-0.9-0.9c0-0.5,0.4-0.9,0.9-0.9h3.5c0.5,0,0.9,0.4,0.9,0.9
					C318.9,138.3,318.5,138.7,318,138.7z"/>
			</g>
			<g>
				<path class="st1" d="M313.7,142.6H295c-0.5,0-0.9-0.4-0.9-0.9c0-0.5,0.4-0.9,0.9-0.9h18.8c0.5,0,0.9,0.4,0.9,0.9
					C314.6,142.2,314.2,142.6,313.7,142.6z"/>
			</g>
			<g>
				<path class="st8" d="M308.5,146.5h-10.1c-0.5,0-0.9-0.4-0.9-0.9c0-0.5,0.4-0.9,0.9-0.9h10.1c0.5,0,0.9,0.4,0.9,0.9
					C309.4,146.1,309,146.5,308.5,146.5z"/>
			</g>
			<g>
				<path class="st1" d="M315.8,146.5h-4.5c-0.5,0-0.9-0.4-0.9-0.9c0-0.5,0.4-0.9,0.9-0.9h4.5c0.5,0,0.9,0.4,0.9,0.9
					C316.7,146.1,316.3,146.5,315.8,146.5z"/>
			</g>
			<g>
				<path class="st5" d="M305.1,150.4H295c-0.5,0-0.9-0.4-0.9-0.9c0-0.5,0.4-0.9,0.9-0.9h10.1c0.5,0,0.9,0.4,0.9,0.9
					C306,150,305.6,150.4,305.1,150.4z"/>
			</g>
			<g>
				<path class="st1" d="M318.9,150.4h-10.1c-0.5,0-0.9-0.4-0.9-0.9c0-0.5,0.4-0.9,0.9-0.9h10.1c0.5,0,0.9,0.4,0.9,0.9
					C319.7,150,319.3,150.4,318.9,150.4z"/>
			</g>
			<g>
				<path class="st1" d="M320.7,127.1h-7.4c-0.5,0-0.9-0.4-0.9-0.9c0-0.5,0.4-0.9,0.9-0.9h7.4c0.5,0,0.9,0.4,0.9,0.9
					C321.6,126.7,321.2,127.1,320.7,127.1z"/>
			</g>
			<g>
				<path class="st5" d="M310.3,127.1h-2.7c-0.5,0-0.9-0.4-0.9-0.9c0-0.5,0.4-0.9,0.9-0.9h2.7c0.5,0,0.9,0.4,0.9,0.9
					C311.2,126.7,310.8,127.1,310.3,127.1z"/>
			</g>
		</g>
		<g>
			<path class="st0" d="M376.1,144.8h-31c-0.6,0-1-0.4-1-1v-19c0-0.6,0.4-1,1-1h31c0.6,0,1,0.4,1,1v19
				C377.1,144.4,376.7,144.8,376.1,144.8z"/>
			<g>
				<path class="st1" d="M376.1,145.6h-31c-1,0-1.8-0.8-1.8-1.8v-19c0-1,0.8-1.8,1.8-1.8h31c1,0,1.8,0.8,1.8,1.8v19
					C377.9,144.8,377.1,145.6,376.1,145.6z M345.1,124.5c-0.1,0-0.3,0.1-0.3,0.3v19c0,0.1,0.1,0.3,0.3,0.3h31c0.1,0,0.3-0.1,0.3-0.3
					v-19c0-0.1-0.1-0.3-0.3-0.3H345.1z"/>
			</g>
			<rect x="347" y="126.5" class="st5" width="27.4" height="15.5"/>
			<rect x="347" y="126.5" class="st4" width="13.6" height="15.5"/>
			<g>
				<path class="st1" d="M375.2,142.7h-28.9v-17h28.9V142.7z M347.8,141.2h25.9v-14h-25.9V141.2z"/>
			</g>
			<path class="st0" d="M369,131.3c0,1-0.8,1.9-1.9,1.9c-1,0-1.9-0.8-1.9-1.9s0.8-1.9,1.9-1.9C368.1,129.4,369,130.3,369,131.3z"/>
			<polygon class="st0" points="347.8,141.1 352.3,135.7 354.2,137.7 358.1,132.5 365.2,141.1 			"/>
			<g>
				<rect x="359.9" y="115.2" class="st1" width="1.5" height="37"/>
			</g>
			<g>
				<path class="st1" d="M370.9,120.7h-2.3v-1.5h2.3V120.7z M365.6,120.7h-3v-1.5h3V120.7z M359.6,120.7h-3v-1.5h3V120.7z
					 M353.6,120.7h-3v-1.5h3V120.7z"/>
			</g>
			<g>
				<path class="st1" d="M370.8,148.6h-3v-1.5h3V148.6z M364.8,148.6h-3v-1.5h3V148.6z M358.8,148.6h-3v-1.5h3V148.6z M352.8,148.6
					h-2.3v-1.5h2.3V148.6z"/>
			</g>
		</g>
		<g>
			<g>
				<path class="st1" d="M345.2,93.5l-1.9-1.9l0.9-0.9l1.9,1.9L345.2,93.5z M341.5,89.7l-1.9-1.9l0.9-0.9l1.9,1.9L341.5,89.7z
					 M337.7,86l-1.9-1.9l0.9-0.9l1.9,1.9L337.7,86z M334,82.2l-1.9-1.9l0.9-0.9l1.9,1.9L334,82.2z M330.2,78.4l-1.9-1.9l0.9-0.9
					l1.9,1.9L330.2,78.4z M326.4,74.7l-1.9-1.9l0.9-0.9l1.9,1.9L326.4,74.7z M322.7,70.9l-1.9-1.9l0.9-0.9l1.9,1.9L322.7,70.9z
					 M318.9,67.2l-1.9-1.9l0.9-0.9l1.9,1.9L318.9,67.2z"/>
			</g>
			<g>
				<path class="st1" d="M318.9,93.5l-0.9-0.9l1.9-1.9l0.9,0.9L318.9,93.5z M322.7,89.7l-0.9-0.9l1.9-1.9l0.9,0.9L322.7,89.7z
					 M326.5,86l-0.9-0.9l1.9-1.9l0.9,0.9L326.5,86z M330.2,82.2l-0.9-0.9l1.9-1.9l0.9,0.9L330.2,82.2z M334,78.4l-0.9-0.9l1.9-1.9
					l0.9,0.9L334,78.4z M337.8,74.7l-0.9-0.9l1.9-1.9l0.9,0.9L337.8,74.7z M341.5,70.9l-0.9-0.9l1.9-1.9l0.9,0.9L341.5,70.9z
					 M345.3,67.2l-0.9-0.9l1.9-1.9l0.9,0.9L345.3,67.2z"/>
			</g>
			<path class="st0" d="M346.1,79.4c0,0-5.8,7.9-14,7.9c-8.2,0-14-7.9-14-7.9s5.8-7.9,14-7.9C340.3,71.5,346.1,79.4,346.1,79.4z"/>
			<g>
				<path class="st1" d="M332.1,88c-8.5,0-14.3-7.9-14.6-8.2l-0.3-0.4l0.3-0.4c0.2-0.3,6.1-8.2,14.6-8.2c8.5,0,14.3,7.9,14.6,8.2
					l0.3,0.4l-0.3,0.4C346.4,80.1,340.6,88,332.1,88z M318.9,79.4c1.3,1.6,6.4,7.3,13.2,7.3c6.8,0,11.9-5.7,13.2-7.3
					c-1.3-1.6-6.4-7.3-13.2-7.3C325.3,72.1,320.2,77.8,318.9,79.4z"/>
			</g>
			<path class="st4" d="M340.3,77.9l-1.5,0c-0.2-0.8-0.5-1.5-0.9-2.2l1.1-1.1c0.4-0.4,0.4-1,0-1.4l-0.8-0.8c-0.4-0.4-1-0.4-1.4,0
				l-1.1,1.1c-0.7-0.4-1.4-0.7-2.2-0.9v-1.5c0-0.5-0.4-1-1-1h-1.1c-0.5,0-1,0.4-1,1v1.5c-0.8,0.2-1.5,0.5-2.1,0.9l-1.1-1.1
				c-0.4-0.4-1-0.4-1.4,0l-0.8,0.8c-0.4,0.4-0.4,1,0,1.4l1,1.1c-0.4,0.6-0.7,1.4-0.9,2.1l-1.5,0c-0.5,0-1,0.4-1,1l0,1.1
				c0,0.5,0.4,1,1,1l1.5,0c0.2,0.8,0.5,1.5,0.9,2.2l-1.1,1.1c-0.4,0.4-0.4,1,0,1.4l0.8,0.8c0.4,0.4,1,0.4,1.4,0l1.1-1.1
				c0.7,0.4,1.4,0.7,2.2,0.9l0,1.5c0,0.5,0.4,1,1,1l1.1,0c0.5,0,1-0.4,1-1l0-1.5c0.8-0.2,1.5-0.5,2.2-0.9l1.1,1.1
				c0.4,0.4,1,0.4,1.4,0l0.8-0.8c0.4-0.4,0.4-1,0-1.4l-1.1-1.1c0.4-0.7,0.7-1.4,0.9-2.2l1.5,0c0.5,0,1-0.4,1-1v-1.1
				C341.3,78.3,340.8,77.9,340.3,77.9z M332.1,82.5c-1.7,0-3.1-1.4-3.1-3.1c0-1.7,1.4-3.1,3.1-3.1c1.7,0,3.1,1.4,3.1,3.1
				C335.2,81.1,333.8,82.5,332.1,82.5z"/>
			<path class="st8" d="M340.3,77.9l-1.5,0c-0.2-0.8-0.5-1.5-0.9-2.2l1.1-1.1c0.4-0.4,0.4-1,0-1.4l-0.8-0.8c-0.4-0.4-1-0.4-1.4,0
				l-1.1,1.1c-0.7-0.4-1.4-0.7-2.2-0.9v-1.5c0-0.5-0.4-1-1-1h-0.6v6.1c0,0,0,0,0,0c1.7,0,3.1,1.4,3.1,3.1c0,1.7-1.4,3.1-3.1,3.1
				c0,0,0,0,0,0v6.1l0.5,0c0.5,0,1-0.4,1-1l0-1.5c0.8-0.2,1.5-0.5,2.2-0.9l1.1,1.1c0.4,0.4,1,0.4,1.4,0l0.8-0.8c0.4-0.4,0.4-1,0-1.4
				l-1.1-1.1c0.4-0.7,0.7-1.4,0.9-2.2l1.5,0c0.5,0,1-0.4,1-1v-1.1C341.3,78.3,340.8,77.9,340.3,77.9z"/>
			<g>
				<path class="st1" d="M332.6,89.3l-1.1,0c-0.4,0-0.8-0.2-1.1-0.5c-0.3-0.3-0.5-0.7-0.5-1.2l0-1c-0.5-0.1-0.9-0.3-1.4-0.6
					l-0.7,0.7c-0.6,0.6-1.7,0.6-2.3,0l-0.8-0.8c-0.6-0.6-0.6-1.7,0-2.3l0.7-0.7c-0.2-0.4-0.4-0.9-0.6-1.4l-1,0
					c-0.4,0-0.8-0.2-1.1-0.5c-0.3-0.3-0.5-0.7-0.5-1.2l0-1.1c0-0.9,0.7-1.6,1.6-1.6l1,0c0.1-0.5,0.3-0.9,0.6-1.4l-0.7-0.7
					c-0.6-0.6-0.6-1.7,0-2.3l0.8-0.8c0.6-0.6,1.7-0.6,2.3,0l0.7,0.7c0.4-0.2,0.9-0.4,1.3-0.6v-1c0-0.9,0.7-1.6,1.6-1.6h1.1
					c0.9,0,1.6,0.7,1.6,1.6v1c0.5,0.1,0.9,0.3,1.4,0.6l0.7-0.7c0.6-0.6,1.7-0.6,2.3,0l0.8,0.8c0.3,0.3,0.5,0.7,0.5,1.1
					c0,0.4-0.2,0.9-0.5,1.2l-0.7,0.7c0.2,0.4,0.4,0.9,0.6,1.4l1,0c0.9,0,1.6,0.7,1.6,1.6V80c0,0.9-0.7,1.6-1.6,1.6l-1,0
					c-0.1,0.5-0.3,0.9-0.6,1.4l0.7,0.7c0.3,0.3,0.5,0.7,0.5,1.1c0,0.4-0.2,0.8-0.5,1.2l-0.8,0.8c-0.6,0.6-1.7,0.6-2.3,0l-0.7-0.7
					c-0.4,0.2-0.9,0.4-1.4,0.6l0,1C334.3,88.5,333.5,89.3,332.6,89.3z M328.3,84.4l0.4,0.3c0.6,0.4,1.3,0.7,1.9,0.8l0.5,0.1l0,2
					c0,0.1,0.1,0.2,0.1,0.2c0,0,0.1,0.1,0.2,0.1l1.1,0c0.2,0,0.3-0.1,0.3-0.3l0-2l0.5-0.1c0.7-0.2,1.3-0.4,1.9-0.8l0.5-0.3l1.4,1.4
					c0.2,0.2,0.3,0.2,0.4,0l0.8-0.8c0.1-0.1,0.1-0.1,0.1-0.2c0-0.1,0-0.1-0.1-0.2l-1.4-1.4l0.3-0.4c0.4-0.6,0.7-1.3,0.8-1.9l0.1-0.5
					l2,0c0.2,0,0.3-0.1,0.3-0.3v-1.1c0-0.2-0.1-0.3-0.3-0.3l-2,0l-0.1-0.5c-0.2-0.7-0.4-1.3-0.8-1.9l-0.3-0.4l1.4-1.4
					c0.1-0.1,0.1-0.2,0.1-0.2c0-0.1,0-0.1-0.1-0.2l-0.8-0.8c-0.2-0.2-0.3-0.2-0.4,0l-1.4,1.4l-0.5-0.3c-0.6-0.4-1.2-0.6-1.9-0.8
					l-0.5-0.1v-2c0-0.2-0.1-0.3-0.3-0.3h-1.1c-0.2,0-0.3,0.1-0.3,0.3v2l-0.5,0.1c-0.7,0.1-1.3,0.4-1.9,0.8l-0.5,0.3l-1.4-1.4
					c-0.2-0.1-0.3-0.2-0.4,0l-0.8,0.8c-0.1,0.1-0.1,0.3,0,0.4l1.4,1.4l-0.3,0.4c-0.4,0.6-0.7,1.2-0.8,1.9l-0.1,0.5l-2,0l0,0
					c-0.2,0-0.3,0.1-0.3,0.3l0,1.1c0,0.1,0.1,0.2,0.1,0.2c0,0,0.1,0.1,0.2,0.1l2,0l0.1,0.5c0.2,0.7,0.4,1.4,0.8,1.9l0.3,0.5
					l-1.4,1.4c-0.1,0.1-0.1,0.3,0,0.4l0.8,0.8c0.2,0.2,0.3,0.2,0.4,0L328.3,84.4z M332.1,83.1c-2.1,0-3.7-1.7-3.7-3.7
					c0-2.1,1.7-3.7,3.7-3.7c2.1,0,3.7,1.7,3.7,3.7C335.8,81.5,334.2,83.1,332.1,83.1z M332.1,77c-1.3,0-2.4,1.1-2.4,2.4
					c0,1.3,1.1,2.4,2.4,2.4c1.3,0,2.4-1.1,2.4-2.4C334.5,78.1,333.4,77,332.1,77z"/>
			</g>
			<path class="st6" d="M333.6,79.4c0,0.8-0.7,1.5-1.5,1.5c-0.8,0-1.5-0.7-1.5-1.5c0-0.8,0.7-1.5,1.5-1.5
				C332.9,77.9,333.6,78.6,333.6,79.4z"/>
		</g>
		<g>
			<path class="st0" d="M271.2,52.4c0-0.3,0.1-0.5,0.1-0.8c0-3.1-2.6-5.7-5.7-5.7c-0.9,0-1.7,0.2-2.4,0.6c-1.6-2-4-3.4-6.8-3.4
				c-4.7,0-8.5,3.8-8.5,8.5h-2.9c-3.4,0-6.1,2.7-6.1,6.1c0,3.4,2.7,6.1,6.1,6.1h23.3c3.4,0,6.1-2.7,6.1-6.1
				C274.4,55.4,273.1,53.4,271.2,52.4z"/>
			<g>
				<path class="st1" d="M260.2,52.3c-0.4,0-0.8-0.3-0.8-0.8c0-3.5,2.9-6.4,6.4-6.4c0.4,0,0.8,0.3,0.8,0.8c0,0.4-0.3,0.8-0.8,0.8
					c-2.7,0-4.9,2.2-4.9,4.9C260.9,52,260.6,52.3,260.2,52.3z"/>
			</g>
			<path class="st4" d="M238.9,57.7c0,3.4,2.7,6.1,6.1,6.1h23.3c3.4,0,6.1-2.7,6.1-6.1c0-0.1,0-0.2,0-0.3h-35.5
				C238.9,57.5,238.9,57.6,238.9,57.7z"/>
			<g>
				<path class="st1" d="M268.3,64.5h-23.3c-3.8,0-6.8-3.1-6.8-6.8c0-3.8,3.1-6.8,6.8-6.8h2.2c0.4-4.7,4.4-8.5,9.2-8.5
					c2.7,0,5.2,1.2,7,3.2c0.7-0.3,1.5-0.4,2.2-0.4c3.6,0,6.5,2.9,6.5,6.4c0,0.1,0,0.3,0,0.4c1.9,1.3,3.1,3.4,3.1,5.7
					C275.1,61.5,272.1,64.5,268.3,64.5z M244.9,52.4c-2.9,0-5.3,2.4-5.3,5.3c0,2.9,2.4,5.3,5.3,5.3h23.3c2.9,0,5.3-2.4,5.3-5.3
					c0-1.9-1.1-3.7-2.8-4.7l-0.5-0.2l0.1-0.7c0-0.2,0-0.3,0-0.5c0-2.7-2.2-4.9-5-4.9c-0.7,0-1.4,0.2-2.1,0.5l-0.6,0.3l-0.4-0.5
					c-1.5-1.9-3.7-3.1-6.2-3.1c-4.3,0-7.7,3.5-7.7,7.7v0.8H244.9z"/>
			</g>
		</g>
	</g>
</g>
</svg>
