<svg width="15" height="14" viewBox="0 0 15 14" version="1.1" xmlns="http://www.w3.org/2000/svg" xmlns:xlink="http://www.w3.org/1999/xlink">
<title>Vector</title>
<desc>Created using Figma</desc>
<g id="Canvas" transform="translate(-3468 1217)">
<g id="Vector">
<use xlink:href="#path0_fill" transform="matrix(1 0 0 1 3468 -1217)" fill="#1D1D1B"/>
</g>
</g>
<defs>
<path id="path0_fill" d="M 6.78267 7.00215L 0.143033 13.2424C -0.0414274 13.4158 -0.0414274 13.6967 0.143033 13.87C 0.235146 13.9568 0.356088 14 0.476796 14C 0.597738 14 0.718446 13.9568 0.810559 13.87L 7.50012 7.58282L 14.1897 13.87C 14.282 13.9568 14.4027 14 14.5234 14C 14.6441 14 14.7651 13.9568 14.8572 13.87C 15.0417 13.6967 15.0417 13.4158 14.8572 13.2424L 8.2178 7.00215L 14.8617 0.757456C 15.0461 0.584091 15.0461 0.303225 14.8617 0.129859C 14.6772 -0.0432864 14.3784 -0.0432864 14.1941 0.129859L 7.50035 6.42147L 0.805871 0.130079C 0.621411 -0.0430661 0.322806 -0.0430661 0.138345 0.130079C -0.0461151 0.303445 -0.0461151 0.584311 0.138345 0.757677L 6.78267 7.00215Z"/>
</defs>
</svg>
