<svg width="20" height="28" viewBox="0 0 20 28" version="1.1" xmlns="http://www.w3.org/2000/svg" xmlns:xlink="http://www.w3.org/1999/xlink">
<title>Vector</title>
<desc>Created using Figma</desc>
<g id="Canvas" transform="translate(-3137 -436)">
<rect x="3137" y="436" width="20" height="28" fill="#E5E5E5"/>
<clipPath id="clip-0" clip-rule="evenodd">
<path d="M 2614 -199L 3814 -199L 3814 3843L 2614 3843L 2614 -199Z" fill="#FFFFFF"/>
</clipPath>
<g id="Product page" clip-path="url(#clip-0)">
<path d="M 2614 -199L 3814 -199L 3814 3843L 2614 3843L 2614 -199Z" fill="#FFFFFF"/>
<g id="Group 10">
<g id="Rectangle 5.4">
<mask id="mask0_outline_ins">
<use xlink:href="#path0_fill" fill="white" transform="translate(3126 430)"/>
</mask>
<g mask="url(#mask0_outline_ins)">
<use xlink:href="#path1_stroke_2x" transform="translate(3126 430)" fill="#AEAEAE"/>
</g>
</g>
</g>
<g id="cemetery-cross">
<g id="Group">
<g id="Group">
<g id="Vector">
<use xlink:href="#path2_fill" transform="translate(3137.07 436.073)" fill="#030104"/>
</g>
<g id="Vector">
<use xlink:href="#path3_fill" transform="translate(3137 436)" fill="#030104"/>
</g>
</g>
</g>
</g>
</g>
</g>
<defs>
<path id="path0_fill" d="M 0 5C 0 2.23858 2.23858 0 5 0L 36 0C 38.7614 0 41 2.23858 41 5L 41 36C 41 38.7614 38.7614 41 36 41L 5 41C 2.23858 41 0 38.7614 0 36L 0 5Z"/>
<path id="path1_stroke_2x" d="M 5 40.5C 4.44458 40.5021 3.9543 40.4115 3.46047 40.2299L 3.11838 41.1696C 3.69187 41.3765 4.35375 41.4979 5 41.5L 5 40.5ZM 0.770094 37.5395C 0.588454 37.0457 0.497933 36.5554 0.5 36L -0.5 36C -0.497933 36.6463 -0.376498 37.3081 -0.169572 37.8816L 0.770094 37.5395ZM 0.5 36L 0.5 33.7037L -0.5 33.7037L -0.5 36L 0.5 36ZM 0.5 27.963L 0.5 23.3704L -0.5 23.3704L -0.5 27.963L 0.5 27.963ZM 0.5 17.6296L 0.5 13.037L -0.5 13.037L -0.5 17.6296L 0.5 17.6296ZM 0.5 7.2963L 0.5 5L -0.5 5L -0.5 7.2963L 0.5 7.2963ZM 0.5 5C 0.497933 4.44458 0.588454 3.9543 0.770094 3.46047L -0.169572 3.11838C -0.376498 3.69187 -0.497933 4.35375 -0.5 5L 0.5 5ZM 3.46047 0.770094C 3.9543 0.588454 4.44458 0.497933 5 0.5L 5 -0.5C 4.35375 -0.497933 3.69187 -0.376498 3.11838 -0.169572L 3.46047 0.770094ZM 5 0.5L 7.2963 0.5L 7.2963 -0.5L 5 -0.5L 5 0.5ZM 13.037 0.5L 17.6296 0.5L 17.6296 -0.5L 13.037 -0.5L 13.037 0.5ZM 23.3704 0.5L 27.963 0.5L 27.963 -0.5L 23.3704 -0.5L 23.3704 0.5ZM 33.7037 0.5L 36 0.5L 36 -0.5L 33.7037 -0.5L 33.7037 0.5ZM 36 0.5C 36.5554 0.497933 37.0457 0.588454 37.5395 0.770094L 37.8816 -0.169572C 37.3081 -0.376498 36.6463 -0.497933 36 -0.5L 36 0.5ZM 40.2299 3.46047C 40.4115 3.9543 40.5021 4.44458 40.5 5L 41.5 5C 41.4979 4.35375 41.3765 3.69187 41.1696 3.11838L 40.2299 3.46047ZM 40.5 5L 40.5 7.2963L 41.5 7.2963L 41.5 5L 40.5 5ZM 40.5 13.037L 40.5 17.6296L 41.5 17.6296L 41.5 13.037L 40.5 13.037ZM 40.5 23.3704L 40.5 27.963L 41.5 27.963L 41.5 23.3704L 40.5 23.3704ZM 40.5 33.7037L 40.5 36L 41.5 36L 41.5 33.7037L 40.5 33.7037ZM 40.5 36C 40.5021 36.5554 40.4115 37.0457 40.2299 37.5395L 41.1696 37.8816C 41.3765 37.3081 41.4979 36.6463 41.5 36L 40.5 36ZM 37.5395 40.2299C 37.0457 40.4115 36.5554 40.5021 36 40.5L 36 41.5C 36.6463 41.4979 37.3081 41.3765 37.8816 41.1696L 37.5395 40.2299ZM 36 40.5L 33.7037 40.5L 33.7037 41.5L 36 41.5L 36 40.5ZM 27.963 40.5L 23.3704 40.5L 23.3704 41.5L 27.963 41.5L 27.963 40.5ZM 17.6296 40.5L 13.037 40.5L 13.037 41.5L 17.6296 41.5L 17.6296 40.5ZM 7.2963 40.5L 5 40.5L 5 41.5L 7.2963 41.5L 7.2963 40.5ZM 5 40C 4.49 40.0041 4.08551 39.9291 3.63152 39.7601L 2.94733 41.6394C 3.56066 41.859 4.30833 41.9959 5 42L 5 40ZM 1.23993 37.3685C 1.07093 36.9145 0.995866 36.51 1 36L -1 36C -0.995866 36.6917 -0.858974 37.4393 -0.639405 38.0527L 1.23993 37.3685ZM 1 36L 1 33.7037L -1 33.7037L -1 36L 1 36ZM 1 27.963L 1 23.3704L -1 23.3704L -1 27.963L 1 27.963ZM 1 17.6296L 1 13.037L -1 13.037L -1 17.6296L 1 17.6296ZM 1 7.2963L 1 5L -1 5L -1 7.2963L 1 7.2963ZM 1 5C 0.995866 4.49 1.07093 4.08551 1.23993 3.63152L -0.639405 2.94733C -0.858974 3.56066 -0.995866 4.30833 -1 5L 1 5ZM 3.63152 1.23993C 4.08551 1.07093 4.49 0.995866 5 1L 5 -1C 4.30833 -0.995866 3.56066 -0.858974 2.94733 -0.639405L 3.63152 1.23993ZM 5 1L 7.2963 1L 7.2963 -1L 5 -1L 5 1ZM 13.037 1L 17.6296 1L 17.6296 -1L 13.037 -1L 13.037 1ZM 23.3704 1L 27.963 1L 27.963 -1L 23.3704 -1L 23.3704 1ZM 33.7037 1L 36 1L 36 -1L 33.7037 -1L 33.7037 1ZM 36 1C 36.51 0.995866 36.9145 1.07093 37.3685 1.23993L 38.0527 -0.639405C 37.4393 -0.858974 36.6917 -0.995866 36 -1L 36 1ZM 39.7601 3.63152C 39.9291 4.08551 40.0041 4.49 40 5L 42 5C 41.9959 4.30833 41.859 3.56066 41.6394 2.94733L 39.7601 3.63152ZM 40 5L 40 7.2963L 42 7.2963L 42 5L 40 5ZM 40 13.037L 40 17.6296L 42 17.6296L 42 13.037L 40 13.037ZM 40 23.3704L 40 27.963L 42 27.963L 42 23.3704L 40 23.3704ZM 40 33.7037L 40 36L 42 36L 42 33.7037L 40 33.7037ZM 40 36C 40.0041 36.51 39.9291 36.9145 39.7601 37.3685L 41.6394 38.0527C 41.859 37.4393 41.9959 36.6917 42 36L 40 36ZM 37.3685 39.7601C 36.9145 39.9291 36.51 40.0041 36 40L 36 42C 36.6917 41.9959 37.4393 41.859 38.0527 41.6394L 37.3685 39.7601ZM 36 40L 33.7037 40L 33.7037 42L 36 42L 36 40ZM 27.963 40L 23.3704 40L 23.3704 42L 27.963 42L 27.963 40ZM 17.6296 40L 13.037 40L 13.037 42L 17.6296 42L 17.6296 40ZM 7.2963 40L 5 40L 5 42L 7.2963 42L 7.2963 40Z"/>
<path id="path2_fill" d="M 19.8511 10.2705L 19.8539 10.2566L 19.8464 10.16L 19.8517 10.0625L 19.849 10.0487L 19.8514 10.0186C 19.7652 8.69644 19.0164 7.91721 17.6651 7.62855C 17.5479 7.02648 17.3897 6.42451 17.1583 5.82316C 16.7184 5.73754 16.312 5.74841 15.9139 5.78061C 15.7314 7.10569 15.1135 7.59014 14.1057 7.89754L 12.2396 7.88822L 12.1794 5.72263C 12.4642 4.70537 12.9323 4.07359 14.247 3.85978C 14.2701 3.45857 14.272 3.05053 14.1767 2.61091C 13.5734 2.39296 12.9712 2.24708 12.3689 2.14282C 12.0521 0.790303 11.2597 0.0557033 9.94234 4.44336e-10L 9.92132 0.000517688L 9.81332 0.00745471L 9.70552 0.00279552L 9.68408 0.00289905C 8.36921 0.0882141 7.59248 0.840104 7.30516 2.19955C 6.70569 2.31697 6.10684 2.476 5.50943 2.70699C 5.42317 3.1493 5.43368 3.55704 5.46594 3.95731C 6.78463 4.14213 7.26693 4.76315 7.57414 5.77378L 7.56156 7.9401L 5.69596 7.99104C 4.68282 7.7061 4.0546 7.23594 3.84169 5.915C 3.44266 5.89171 3.03621 5.88995 2.59833 5.9852C 2.38191 6.59162 2.23537 7.1969 2.1318 7.80146C 0.786825 8.12025 0.0555468 8.91583 1.6354e-07 10.2398L 0.00164893 10.2696L 0.000412157 10.2837L 0.0068016 10.381L 0.0025763 10.4779L 0.00412207 10.4917L 0.00298869 10.522C 0.0880091 11.8442 0.836704 12.6242 2.18827 12.912C 2.30524 13.514 2.46508 14.1159 2.69468 14.7172C 3.13473 14.8043 3.54087 14.7922 3.93959 14.7615C 4.12292 13.4349 4.74105 12.9504 5.74738 12.643L 7.61381 12.6526L 7.77808 24.2682C 7.49365 25.2856 7.02526 25.9169 5.7108 26.1308C 5.6873 26.5319 5.68565 26.94 5.78201 27.3798C 6.38426 27.5975 6.98652 27.7446 7.58856 27.8488C 7.58877 27.8497 7.58918 27.8507 7.58908 27.8516C 9.28794 27.8145 10.9921 27.5705 12.682 27.7857C 13.2715 27.669 13.8609 27.5105 14.4489 27.2831C 14.5348 26.8409 14.524 26.4334 14.4918 26.0327C 13.1728 25.8484 12.6907 25.2275 12.3832 24.2167L 12.2917 12.6002L 14.1573 12.5491C 15.1716 12.8342 15.8 13.3049 16.0113 14.6267C 16.4103 14.6487 16.8167 14.6515 17.2547 14.555C 17.4726 13.9489 17.6177 13.3437 17.7212 12.7392C 19.0662 12.4216 19.7974 11.6247 19.8542 10.3009L 19.8511 10.2705Z"/>
<path id="path3_fill" d="M 7.58032 28L 7.58228 27.9826C 6.94735 27.8693 6.37354 27.7185 5.83024 27.5221L 5.79231 27.5084L 5.78366 27.4689C 5.68132 27.0019 5.68946 26.5653 5.7109 26.1997L 5.7143 26.1411L 5.77201 26.1317C 7.07834 25.9192 7.50942 25.2856 7.77777 24.3319L 7.61464 12.7988L 5.83086 12.7896C 4.8878 13.0796 4.26679 13.5267 4.08469 14.8448L 4.07665 14.9032L 4.01801 14.9078C 3.81046 14.9237 3.64887 14.931 3.49398 14.931C 3.22872 14.931 2.98643 14.9085 2.75343 14.8623L 2.71385 14.8545L 2.69942 14.8168C 2.48971 14.2675 2.32585 13.688 2.19878 13.0467C 0.826501 12.7396 0.0876999 11.9167 0.00298862 10.6001L 0.00391599 10.5681L 0.00226723 10.5537L 0.00669853 10.4511L 0.000103087 10.3561L 0.00175185 10.3366L 8.80597e-08 10.3171C 0.0552376 8.99276 0.775592 8.15338 2.14097 7.81481C 2.25371 7.17081 2.40479 6.58769 2.60245 6.03376L 2.61616 5.99545L 2.65573 5.98686C 2.92295 5.92877 3.19275 5.90165 3.5049 5.90165C 3.63012 5.90165 3.76161 5.90599 3.91888 5.91511L 3.97731 5.91852L 3.98669 5.97661C 4.19826 7.28915 4.82895 7.72194 5.77799 7.99083L 7.56197 7.94217L 7.57414 5.85795C 7.28424 4.91079 6.83894 4.28698 5.5289 4.1033L 5.47099 4.09522L 5.46625 4.03662C 5.43688 3.67217 5.41915 3.23628 5.51087 2.76632L 5.5186 2.72656L 5.55621 2.71196C 6.09633 2.50313 6.67271 2.33881 7.31701 2.21022C 7.6234 0.830683 8.44248 0.0881105 9.75231 0.00310613L 9.77807 0.00289905L 9.88937 0.00755825L 10.0134 0C 11.3298 0.0554962 12.1651 0.779535 12.5014 2.15213C 13.1481 2.26644 13.7284 2.41802 14.2742 2.61526L 14.3122 2.62892L 14.3207 2.66858C 14.4215 3.13274 14.4148 3.55269 14.3927 3.93733L 14.3893 3.99604L 14.3315 4.00546C 13.0259 4.21781 12.5944 4.85136 12.3254 5.80515L 12.3833 7.88864L 14.1677 7.89754C 15.1115 7.60784 15.7329 7.16108 15.9143 5.84398L 15.9223 5.78568L 15.9806 5.78102C 16.1828 5.76467 16.3498 5.75711 16.5063 5.75711C 16.7695 5.75711 17.011 5.77916 17.2448 5.82461L 17.2845 5.83238L 17.299 5.87017C 17.5073 6.41105 17.6713 6.99065 17.8001 7.64066C 19.1721 7.94859 19.9112 8.7715 19.9968 10.0873L 19.9972 10.0926L 19.9952 10.118L 19.9976 10.1308L 19.9919 10.2375L 20 10.3347L 19.9974 10.3477L 19.9999 10.3722L 19.9996 10.3776C 19.943 11.6962 19.2223 12.5355 17.8575 12.8727C 17.7436 13.5236 17.5924 14.1065 17.3959 14.6534L 17.3822 14.6914L 17.3428 14.7001C 17.0765 14.7588 16.8057 14.7861 16.4906 14.7861C 16.4905 14.7861 16.4905 14.7861 16.4905 14.7861C 16.368 14.7861 16.2377 14.7821 16.0798 14.7734L 16.0211 14.7702L 16.0118 14.7119C 15.8017 13.3984 15.1708 12.9652 14.2208 12.6962L 12.4377 12.7452L 12.5286 24.2791C 12.8186 25.2266 13.2641 25.8507 14.5745 26.0337L 14.6324 26.0418L 14.6371 26.1004C 14.6678 26.4841 14.6838 26.9035 14.5931 27.3708L 14.5854 27.4107L 14.5477 27.4253C 13.9985 27.6375 13.4165 27.803 12.7685 27.9313L 12.757 27.9335L 12.7453 27.932C 12.2851 27.8735 11.7907 27.8449 11.234 27.8449C 10.5745 27.8449 9.90133 27.8851 9.25033 27.9239C 8.73021 27.9549 8.19236 27.987 7.66328 27.9986L 7.58032 28ZM 5.91773 27.3978C 6.46073 27.5914 7.03567 27.7395 7.67379 27.85L 7.6809 27.8512C 8.20071 27.8393 8.73 27.8077 9.24198 27.7772C 9.89504 27.7383 10.5704 27.698 11.2343 27.698C 11.7926 27.698 12.2892 27.7263 12.7522 27.7847C 13.3724 27.6615 13.9309 27.5035 14.4578 27.3026C 14.5325 26.8917 14.5225 26.5163 14.4966 26.1701C 13.1539 25.9652 12.6805 25.2782 12.3864 24.3115L 12.3832 24.2907L 12.291 12.6022L 14.2392 12.5488L 14.2498 12.5518C 15.2194 12.8244 15.9139 13.2842 16.1465 14.6298C 16.276 14.6362 16.3866 14.6393 16.4909 14.6393L 16.491 14.6393C 16.7797 14.6393 17.0294 14.6156 17.2726 14.5651C 17.4643 14.0241 17.6116 13.4462 17.7223 12.8L 17.7304 12.7522L 17.7774 12.7411C 19.1182 12.4245 19.7974 11.651 19.8539 10.3763L 19.8502 10.3402L 19.8531 10.3254L 19.8466 10.239L 19.8513 10.1413L 19.8483 10.1263L 19.8511 10.0914C 19.7665 8.81965 19.0702 8.06134 17.7228 7.7735L 17.6756 7.76346L 17.6663 7.71594C 17.5408 7.07059 17.3808 6.49606 17.1776 5.96097C 16.9653 5.92235 16.7454 5.90351 16.5065 5.90351C 16.3692 5.90351 16.223 5.90962 16.0505 5.92256C 15.8473 7.27259 15.163 7.74731 14.1998 8.04105L 14.1891 8.04425L 12.2416 8.03452L 12.179 5.78693L 12.182 5.77616C 12.4546 4.80301 12.9127 4.10547 14.2502 3.87065C 14.2685 3.52359 14.2701 3.14806 14.1867 2.73961C 13.6468 2.54723 13.0715 2.39959 12.4294 2.28849L 12.3818 2.28021L 12.3707 2.233C 12.0547 0.882866 11.2831 0.200449 10.0122 0.146713L 9.89081 0.154064L 9.77529 0.149508L 9.75736 0.149612C 8.49256 0.231821 7.73624 0.931425 7.44944 2.28818L 7.43944 2.3356L 7.39214 2.34482C 6.75237 2.4701 6.18083 2.63037 5.64659 2.83424C 5.57126 3.24642 5.58126 3.62133 5.60723 3.96663C 6.94972 4.17215 7.42316 4.85923 7.71707 5.82575L 7.72027 5.83652L 7.70728 8.08494L 5.75985 8.13785L 5.74924 8.13485C 4.78062 7.86244 4.08634 7.40294 3.8523 6.0583C 3.72307 6.05147 3.61146 6.04826 3.5048 6.04826C 3.21882 6.04826 2.97015 6.07166 2.72612 6.12177C 2.5332 6.66969 2.38603 7.24774 2.27649 7.88719L 2.26824 7.93492L 2.22125 7.946C 0.878132 8.26438 0.199102 9.03956 0.145617 10.3161L 0.147162 10.3389L 0.146132 10.3563L 0.152316 10.4493L 0.148399 10.5484L 0.149945 10.5622L 0.148605 10.598C 0.230534 11.8663 0.926465 12.6261 2.27618 12.9134L 2.32338 12.9235L 2.33265 12.9711C 2.45642 13.608 2.61626 14.1825 2.82113 14.7261C 3.0327 14.7652 3.25324 14.7842 3.49388 14.7842C 3.63022 14.7842 3.77243 14.7784 3.94856 14.7658C 4.1525 13.4152 4.83648 12.9399 5.79891 12.646L 5.80952 12.6428L 7.7586 12.6528L 7.92401 24.351L 7.92112 24.3613C 7.64916 25.3341 7.19129 26.0315 5.85322 26.2666C 5.83487 26.613 5.83312 26.9882 5.91773 27.3978Z"/>
</defs>
</svg>
