<svg xmlns="http://www.w3.org/2000/svg" xmlns:xlink="http://www.w3.org/1999/xlink" width="345" height="362" viewBox="0 0 345 362"><defs><path id="pt35a" d="M1169.62 1116.1c69.23 0 125.35 56.16 125.35 125.45 0 69.28-56.12 125.45-125.35 125.45-69.22 0-125.34-56.17-125.34-125.45 0-69.29 56.12-125.46 125.34-125.46zm-99.15 125.78c0 54.98 44.54 99.56 99.48 99.56 54.95 0 99.49-44.58 99.49-99.56 0-55-44.54-99.57-99.49-99.57-54.94 0-99.48 44.58-99.48 99.57z"/><path id="pt35e" d="M1010 1402v-333h159.97v333z"/><path id="pt35f" d="M1169.96 1239.2l113.58 76.02-63.18 62.56-50.4 1.35z"/><path id="pt35g" d="M1169.28 1154.44h.68v172.21h-.68z"/><path id="pt35h" d="M1169.18 1239.2l.25-.63 76.58 51.77-.26.62z"/><path id="pt35i" d="M1169.6 1237.84c.93 0 1.68.76 1.68 1.7 0 .92-.75 1.68-1.67 1.68-.92 0-1.67-.76-1.67-1.69 0-.93.75-1.69 1.67-1.69z"/><mask id="pt35c" width="2" height="2" x="-1" y="-1"><path fill="#fff" d="M1044 1116h251v251h-251z"/><use xlink:href="#pt35a"/></mask><filter id="pt35b" width="371.9" height="379.8" x="979.1" y="1106" filterUnits="userSpaceOnUse"><feOffset dx="-8.9" dy="16.8" in="SourceGraphic" result="FeOffset1023Out"/><feGaussianBlur in="FeOffset1023Out" result="FeGaussianBlur1024Out" stdDeviation="18.4 18.4"/></filter><clipPath id="pt35d"><use xlink:href="#pt35a"/></clipPath></defs><g><g transform="translate(-989 -1068)"><g filter="url(#pt35b)"><use fill="none" stroke-opacity=".48" stroke-width="0" mask="url(&quot;#pt35c&quot;)" xlink:href="#pt35a"/><use fill-opacity=".48" xlink:href="#pt35a"/></g><use fill="#282828" xlink:href="#pt35a"/></g><g clip-path="url(#pt35d)" transform="translate(-989 -1068)"><use fill="#d73c3c" xlink:href="#pt35e"/></g><g clip-path="url(#pt35d)" transform="translate(-989 -1068)"><use fill="#ffc000" xlink:href="#pt35f"/></g><g opacity=".4" transform="translate(-989 -1068)"><use fill="#fff" xlink:href="#pt35g"/></g><g opacity=".4" transform="translate(-989 -1068)"><use fill="#fff" xlink:href="#pt35h"/></g><g transform="translate(-989 -1068)"><use fill="#fff" xlink:href="#pt35i"/></g></g></svg>