<svg xmlns="http://www.w3.org/2000/svg" xmlns:xlink="http://www.w3.org/1999/xlink" width="74" height="66" viewBox="0 0 74 66"><defs><path id="el5qa" d="M1048.99 1196.53c-.84 0-1.52-.69-1.52-1.53v-24.37a1.52 1.52 0 1 1 3.04 0V1195c0 .84-.68 1.53-1.52 1.53zm-4.16 20c0 5.78-4.67 10.47-10.42 10.47a10.45 10.45 0 0 1-8.86-15.94 5.6 5.6 0 0 1-1.55-3.87v-40.63a3.55 3.55 0 0 1 3.54-3.55h6.06a1.52 1.52 0 0 1 0 3.04h-6.06a.5.5 0 0 0-.5.51v33.01H1051a1.52 1.52 0 0 1 0 3.05h-23.98v4.57c0 .55.18 1.08.5 1.5a10.34 10.34 0 0 1 14.79 1.04h-.6c-1.9-2.24 2.27 4.22 1.82 3.05h.6c.44 1.17.69 2.43.69 3.76zm-2.51-6.8h8.07a10.37 10.37 0 0 1 15.8 0h3.53v-4.57c0-1.4-1.14-2.54-2.53-2.54h-10.11a1.52 1.52 0 0 1 0-3.05h10.1c3.08 0 5.57 2.51 5.57 5.59v4.57h3.93a10.38 10.38 0 0 1 14.79-1.03c.31-.43.49-.96.49-1.5v-6.61h-10.62a3.55 3.55 0 0 1-3.53-3.56v-8.12a3.55 3.55 0 0 1 3.53-3.56h6.46l-.98-3.27a2.51 2.51 0 0 0-2.42-1.8h-15.19a2.54 2.54 0 0 0-2.53 2.53v12.2a1.52 1.52 0 1 1-3.03 0v-28.45a.5.5 0 0 0-.5-.5h-23.48a1.52 1.52 0 0 1 0-3.05h23.47c1.96 0 3.54 1.6 3.54 3.55v11.28a5.51 5.51 0 0 1 2.53-.61h15.2c2.47 0 4.6 1.6 5.32 3.98l1.55 5.2.02.06 3.62 12.12c.05.15.07.3.07.47v8.13c0 1.46-.57 2.84-1.54 3.87a10.45 10.45 0 0 1-8.87 15.94 10.45 10.45 0 0 1-9.72-14.22h-6.85a10.45 10.45 0 0 1-9.72 14.22 10.45 10.45 0 0 1-9.72-14.22c.29.2.5.25.6 0h-.6c-1.02-.74-3.03-3.53-4.53-1.78zm6.25 3.05zm32.77-15.24h10.1l-2.73-9.14h-7.37a.5.5 0 0 0-.5.5v8.13c0 .28.23.51.5.51zm-39.55 19a7.4 7.4 0 0 0-7.38-7.42 7.4 7.4 0 0 0 0 14.83 7.4 7.4 0 0 0 7.38-7.41zm23.88 0a7.4 7.4 0 0 0-7.38-7.42 7.4 7.4 0 0 0 0 14.83 7.4 7.4 0 0 0 7.38-7.41zm26.29 0a7.4 7.4 0 0 0-7.38-7.42 7.4 7.4 0 0 0 0 14.83 7.4 7.4 0 0 0 7.38-7.41zm-36.4-21.54v-24.37a1.52 1.52 0 1 1 3.04 0V1195a1.52 1.52 0 1 1-3.04 0zm-20.44-24.37V1195a1.52 1.52 0 1 1-3.03 0v-24.37a1.52 1.52 0 1 1 3.03 0zm6.57 25.9c-.83 0-1.51-.69-1.51-1.53v-24.37a1.52 1.52 0 1 1 3.03 0V1195c0 .84-.68 1.53-1.52 1.53z"/></defs><g><g transform="translate(-1022 -1162)"><use fill="#e6e6e6" xlink:href="#el5qa"/></g></g></svg>