<svg xmlns="http://www.w3.org/2000/svg" xmlns:xlink="http://www.w3.org/1999/xlink" width="71" height="72" viewBox="0 0 71 72"><defs><path id="26z0a" d="M1279.96 1212.26c-.58 0-1.05-.48-1.05-1.07 0-.6.47-1.08 1.05-1.08h4.24c.58 0 1.05.48 1.05 1.08 0 .59-.47 1.07-1.05 1.07zm-14.81-27.21c-.59 0-1.06-.48-1.06-1.07 0-.6.47-1.08 1.06-1.08h4.23c.59 0 1.06.48 1.06 1.08 0 .59-.47 1.07-1.06 1.07zm-10.58 27.2h-4.24c-.58 0-1.05-.47-1.05-1.06 0-.6.47-1.08 1.05-1.08h4.24c.58 0 1.06.48 1.06 1.08 0 .59-.48 1.07-1.06 1.07zm38.44 6.1v4.3a3.91 3.91 0 0 1-3.88 3.93h-3.4a2.47 2.47 0 0 1-2.24 1.43h-8.46a2.5 2.5 0 0 1-2.47-2.5v-2.87a2.5 2.5 0 0 1 2.47-2.5h8.46a2.5 2.5 0 0 1 2.47 2.5v1.8h3.17c.98 0 1.77-.81 1.77-1.8v-4.3c0-.98-.8-1.78-1.77-1.78h-4.23c-.58 0-1.06-.49-1.06-1.08 0-.6.48-1.07 1.06-1.07h3.18v-24.7c0-.2-.16-.36-.36-.36h-8.1v7.51c0 .35-.17.67-.45.88-.27.2-.63.25-.95.14l-8.47-2.86a1.07 1.07 0 0 1-.72-1.02v-4.65h-2.47c-.58 0-1.06-.48-1.06-1.08 0-.6.48-1.07 1.06-1.07h6.7v-24.7c0-.2-.16-.36-.35-.36h-8.11v7.52c0 .34-.17.66-.44.87-.28.2-.63.25-.96.14l-8.46-2.86a1.07 1.07 0 0 1-.73-1.02v-4.65h-8.1c-.2 0-.36.16-.36.35v24.7h16.58c.58 0 1.06.49 1.06 1.08 0 .6-.48 1.08-1.06 1.08h-12.35v7.51c0 .35-.16.67-.44.88-.27.2-.63.25-.95.14l-8.47-2.86a1.07 1.07 0 0 1-.72-1.02v-4.65h-8.11c-.2 0-.36.16-.36.35v24.7h20.11c.58 0 1.06.49 1.06 1.08 0 .6-.48 1.08-1.06 1.08h-21.16c-.98 0-1.77.8-1.77 1.79v4.3c0 .98.8 1.78 1.77 1.78h3.17v-1.79a2.5 2.5 0 0 1 2.47-2.5h8.47a2.5 2.5 0 0 1 2.46 2.5v1.8h22.93c.59 0 1.06.47 1.06 1.07 0 .59-.47 1.07-1.06 1.07h-23.16a2.47 2.47 0 0 1-2.23 1.43h-8.47c-.98 0-1.83-.58-2.23-1.43h-3.41a3.91 3.91 0 0 1-3.88-3.94v-4.3c0-1.8 1.2-3.31 2.82-3.78v-24.86a2.5 2.5 0 0 1 2.47-2.5h12.34v-24.7a2.5 2.5 0 0 1 2.47-2.51h26.8a2.5 2.5 0 0 1 2.48 2.5v24.7h12.34a2.5 2.5 0 0 1 2.47 2.51v24.86a3.94 3.94 0 0 1 2.82 3.79zm-57.84 7.16c0 .2.16.35.35.35h8.47c.19 0 .35-.15.35-.35v-2.87c0-.2-.16-.36-.35-.36h-8.47c-.2 0-.35.16-.35.36zm12.7-36.16h-6.35v3.88l6.35 2.14zm14.81-27.21h-6.35v3.88l6.35 2.15zm14.81 27.2h-6.34v3.89l6.34 2.14zm6.35 33.3c0-.2-.15-.36-.35-.36h-8.46c-.2 0-.36.16-.36.36v2.87c0 .2.16.35.36.35h8.46c.2 0 .35-.16.35-.35zm-29.63-7.16c0-.6.48-1.07 1.06-1.07h3.18v-21.84c0-.6.47-1.08 1.06-1.08.58 0 1.05.49 1.05 1.08v21.84h20.1c.6 0 1.07.48 1.07 1.07 0 .6-.48 1.08-1.06 1.08h-25.4c-.58 0-1.06-.49-1.06-1.08z"/></defs><g><g transform="translate(-1224 -1158)"><use fill="#e6e6e6" xlink:href="#26z0a"/></g></g></svg>