<svg xmlns="http://www.w3.org/2000/svg" xmlns:xlink="http://www.w3.org/1999/xlink" width="74" height="74" viewBox="0 0 74 74"><defs><path id="yux2a" d="M659.91 1202.47c-.81.39-1.66.72-2.52 1l-1.06 5.27a3.5 3.5 0 0 1-3.43 2.8h-3.24a3.5 3.5 0 0 1-3.43-2.8l-1.05-5.27a20.09 20.09 0 0 1-3.16-1.31l-4.47 2.98a3.5 3.5 0 0 1-4.41-.44l-2.3-2.29a3.5 3.5 0 0 1-.43-4.41l2.98-4.47a20.08 20.08 0 0 1-1.3-3.16l-5.28-1.05a3.5 3.5 0 0 1-2.8-3.44v-3.23a3.5 3.5 0 0 1 2.8-3.43l5.27-1.06a20.1 20.1 0 0 1 1.31-3.15l-2.98-4.48a3.5 3.5 0 0 1 .44-4.41l2.29-2.29a3.5 3.5 0 0 1 4.41-.44l4.47 2.98c1.01-.52 2.07-.96 3.16-1.3l1.05-5.27a3.5 3.5 0 0 1 3.43-2.82h3.24a3.5 3.5 0 0 1 3.43 2.82l1.05 5.27c1.1.34 2.15.78 3.16 1.3l4.47-2.98a3.5 3.5 0 0 1 4.42.44l2.29 2.29a3.5 3.5 0 0 1 .43 4.41l-2.98 4.48c.53 1 .97 2.07 1.31 3.15l5.27 1.06a3.5 3.5 0 0 1 2.81 3.43v3.23c0 1.67-1.18 3.11-2.81 3.44l-5.27 1.05c-.28.9-.63 1.76-1.03 2.6a1.12 1.12 0 1 1-2.02-.97c.44-.93.81-1.9 1.1-2.9.1-.4.44-.71.85-.8l5.93-1.18a1.26 1.26 0 0 0 1.01-1.24v-3.23c0-.6-.42-1.12-1-1.23l-5.94-1.19a1.12 1.12 0 0 1-.86-.8 17.8 17.8 0 0 0-1.63-3.93c-.2-.37-.2-.83.04-1.18l3.36-5.03c.33-.5.26-1.16-.16-1.59l-2.29-2.28a1.26 1.26 0 0 0-1.58-.16l-5.03 3.35c-.36.24-.8.26-1.18.05a17.8 17.8 0 0 0-3.93-1.63c-.41-.12-.72-.45-.8-.86l-1.19-5.93a1.26 1.26 0 0 0-1.23-1.01h-3.24c-.6 0-1.11.42-1.23 1l-1.18 5.94c-.09.41-.4.74-.8.86-1.37.38-2.7.93-3.94 1.63-.37.2-.82.19-1.17-.05l-5.03-3.35a1.26 1.26 0 0 0-1.59.16l-2.29 2.28a1.26 1.26 0 0 0-.15 1.6l3.35 5.02c.24.35.25.8.05 1.17a17.82 17.82 0 0 0-1.64 3.94c-.11.4-.44.72-.86.8l-5.93 1.19c-.58.11-1 .63-1 1.23v3.23c0 .6.42 1.12 1 1.24l5.93 1.18c.42.09.75.4.86.8.39 1.37.94 2.7 1.64 3.94.2.37.19.82-.05 1.17l-3.35 5.03c-.33.5-.27 1.17.15 1.59l2.3 2.29c.41.42 1.08.48 1.58.15l5.03-3.35c.35-.24.8-.25 1.17-.05 1.24.7 2.57 1.25 3.94 1.64.4.11.71.44.8.86l1.18 5.93c.12.58.64 1 1.23 1h3.24c.6 0 1.12-.42 1.23-1l1.19-5.93c.08-.42.39-.75.8-.86.97-.28 1.92-.63 2.83-1.06a1.12 1.12 0 0 1 .96 2.02zm.6-13.48a10.37 10.37 0 0 0-16.46-12.14 1.12 1.12 0 0 1-1.56-1.6 12.62 12.62 0 0 1 20.02 14.77 1.12 1.12 0 0 1-2-1.03zm-19.03-8.1a10.37 10.37 0 0 0 15.87 11.77 1.12 1.12 0 0 1 1.32 1.82 12.62 12.62 0 0 1-19.3-14.32 1.12 1.12 0 1 1 2.11.73zm53.53 27.73v2.12a2.7 2.7 0 0 1-2.16 2.64l-3.24.64c-.2.6-.44 1.17-.71 1.72l1.83 2.75a2.7 2.7 0 0 1-.34 3.39l-1.5 1.5a2.7 2.7 0 0 1-3.39.34l-2.75-1.84c-.55.28-1.13.52-1.71.71l-.65 3.25a2.7 2.7 0 0 1-2.63 2.15h-2.13a2.7 2.7 0 0 1-2.63-2.15l-.65-3.25c-.59-.2-1.16-.43-1.72-.7l-2.75 1.83a2.7 2.7 0 0 1-3.38-.34l-1.5-1.5a2.7 2.7 0 0 1-.34-3.39l1.83-2.75c-.27-.55-.51-1.13-.7-1.72l-3.25-.64a2.7 2.7 0 0 1-2.16-2.64v-2.12c0-1.28.91-2.38 2.16-2.63l.24-.05a1.12 1.12 0 0 1 .44 2.2l-.24.04a.44.44 0 0 0-.36.44v2.12c0 .21.15.4.36.44l3.9.78c.41.08.74.39.86.8.24.87.59 1.7 1.03 2.5.21.36.2.82-.04 1.17l-2.2 3.3c-.12.18-.1.41.05.56l1.5 1.5c.15.15.39.18.56.06l3.3-2.2c.36-.24.81-.26 1.18-.05.79.45 1.63.8 2.5 1.04.4.11.72.44.8.86l.78 3.9c.04.2.22.35.43.35h2.13c.2 0 .39-.15.43-.35l.78-3.9c.08-.42.39-.75.8-.86.87-.24 1.71-.6 2.5-1.04.37-.2.82-.19 1.17.05l3.3 2.2c.18.12.42.1.56-.05l1.5-1.5a.44.44 0 0 0 .06-.56l-2.2-3.31c-.24-.35-.25-.8-.05-1.17.45-.8.8-1.63 1.04-2.5.12-.41.45-.72.86-.8l3.9-.78c.2-.04.35-.23.35-.44v-2.12c0-.21-.15-.4-.35-.44l-3.9-.77c-.41-.09-.74-.4-.86-.8a11.3 11.3 0 0 0-1.03-2.5c-.21-.37-.2-.83.04-1.18l2.2-3.3c.12-.18.1-.41-.05-.56l-1.5-1.5a.44.44 0 0 0-.56-.06l-3.3 2.2c-.36.24-.81.26-1.18.05a11.3 11.3 0 0 0-2.5-1.04c-.41-.11-.72-.44-.8-.86l-.78-3.9a.44.44 0 0 0-.43-.35h-2.13c-.2 0-.4.15-.43.36l-.78 3.9c-.08.4-.4.74-.8.85-.87.25-1.71.6-2.5 1.04-.37.2-.82.19-1.17-.05l-3.31-2.2a.44.44 0 0 0-.56.06l-1.5 1.5a.44.44 0 0 0-.06.56l2.2 3.3c.24.35.26.8.05 1.18-.44.78-.79 1.63-1.03 2.5a1.12 1.12 0 1 1-2.16-.6c.23-.83.53-1.63.91-2.39l-1.83-2.75a2.7 2.7 0 0 1 .33-3.39l1.5-1.5a2.7 2.7 0 0 1 3.4-.34l2.75 1.84c.55-.28 1.12-.52 1.71-.71l.65-3.24a2.7 2.7 0 0 1 2.63-2.16h2.13c1.27 0 2.38.9 2.63 2.16l.65 3.24c.58.2 1.16.43 1.71.7l2.75-1.83a2.7 2.7 0 0 1 3.4.34l1.5 1.5c.9.9 1.04 2.33.33 3.39l-1.83 2.75c.27.56.5 1.13.7 1.72l3.25.65a2.7 2.7 0 0 1 2.16 2.63zm-22.35 1.06a4.04 4.04 0 0 0 6.5 3.2 1.12 1.12 0 1 1 1.37 1.77 6.29 6.29 0 1 1 2.44-4.97 1.12 1.12 0 0 1-2.24 0 4.04 4.04 0 0 0-8.07 0zm-21.38-18.58a6.84 6.84 0 1 1 .02-13.68 6.84 6.84 0 0 1-.02 13.68zm0-2.24a4.6 4.6 0 1 0 0-9.2 4.6 4.6 0 0 0 0 9.2z"/></defs><g><g transform="translate(-623 -1155)"><use fill="#e6e6e6" xlink:href="#yux2a"/></g></g></svg>