<svg xmlns="http://www.w3.org/2000/svg" xmlns:xlink="http://www.w3.org/1999/xlink" width="72" height="72" viewBox="0 0 72 72"><defs><path id="1j74a" d="M441.03 1224.94c0 .59-.49 1.07-1.08 1.07h-12.89a1.07 1.07 0 0 1 0-2.15h1.8v-4.65a2.5 2.5 0 0 1 2.5-2.5 1.07 1.07 0 1 1 0 2.14c-.2 0-.36.16-.36.36v4.65h8.95c.6 0 1.08.48 1.08 1.08zm11.88-15.76a5.8 5.8 0 1 1-11.61 0 5.8 5.8 0 0 1 11.61 0zm-2.15 0a3.66 3.66 0 1 0-7.3.01 3.66 3.66 0 0 0 7.3 0zm4.4 12.9l-2.5-1.66c-.5.24-1 .45-1.53.63l-.59 2.95a2.51 2.51 0 0 1-2.45 2.01h-1.95c-1.2 0-2.23-.85-2.46-2.01l-.59-2.95c-.52-.18-1.03-.39-1.53-.63l-2.5 1.66c-.99.66-2.32.53-3.16-.3l-1.38-1.39a2.51 2.51 0 0 1-.3-3.16l1.66-2.5c-.25-.5-.46-1-.64-1.53l-2.94-.58a2.51 2.51 0 0 1-2.01-2.46v-1.95c0-1.2.84-2.22 2.01-2.46l2.94-.59c.18-.52.4-1.03.64-1.52l-1.67-2.5c-.66-1-.53-2.32.32-3.17l1.37-1.37a2.52 2.52 0 0 1 2.94-.45l.71-22.85a2.5 2.5 0 0 1 2.5-2.42h2.2a1.07 1.07 0 0 1 0 2.15h-2.2c-.19 0-.35.15-.35.34l-.76 24.17.62.41c.5-.24 1-.46 1.53-.63l.59-2.95a2.51 2.51 0 0 1 2.46-2.01h1.95c1.19 0 2.22.85 2.45 2.01l.6 2.95c.51.17 1.03.39 1.52.63l.62-.41-.75-24.17c-.01-.2-.17-.34-.36-.34h-3.63a1.07 1.07 0 1 1 0-2.15h3.63a2.5 2.5 0 0 1 2.5 2.42l.72 22.85c.96-.5 2.15-.33 2.93.45a1.07 1.07 0 1 1-1.52 1.52.36.36 0 0 0-.45-.05l-3.03 2.02c-.34.23-.77.24-1.12.04-.72-.4-1.49-.72-2.29-.94-.38-.11-.68-.43-.76-.83l-.71-3.57a.36.36 0 0 0-.35-.28h-1.95a.36.36 0 0 0-.35.28l-.72 3.57c-.08.4-.37.72-.76.83-.8.22-1.56.54-2.28.94-.36.2-.8.19-1.13-.04l-3.03-2.02a.36.36 0 0 0-.45.05l-1.38 1.37a.36.36 0 0 0-.04.46l2.02 3.03c.22.33.24.77.04 1.12-.4.72-.72 1.49-.94 2.28-.11.39-.43.69-.83.76l-3.57.72a.36.36 0 0 0-.29.35v1.95c0 .17.12.32.3.35l3.56.71c.4.08.72.38.83.77.22.8.54 1.56.94 2.28.2.35.18.79-.04 1.12l-2.02 3.03c-.1.14-.08.33.04.45l1.38 1.38c.12.12.31.14.45.05l3.03-2.02c.34-.23.77-.24 1.13-.05.71.4 1.48.73 2.28.95.39.1.68.43.76.82l.72 3.57c.03.17.18.3.35.3h1.95c.17 0 .31-.13.35-.3l.71-3.57c.08-.4.38-.71.76-.82.8-.22 1.57-.54 2.29-.95.35-.2.78-.18 1.12.05l3.03 2.02c.14.1.33.07.45-.05l1.38-1.38a.36.36 0 0 0 .04-.45l-2.02-3.03a1.07 1.07 0 0 1-.04-1.12c.4-.72.72-1.49.95-2.28.1-.4.42-.69.82-.77l3.57-.71a.36.36 0 0 0 .29-.35v-1.95a.36.36 0 0 0-.29-.35l-3.57-.72c-.4-.07-.71-.37-.82-.76-.22-.8-.54-1.56-.95-2.28a1.07 1.07 0 1 1 1.87-1.06c.38.68.7 1.39.95 2.12l2.94.6a2.51 2.51 0 0 1 2.02 2.45v1.95c0 1.19-.85 2.22-2.02 2.46l-2.94.58c-.18.53-.39 1.04-.63 1.53l1.66 2.5c.66 1 .53 2.32-.31 3.16l-1.38 1.38c-.84.84-2.17.97-3.16.31zm38.85 2.86c0 .59-.48 1.07-1.07 1.07h-38.67a1.07 1.07 0 0 1 0-2.15H489v-4.65c0-.2-.16-.36-.36-.36H464.3a1.07 1.07 0 0 1 0-2.15h23.27v-14.68a1.07 1.07 0 0 1 2.14 0v14.92c.85.4 1.44 1.27 1.44 2.27v4.65h1.79c.59 0 1.07.48 1.07 1.08zm0-57.28v1.43a3.94 3.94 0 0 1-3.94 3.94h-27.2a3.94 3.94 0 0 1-3.94-3.94v-1.8h-24.7a3.94 3.94 0 0 1-3.94-3.93v-1.43a3.94 3.94 0 0 1 3.93-3.94h51.56c1.4 0 2.7.75 3.4 1.97a1.07 1.07 0 1 1-1.85 1.07 1.8 1.8 0 0 0-1.55-.9h-51.56c-.98 0-1.79.81-1.79 1.8v1.43c0 .99.8 1.79 1.8 1.79h30.07a1.07 1.07 0 0 1 0 2.15h-3.23v1.79c0 .98.8 1.79 1.8 1.79h27.2c.99 0 1.8-.8 1.8-1.8v-1.42c0-1-.81-1.8-1.8-1.8h-14.32a1.07 1.07 0 1 1 0-2.14h14.32a3.94 3.94 0 0 1 3.94 3.94zm-6.44 30.07v-4.66h-4.45l-8.4 3.36a1.07 1.07 0 1 1-.8-2l2.75-1.09-.5-14.24c-.02-.2-.17-.35-.37-.35h-4.34a1.07 1.07 0 1 1 0-2.14h4.34a2.5 2.5 0 0 1 2.5 2.41l.49 13.47 3.72-1.49c.13-.05.27-.07.4-.07h5.73c.6 0 1.07.48 1.07 1.07v5.73a1.07 1.07 0 1 1-2.14 0zm-22.25-18.63l-.68 19.05 4.99-2a1.07 1.07 0 0 1 .8 2l-10.03 4.01a1.07 1.07 0 0 1-1.4-.6c-.22-.55.05-1.17.6-1.4l2.86-1.14.71-20a2.5 2.5 0 0 1 2.5-2.41h1.49a1.07 1.07 0 1 1 0 2.14h-1.48c-.2 0-.35.15-.36.35z"/></defs><g><g transform="translate(-424 -1156)"><use fill="#e6e6e6" xlink:href="#1j74a"/></g></g></svg>