<svg xmlns="http://www.w3.org/2000/svg" xmlns:xlink="http://www.w3.org/1999/xlink" width="75" height="74" viewBox="0 0 75 74"><defs><path id="x9zja" d="M846.09 1164.55a2.61 2.61 0 0 1-.27-2.44l1.8-4.48a2.6 2.6 0 0 1 2.43-1.65h9.93a2.6 2.6 0 0 1 2.43 1.65l1.8 4.48a2.61 2.61 0 0 1-2.44 3.59h-13.52c-.87 0-1.68-.43-2.16-1.15zm1.85-1.26c.04.06.14.17.31.17h13.52c.18 0 .27-.1.31-.17.05-.06.1-.18.04-.34l-1.8-4.49a.37.37 0 0 0-.34-.23h-9.93c-.16 0-.3.09-.35.23l-1.8 4.49c-.06.16 0 .28.04.34zm-.4 9.88h-10.46a1.12 1.12 0 1 1 0-2.24h10.46a1.12 1.12 0 1 1 0 2.24zM895 1183v2.04c0 1.24-.88 2.32-2.1 2.56l-3.08.62c-.18.54-.4 1.08-.66 1.6l1.74 2.6a2.62 2.62 0 0 1-.32 3.3l-1.44 1.44a2.62 2.62 0 0 1-3.3.32l-2.61-1.73c-.52.25-1.05.47-1.6.66l-.61 3.07a2.62 2.62 0 0 1-2.57 2.1h-2.03a2.62 2.62 0 0 1-2.57-2.1l-.61-3.07c-.55-.19-1.08-.4-1.6-.66l-2.6 1.73a2.62 2.62 0 0 1-3.3-.32l-1.44-1.44a2.62 2.62 0 0 1-.33-3.3l1.74-2.6c-.26-.52-.48-1.06-.66-1.6l-3.07-.62a2.62 2.62 0 0 1-2.1-2.56v-2.04c0-1.24.88-2.32 2.1-2.56l3.07-.62c.18-.54.4-1.07.66-1.6l-1.74-2.6a2.62 2.62 0 0 1 .33-3.3l1.44-1.44a2.62 2.62 0 0 1 3.3-.32l2.6 1.73c.52-.25 1.05-.47 1.6-.66l.61-3.07a2.62 2.62 0 0 1 2.47-2.1v-3.74h-9.35a1.12 1.12 0 1 1 0-2.24h14.95a4.12 4.12 0 0 1 4.11 4.1v5.86c1.01-.55 2.28-.38 3.1.44l1.45 1.44c.87.88 1.01 2.27.32 3.3l-1.74 2.6c.26.53.48 1.06.66 1.6l3.08.62a2.62 2.62 0 0 1 2.1 2.56zm-16.44-20.28v3.74c1.2.05 2.22.92 2.46 2.1l.61 3.07c.55.19 1.08.4 1.6.66l.56-.37v-7.33c0-1.03-.84-1.87-1.87-1.87zm14.2 20.28a.37.37 0 0 0-.3-.36l-3.73-.75c-.41-.08-.75-.39-.86-.8-.23-.83-.56-1.63-.99-2.38-.2-.37-.19-.82.05-1.17l2.1-3.16a.37.37 0 0 0-.04-.47l-1.44-1.44a.37.37 0 0 0-.47-.05l-3.16 2.11c-.35.23-.8.25-1.17.04-.76-.42-1.56-.75-2.39-.98-.4-.12-.71-.45-.8-.86l-.74-3.73a.37.37 0 0 0-.37-.3h-2.03a.37.37 0 0 0-.37.3l-.74 3.73c-.09.41-.4.74-.8.86-.83.23-1.63.56-2.38.98-.37.21-.82.2-1.17-.04l-3.17-2.1a.37.37 0 0 0-.47.04l-1.44 1.44a.37.37 0 0 0-.04.47l2.1 3.16c.24.35.26.8.05 1.17-.42.75-.76 1.55-.99 2.38-.11.41-.44.72-.86.8l-3.73.75a.37.37 0 0 0-.3.36v2.04c0 .17.13.33.3.36l3.73.75c.42.08.75.39.86.8.23.83.57 1.63.99 2.38.2.37.19.82-.04 1.17l-2.11 3.16c-.1.15-.08.35.04.47l1.44 1.44c.13.13.32.15.47.05l3.17-2.1a1.12 1.12 0 0 1 1.17-.05c.75.42 1.55.75 2.38.98.4.12.71.45.8.86l.74 3.73c.04.17.2.3.37.3h2.03c.18 0 .33-.13.37-.3l.74-3.73c.09-.41.4-.74.8-.86.83-.23 1.63-.56 2.39-.98.36-.21.82-.2 1.17.04l3.16 2.1c.15.1.35.09.47-.04l1.44-1.44a.37.37 0 0 0 .05-.47l-2.11-3.16c-.24-.35-.25-.8-.05-1.17.43-.75.76-1.55 1-2.38.1-.41.44-.72.85-.8l3.73-.75c.17-.03.3-.19.3-.36zm-9.27 1.02a6 6 0 0 1-1.24 3.67 1.12 1.12 0 1 1-1.78-1.36 3.82 3.82 0 1 0-3.03 1.5 1.12 1.12 0 1 1 0 2.24 6.06 6.06 0 1 1 6.05-6.05zm-38.94-8.6a1.12 1.12 0 1 1 0 2.25h-7.47a1.12 1.12 0 1 1 0-2.24zm41.48 25.04v22.42a4.12 4.12 0 0 1-4.1 4.11H828.1a4.11 4.11 0 0 1-4.11-4.1v-58.3a4.12 4.12 0 0 1 4.1-4.11h14.95a1.12 1.12 0 1 1 0 2.24h-9.34v20.18h21.98a1.12 1.12 0 1 1 0 2.24H833.7v12.7h4.92c1.25 0 2.42.57 3.2 1.55l4.2 5.23c.35.44.88.7 1.45.7h7.98c.54 0 1.06-.23 1.41-.64l5.59-6.45a1.12 1.12 0 1 1 1.7 1.47l-5.6 6.44a4.1 4.1 0 0 1-3.1 1.42h-7.98a4.1 4.1 0 0 1-3.2-1.54l-4.2-5.23c-.35-.45-.88-.7-1.45-.7h-4.92v11.2h42.6v-6.34a1.12 1.12 0 1 1 2.25 0v11.96a2.62 2.62 0 0 1-2.62 2.61h-5.98a1.12 1.12 0 1 1 0-2.24h5.98c.2 0 .38-.17.38-.37v-3.37h-42.6v3.36c0 .21.16.38.37.38h31.39a1.12 1.12 0 1 1 0 2.24h-31.4a2.62 2.62 0 0 1-2.61-2.62v-54.18h-3.36c-1.03 0-1.87.84-1.87 1.87v58.3c0 1.02.84 1.86 1.87 1.86h53.81c1.03 0 1.87-.84 1.87-1.87v-22.42a1.12 1.12 0 1 1 2.24 0z"/></defs><g><g transform="translate(-822 -1154)"><use fill="#e6e6e6" xlink:href="#x9zja"/></g></g></svg>