<svg xmlns="http://www.w3.org/2000/svg" xmlns:xlink="http://www.w3.org/1999/xlink" width="56" height="70" viewBox="0 0 56 70"><defs><path id="8ptia" d="M1460.58 1194.52h-2.19a3.9 3.9 0 0 1-3.5-2.17l-.65-1.28a1.08 1.08 0 0 1 .47-1.44 1.05 1.05 0 0 1 1.42.47l.65 1.28c.3.61.92 1 1.61 1h2.2a1.8 1.8 0 0 0 1.6-1l.65-1.28c.26-.53.9-.74 1.42-.47.53.27.73.91.47 1.44l-.64 1.28a3.9 3.9 0 0 1-3.5 2.17zm1.97-12.89c0-.59.47-1.07 1.06-1.07h1.6c.6 0 1.07.48 1.07 1.07 0 .6-.48 1.08-1.06 1.08h-1.61c-.59 0-1.06-.48-1.06-1.08zm23.44 25.78v14.65a3.94 3.94 0 0 1-3.93 3.93h-11.12c-.59 0-1.06-.48-1.06-1.07 0-.6.47-1.07 1.06-1.07h5.3v-21.31l-4.24-.91v6.76c0 .45-.05.9-.15 1.34a2.5 2.5 0 0 1 1.59 2.34v2.86a2.5 2.5 0 0 1-2.47 2.5h-7.2a2.5 2.5 0 0 1-2.48-2.5v-2.86a2.5 2.5 0 0 1 2.48-2.5h5.93c.12-.38.18-.78.18-1.18v-7.21l-2.28-.5-3.28 4.92a5.8 5.8 0 0 1-9.67 0l-3.27-4.91-2.28.49v7.2c0 2.22 1.8 4.02 4.03 4.02h4.94c.59 0 1.06.48 1.06 1.08 0 .59-.47 1.07-1.06 1.07h-4.94a6.16 6.16 0 0 1-6.15-6.16v-6.76l-4.24.9v21.32h23.92c.59 0 1.06.48 1.06 1.07 0 .6-.47 1.07-1.06 1.07h-29.75a3.94 3.94 0 0 1-3.92-3.93v-14.65a6.19 6.19 0 0 1 4.86-6.02l3.59-.77h.04l6.32-1.36h.04l2.95-.64v-.84a10.8 10.8 0 0 1-5.67-6.61 66.8 66.8 0 0 1-2.55-13.3h-.14a3.35 3.35 0 0 1-2.36-5.72l2.25-2.25a10.68 10.68 0 0 1 10.6-10.28h.68a2.69 2.69 0 0 1 2.45-1.61h6.87c1.08 0 2.03.65 2.45 1.6h.7c5.69 0 10.35 4.58 10.58 10.29l2.25 2.25a3.35 3.35 0 0 1-2.36 5.73h-.14c-.4 4.5-1.25 8.96-2.55 13.29a10.67 10.67 0 0 1-5.67 6.61v.84l2.95.63h.05l6.31 1.36.05.01 3.59.77a6.19 6.19 0 0 1 4.86 6.02zm-45.37-4.42l-2.33.5a4.04 4.04 0 0 0-3.18 3.92v14.65c0 .98.8 1.79 1.8 1.79h3.7zm25.16-41.23l1.07 7.52h7.63a8.53 8.53 0 0 0-8.42-7.52zm9.64 13.97h1.13c.67 0 1.22-.54 1.22-1.2 0-.33-.13-.63-.36-.85l-2.25-2.25h-12.85c-.58 0-1.06-.49-1.06-1.08 0-.6.48-1.07 1.06-1.07h2.4l-1.2-8.41-.01-.05-.03-.2a.55.55 0 0 0-.55-.47h-6.87c-.27 0-.5.2-.55.47l-.03.2v.05l-1.2 8.4h3.8c.59 0 1.06.49 1.06 1.08 0 .6-.47 1.08-1.06 1.08h-9.84c-.59 0-1.06-.49-1.06-1.08 0-.6.47-1.07 1.06-1.07h3.9l1.07-7.52h-.29a8.54 8.54 0 0 0-8.48 8.6c0 .28-.11.56-.31.76l-2.56 2.56a1.2 1.2 0 0 0-.35.84c0 .67.54 1.2 1.22 1.2h32.99zm-14.87 22.02c0-.6.47-1.08 1.06-1.08h1.96a8.55 8.55 0 0 0 8.25-6.12 64.62 64.62 0 0 0 2.46-12.67h-13.73v7.34h.37c.59 0 1.06.48 1.06 1.07 0 .6-.47 1.07-1.06 1.07h-2.87c-.58 0-1.06-.48-1.06-1.07 0-.6.48-1.07 1.06-1.07h.38v-7.34h-13.73c.4 4.28 1.21 8.54 2.45 12.67a8.55 8.55 0 0 0 8.25 6.12h1.97c.58 0 1.06.48 1.06 1.08 0 .59-.48 1.07-1.06 1.07h-1.97c-.85 0-1.68-.1-2.49-.29v.63l3.5 5.24a3.69 3.69 0 0 0 6.15 0l3.5-5.24v-.63c-.8.2-1.64.29-2.49.29h-1.96c-.59 0-1.06-.48-1.06-1.07zm10.77 17.18v-2.86c0-.2-.16-.36-.35-.36h-.53a.8.8 0 0 1-.06 0h-6.61c-.2 0-.36.16-.36.36v2.86c0 .2.16.36.36.36h7.2c.2 0 .35-.16.35-.36zm12.55-7.52a4.04 4.04 0 0 0-3.18-3.92l-2.33-.5v20.86h3.7c1 0 1.8-.8 1.8-1.8zm-28.5-24.7h-1.61c-.59 0-1.06-.48-1.06-1.08 0-.59.47-1.07 1.06-1.07h1.6c.6 0 1.07.48 1.07 1.07 0 .6-.48 1.08-1.06 1.08z"/></defs><g><g transform="translate(-1431 -1157)"><use fill="#e6e6e6" xlink:href="#8ptia"/></g></g></svg>