<svg xmlns="http://www.w3.org/2000/svg" xmlns:xlink="http://www.w3.org/1999/xlink" width="129" height="129" viewBox="0 0 129 129"><defs><path id="a" d="M125.07 15.98v93.04c0 4.4-1.57 8.17-4.72 11.32a15.45 15.45 0 0 1-11.33 4.73H15.98c-4.4 0-8.17-1.57-11.33-4.73a15.45 15.45 0 0 1-4.72-11.32V15.98c0-4.4 1.57-8.18 4.72-11.33A15.45 15.45 0 0 1 15.98-.07h93.04c4.4 0 8.18 1.57 11.33 4.72a15.45 15.45 0 0 1 4.72 11.33zM37.5 62.26c0 6.73 2.46 12.47 7.37 17.23a24.59 24.59 0 0 0 17.72 7.13c6.96 0 12.89-2.38 17.8-7.13a23.09 23.09 0 0 0 7.38-17.23 23.1 23.1 0 0 0-7.38-17.24 24.69 24.69 0 0 0-17.8-7.13c-6.9 0-12.8 2.38-17.72 7.13a23.1 23.1 0 0 0-7.37 17.24zm73.4 43.42v-52.8h-11a35.09 35.09 0 0 1 1.64 10.68A36.1 36.1 0 0 1 96.3 82.5a38.03 38.03 0 0 1-14.17 13.73 39.16 39.16 0 0 1-19.56 5.05c-10.7 0-19.85-3.68-27.45-11.04-7.6-7.36-11.41-16.25-11.41-26.68 0-3.7.54-7.25 1.63-10.68H13.86v52.8c0 1.41.48 2.6 1.43 3.54a4.8 4.8 0 0 0 3.54 1.43h87.1c1.35 0 2.52-.47 3.5-1.43a4.75 4.75 0 0 0 1.47-3.54zm0-86.2c0-1.52-.54-2.84-1.62-3.95a5.36 5.36 0 0 0-4-1.67H91.1c-1.58 0-2.9.56-4 1.67a5.47 5.47 0 0 0-1.62 3.95v13.44c0 1.58.54 2.91 1.63 4a5.43 5.43 0 0 0 3.99 1.63h14.17c1.58 0 2.91-.55 4-1.63a5.42 5.42 0 0 0 1.63-4z"/></defs><g transform="translate(2 2)"><use xlink:href="#a"/></g></svg>