<svg xmlns="http://www.w3.org/2000/svg" xmlns:xlink="http://www.w3.org/1999/xlink" width="30" height="22" viewBox="0 0 30 22"><defs><path id="a" d="M562.93 1809.9c3.26 0 5.9 2.72 5.9 6.05a5.97 5.97 0 0 1-5.9 6.05c-3.26 0-5.9-2.7-5.9-6.05l-.03-.86c0-6.68 5.28-12.09 11.8-12.09v3.45a8.27 8.27 0 0 0-6.8 3.53c.3-.05.61-.07.93-.07zm15.17 0c3.26 0 5.9 2.72 5.9 6.05a5.97 5.97 0 0 1-5.9 6.05c-3.26 0-5.9-2.7-5.9-6.05l-.03-.86c0-6.68 5.29-12.09 11.8-12.09v3.45a8.27 8.27 0 0 0-6.8 3.53c.3-.05.61-.07.93-.07z"/></defs><g transform="translate(-555 -1801)"><use fill="#fff" xlink:href="#a"/></g></svg>