<svg xmlns="http://www.w3.org/2000/svg" xmlns:xlink="http://www.w3.org/1999/xlink" width="160" height="93" viewBox="0 0 160 93"><defs><path id="a" d="M155.91 80.49c-.19-.4-.36-.75-.53-1.02-2.71-4.89-7.9-10.9-15.56-18l-.16-.17-.08-.08-.09-.08h-.08c-3.47-3.31-5.67-5.54-6.6-6.68-1.68-2.18-2.06-4.37-1.14-6.6.65-1.69 3.1-5.24 7.33-10.67 2.23-2.88 4-5.2 5.3-6.93 9.4-12.5 13.47-20.48 12.22-23.95l-.48-.82c-.33-.48-1.17-.93-2.53-1.34-1.36-.4-3.1-.47-5.21-.2l-23.47.16a3.04 3.04 0 0 0-1.63.04l-1.06.25-.4.2-.33.24c-.27.17-.57.45-.9.86-.32.4-.6.88-.8 1.42a133 133 0 0 1-8.73 18.34 173.57 173.57 0 0 1-5.54 8.75 42.16 42.16 0 0 1-4.23 5.46 29.64 29.64 0 0 1-3.1 2.81c-.92.71-1.63 1-2.12.9l-1.38-.33a5.42 5.42 0 0 1-1.84-2 8.95 8.95 0 0 1-.93-3.17 34.97 34.97 0 0 1-.29-3.3c-.03-.92-.01-2.23.04-3.91.06-1.69.08-2.83.08-3.42 0-2.07.04-4.3.12-6.72l.2-5.75c.06-1.41.09-2.9.09-4.48 0-1.57-.1-2.81-.29-3.7-.18-.9-.47-1.77-.85-2.61a4.39 4.39 0 0 0-1.67-1.96 9.42 9.42 0 0 0-2.73-1.1 54.2 54.2 0 0 0-11-1.06c-10.1-.1-16.6.55-19.47 1.96-1.14.6-2.17 1.41-3.1 2.44-.97 1.2-1.11 1.85-.4 1.96 3.25.48 5.56 1.65 6.92 3.5l.49.98c.38.7.76 1.95 1.14 3.75.38 1.79.63 3.77.73 5.94.27 3.97.27 7.36 0 10.19-.27 2.82-.53 5.02-.77 6.6A13.21 13.21 0 0 1 59 42.8c-.16.21-.3.35-.4.4-.71.28-1.45.41-2.2.41-.77 0-1.69-.38-2.78-1.14a19.54 19.54 0 0 1-3.38-3.14 41.86 41.86 0 0 1-3.95-5.58 97.52 97.52 0 0 1-4.56-8.47l-1.3-2.36a202 202 0 0 1-3.34-6.64c-1.42-2.9-2.67-5.72-3.75-8.44a5.37 5.37 0 0 0-1.96-2.6l-.4-.25a8.69 8.69 0 0 0-3.18-1.22l-22.33.16c-2.28 0-3.82.52-4.64 1.55l-.33.49c-.16.27-.24.7-.24 1.3 0 .6.16 1.33.49 2.2C4 17.14 7.55 24.53 11.38 31.64a249.18 249.18 0 0 0 9.98 17.2c2.82 4.34 5.7 8.44 8.64 12.3a180.8 180.8 0 0 0 5.82 7.41c.95 1.09 1.7 1.9 2.24 2.44l2.04 1.96c1.3 1.3 3.22 2.87 5.74 4.68a97.96 97.96 0 0 0 8.4 5.38 45.54 45.54 0 0 0 10.71 4.32 37 37 0 0 0 11.9 1.35h9.36c1.9-.17 3.34-.77 4.32-1.8l.33-.4c.21-.33.42-.83.6-1.51.2-.68.3-1.43.3-2.24-.06-2.34.11-4.44.52-6.32.4-1.87.87-3.28 1.39-4.23a10.4 10.4 0 0 1 3.14-3.58c.27-.14.48-.24.65-.29 1.3-.44 2.83-.01 4.6 1.26a27.04 27.04 0 0 1 4.97 4.73c1.55 1.87 3.4 3.98 5.58 6.31a38.36 38.36 0 0 0 5.7 5.22l1.63.97c1.1.66 2.5 1.25 4.24 1.8 1.74.54 3.26.68 4.56.4l20.86-.32c2.06 0 3.67-.34 4.8-1.02 1.15-.68 1.82-1.43 2.04-2.24.22-.82.23-1.74.04-2.77a10.2 10.2 0 0 0-.57-2.16z"/></defs><g transform="translate(1 2)"><use xlink:href="#a"/></g></svg>