<svg xmlns="http://www.w3.org/2000/svg" xmlns:xlink="http://www.w3.org/1999/xlink" width="415" height="83" viewBox="0 0 415 83"><defs><path id="edxva" d="M751.004 697.99v-62.675h54.717v43.43c0 .087 0 .174.055.258a.629.629 0 0 0 .118.258c.055.087.111.174.167.23a.484.484 0 0 0 .284.202l33.649 18.297zm59.88-18.21h32.134v17.492zm266.118 18.21l33.649-18.297c.2-.084.373-.23.457-.432a.703.703 0 0 0 .11-.258c.062-.084.062-.17.062-.258v-43.43h54.717v62.675zm-3.047-.718V679.78h32.162zm-266.151-19.59V615.01h301.393v62.673z"/></defs><g><g transform="translate(-751 -615)"><use xlink:href="#edxva"/><use fill="#ad8627" xlink:href="#edxva"/></g></g></svg>