<svg xmlns="http://www.w3.org/2000/svg" xmlns:xlink="http://www.w3.org/1999/xlink" width="415" height="83" viewBox="0 0 415 83"><defs><path id="zjbqa" d="M755.004 3179.99v-62.675h54.717v43.43c0 .087 0 .174.055.258a.631.631 0 0 0 .118.259c.055.086.111.173.167.23a.483.483 0 0 0 .284.201l33.649 18.297zm59.88-18.21h32.134v17.492zm266.118 18.21l33.649-18.297c.2-.084.373-.23.456-.431a.704.704 0 0 0 .112-.259c.061-.084.061-.17.061-.258v-43.43h54.717v62.675zm-3.047-.718v-17.492h32.162zm-266.151-19.59v-62.673h301.393v62.673z"/></defs><g><g transform="translate(-755 -3097)"><use xlink:href="#zjbqa"/><use fill="#2a2a2a" xlink:href="#zjbqa"/></g></g></svg>