<svg xmlns="http://www.w3.org/2000/svg" xmlns:xlink="http://www.w3.org/1999/xlink" width="62" height="58" viewBox="0 0 62 58"><defs><path id="my0za" d="M809 2640.19v1.1c0 5.14-4.2 9.3-9.41 9.3h-3.88a2.2 2.2 0 0 1-2.21-2.2v-15.31c0-1.2 1-2.2 2.21-2.2h2.22a19.8 19.8 0 0 0-19.93-19.7 19.8 19.8 0 0 0-19.93 19.7h2.22a2.2 2.2 0 0 1 2.21 2.2v15.32c0 1.2-1 2.18-2.21 2.18h-.78l3.21 4.98a12.66 12.66 0 0 0 10.8 5.97h.77a4.42 4.42 0 0 1 8.7 1.1 4.42 4.42 0 0 1-8.7 1.09h-.77c-5.2 0-9.91-2.58-12.68-6.95l-3.93-6.19h-.5a9.35 9.35 0 0 1-9.41-9.3v-1.1a9.34 9.34 0 0 1 8.86-9.24v-.05c0-12.1 9.9-21.89 22.14-21.89 12.23 0 22.14 9.8 22.14 21.94a9.34 9.34 0 0 1 8.86 9.25zm-32.66 22.43a2.2 2.2 0 1 0 4.43 0c0-1.2-1-2.19-2.22-2.19a2.2 2.2 0 0 0-2.21 2.2zm-19.93-29.54a7.14 7.14 0 0 0-7.2 7.1v1.1a7.14 7.14 0 0 0 7.2 7.12h3.88v-15.32zm50.38 7.1a7.14 7.14 0 0 0-7.2-7.1h-3.88v15.32h3.88c3.98 0 7.2-3.18 7.2-7.12zm-19.16-21.44c-.22.38-.55.55-.94.55-.17 0-.39-.06-.55-.17a2.25 2.25 0 0 1-.5-.27c-.17-.11-.33-.22-.44-.27-.56-.33-.67-.94-.4-1.48.29-.55 1-.71 1.5-.39l.45.28c.16.1.33.22.44.27.55.33.72.99.44 1.48zm-6.14-3.89c.55.17 1 .77.83 1.32-.17.54-.72.93-1.33.82a14.03 14.03 0 0 0-13.5 4.43 1 1 0 0 1-.84.38c-.28 0-.5-.1-.72-.27a1.1 1.1 0 0 1-.1-1.53 16.11 16.11 0 0 1 15.66-5.15z"/></defs><g><g transform="translate(-747 -2609)"><use fill="#11428c" xlink:href="#my0za"/></g></g></svg>