<svg xmlns="http://www.w3.org/2000/svg" xmlns:xlink="http://www.w3.org/1999/xlink" width="40" height="56" viewBox="0 0 40 56"><defs><path id="9i56a" d="M784.42 3778h-32.84a3.6 3.6 0 0 1-3.58-3.6v-27.57a3.6 3.6 0 0 1 3.58-3.6h2.83v-7.57c0-7.53 6.1-13.67 13.59-13.67s13.59 6.14 13.59 13.67c0 .48-.4.87-.87.87a.87.87 0 0 1-.87-.87 11.9 11.9 0 0 0-11.85-11.92 11.9 11.9 0 0 0-11.85 11.92v7.56h28.27a3.6 3.6 0 0 1 3.58 3.61v27.57a3.6 3.6 0 0 1-3.58 3.6zm-32.84-33.03c-1.02 0-1.85.84-1.85 1.86v27.57c0 1.02.83 1.86 1.85 1.86h32.84c1.02 0 1.85-.84 1.85-1.86v-27.57c0-1.03-.83-1.86-1.85-1.86zm16.42 24.54a2.68 2.68 0 0 1-2.68-2.69v-4.48a5.64 5.64 0 0 1 2.68-10.62 5.64 5.64 0 0 1 2.68 10.62v4.48a2.7 2.7 0 0 1-2.68 2.7zm0-16.05a3.9 3.9 0 0 0-1.48 7.52c.33.13.54.45.54.8v5.04a.94.94 0 1 0 1.89 0v-5.03c0-.36.2-.68.54-.81a3.9 3.9 0 0 0-1.49-7.52z"/></defs><g><g transform="translate(-748 -3722)"><use fill="#11428c" xlink:href="#9i56a"/></g></g></svg>