<svg xmlns="http://www.w3.org/2000/svg" xmlns:xlink="http://www.w3.org/1999/xlink" width="48" height="58" viewBox="0 0 48 58"><defs><path id="22zza" d="M782.14 2057.73h-5.26l-4.25 3.15a1 1 0 0 1-1.2 0l-4.26-3.15h-5.25c-.45 0-.84-.29-.97-.7l-1.63-5.1-4.26-3.16c-.35-.26-.5-.71-.37-1.13l1.64-5.1-1.64-5.1c-.13-.41.02-.87.37-1.13l4.26-3.15 1.62-5.1c.14-.42.53-.71.97-.71h5.25l4.26-3.15c.36-.26.85-.26 1.2 0l4.26 3.15h5.26c.44 0 .83.29.97.7l1.62 5.1 4.26 3.16c.35.26.5.71.37 1.13l-1.63 5.1 1.63 5.1c.13.42-.02.87-.37 1.13l-4.26 3.15-1.62 5.1c-.14.43-.53.71-.97.71zm-5.6-2.03h4.86l1.5-4.71c.07-.2.2-.38.36-.5l3.94-2.92-1.5-4.72c-.06-.2-.06-.42 0-.62l1.5-4.72-3.94-2.91c-.17-.13-.3-.3-.36-.51l-1.5-4.7h-4.85a1 1 0 0 1-.6-.2l-3.92-2.9-3.93 2.9a1 1 0 0 1-.6.2h-4.85l-1.5 4.7c-.06.2-.19.38-.36.5l-3.94 2.92 1.5 4.72c.07.2.07.42 0 .62l-1.5 4.72 3.94 2.91c.17.13.3.3.36.51l1.5 4.7h4.85a1 1 0 0 1 .6.2l3.93 2.9 3.92-2.9a1 1 0 0 1 .6-.2zm-9.22 7.75l-6.8 17.87c-.16.4-.54.65-.96.65h-.02c-.42 0-.8-.28-.94-.69l-2.46-7.3-6.59 4.06a1.02 1.02 0 0 1-1.49-1.2l6.07-17.12a1.01 1.01 0 1 1 1.92.68l-5.1 14.4 5.21-3.23a1.01 1.01 0 0 1 1.5.54l1.96 5.84 5.8-15.22c.2-.53.79-.79 1.3-.6.53.2.8.8.6 1.32zm28.3 14.52c-.34.27-.8.3-1.17.07l-6.6-4.06-2.45 7.3c-.14.41-.52.69-.95.7h-.02c-.42 0-.8-.26-.94-.66l-6.95-18.24c-.2-.52.06-1.11.59-1.31.52-.2 1.1.06 1.3.59l5.95 15.6 1.96-5.84a1.02 1.02 0 0 1 1.5-.55l5.22 3.22-5.1-14.39c-.2-.53.08-1.11.6-1.3.53-.19 1.12.09 1.3.62l6.07 17.11c.15.4.02.86-.32 1.14z"/></defs><g><g transform="translate(-748 -2024)"><use fill="#37d592" xlink:href="#22zza"/></g></g></svg>