<svg xmlns="http://www.w3.org/2000/svg" xmlns:xlink="http://www.w3.org/1999/xlink" width="74" height="74" viewBox="0 0 74 74"><defs><path id="uwzsa" d="M1017 502c20.434 0 37 16.565 37 37 0 20.434-16.566 37-37 37-20.435 0-37-16.566-37-37 0-20.435 16.565-37 37-37z"/><path id="uwzsb" d="M1041 526.176v20.362c0 4.506-3.647 8.17-8.128 8.17h-3.756c.657 1.784 1.619 3.334 3.303 5.005a3.099 3.099 0 0 1 .58 3.593 3.067 3.067 0 0 1-3.228 1.65c-1.356-.222-4.53-.74-7.784-2.522-3.28-1.797-5.806-4.391-7.529-7.725h-14.33c-4.482 0-8.128-3.665-8.128-8.17v-20.363c0-4.506 3.646-8.17 8.127-8.17h32.745c4.481 0 8.128 3.664 8.128 8.17zm-3.07 0c0-2.798-2.276-5.085-5.058-5.085h-32.745c-2.782 0-5.058 2.287-5.058 5.085v20.362c0 2.797 2.276 5.084 5.058 5.084h16.302c3.296 8.38 10.83 9.798 13.833 10.287-3.069-3.047-4.222-5.91-5.034-9.812-.033-.157.01-.318.019-.475h7.625c2.782 0 5.058-2.287 5.058-5.084zm-4.816 18.703c0 .568-.458 1.03-1.023 1.03h-7.587c-.565 0-1.023-.461-1.023-1.03 0-.567.458-1.028 1.023-1.028h7.587c.565 0 1.023.46 1.023 1.028zm-12.645 0c0 .568-.458 1.03-1.022 1.03h-18.64c-.564 0-1.022-.461-1.022-1.03 0-.567.458-1.028 1.023-1.028h18.639c.564 0 1.022.46 1.022 1.028zm12.645-5.743c0 .568-.458 1.028-1.023 1.028h-21.074c-.565 0-1.023-.46-1.023-1.028 0-.569.458-1.03 1.023-1.03h21.074c.565 0 1.023.461 1.023 1.03zm-33.33 0c0-.569.46-1.03 1.024-1.03h5.292c.564 0 1.023.461 1.023 1.03 0 .568-.459 1.028-1.023 1.028h-5.292c-.565 0-1.023-.46-1.023-1.028zm33.33-5.743c0 .567-.458 1.028-1.023 1.028h-11.801c-.565 0-1.024-.46-1.024-1.028 0-.568.459-1.029 1.024-1.029h11.8c.566 0 1.024.46 1.024 1.029zm-33.33 0c0-.568.46-1.029 1.024-1.029h12.738c.565 0 1.023.46 1.023 1.029 0 .567-.458 1.028-1.023 1.028h-12.738c-.565 0-1.023-.46-1.023-1.028zm33.33-5.745c0 .569-.458 1.03-1.023 1.03h-7.587c-.565 0-1.023-.461-1.023-1.03 0-.568.458-1.029 1.023-1.029h7.587c.565 0 1.023.46 1.023 1.03zm-33.33 0c0-.568.46-1.029 1.024-1.029h17.795c.565 0 1.024.46 1.024 1.03 0 .568-.459 1.028-1.024 1.028h-17.795c-.565 0-1.023-.46-1.023-1.029z"/></defs><g><g transform="translate(-980 -502)"><use fill="#ff3a3a" xlink:href="#uwzsa"/><use fill="#860000" xlink:href="#uwzsa"/></g><g transform="translate(-980 -502)"><use fill="#ff7878" xlink:href="#uwzsb"/><use fill="#fff" xlink:href="#uwzsb"/></g></g></svg>