<svg xmlns="http://www.w3.org/2000/svg" xmlns:xlink="http://www.w3.org/1999/xlink" width="47" height="65" viewBox="0 0 47 65"><defs><path id="kzjva" d="M1378.866 2183.48v12.91c0 1.33-.666 2.574-1.774 3.313l-12.663 8.433c5.879 3.186 9.88 9.41 9.88 16.553 0 10.373-8.437 18.81-18.808 18.81-10.372 0-18.81-8.437-18.81-18.81 0-7.143 4.002-13.369 9.882-16.553l-12.665-8.433a3.982 3.982 0 0 1-1.774-3.313v-12.91a3.98 3.98 0 0 1 3.98-3.98h38.772a3.98 3.98 0 0 1 3.98 3.98zm-23.365 26.379c-8.192 0-14.83 6.64-14.83 14.83 0 8.192 6.638 14.83 14.83 14.83 8.19 0 14.828-6.638 14.828-14.83 0-8.19-6.639-14.83-14.828-14.83zm19.385-26.379h-7.585v3.55a1.328 1.328 0 1 1-2.654 0v-3.55h-18.377v3.55a1.328 1.328 0 1 1-2.653 0v-3.55h-7.503v12.91l7.503 4.997v-7.524a1.326 1.326 0 0 1 2.653 0v9.291l4.868 3.242a18.81 18.81 0 0 1 4.363-.517c1.502 0 2.96.183 4.361.517l4.785-3.187v-9.346a1.326 1.326 0 0 1 2.654 0v7.578l7.585-5.05zm-19.385 29.309c1.01 0 1.933.574 2.38 1.48l2.206 4.475 4.94.716a2.653 2.653 0 0 1 1.47 4.526l-3.572 3.486.842 4.918a2.652 2.652 0 0 1-3.85 2.797l-4.416-2.322-4.418 2.322a2.66 2.66 0 0 1-2.794-.201 2.65 2.65 0 0 1-1.056-2.596l.843-4.918-3.574-3.484a2.655 2.655 0 0 1 1.472-4.528l4.938-.716 2.209-4.475a2.655 2.655 0 0 1 2.38-1.48zm0 2.654l-2.826 5.726-6.32.918 4.572 4.457-1.079 6.293 5.653-2.97 5.651 2.97-1.079-6.293 4.572-4.457-6.32-.917z"/></defs><g><g transform="translate(-1332 -2179)"><use fill="#ff7878" xlink:href="#kzjva"/><use fill="#fff" xlink:href="#kzjva"/></g></g></svg>