<svg xmlns="http://www.w3.org/2000/svg" xmlns:xlink="http://www.w3.org/1999/xlink" width="49" height="64" viewBox="0 0 49 64"><defs><path id="5gpka" d="M985.793 2202.343c0 10.355-6.61 19.584-16.257 22.972l-4.67 7.295a3.997 3.997 0 0 1-6.733 0l-4.67-7.295c-9.647-3.388-16.256-12.617-16.256-22.972 0-13.423 10.897-24.343 24.293-24.343 13.395 0 24.293 10.92 24.293 24.343zm-4 0c0-11.23-9.086-20.335-20.293-20.335-11.208 0-20.293 9.105-20.293 20.335 0 9.337 6.282 17.2 14.842 19.586l5.45 8.517 5.451-8.517c8.559-2.386 14.843-10.25 14.843-19.586zm-30.568 10.034a1.339 1.339 0 0 1-.955 2.27c-.347 0-.693-.136-.955-.405a16.975 16.975 0 0 1-4.83-11.899c0-9.401 7.633-17.05 17.015-17.05 2.046 0 4.047.36 5.947 1.071a1.337 1.337 0 0 1-.932 2.504 14.269 14.269 0 0 0-5.015-.903c-7.911 0-14.348 6.45-14.348 14.378 0 3.77 1.446 7.334 4.073 10.034zm27.29-10.034c0 9.401-7.633 17.05-17.015 17.05-2.591 0-5.08-.57-7.397-1.692a1.337 1.337 0 0 1-.62-1.784 1.33 1.33 0 0 1 1.78-.621 14.189 14.189 0 0 0 6.237 1.424c7.91 0 14.348-6.45 14.348-14.377 0-.923-.087-1.841-.26-2.728a1.337 1.337 0 0 1 1.056-1.566 1.332 1.332 0 0 1 1.564 1.057c.203 1.055.307 2.144.307 3.237zm-7.931-11.129a1.34 1.34 0 0 1-.188-1.88 1.331 1.331 0 0 1 1.876-.19 17.042 17.042 0 0 1 3.819 4.422 1.337 1.337 0 0 1-1.14 2.025 1.33 1.33 0 0 1-1.145-.648 14.354 14.354 0 0 0-3.222-3.729zm1.335 48.782a2.001 2.001 0 0 1-2 2.004h-16.84c-1.105 0-2-.898-2-2.004 0-1.107.895-2.005 2-2.005h16.84c1.105 0 2 .898 2 2.005z"/></defs><g><g transform="translate(-937 -2178)"><use fill="#ff7878" xlink:href="#5gpka"/><use fill="#fff" xlink:href="#5gpka"/></g></g></svg>