<svg xmlns="http://www.w3.org/2000/svg" xmlns:xlink="http://www.w3.org/1999/xlink" width="49" height="65" viewBox="0 0 49 65"><defs><path id="7tp9a" d="M555.067 2207.891a1.337 1.337 0 0 1-1.302-1.044 15.031 15.031 0 0 1-.188-5.607c1.271-8.219 9-13.87 17.213-12.6a15 15 0 0 1 5.434 1.958 1.337 1.337 0 0 1-1.373 2.293 12.323 12.323 0 0 0-4.47-1.609c-6.767-1.047-13.116 3.604-14.161 10.366-.24 1.548-.188 3.1.152 4.614a1.337 1.337 0 0 1-1.305 1.63zm37.493 14.24c.001 1.732.001 2.269-.012 6.554a20.504 20.504 0 0 1-.306 3.426c-.973 5.709-5.314 10.035-11.067 11.027-.41.068-.822.133-1.234.197-.24.037-.48.075-.718.114a3.91 3.91 0 0 1-.64.05h-2.715c-.193 0-.386-.013-.576-.04-.242-.036-.485-.067-.729-.1a32.492 32.492 0 0 1-1.603-.235c-4.554-.832-8.108-3.117-10.564-6.793-2.424-3.63-4.868-7.355-7.024-10.642a7.673 7.673 0 0 1-1.1-2.782c-5.955-4.38-9.834-11.42-9.834-19.362 0-13.258 10.786-24.045 24.045-24.045 13.258 0 24.043 10.787 24.043 24.045 0 3.381-.71 6.596-1.976 9.518 1.261 1.167 2.011 2.852 2.011 4.763v4.304zm-37.506-3.73c.032-.056.058-.114.092-.171a6.501 6.501 0 0 1 3.936-2.905 15.043 15.043 0 0 1-2.167-2.101 1.338 1.338 0 0 1 2.05-1.715 12.313 12.313 0 0 0 3.314 2.768v-10.175c0-.269 0-.605.03-1.004.253-3.108 3.019-5.638 6.166-5.638.294 0 .594.024.899.072 3.218.506 5.379 3.035 5.379 6.29.002 1.31.002 2.943.002 4.663h.135c.656 0 1.3.161 1.876.466a6.732 6.732 0 0 1 1.964 1.239c.079-.022.16-.03.24-.05a12.229 12.229 0 0 0 1.774-4.699 12.29 12.29 0 0 0-1.398-7.893 1.337 1.337 0 0 1 2.338-1.294 14.938 14.938 0 0 1 1.702 9.596c-.24 1.549-.717 3-1.377 4.335.138.037.277.076.416.122.84.289 1.587.75 2.21 1.34a6.23 6.23 0 0 1 1.687-.232c.189 0 .376.014.564.032a19.935 19.935 0 0 0 1.631-7.902c0-11.067-8.97-20.036-20.034-20.036-11.065 0-20.036 8.969-20.036 20.036 0 5.895 2.552 11.191 6.607 14.857zm33.498-.577c0-1.192-.685-2.112-1.769-2.348a2.127 2.127 0 0 0-.46-.051c-.837 0-1.647.482-2 1.283a3.048 3.048 0 0 0-.23 1.166c-.002.705-.005.95-.01.95v-.813.424c0 .187-.016.38-.074.555a.7.7 0 0 1-.64.453.476.476 0 0 1-.105-.01c-.337-.066-.573-.254-.618-.617-.014-.137-.014-.276-.014-.414v-1.596c.002 0 .004 1.178.005 1.178 0 0 .002-.387.003-1.596 0-1.073-.592-1.971-1.518-2.29a2.241 2.241 0 0 0-2.498.746c-.338.428-.467.922-.484 1.448v.758c0 .03 0 .06-.002.09v.012c-.028.488-.253.758-.649.793-.023.002-.046.002-.07.002a.707.707 0 0 1-.718-.64c-.013-.112-.009-.224-.009-.339v-1.595l.001 1.175.004-1.594c0-1.23-.544-1.99-1.716-2.395-.035-.011-.06-.04-.091-.064h-.902c-.277.137-.577.244-.829.416-.686.476-.956 1.179-.956 1.982l-.003 1.616.004-1.141s.003.388.003 1.614c0 .187-.004.388-.078.553a.652.652 0 0 1-.63.412h-.066c-.308-.024-.526-.178-.618-.467a1.89 1.89 0 0 1-.066-.555c-.005-3.569-.002-9.535-.005-13.1 0-1.272-.748-2.137-1.993-2.333a1.852 1.852 0 0 0-.276-.022c-1.052 0-2.084.895-2.17 1.952-.017.228-.017.452-.017.68v20.39c-.025.011-.052.019-.076.03a23.775 23.775 0 0 1-.303-.408c-.942-1.283-1.863-2.583-2.838-3.843-.585-.758-1.348-1.162-2.244-1.162a3.3 3.3 0 0 0-.62.062c-1.473.285-2.356 1.832-1.921 3.33.102.344.242.692.438.99 2.326 3.545 4.65 7.087 7.007 10.614 1.902 2.848 4.612 4.465 7.95 5.074.724.129 1.46.205 2.187.312h2.716c.64-.103 1.282-.199 1.919-.306 4.045-.697 7.1-3.717 7.787-7.748.158-.912.245-1.846.249-2.768.02-6.48.009-4.367.013-10.845z"/></defs><g><g transform="translate(-544 -2179)"><use fill="#ff7878" xlink:href="#7tp9a"/><use fill="#fff" xlink:href="#7tp9a"/></g></g></svg>