<svg width="24" height="24" viewBox="0 0 24 24" fill="none" xmlns="http://www.w3.org/2000/svg">
<path d="M0 12C0 5.38313 5.38313 0 12 0C18.6169 0 24 5.38313 24 12C24 18.6169 18.6169 24 12 24C5.38313 24 0 18.6169 0 12ZM23.1862 12C23.1862 5.83235 18.1682 0.813817 12 0.813817C5.83235 0.813817 0.813816 5.83235 0.813816 12C0.813816 18.1687 5.83235 23.1862 12 23.1862C18.1682 23.1862 23.1862 18.1687 23.1862 12Z" fill="#828282"/>
<path d="M7.78633 10.4932C7.78633 10.389 7.82593 10.2849 7.90569 10.2056C8.06411 10.0467 8.32236 10.0467 8.48133 10.2056L12.1728 13.8928L15.8637 10.2056C16.0227 10.0472 16.2809 10.0472 16.4394 10.2056C16.5983 10.3646 16.5983 10.6223 16.4394 10.7813L12.4609 14.7554C12.3019 14.9144 12.0442 14.9144 11.8853 14.7554L7.90677 10.7813C7.82593 10.7015 7.78633 10.5974 7.78633 10.4932Z" fill="#828282"/>
</svg>
