<svg width="48" height="48" viewBox="0 0 48 48" fill="none" xmlns="http://www.w3.org/2000/svg">
<path d="M44.784 12.0075C41.5794 6.45697 36.4052 2.48673 30.2145 0.827915C24.024 -0.830904 17.5578 0.0204435 12.0073 3.22492C6.45693 6.42941 2.4866 11.6037 0.827874 17.7943C-0.830851 23.9849 0.0204017 30.4512 3.22488 36.0015C6.09936 40.9803 10.668 44.7642 16.0892 46.6559C18.659 47.5525 21.3417 48 24.0202 48C26.9326 48 29.8397 47.4707 32.5876 46.4146C33.0709 46.2289 33.312 45.6865 33.1262 45.2032C32.9404 44.72 32.3979 44.4785 31.9148 44.6646C24.6004 47.4759 16.6821 46.1986 10.7662 41.758L11.6061 37.3738L12.0108 37.2423C13.5401 36.7455 14.3801 35.097 13.8835 33.5675L13.5865 32.6535C13.5177 32.442 13.5181 32.2184 13.5874 32.0071C13.8479 31.2129 13.7548 30.3439 13.3319 29.6228C12.909 28.9017 12.196 28.3961 11.3756 28.2357L9.25969 27.8223L5.17705 24.7182C4.93245 24.5322 4.61229 24.4779 4.31998 24.5728L1.92972 25.3493C1.879 24.4943 1.87825 23.6397 1.92644 22.7896C2.02075 22.8774 2.08216 22.9372 2.11994 22.9763C2.16672 23.0543 2.22466 23.1257 2.29254 23.1876C2.48772 23.3653 2.66454 23.4459 3.03579 23.4459C3.37695 23.4458 3.88198 23.3779 4.71589 23.2547C5.50677 23.1378 6.29352 23.0061 6.3013 23.0048C6.61658 22.952 6.88312 22.742 7.00855 22.4481C7.13399 22.1541 7.1009 21.8165 6.9208 21.5523L5.77133 19.8663L7.41777 18.689C7.52746 18.6105 7.61896 18.5093 7.68599 18.3923L10.2382 13.9368L11.2669 12.8345C12.3181 11.7078 12.6181 10.0594 12.031 8.63479C11.6847 7.7945 11.0799 7.09494 10.3233 6.62347C11.1427 5.97931 12.0163 5.38456 12.9448 4.84859C16.3515 2.8817 20.0693 1.92854 23.748 1.89208L22.074 3.99199L15.8663 6.16822C15.6142 6.25653 15.4117 6.44834 15.3099 6.69528L13.5762 10.8979C13.4531 11.1965 13.4922 11.5372 13.6798 11.8001L16.2118 15.3468C15.8492 15.6777 15.4962 16.1596 15.0746 16.7579C14.8898 17.0203 14.7152 17.2681 14.5946 17.407C14.4896 17.5279 14.3846 17.6461 14.2806 17.7631C13.736 18.3757 13.1729 19.0094 12.7729 19.8558C11.8933 21.7176 12.071 23.8815 13.2365 25.5032C14.3635 27.0712 16.2214 27.8682 18.2044 27.635C18.5275 27.5971 18.8287 27.5226 19.1202 27.4504C19.9239 27.2515 20.1785 27.2317 20.4363 27.473C20.5618 27.5905 20.5733 27.6127 20.5708 28.011C20.569 28.2645 20.567 28.5799 20.6544 28.94C20.7944 29.5161 21.1561 29.9142 21.4468 30.2341C21.5912 30.393 21.7407 30.5575 21.7867 30.6678C22.0791 31.3685 21.9518 31.7565 21.6728 32.6068C21.6489 32.6796 21.6245 32.7538 21.6 32.83C21.1762 34.142 21.767 35.4435 22.2883 36.5915C22.4576 36.9644 22.6174 37.3163 22.7221 37.6274C23.5651 40.1285 24.1969 40.7013 24.704 40.932C24.9696 41.0527 25.2445 41.1057 25.5222 41.1056C26.8736 41.1055 28.2838 39.8507 28.9316 39.0553C29.3385 38.5558 29.4387 38.0556 29.5118 37.6903C29.5483 37.5086 29.577 37.3651 29.6317 37.2714C29.7155 37.128 29.8143 37.0168 29.9392 36.876C30.1906 36.5929 30.5034 36.2408 30.706 35.6025C30.86 35.1176 30.9718 34.9987 31.3422 34.6042C31.4067 34.5357 31.4754 34.4624 31.5492 34.3821C32.7979 33.0234 32.4763 31.9855 32.1357 30.8865C31.8491 29.9619 32.3504 29.3705 33.5624 28.2418C34.0878 27.7525 34.631 27.2467 35.0509 26.6388C35.2346 26.3727 35.7937 25.5634 35.4477 24.7612C35.1086 23.9746 34.2468 23.8424 33.5543 23.7363C33.2809 23.6943 32.8676 23.6309 32.7361 23.5449C32.1561 23.1657 31.8012 22.3743 31.458 21.6088C31.3896 21.4565 31.3222 21.3061 31.2539 21.1601C31.132 20.8997 31.0102 20.5846 30.8813 20.251C30.5403 19.3683 30.1537 18.3677 29.4957 17.6702C28.9042 17.0434 27.7893 16.7416 26.8055 16.4751C26.4747 16.3856 26.1624 16.301 25.9564 16.225C25.7838 16.1613 25.5965 16.1497 25.4178 16.1917C24.9391 16.3039 24.6404 16.4276 24.4186 16.6054C24.36 16.6523 24.1864 16.8065 24.0848 17.0544C23.7416 16.8897 23.2696 16.5752 22.9792 16.3816C22.9732 16.3775 22.9671 16.3735 22.9611 16.3695C23.059 15.9778 22.9704 15.6634 22.8776 15.4671C22.3539 14.3594 20.6155 14.4461 20.2725 14.4752C20.0777 14.4916 19.8313 14.5003 19.5705 14.5095C19.161 14.524 18.7084 14.5403 18.2606 14.5906L18.2836 14.5262C18.6236 13.5791 19.5281 12.9427 20.5344 12.9427H21.0674C21.585 12.9427 22.0048 12.5229 22.0048 12.0053C22.0048 11.4877 21.585 11.0679 21.0674 11.0679H20.5344C19.0404 11.0679 17.6723 11.8542 16.9055 13.0918L15.5072 11.133L16.8829 7.79844L22.9488 5.67181C23.1151 5.6135 23.2618 5.50943 23.3717 5.37153L26.0683 1.98911C32.9584 2.64452 39.444 6.50759 43.1605 12.9447C44.1504 14.6593 44.8827 16.4644 45.3695 18.3106L44.9721 18.665C44.4534 19.1278 44.1494 19.7916 44.1378 20.4864C44.1377 20.494 44.1375 20.5015 44.1373 20.509L43.4898 18.7285C43.3934 18.4628 43.2512 18.2192 43.0677 18.0044L41.9128 16.6522C41.465 16.1281 40.8131 15.8276 40.1239 15.8276H38.7102C38.2084 15.8276 37.7498 16.1025 37.513 16.5447C37.2763 16.987 37.3022 17.5212 37.5805 17.9386L37.7236 18.1534C36.8101 18.9389 35.7535 19.5675 34.6285 19.9914L32.6907 16.2796V15.4515C32.6907 15.1953 32.5859 14.9502 32.4006 14.7735L30.6556 13.1076C30.5593 13.0157 30.4446 12.9454 30.319 12.9013L28.7482 12.3493C28.2595 12.1773 27.7246 12.4345 27.553 12.9228C27.3814 13.4114 27.6381 13.9464 28.1266 14.1181L29.507 14.6032L30.8159 15.8526V16.5096C30.8159 16.6607 30.8525 16.8095 30.9224 16.9435L33.3484 21.5904C33.5665 22.0086 34.0617 22.1996 34.5037 22.0361L35.2101 21.7757C36.8512 21.1704 38.3723 20.1968 39.609 18.9603C39.925 18.6442 39.9741 18.1493 39.7261 17.7774L39.6762 17.7025H40.1239C40.2639 17.7025 40.3963 17.7635 40.4873 17.87L41.6422 19.2222C41.6794 19.2658 41.7082 19.3151 41.7279 19.3692L43.0024 22.8739C43.1119 23.175 43.3677 23.3993 43.6802 23.4686C43.7477 23.4835 43.8157 23.4908 43.8833 23.4908C44.1292 23.4908 44.3685 23.394 44.5461 23.2163L45.1528 22.6096C45.5369 22.2253 45.8014 21.7391 45.9278 21.2001C46.8661 28.7194 43.9177 36.4977 37.6857 41.389C37.2784 41.7086 37.2073 42.2978 37.5271 42.7052C37.8467 43.1125 38.4358 43.1836 38.8433 42.8638C43.3425 39.3325 46.4335 34.2817 47.5468 28.6418C48.6705 22.9475 47.6894 17.0398 44.784 12.0075ZM4.43267 26.5075L8.29828 29.4467C8.41256 29.5336 8.54512 29.5931 8.68594 29.6205L11.0158 30.0758C11.3132 30.1339 11.5613 30.3098 11.7145 30.5712C11.8678 30.8324 11.9001 31.1348 11.8058 31.4227C11.6117 32.0145 11.6108 32.6405 11.8032 33.2327L12.1002 34.1466C12.2777 34.6928 11.9775 35.2816 11.4314 35.4591L10.4998 35.7618C10.1748 35.8674 9.9331 36.1415 9.86888 36.477L9.11906 40.3909C7.47065 38.8822 6.02333 37.0991 4.84855 35.0642C3.41529 32.582 2.51979 29.9344 2.1251 27.2573L4.43267 26.5075ZM9.89616 11.5554L8.79337 12.7369C8.74415 12.7897 8.70112 12.848 8.66522 12.9107L6.16096 17.2828L3.93523 18.8743C3.52067 19.1707 3.41885 19.7438 3.70592 20.165L4.53833 21.386C4.05851 21.4574 3.62792 21.5163 3.3416 21.5475C3.28657 21.4947 3.22901 21.4412 3.16948 21.3859C2.94663 21.1789 2.63697 20.9024 2.17535 20.4984C2.93669 15.7863 5.20733 11.347 8.77847 7.95838C9.46228 8.17372 10.0235 8.68382 10.2976 9.34917C10.606 10.0975 10.4483 10.9635 9.89616 11.5554ZM17.5396 16.6782C17.9578 16.4429 18.9283 16.4085 19.6368 16.3834C19.9208 16.3733 20.1891 16.3638 20.4287 16.3437C20.5552 16.3331 20.6956 16.3351 20.8281 16.3454C20.7689 16.4973 20.7497 16.6639 20.7754 16.8293C20.8205 17.1202 20.9999 17.3729 21.2594 17.5117C21.4352 17.6059 21.68 17.7691 21.9391 17.9419C22.6718 18.4303 23.5023 18.9839 24.2825 19.0336C24.992 19.0796 25.3868 18.6753 25.5559 18.503C25.5694 18.4894 25.5822 18.4757 25.5957 18.4632C25.6909 18.3856 25.7802 18.2815 25.8466 18.156C25.9965 18.1988 26.154 18.2415 26.3154 18.2853C26.8705 18.4355 27.9037 18.7153 28.132 18.9572C28.5375 19.387 28.8535 20.2052 29.1324 20.927C29.2733 21.2917 29.4065 21.636 29.5558 21.9552C29.6199 22.0922 29.683 22.2333 29.7471 22.3762C30.1797 23.341 30.67 24.4347 31.7102 25.1146C32.1818 25.4229 32.76 25.5115 33.2702 25.5898C33.3319 25.5993 33.4026 25.6102 33.4744 25.622C33.1716 26.0444 32.7404 26.4459 32.2849 26.8701C31.1243 27.9508 29.68 29.296 30.3452 31.4418C30.6591 32.4551 30.6738 32.5646 30.1689 33.1138C30.1001 33.1887 30.036 33.2569 29.9759 33.3209C29.5435 33.7812 29.202 34.1447 28.9192 35.0354C28.8371 35.294 28.7307 35.4138 28.5375 35.6313C28.383 35.8053 28.1905 36.0221 28.013 36.3258C27.8004 36.6898 27.7301 37.0402 27.6738 37.3217C27.6182 37.5988 27.5867 37.7378 27.4779 37.8713C27.2303 38.1752 26.7685 38.6166 26.2944 38.9178C25.8538 39.1976 25.5965 39.2358 25.5089 39.2306C25.4088 39.1233 25.0465 38.6537 24.499 37.0288C24.364 36.6279 24.1767 36.2154 23.9956 35.8165C23.5963 34.9371 23.1835 34.0277 23.3843 33.4063C23.408 33.3329 23.4315 33.2613 23.4545 33.1913C23.7753 32.2135 24.0781 31.2901 23.5171 29.9457C23.3463 29.5363 23.0744 29.2372 22.8346 28.9732C22.6795 28.8025 22.5037 28.609 22.4766 28.4976C22.4436 28.3617 22.4446 28.2049 22.4459 28.0233C22.449 27.5335 22.4539 26.7933 21.7181 26.1042C20.6806 25.1332 19.4709 25.4323 18.6703 25.6303C18.4243 25.6911 18.192 25.7486 17.9862 25.7728C16.6692 25.9271 15.4933 25.4303 14.7593 24.4088C13.9914 23.3403 13.8799 21.9024 14.4685 20.6565C14.7534 20.0536 15.1838 19.5692 15.6821 19.0085C15.791 18.886 15.9009 18.7625 16.0107 18.6359C16.1936 18.4251 16.3947 18.1398 16.6075 17.8376C16.8614 17.4771 17.3343 16.8059 17.5396 16.6782Z" fill="#333333"/>
<mask id="mask0" mask-type="alpha" maskUnits="userSpaceOnUse" x="0" y="0" width="49" height="48">
<path d="M44.784 12.0075C41.5794 6.45697 36.4052 2.48673 30.2145 0.827915C24.024 -0.830904 17.5578 0.0204435 12.0073 3.22492C6.45693 6.42941 2.4866 11.6037 0.827874 17.7943C-0.830851 23.9849 0.0204017 30.4512 3.22488 36.0015C6.09936 40.9803 10.668 44.7642 16.0892 46.6559C18.659 47.5525 21.3417 48 24.0202 48C26.9326 48 29.8397 47.4707 32.5876 46.4146C33.0709 46.2289 33.312 45.6865 33.1262 45.2032C32.9404 44.72 32.3979 44.4785 31.9148 44.6646C24.6004 47.4759 16.6821 46.1986 10.7662 41.758L11.6061 37.3738L12.0108 37.2423C13.5401 36.7455 14.3801 35.097 13.8835 33.5675L13.5865 32.6535C13.5177 32.442 13.5181 32.2184 13.5874 32.0071C13.8479 31.2129 13.7548 30.3439 13.3319 29.6228C12.909 28.9017 12.196 28.3961 11.3756 28.2357L9.25969 27.8223L5.17705 24.7182C4.93245 24.5322 4.61229 24.4779 4.31998 24.5728L1.92972 25.3493C1.879 24.4943 1.87825 23.6397 1.92644 22.7896C2.02075 22.8774 2.08216 22.9372 2.11994 22.9763C2.16672 23.0543 2.22466 23.1257 2.29254 23.1876C2.48772 23.3653 2.66454 23.4459 3.03579 23.4459C3.37695 23.4458 3.88198 23.3779 4.71589 23.2547C5.50677 23.1378 6.29352 23.0061 6.3013 23.0048C6.61658 22.952 6.88312 22.742 7.00855 22.4481C7.13399 22.1541 7.1009 21.8165 6.9208 21.5523L5.77133 19.8663L7.41777 18.689C7.52746 18.6105 7.61896 18.5093 7.68599 18.3923L10.2382 13.9368L11.2669 12.8345C12.3181 11.7078 12.6181 10.0594 12.031 8.63479C11.6847 7.7945 11.0799 7.09494 10.3233 6.62347C11.1427 5.97931 12.0163 5.38456 12.9448 4.84859C16.3515 2.8817 20.0693 1.92854 23.748 1.89208L22.074 3.99199L15.8663 6.16822C15.6142 6.25653 15.4117 6.44834 15.3099 6.69528L13.5762 10.8979C13.4531 11.1965 13.4922 11.5372 13.6798 11.8001L16.2118 15.3468C15.8492 15.6777 15.4962 16.1596 15.0746 16.7579C14.8898 17.0203 14.7152 17.2681 14.5946 17.407C14.4896 17.5279 14.3846 17.6461 14.2806 17.7631C13.736 18.3757 13.1729 19.0094 12.7729 19.8558C11.8933 21.7176 12.071 23.8815 13.2365 25.5032C14.3635 27.0712 16.2214 27.8682 18.2044 27.635C18.5275 27.5971 18.8287 27.5226 19.1202 27.4504C19.9239 27.2515 20.1785 27.2317 20.4363 27.473C20.5618 27.5905 20.5733 27.6127 20.5708 28.011C20.569 28.2645 20.567 28.5799 20.6544 28.94C20.7944 29.5161 21.1561 29.9142 21.4468 30.2341C21.5912 30.393 21.7407 30.5575 21.7867 30.6678C22.0791 31.3685 21.9518 31.7565 21.6728 32.6068C21.6489 32.6796 21.6245 32.7538 21.6 32.83C21.1762 34.142 21.767 35.4435 22.2883 36.5915C22.4576 36.9644 22.6174 37.3163 22.7221 37.6274C23.5651 40.1285 24.1969 40.7013 24.704 40.932C24.9696 41.0527 25.2445 41.1057 25.5222 41.1056C26.8736 41.1055 28.2838 39.8507 28.9316 39.0553C29.3385 38.5558 29.4387 38.0556 29.5118 37.6903C29.5483 37.5086 29.577 37.3651 29.6317 37.2714C29.7155 37.128 29.8143 37.0168 29.9392 36.876C30.1906 36.5929 30.5034 36.2408 30.706 35.6025C30.86 35.1176 30.9718 34.9987 31.3422 34.6042C31.4067 34.5357 31.4754 34.4624 31.5492 34.3821C32.7979 33.0234 32.4763 31.9855 32.1357 30.8865C31.8491 29.9619 32.3504 29.3705 33.5624 28.2418C34.0878 27.7525 34.631 27.2467 35.0509 26.6388C35.2346 26.3727 35.7937 25.5634 35.4477 24.7612C35.1086 23.9746 34.2468 23.8424 33.5543 23.7363C33.2809 23.6943 32.8676 23.6309 32.7361 23.5449C32.1561 23.1657 31.8012 22.3743 31.458 21.6088C31.3896 21.4565 31.3222 21.3061 31.2539 21.1601C31.132 20.8997 31.0102 20.5846 30.8813 20.251C30.5403 19.3683 30.1537 18.3677 29.4957 17.6702C28.9042 17.0434 27.7893 16.7416 26.8055 16.4751C26.4747 16.3856 26.1624 16.301 25.9564 16.225C25.7838 16.1613 25.5965 16.1497 25.4178 16.1917C24.9391 16.3039 24.6404 16.4276 24.4186 16.6054C24.36 16.6523 24.1864 16.8065 24.0848 17.0544C23.7416 16.8897 23.2696 16.5752 22.9792 16.3816C22.9732 16.3775 22.9671 16.3735 22.9611 16.3695C23.059 15.9778 22.9704 15.6634 22.8776 15.4671C22.3539 14.3594 20.6155 14.4461 20.2725 14.4752C20.0777 14.4916 19.8313 14.5003 19.5705 14.5095C19.161 14.524 18.7084 14.5403 18.2606 14.5906L18.2836 14.5262C18.6236 13.5791 19.5281 12.9427 20.5344 12.9427H21.0674C21.585 12.9427 22.0048 12.5229 22.0048 12.0053C22.0048 11.4877 21.585 11.0679 21.0674 11.0679H20.5344C19.0404 11.0679 17.6723 11.8542 16.9055 13.0918L15.5072 11.133L16.8829 7.79844L22.9488 5.67181C23.1151 5.6135 23.2618 5.50943 23.3717 5.37153L26.0683 1.98911C32.9584 2.64452 39.444 6.50759 43.1605 12.9447C44.1504 14.6593 44.8827 16.4644 45.3695 18.3106L44.9721 18.665C44.4534 19.1278 44.1494 19.7916 44.1378 20.4864C44.1377 20.494 44.1375 20.5015 44.1373 20.509L43.4898 18.7285C43.3934 18.4628 43.2512 18.2192 43.0677 18.0044L41.9128 16.6522C41.465 16.1281 40.8131 15.8276 40.1239 15.8276H38.7102C38.2084 15.8276 37.7498 16.1025 37.513 16.5447C37.2763 16.987 37.3022 17.5212 37.5805 17.9386L37.7236 18.1534C36.8101 18.9389 35.7535 19.5675 34.6285 19.9914L32.6907 16.2796V15.4515C32.6907 15.1953 32.5859 14.9502 32.4006 14.7735L30.6556 13.1076C30.5593 13.0157 30.4446 12.9454 30.319 12.9013L28.7482 12.3493C28.2595 12.1773 27.7246 12.4345 27.553 12.9228C27.3814 13.4114 27.6381 13.9464 28.1266 14.1181L29.507 14.6032L30.8159 15.8526V16.5096C30.8159 16.6607 30.8525 16.8095 30.9224 16.9435L33.3484 21.5904C33.5665 22.0086 34.0617 22.1996 34.5037 22.0361L35.2101 21.7757C36.8512 21.1704 38.3723 20.1968 39.609 18.9603C39.925 18.6442 39.9741 18.1493 39.7261 17.7774L39.6762 17.7025H40.1239C40.2639 17.7025 40.3963 17.7635 40.4873 17.87L41.6422 19.2222C41.6794 19.2658 41.7082 19.3151 41.7279 19.3692L43.0024 22.8739C43.1119 23.175 43.3677 23.3993 43.6802 23.4686C43.7477 23.4835 43.8157 23.4908 43.8833 23.4908C44.1292 23.4908 44.3685 23.394 44.5461 23.2163L45.1528 22.6096C45.5369 22.2253 45.8014 21.7391 45.9278 21.2001C46.8661 28.7194 43.9177 36.4977 37.6857 41.389C37.2784 41.7086 37.2073 42.2978 37.5271 42.7052C37.8467 43.1125 38.4358 43.1836 38.8433 42.8638C43.3425 39.3325 46.4335 34.2817 47.5468 28.6418C48.6705 22.9475 47.6894 17.0398 44.784 12.0075ZM4.43267 26.5075L8.29828 29.4467C8.41256 29.5336 8.54512 29.5931 8.68594 29.6205L11.0158 30.0758C11.3132 30.1339 11.5613 30.3098 11.7145 30.5712C11.8678 30.8324 11.9001 31.1348 11.8058 31.4227C11.6117 32.0145 11.6108 32.6405 11.8032 33.2327L12.1002 34.1466C12.2777 34.6928 11.9775 35.2816 11.4314 35.4591L10.4998 35.7618C10.1748 35.8674 9.9331 36.1415 9.86888 36.477L9.11906 40.3909C7.47065 38.8822 6.02333 37.0991 4.84855 35.0642C3.41529 32.582 2.51979 29.9344 2.1251 27.2573L4.43267 26.5075ZM9.89616 11.5554L8.79337 12.7369C8.74415 12.7897 8.70112 12.848 8.66522 12.9107L6.16096 17.2828L3.93523 18.8743C3.52067 19.1707 3.41885 19.7438 3.70592 20.165L4.53833 21.386C4.05851 21.4574 3.62792 21.5163 3.3416 21.5475C3.28657 21.4947 3.22901 21.4412 3.16948 21.3859C2.94663 21.1789 2.63697 20.9024 2.17535 20.4984C2.93669 15.7863 5.20733 11.347 8.77847 7.95838C9.46228 8.17372 10.0235 8.68382 10.2976 9.34917C10.606 10.0975 10.4483 10.9635 9.89616 11.5554ZM17.5396 16.6782C17.9578 16.4429 18.9283 16.4085 19.6368 16.3834C19.9208 16.3733 20.1891 16.3638 20.4287 16.3437C20.5552 16.3331 20.6956 16.3351 20.8281 16.3454C20.7689 16.4973 20.7497 16.6639 20.7754 16.8293C20.8205 17.1202 20.9999 17.3729 21.2594 17.5117C21.4352 17.6059 21.68 17.7691 21.9391 17.9419C22.6718 18.4303 23.5023 18.9839 24.2825 19.0336C24.992 19.0796 25.3868 18.6753 25.5559 18.503C25.5694 18.4894 25.5822 18.4757 25.5957 18.4632C25.6909 18.3856 25.7802 18.2815 25.8466 18.156C25.9965 18.1988 26.154 18.2415 26.3154 18.2853C26.8705 18.4355 27.9037 18.7153 28.132 18.9572C28.5375 19.387 28.8535 20.2052 29.1324 20.927C29.2733 21.2917 29.4065 21.636 29.5558 21.9552C29.6199 22.0922 29.683 22.2333 29.7471 22.3762C30.1797 23.341 30.67 24.4347 31.7102 25.1146C32.1818 25.4229 32.76 25.5115 33.2702 25.5898C33.3319 25.5993 33.4026 25.6102 33.4744 25.622C33.1716 26.0444 32.7404 26.4459 32.2849 26.8701C31.1243 27.9508 29.68 29.296 30.3452 31.4418C30.6591 32.4551 30.6738 32.5646 30.1689 33.1138C30.1001 33.1887 30.036 33.2569 29.9759 33.3209C29.5435 33.7812 29.202 34.1447 28.9192 35.0354C28.8371 35.294 28.7307 35.4138 28.5375 35.6313C28.383 35.8053 28.1905 36.0221 28.013 36.3258C27.8004 36.6898 27.7301 37.0402 27.6738 37.3217C27.6182 37.5988 27.5867 37.7378 27.4779 37.8713C27.2303 38.1752 26.7685 38.6166 26.2944 38.9178C25.8538 39.1976 25.5965 39.2358 25.5089 39.2306C25.4088 39.1233 25.0465 38.6537 24.499 37.0288C24.364 36.6279 24.1767 36.2154 23.9956 35.8165C23.5963 34.9371 23.1835 34.0277 23.3843 33.4063C23.408 33.3329 23.4315 33.2613 23.4545 33.1913C23.7753 32.2135 24.0781 31.2901 23.5171 29.9457C23.3463 29.5363 23.0744 29.2372 22.8346 28.9732C22.6795 28.8025 22.5037 28.609 22.4766 28.4976C22.4436 28.3617 22.4446 28.2049 22.4459 28.0233C22.449 27.5335 22.4539 26.7933 21.7181 26.1042C20.6806 25.1332 19.4709 25.4323 18.6703 25.6303C18.4243 25.6911 18.192 25.7486 17.9862 25.7728C16.6692 25.9271 15.4933 25.4303 14.7593 24.4088C13.9914 23.3403 13.8799 21.9024 14.4685 20.6565C14.7534 20.0536 15.1838 19.5692 15.6821 19.0085C15.791 18.886 15.9009 18.7625 16.0107 18.6359C16.1936 18.4251 16.3947 18.1398 16.6075 17.8376C16.8614 17.4771 17.3343 16.8059 17.5396 16.6782Z" fill="black"/>
</mask>
<g mask="url(#mask0)">
<path d="M19.4996 14.5C34.9124 12.7874 29 23 36.9998 24C44.9885 24.9986 36.9528 41.7482 28.9998 42.9999C21.7596 44.1395 19.2106 35.9919 15.0003 30.5C9.13919 22.8548 10.4994 15.5 19.4996 14.5Z" fill="#FABE1D"/>
</g>
</svg>
