<svg width="31" height="24" viewBox="0 0 31 24" fill="none" xmlns="http://www.w3.org/2000/svg">
<path d="M2.93178 7.39775C3.31818 7.67042 4.48293 8.48023 6.42609 9.82678C8.3693 11.1733 9.85794 12.2101 10.8921 12.9372C11.0057 13.017 11.2471 13.1902 11.6163 13.4573C11.9856 13.7245 12.2925 13.9404 12.5367 14.1052C12.7811 14.2698 13.0765 14.4545 13.4232 14.659C13.7699 14.8633 14.0966 15.017 14.4034 15.1187C14.7103 15.2213 14.9944 15.2721 15.2557 15.2721H15.2728H15.29C15.5514 15.2721 15.8355 15.2213 16.1424 15.1187C16.4491 15.017 16.7762 14.8632 17.1225 14.659C17.469 14.4543 17.7644 14.2698 18.0088 14.1052C18.2532 13.9404 18.5598 13.7245 18.9292 13.4573C19.2984 13.19 19.5401 13.017 19.6537 12.9372C20.699 12.2101 23.3584 10.3634 27.631 7.3974C28.4605 6.8181 29.1535 6.11909 29.7102 5.30086C30.2674 4.48299 30.5457 3.62499 30.5457 2.72736C30.5457 1.97725 30.2756 1.33514 29.7358 0.801096C29.196 0.266933 28.5567 0 27.8183 0H2.72718C1.85223 0 1.1789 0.295411 0.707303 0.886233C0.235768 1.47717 0 2.21582 0 3.10211C0 3.81801 0.312606 4.5938 0.937518 5.42898C1.56237 6.26423 2.22734 6.92055 2.93178 7.39775Z" fill="#FABE1D"/>
<path d="M28.8409 9.22119C25.114 11.7437 22.2841 13.7041 20.3525 15.102C19.7048 15.5791 19.1793 15.9515 18.7758 16.2184C18.3723 16.4854 17.8356 16.7582 17.165 17.0364C16.4947 17.3151 15.8699 17.4541 15.2903 17.4541H15.2729H15.2558C14.6762 17.4541 14.0511 17.3151 13.3808 17.0364C12.7104 16.7582 12.1734 16.4854 11.77 16.2184C11.3667 15.9515 10.8411 15.5791 10.1934 15.102C8.65922 13.9771 5.83538 12.0165 1.72178 9.22119C1.07388 8.78965 0.500014 8.29501 0 7.73828V21.2721C0 22.0226 0.266933 22.6643 0.801096 23.1984C1.33514 23.7327 1.97731 23.9997 2.72736 23.9997H27.8186C28.5684 23.9997 29.2105 23.7327 29.7446 23.1984C30.2789 22.6641 30.5457 22.0226 30.5457 21.2721V7.73828C30.057 8.28349 29.489 8.77813 28.8409 9.22119Z" fill="#FABE1D"/>
</svg>
