<svg width="28" height="41" viewBox="0 0 28 41" fill="none" xmlns="http://www.w3.org/2000/svg">
<path fill-rule="evenodd" clip-rule="evenodd" d="M17.081 37.869C17.2 37.689 19.042 34.407 21.93 29.27C26.014 22.007 28 16.977 28 13.892C28 6.232 21.719 0 14 0C6.28 0 0 6.232 0 13.892C0 16.977 1.985 22.007 6.069 29.27C8.958 34.407 10.799 37.689 10.919 37.869C10.919 37.869 12.148 40.869 13.946 40.869C15.718 40.869 17.081 37.869 17.081 37.869Z" fill="#FABE1D"/>
<path fill-rule="evenodd" clip-rule="evenodd" d="M14.25 21.4531C18.2541 21.4531 21.5 18.2072 21.5 14.2031C21.5 10.1991 18.2541 6.95312 14.25 6.95312C10.2459 6.95312 7 10.1991 7 14.2031C7 18.2072 10.2459 21.4531 14.25 21.4531Z" fill="#FBFBFB"/>
</svg>
