<svg width="52" height="52" viewBox="0 0 52 52" fill="none" xmlns="http://www.w3.org/2000/svg">
<path d="M26 0C11.6299 0 0 11.6286 0 26C0 40.3701 11.6286 52 26 52C40.3701 52 52 40.3714 52 26C52 11.6299 40.3714 0 26 0ZM26 48.5334C13.5751 48.5334 3.46663 38.425 3.46663 26C3.46663 13.575 13.5751 3.46663 26 3.46663C38.4249 3.46663 48.5334 13.5751 48.5334 26C48.5334 38.4249 38.4249 48.5334 26 48.5334Z" fill="#C5930E"/>
<path d="M37.7146 24.2667H27.7332V14.2853C27.7332 13.3281 26.9572 12.5519 25.9999 12.5519C25.0425 12.5519 24.2665 13.328 24.2665 14.2853V24.2667H14.2851C13.3279 24.2667 12.5518 25.0427 12.5518 26C12.5518 26.9574 13.3278 27.7334 14.2851 27.7334H24.2665V37.7148C24.2665 38.672 25.0425 39.4481 25.9999 39.4481C26.9572 39.4481 27.7332 38.6721 27.7332 37.7148V27.7334H37.7146C38.6718 27.7334 39.4479 26.9574 39.4479 26C39.4479 25.0427 38.6718 24.2667 37.7146 24.2667Z" fill="#C5930E"/>
</svg>
