<svg width="13" height="13" viewBox="0 0 13 13" fill="none" xmlns="http://www.w3.org/2000/svg">
<path d="M12.9938 10.2595C13.0213 10.4707 12.957 10.6543 12.8011 10.8104L10.9708 12.6281C10.8882 12.7199 10.7804 12.798 10.6474 12.8622C10.5143 12.9265 10.3836 12.9678 10.2552 12.9861C10.246 12.9861 10.2184 12.9885 10.1726 12.9931C10.1267 12.9977 10.0671 13 9.99371 13C9.81935 13 9.5372 12.9702 9.14727 12.9105C8.75734 12.8508 8.28028 12.7039 7.71607 12.4698C7.15173 12.2357 6.51181 11.8845 5.7962 11.4163C5.08059 10.9481 4.31906 10.3054 3.51168 9.48833C2.86944 8.85486 2.3373 8.24893 1.91526 7.67056C1.49322 7.09215 1.15375 6.55737 0.896859 6.0662C0.639942 5.57503 0.447271 5.12976 0.318824 4.73039C0.190377 4.33103 0.103216 3.98675 0.0573425 3.69756C0.0114685 3.40836 -0.0068811 3.18114 0.0022937 3.01588C0.0114685 2.85063 0.0160559 2.75882 0.0160559 2.74046C0.0344055 2.61193 0.0756921 2.4811 0.139916 2.34798C0.204139 2.21486 0.282125 2.10699 0.373873 2.02436L2.20424 0.192796C2.33269 0.0642654 2.47949 0 2.64463 0C2.76391 0 2.86942 0.0344279 2.96117 0.103284C3.05291 0.17214 3.1309 0.257062 3.19512 0.35805L4.66768 3.1536C4.75025 3.30049 4.77319 3.46115 4.73649 3.63559C4.69979 3.81002 4.6218 3.95691 4.50253 4.07626L3.82818 4.75105C3.80983 4.76941 3.79378 4.79925 3.78002 4.84056C3.76625 4.88188 3.75937 4.9163 3.75937 4.94385C3.79607 5.13664 3.87864 5.35698 4.00709 5.60486C4.11719 5.8252 4.28692 6.09374 4.51629 6.41048C4.74566 6.72721 5.07137 7.09213 5.49341 7.50526C5.90627 7.92762 6.27327 8.25579 6.59438 8.48994C6.91543 8.72396 7.18389 8.89617 7.39949 9.00634C7.6151 9.11651 7.78025 9.18307 7.89491 9.20595L8.06689 9.24041C8.08524 9.24041 8.11513 9.2335 8.15637 9.21975C8.19766 9.20595 8.22747 9.18991 8.24585 9.17153L9.03027 8.3728C9.19551 8.22593 9.38809 8.15248 9.6083 8.15248C9.76432 8.15248 9.88811 8.18 9.97986 8.23511H9.9936L12.6497 9.80502C12.8424 9.92446 12.9571 10.0759 12.9938 10.2595Z" fill="black"/>
</svg>
