<svg width="17" height="24" viewBox="0 0 17 24" fill="none" xmlns="http://www.w3.org/2000/svg">
<path fill-rule="evenodd" clip-rule="evenodd" d="M10.0307 22.2383C10.1006 22.1326 11.1823 20.2052 12.8782 17.1886C15.2765 12.9234 16.4428 9.96961 16.4428 8.15797C16.4428 3.65969 12.7543 0 8.22139 0C3.68788 0 0 3.65969 0 8.15797C0 9.96961 1.16568 12.9234 3.56397 17.1886C5.26052 20.2052 6.34163 22.1326 6.4121 22.2383C6.4121 22.2383 7.13382 24 8.18968 24C9.23027 24 10.0307 22.2383 10.0307 22.2383Z" fill="#FABE1D"/>
<path fill-rule="evenodd" clip-rule="evenodd" d="M8.36786 12.598C10.7192 12.598 12.6254 10.6919 12.6254 8.34051C12.6254 5.98916 10.7192 4.08301 8.36786 4.08301C6.0165 4.08301 4.11035 5.98916 4.11035 8.34051C4.11035 10.6919 6.0165 12.598 8.36786 12.598Z" fill="#FBFBFB"/>
</svg>
