<svg width="48" height="44" viewBox="0 0 48 44" fill="none" xmlns="http://www.w3.org/2000/svg">
<path d="M47.7771 41.4469L37.6879 25.049C37.412 24.6007 36.933 24.333 36.4066 24.333C35.8803 24.333 35.4013 24.6008 35.1256 25.049L33.8158 27.178C33.6119 27.5092 33.7153 27.943 34.0465 28.1468C34.3779 28.3505 34.8115 28.2473 35.0154 27.916L36.3253 25.787C36.3322 25.7757 36.3533 25.7414 36.4068 25.7414C36.4603 25.7414 36.4815 25.7757 36.4885 25.787L46.5777 42.1849C46.5857 42.1979 46.6071 42.2327 46.5797 42.2817C46.5524 42.3308 46.5115 42.3308 46.4961 42.3308H40.9086L25.2811 16.9322C25.1408 16.704 24.9477 16.523 24.7226 16.3999C24.7228 16.4 24.7231 16.4002 24.7233 16.4003V11.6209C25.3093 11.7798 25.8802 11.8477 26.4387 11.8477C28.0448 11.8477 29.5488 11.2894 31.0202 10.7432C33.0591 9.98635 34.9849 9.27151 37.0678 10.1068C37.3364 10.2145 37.64 10.1821 37.8797 10.0199C38.1198 9.85754 38.2631 9.58764 38.2631 9.29795V1.3426C38.2631 0.991975 38.055 0.676881 37.7334 0.540006C35.0893 -0.587526 32.7715 0.272725 30.53 1.10466C28.4302 1.8841 26.4469 2.62032 24.2874 1.65516C24.0694 1.55776 23.8171 1.57744 23.6169 1.70719C23.4166 1.83704 23.2958 2.05941 23.2958 2.2981V2.32426C23.2837 2.37666 23.2767 2.43094 23.2767 2.48701V16.4003C23.052 16.5234 22.8591 16.7043 22.7188 16.9322L15.2996 28.9906L12.8744 25.0491C12.5986 24.6008 12.1196 24.3331 11.5932 24.3331C11.0669 24.3331 10.588 24.6008 10.3121 25.0491L0.222859 41.4469C-0.0624221 41.9105 -0.0746096 42.4937 0.190891 42.9689C0.456391 43.4442 0.959547 43.7394 1.50395 43.7394H46.496C47.0404 43.7394 47.5436 43.4442 47.8091 42.9689C48.0747 42.4937 48.0624 41.9104 47.7771 41.4469ZM24.7043 3.29795C26.984 3.92326 29.0316 3.16323 31.0202 2.42504C32.9876 1.69473 34.8515 1.00304 36.8547 1.7086V8.55095C34.5681 7.92395 32.5184 8.68482 30.5301 9.42282C28.566 10.1518 26.7039 10.843 24.7043 10.1396V3.29795ZM8.74521 42.3309L11.1612 38.4042C11.3651 38.0729 11.2617 37.6391 10.9305 37.4353C10.5992 37.2316 10.1655 37.3348 9.96171 37.6661L7.09155 42.3309H1.50405C1.48867 42.3309 1.4478 42.3309 1.42042 42.2818C1.39305 42.2328 1.41433 42.1981 1.42248 42.185L11.5118 25.7872C11.5187 25.7759 11.5398 25.7416 11.5933 25.7416C11.6469 25.7416 11.668 25.7759 11.6749 25.7872L14.4728 30.3344L11.6791 34.8748C11.4753 35.2061 11.5786 35.6398 11.9098 35.8436C12.2412 36.0475 12.6749 35.9441 12.8786 35.6129L23.9185 17.6702C23.9254 17.659 23.9465 17.6246 24 17.6246C24.0535 17.6246 24.0746 17.659 24.0816 17.6702L39.2548 42.3309H8.74521Z" fill="#333333"/>
<mask id="mask0" mask-type="alpha" maskUnits="userSpaceOnUse" x="0" y="0" width="48" height="44">
<path d="M47.7771 41.4469L37.6879 25.049C37.412 24.6007 36.933 24.333 36.4066 24.333C35.8803 24.333 35.4013 24.6008 35.1256 25.049L33.8158 27.178C33.6119 27.5092 33.7153 27.943 34.0465 28.1468C34.3779 28.3505 34.8115 28.2473 35.0154 27.916L36.3253 25.787C36.3322 25.7757 36.3533 25.7414 36.4068 25.7414C36.4603 25.7414 36.4815 25.7757 36.4885 25.787L46.5777 42.1849C46.5857 42.1979 46.6071 42.2327 46.5797 42.2817C46.5524 42.3308 46.5115 42.3308 46.4961 42.3308H40.9086L25.2811 16.9322C25.1408 16.704 24.9477 16.523 24.7226 16.3999C24.7228 16.4 24.7231 16.4002 24.7233 16.4003V11.6209C25.3093 11.7798 25.8802 11.8477 26.4387 11.8477C28.0448 11.8477 29.5488 11.2894 31.0202 10.7432C33.0591 9.98635 34.9849 9.27151 37.0678 10.1068C37.3364 10.2145 37.64 10.1821 37.8797 10.0199C38.1198 9.85754 38.2631 9.58764 38.2631 9.29795V1.3426C38.2631 0.991975 38.055 0.676881 37.7334 0.540006C35.0893 -0.587526 32.7715 0.272725 30.53 1.10466C28.4302 1.8841 26.4469 2.62032 24.2874 1.65516C24.0694 1.55776 23.8171 1.57744 23.6169 1.70719C23.4166 1.83704 23.2958 2.05941 23.2958 2.2981V2.32426C23.2837 2.37666 23.2767 2.43094 23.2767 2.48701V16.4003C23.052 16.5234 22.8591 16.7043 22.7188 16.9322L15.2996 28.9906L12.8744 25.0491C12.5986 24.6008 12.1196 24.3331 11.5932 24.3331C11.0669 24.3331 10.588 24.6008 10.3121 25.0491L0.222859 41.4469C-0.0624221 41.9105 -0.0746096 42.4937 0.190891 42.9689C0.456391 43.4442 0.959547 43.7394 1.50395 43.7394H46.496C47.0404 43.7394 47.5436 43.4442 47.8091 42.9689C48.0747 42.4937 48.0624 41.9104 47.7771 41.4469ZM24.7043 3.29795C26.984 3.92326 29.0316 3.16323 31.0202 2.42504C32.9876 1.69473 34.8515 1.00304 36.8547 1.7086V8.55095C34.5681 7.92395 32.5184 8.68482 30.5301 9.42282C28.566 10.1518 26.7039 10.843 24.7043 10.1396V3.29795ZM8.74521 42.3309L11.1612 38.4042C11.3651 38.0729 11.2617 37.6391 10.9305 37.4353C10.5992 37.2316 10.1655 37.3348 9.96171 37.6661L7.09155 42.3309H1.50405C1.48867 42.3309 1.4478 42.3309 1.42042 42.2818C1.39305 42.2328 1.41433 42.1981 1.42248 42.185L11.5118 25.7872C11.5187 25.7759 11.5398 25.7416 11.5933 25.7416C11.6469 25.7416 11.668 25.7759 11.6749 25.7872L14.4728 30.3344L11.6791 34.8748C11.4753 35.2061 11.5786 35.6398 11.9098 35.8436C12.2412 36.0475 12.6749 35.9441 12.8786 35.6129L23.9185 17.6702C23.9254 17.659 23.9465 17.6246 24 17.6246C24.0535 17.6246 24.0746 17.659 24.0816 17.6702L39.2548 42.3309H8.74521Z" fill="black"/>
</mask>
<g mask="url(#mask0)">
<path d="M22 -0.999878H39V16.4043H22V-0.999878Z" fill="#FABE1D"/>
</g>
</svg>
