<svg width="40" height="40" viewBox="0 0 40 40" fill="none" xmlns="http://www.w3.org/2000/svg">
<path d="M8.32031 29.9741C8.32031 30.2975 8.58276 30.56 8.90625 30.56C9.22974 30.56 9.49219 30.2975 9.49219 29.9741V23.71C9.50409 23.71 9.51599 23.7106 9.52789 23.7106C9.93164 23.7106 10.2921 23.6551 10.5594 23.5971C10.8682 23.53 11.088 23.2523 11.0822 22.9364C11.0764 22.6202 10.8463 22.3508 10.5353 22.2949C10.2435 22.2427 10.0452 22.1176 9.91119 21.9016C9.62555 21.441 9.67407 20.6754 9.76471 20.1547H12.8857C14.87 20.1547 16.4844 18.5403 16.4844 16.5561V9.30023C16.4844 7.31598 14.87 5.7016 12.8857 5.7016H9.49219V4.76562H12.4741C12.7975 4.76562 13.06 4.50317 13.06 4.17969C13.06 3.8562 12.7975 3.59375 12.4741 3.59375H9.49219V2.92969C9.49219 1.96045 10.2808 1.17188 11.25 1.17188H28.75C29.7192 1.17188 30.5078 1.96045 30.5078 2.92969V3.59375H14.9741C14.6503 3.59375 14.3881 3.8562 14.3881 4.17969C14.3881 4.50317 14.6503 4.76562 14.9741 4.76562H30.5078V7.5C30.5078 7.82349 30.7703 8.08594 31.0938 8.08594C31.4172 8.08594 31.6797 7.82349 31.6797 7.5V2.92969C31.6797 1.31409 30.3656 0 28.75 0H11.25C9.6344 0 8.32031 1.31409 8.32031 2.92969V5.7016H3.59863C1.61438 5.7016 0 7.31598 0 9.30023V16.5561C0 18.5403 1.61438 20.1547 3.59863 20.1547H6.0022C6.17126 21.485 6.65619 22.4612 7.44751 23.0612C7.72675 23.273 8.02277 23.4204 8.32031 23.5214V29.9741ZM7.12128 19.534C7.10297 19.2245 6.84662 18.9828 6.53625 18.9828H3.59863C2.26044 18.9828 1.17188 17.8943 1.17188 16.5561V9.30023C1.17188 7.96204 2.26044 6.87347 3.59863 6.87347H12.8857C14.2239 6.87347 15.3125 7.96204 15.3125 9.30023V16.5561C15.3125 17.8943 14.2239 18.9828 12.8857 18.9828H9.29688C9.03717 18.9828 8.80829 19.1541 8.73505 19.4031C8.67798 19.5959 8.20557 21.2991 8.88336 22.4661C8.63129 22.4045 8.38135 22.2986 8.15582 22.1274C7.54395 21.6635 7.19574 20.791 7.12128 19.534Z" fill="#4F4F4F"/>
<path d="M18.4375 38.2031H21.5625C21.886 38.2031 22.1484 37.9407 22.1484 37.6172C22.1484 37.2937 21.886 37.0312 21.5625 37.0312H18.4375C18.114 37.0312 17.8516 37.2937 17.8516 37.6172C17.8516 37.9407 18.114 38.2031 18.4375 38.2031Z" fill="#4F4F4F"/>
<path d="M12.1094 11.9202C12.1094 10.5579 11.1398 9.49072 9.90234 9.49072C9.16473 9.49072 8.62091 9.79437 8.28125 10.0666C7.94159 9.79437 7.39777 9.49072 6.66016 9.49072C5.42267 9.49072 4.45312 10.5579 4.45312 11.9202C4.45312 12.7848 4.89441 14.4675 7.85095 16.0251C7.98553 16.0963 8.13354 16.1317 8.28125 16.1317C8.42926 16.1317 8.57697 16.0959 8.71185 16.0251C11.6681 14.4675 12.1094 12.7848 12.1094 11.9202ZM5.625 11.9202C5.625 11.3105 5.98785 10.6626 6.66016 10.6626C7.14691 10.6626 7.48291 10.8997 7.67883 11.0987C7.8363 11.2583 8.05573 11.3495 8.28125 11.3495C8.50677 11.3495 8.7262 11.258 8.88367 11.0987C9.07959 10.8997 9.41559 10.6626 9.90234 10.6626C10.5746 10.6626 10.9375 11.3105 10.9375 11.9202C10.9375 12.9194 9.97131 14.011 8.28125 14.9265C6.59119 14.0107 5.625 12.9194 5.625 11.9202Z" fill="#FABE1D"/>
<path d="M36.4014 15.2327H31.6797V9.97363C31.6797 9.65015 31.4172 9.3877 31.0938 9.3877C30.7703 9.3877 30.5078 9.65015 30.5078 9.97363V15.2327H27.1143C25.13 15.2327 23.5156 16.8471 23.5156 18.8314V26.0869C23.5156 28.0715 25.13 29.6859 27.1143 29.6859H30.2347C30.3232 30.2016 30.3732 30.9725 30.0897 31.4312C29.9557 31.6481 29.7571 31.7736 29.4647 31.826C29.1537 31.8816 28.9236 32.1514 28.9178 32.4672C28.912 32.7831 29.1318 33.0611 29.4406 33.1282C29.7079 33.1862 30.0681 33.2415 30.4721 33.2415C30.4837 33.2415 30.4959 33.2411 30.5078 33.2411V35.2343H9.49219V32.4868C9.49219 32.1633 9.22974 31.9008 8.90625 31.9008C8.58246 31.9008 8.32031 32.1633 8.32031 32.4868V37.0702C8.32031 38.6858 9.6344 39.9999 11.25 39.9999H28.75C30.3653 39.9999 31.6797 38.6858 31.6797 37.0702V33.0526C31.9772 32.9515 32.2729 32.8041 32.5522 32.5923C33.3438 31.9924 33.8287 31.0161 33.9975 29.6859H36.4011C38.3856 29.6859 40 28.0715 40 26.0872V18.8314C40 16.8471 38.3856 15.2327 36.4014 15.2327ZM30.5078 37.0702C30.5078 38.0394 29.7192 38.828 28.75 38.828H11.25C10.2808 38.828 9.49219 38.0394 9.49219 37.0702V36.4061H30.5078V37.0702ZM38.8281 26.0872C38.8281 27.4254 37.7396 28.514 36.4014 28.514H33.4634C33.1534 28.514 32.897 28.7557 32.8787 29.0651C32.804 30.3221 32.4561 31.1949 31.8442 31.6585C31.6187 31.8297 31.3687 31.9356 31.1166 31.9973C31.7944 30.83 31.322 29.1268 31.265 28.9342C31.1917 28.6852 30.9628 28.514 30.7031 28.514H27.1143C25.7761 28.514 24.6875 27.4254 24.6875 26.0872V18.8314C24.6875 17.4932 25.7761 16.4046 27.1143 16.4046H36.4014C37.7396 16.4046 38.8281 17.4932 38.8281 18.8314V26.0872Z" fill="#4F4F4F"/>
<path d="M33.4903 21.479C33.7991 21.0969 33.9844 20.6111 33.9844 20.0825C33.9844 18.8548 32.9855 17.856 31.7578 17.856C30.5301 17.856 29.5312 18.8548 29.5312 20.0825C29.5312 20.6111 29.7165 21.0966 30.0253 21.479C29.0823 21.9767 28.4375 22.967 28.4375 24.1053V24.1572C28.4375 24.9473 29.0805 25.5903 29.8709 25.5903H33.645C34.4351 25.5903 35.0781 24.9473 35.0781 24.1572V24.1053C35.0781 22.967 34.4333 21.9767 33.4903 21.479ZM31.7578 19.0278C32.3395 19.0278 32.8125 19.5012 32.8125 20.0825C32.8125 20.6642 32.3395 21.1372 31.7578 21.1372C31.1761 21.1372 30.7031 20.6642 30.7031 20.0825C30.7031 19.5012 31.1761 19.0278 31.7578 19.0278ZM33.9062 24.1572C33.9062 24.3013 33.7891 24.4185 33.6447 24.4185H29.8706C29.7266 24.4185 29.6094 24.3013 29.6094 24.1572V24.1053C29.6094 23.1151 30.415 22.3091 31.4056 22.3091H32.11C33.1006 22.3091 33.9062 23.1151 33.9062 24.1053V24.1572Z" fill="#FABE1D"/>
<path d="M27.1963 7.23828H18.915C18.5912 7.23828 18.3291 7.50073 18.3291 7.82422C18.3291 8.14771 18.5912 8.41016 18.915 8.41016H27.1963C27.5198 8.41016 27.7822 8.14771 27.7822 7.82422C27.7822 7.50073 27.5198 7.23828 27.1963 7.23828Z" fill="#4F4F4F"/>
<path d="M27.1963 9.58203H18.915C18.5912 9.58203 18.3291 9.84448 18.3291 10.168C18.3291 10.4915 18.5912 10.7539 18.915 10.7539H27.1963C27.5198 10.7539 27.7822 10.4915 27.7822 10.168C27.7822 9.84448 27.5198 9.58203 27.1963 9.58203Z" fill="#4F4F4F"/>
<path d="M27.7822 12.5117C27.7822 12.1882 27.5198 11.9258 27.1963 11.9258H18.915C18.5912 11.9258 18.3291 12.1882 18.3291 12.5117C18.3291 12.8352 18.5912 13.0977 18.915 13.0977H27.1963C27.5198 13.0977 27.7822 12.8352 27.7822 12.5117Z" fill="#4F4F4F"/>
<path d="M21.4131 24.3616C21.4131 24.0381 21.1506 23.7756 20.8271 23.7756H12.5459C12.2221 23.7756 11.96 24.0381 11.96 24.3616V26.7053C11.96 27.0288 12.2221 27.2913 12.5459 27.2913H20.8271C21.1506 27.2913 21.4131 27.0288 21.4131 26.7053V24.3616ZM20.2412 26.1194H13.1318V24.9475H20.2412V26.1194Z" fill="#FABE1D"/>
<path d="M20.8271 28.4631H12.5459C12.2221 28.4631 11.96 28.7256 11.96 29.0491C11.96 29.3726 12.2221 29.635 12.5459 29.635H20.8271C21.1506 29.635 21.4131 29.3726 21.4131 29.0491C21.4131 28.7256 21.1506 28.4631 20.8271 28.4631Z" fill="#FABE1D"/>
</svg>
