<svg width="33" height="40" viewBox="0 0 33 40" fill="none" xmlns="http://www.w3.org/2000/svg">
<path d="M24.5379 16.2888C24.2243 16.2101 23.9058 16.4007 23.8269 16.7146C23.3794 18.4992 22.0922 19.9777 20.3837 20.6695C20.0623 20.7998 19.8546 21.109 19.8546 21.4574V22.6199H18.7982V18.0725H19.3682C20.1483 18.0725 20.7829 17.4379 20.7829 16.6578V16.4493C20.7829 15.6692 20.1483 15.0346 19.3682 15.0346H17.0563C16.2762 15.0346 15.6416 15.6693 15.6416 16.4493V16.6578C15.6416 17.4379 16.2763 18.0725 17.0563 18.0725H17.6262V22.6199H16.5698V21.4225C16.5698 21.0937 16.3715 20.8019 16.0648 20.6792C13.8907 19.81 12.4615 17.737 12.4237 15.3976C12.3724 12.2282 14.9062 9.58909 18.0718 9.5144C20.9258 9.44784 23.3764 11.4303 23.9005 14.2303C23.9601 14.5484 24.2662 14.7583 24.5844 14.6985C24.9024 14.6389 25.112 14.3328 25.0525 14.0146C24.7525 12.4118 23.8896 10.9567 22.6228 9.91714C21.3375 8.86245 19.7109 8.30417 18.0442 8.34269C14.2374 8.43253 11.1903 11.6058 11.2519 15.4164C11.296 18.1455 12.9145 20.5731 15.3978 21.6698V22.7475C14.9098 22.9702 14.5691 23.4618 14.5691 24.0323V24.2404C14.5691 24.8109 14.9097 25.3025 15.3978 25.5252V27.0273C15.3978 27.3385 15.5793 27.6074 15.8416 27.7359L16.4192 28.8913C17.1575 30.3678 19.2666 30.3676 20.0048 28.8913L20.5824 27.7359C20.8448 27.6076 21.0263 27.3387 21.0263 27.0274V25.5253C21.5146 25.3027 21.8552 24.8111 21.8552 24.2405V24.0325C21.8552 23.462 21.5146 22.9704 21.0265 22.7477V21.6698C22.9792 20.8054 24.4431 19.0746 24.9636 16.9997C25.0424 16.6858 24.8518 16.3675 24.5379 16.2888ZM17.0563 16.9005C16.9247 16.9006 16.8135 16.7894 16.8135 16.6578V16.4492C16.8135 16.3176 16.9247 16.2065 17.0563 16.2065H19.3682C19.4998 16.2065 19.6109 16.3177 19.6109 16.4492V16.6578C19.6109 16.7894 19.4998 16.9005 19.3682 16.9005H17.0563ZM18.9568 28.3673C18.6496 28.9817 17.7754 28.9828 17.4677 28.3673L17.1924 27.8168H19.2321L18.9568 28.3673ZM19.8546 26.6448H16.5699V25.6532H19.8546V26.6448ZM20.6834 24.2405C20.6834 24.3616 20.5882 24.464 20.4704 24.4784C20.4704 24.4784 15.9541 24.4784 15.954 24.4784C15.8362 24.4638 15.7412 24.3615 15.7412 24.2405V24.0325C15.7412 23.902 15.8515 23.7917 15.982 23.7917H15.9839H20.4405H20.4425C20.573 23.7917 20.6833 23.902 20.6833 24.0325V24.2405H20.6834Z" fill="#FABE1D"/>
<path d="M18.2119 4.67676C17.8883 4.67676 17.626 4.9391 17.626 5.26269V6.89308C17.626 7.21668 17.8883 7.47902 18.2119 7.47902C18.5355 7.47902 18.7978 7.21668 18.7978 6.89308V5.26269C18.7978 4.9391 18.5355 4.67676 18.2119 4.67676Z" fill="#FABE1D"/>
<path d="M15.1138 7.38273L14.2986 5.97078C14.1368 5.69055 13.7784 5.59453 13.4981 5.75633C13.2179 5.91813 13.1219 6.27649 13.2837 6.5568L14.0989 7.96875C14.2608 8.24906 14.6191 8.34508 14.8994 8.1832C15.1796 8.02133 15.2756 7.66297 15.1138 7.38273Z" fill="#FABE1D"/>
<path d="M11.9541 9.31086L10.5422 8.49562C10.2619 8.33375 9.90356 8.42984 9.74168 8.71008C9.57989 8.99031 9.6759 9.34867 9.95613 9.51054L11.3681 10.3258C11.6483 10.4877 12.0067 10.3916 12.1686 10.1113C12.3304 9.83109 12.2343 9.47265 11.9541 9.31086Z" fill="#FABE1D"/>
<path d="M22.9267 5.75637C22.6464 5.59449 22.2881 5.69058 22.1263 5.97082L21.311 7.38277C21.1492 7.663 21.2452 8.02136 21.5255 8.18324C21.8057 8.34511 22.1641 8.2491 22.3259 7.96878L23.1412 6.55683C23.303 6.2766 23.207 5.91824 22.9267 5.75637Z" fill="#FABE1D"/>
<path d="M26.6832 8.71008C26.5214 8.42984 26.163 8.33375 25.8827 8.49562L24.4708 9.31086C24.1905 9.47265 24.0945 9.83101 24.2563 10.1113C24.4181 10.3916 24.7766 10.4877 25.0568 10.3258L26.4687 9.51054C26.749 9.34867 26.845 8.99031 26.6832 8.71008Z" fill="#FABE1D"/>
<path d="M18.3369 0C10.7214 0 4.52569 6.19561 4.52569 13.8111V15.7768C4.52569 17.756 3.75491 19.6166 2.35554 21.0161L0.53476 22.8368C0.00726073 23.3643 -0.14313 24.1202 0.142417 24.8095C0.427885 25.4988 1.06874 25.927 1.81476 25.927H4.4335C4.48436 25.927 4.52577 25.9684 4.52577 26.0192V28.2658C4.52577 31.9546 7.52686 34.9557 11.2157 34.9557C12.2015 34.9557 13.0033 35.7577 13.0033 36.7434V38.6934C13.0033 39.4138 13.5894 40 14.31 40H18.1804C18.504 40 18.7664 39.7377 18.7664 39.4141C18.7664 39.0905 18.504 38.8281 18.1804 38.8281H14.31C14.2357 38.8281 14.1753 38.7677 14.1753 38.6934V36.7434C14.1753 35.1115 12.8475 33.7838 11.2157 33.7838C8.17311 33.7838 5.69772 31.3085 5.69772 28.2659V26.0193C5.69772 25.3223 5.13061 24.7551 4.4335 24.7551H1.81476C1.41913 24.7551 1.26343 24.4535 1.22523 24.3612C1.18695 24.2688 1.08374 23.9455 1.36359 23.6657L3.18436 21.8449C4.80514 20.2241 5.6978 18.0691 5.6978 15.777V13.8113C5.69764 6.84202 11.3676 1.17211 18.3369 1.17211C25.3063 1.17211 30.9762 6.84202 30.9762 13.8114V19.5762C30.9762 22.6572 29.8544 25.6252 27.8174 27.9333C26.4649 29.466 25.7199 31.5075 25.7199 33.6818V38.6828C25.7199 38.7629 25.6548 38.8281 25.5747 38.8281H20.915C20.5914 38.8281 20.329 39.0904 20.329 39.414C20.329 39.7376 20.5914 39.9999 20.915 39.9999H25.5747C26.301 39.9999 26.8919 39.4091 26.8919 38.6827V33.6817C26.8919 31.7931 27.5326 30.027 28.6961 28.7086C30.9222 26.1861 32.1481 22.9428 32.1481 19.5761V13.8112C32.1481 6.19569 25.9525 0 18.3369 0Z" fill="#4F4F4F"/>
</svg>
