<svg width="37" height="40" viewBox="0 0 37 40" fill="none" xmlns="http://www.w3.org/2000/svg">
<path d="M35.1437 2.51123H30.5735C29.5498 2.51123 28.7168 3.33612 28.7168 4.35022V32.6284C28.7168 32.651 28.7183 32.6733 28.7208 32.6953C28.7214 32.6998 28.7223 32.7044 28.723 32.709C28.7257 32.7282 28.7291 32.7468 28.7337 32.7651C28.735 32.7706 28.7362 32.7761 28.7378 32.7813C28.7433 32.8011 28.7495 32.8207 28.7572 32.8399C28.7581 32.8427 28.759 32.8454 28.7599 32.8481C28.7692 32.8707 28.78 32.893 28.792 32.9141C28.7923 32.9147 28.7926 32.9153 28.7929 32.9156L32.1548 38.8305C32.1563 38.8333 32.1578 38.836 32.1594 38.8387C32.2552 39.0008 32.3914 39.1219 32.5486 39.1912C32.5505 39.1921 32.552 39.1934 32.5538 39.194C32.5748 39.2031 32.5967 39.2098 32.6182 39.2169C32.6297 39.2205 32.6404 39.2257 32.6518 39.2288C32.6608 39.2312 32.67 39.2324 32.679 39.2346C32.7375 39.2486 32.7973 39.2571 32.8586 39.2571C33.1049 39.2571 33.3347 39.1384 33.4919 38.9349C33.4928 38.934 33.4938 38.933 33.4947 38.9318C33.5052 38.9181 33.5141 38.9028 33.524 38.8885C33.5354 38.8717 33.5471 38.8561 33.5576 38.8387C33.5579 38.8378 33.5582 38.8372 33.5588 38.8366C33.56 38.8345 33.5609 38.8323 33.5622 38.8305L33.6756 38.6309L36.9243 32.9156C36.9243 32.915 36.9246 32.9147 36.9249 32.9141C36.937 32.8927 36.9478 32.8707 36.957 32.8478C36.9582 32.8451 36.9588 32.8423 36.9601 32.8396C36.9675 32.8207 36.9736 32.8011 36.9792 32.7813C36.9807 32.7758 36.982 32.7706 36.9835 32.7651C36.9878 32.7468 36.9915 32.7282 36.994 32.709C36.9946 32.7044 36.9955 32.6998 36.9961 32.6953C36.9986 32.6733 37.0001 32.651 37.0001 32.6284V12.4606C37.0001 12.1371 36.7354 11.8746 36.4085 11.8746C36.0818 11.8746 35.8168 12.1371 35.8168 12.4606V32.0425H34.6334V7.43311H35.8168V9.96057C35.8168 10.2841 36.0818 10.5465 36.4085 10.5465C36.7354 10.5465 37.0001 10.2841 37.0001 9.96057V4.35022C37.0004 3.33612 36.1675 2.51123 35.1437 2.51123ZM33.9665 35.7305H31.7507L30.3205 33.2144H35.3967L33.9665 35.7305ZM32.417 36.9024H33.3002L32.8586 37.6797L32.417 36.9024ZM31.0836 32.0425H29.9002V7.43311H31.0836V32.0425ZM33.4503 32.0425H32.2669V7.43311H33.4503V32.0425ZM29.9002 6.26123V4.35022C29.9002 3.98248 30.2022 3.68311 30.5735 3.68311H35.1437C35.5151 3.68311 35.8171 3.98248 35.8171 4.35022V6.26123H29.9002Z" fill="#FABE1D"/>
<path d="M26.9416 3.04688H19.4863V2.8125C19.4863 2.23083 19.0086 1.75781 18.4213 1.75781H17.2407C17.0545 0.759277 16.1695 0 15.1078 0H12.4255C11.3638 0 10.4788 0.759277 10.2926 1.75781H9.11202C8.52464 1.75781 8.04698 2.23083 8.04698 2.8125V3.04688H0.591689C0.265028 3.04688 0 3.30933 0 3.63281V7.5C0 7.82349 0.265028 8.08594 0.591689 8.08594C0.918351 8.08594 1.18338 7.82349 1.18338 7.5V4.21875H8.04698V5.39062H2.95845C2.63179 5.39062 2.36676 5.65308 2.36676 5.97656V37.0703C2.36676 37.3938 2.63179 37.6562 2.95845 37.6562H18.9735C19.3002 37.6562 19.5652 37.3938 19.5652 37.0703C19.5652 36.7468 19.3002 36.4844 18.9735 36.4844H3.55014V6.5625H8.04698V7.03125C8.04698 7.61292 8.52464 8.08594 9.11202 8.08594H18.4213C19.0086 8.08594 19.4863 7.61292 19.4863 7.03125V6.5625H23.9831V36.4844H21.5507C21.2238 36.4844 20.9591 36.7468 20.9591 37.0703C20.9591 37.3938 21.2238 37.6562 21.5507 37.6562H24.5748C24.9015 37.6562 25.1665 37.3938 25.1665 37.0703V5.97656C25.1665 5.65308 24.9015 5.39062 24.5748 5.39062H19.4863V4.21875H26.3499V38.8281H1.18338V9.97406C1.18338 9.65027 0.918351 9.38812 0.591689 9.38812C0.265028 9.38812 0 9.65027 0 9.97406V39.4141C0 39.7375 0.265028 40 0.591689 40H26.9416C27.2683 40 27.5333 39.7375 27.5333 39.4141V3.63281C27.5333 3.30933 27.2683 3.04688 26.9416 3.04688ZM12.4255 1.17188H15.1078C15.5112 1.17188 15.8585 1.41327 16.0111 1.75781H11.5222C11.6748 1.41327 12.0221 1.17188 12.4255 1.17188ZM18.3029 6.91406H9.23035V2.92969H18.3029V6.91406Z" fill="#4F4F4F"/>
<path d="M6.27235 12.1484H21.4196C21.7463 12.1484 22.0113 11.886 22.0113 11.5625C22.0113 11.239 21.7463 10.9766 21.4196 10.9766H6.27235C5.94569 10.9766 5.68066 11.239 5.68066 11.5625C5.68066 11.886 5.94569 12.1484 6.27235 12.1484Z" fill="#FABE1D"/>
<path d="M6.27235 14.7524H21.4196C21.7463 14.7524 22.0113 14.4903 22.0113 14.1665C22.0113 13.843 21.7463 13.5806 21.4196 13.5806H6.27235C5.94569 13.5806 5.68066 13.843 5.68066 14.1665C5.68066 14.4903 5.94569 14.7524 6.27235 14.7524Z" fill="#FABE1D"/>
<path d="M22.0113 16.771C22.0113 16.4472 21.7463 16.1851 21.4196 16.1851H6.27235C5.94569 16.1851 5.68066 16.4472 5.68066 16.771C5.68066 17.0945 5.94569 17.3569 6.27235 17.3569H21.4196C21.7463 17.3569 22.0113 17.0945 22.0113 16.771Z" fill="#FABE1D"/>
<path d="M6.27235 18.7891C5.94569 18.7891 5.68066 19.0515 5.68066 19.375C5.68066 19.6985 5.94569 19.9609 6.27235 19.9609H10.1334C10.4604 19.9609 10.7251 19.6985 10.7251 19.375C10.7251 19.0515 10.4604 18.7891 10.1334 18.7891H6.27235Z" fill="#FABE1D"/>
</svg>
