<svg width="42" height="40" viewBox="0 0 42 40" fill="none" xmlns="http://www.w3.org/2000/svg">
<path d="M19.3224 28.0967H18.9717C18.6319 28.0967 18.3564 28.3699 18.3564 28.7071C18.3564 29.0444 18.6319 29.3176 18.9717 29.3176H19.3224C19.6622 29.3176 19.9377 29.0444 19.9377 28.7071C19.9377 28.3699 19.6623 28.0967 19.3224 28.0967Z" fill="#4F4F4F"/>
<path d="M35.9689 36.6729H35.6182C35.2784 36.6729 35.0029 36.9461 35.0029 37.2833C35.0029 37.6205 35.2784 37.8938 35.6182 37.8938H35.9689C36.3087 37.8938 36.5842 37.6205 36.5842 37.2833C36.5842 36.9461 36.3087 36.6729 35.9689 36.6729Z" fill="#4F4F4F"/>
<path d="M38.4595 24.9346H33.127C32.7872 24.9346 32.5117 25.2078 32.5117 25.545C32.5117 25.8823 32.7872 26.1555 33.127 26.1555H38.4595C38.7993 26.1555 39.0747 25.8823 39.0747 25.545C39.0748 25.2078 38.7994 24.9346 38.4595 24.9346Z" fill="#FABE1D"/>
<path d="M38.4595 27.9229H33.127C32.7872 27.9229 32.5117 28.1961 32.5117 28.5333C32.5117 28.8705 32.7872 29.1438 33.127 29.1438H38.4595C38.7993 29.1438 39.0747 28.8705 39.0747 28.5333C39.0747 28.1961 38.7994 27.9229 38.4595 27.9229Z" fill="#FABE1D"/>
<path d="M38.4595 30.9111H33.127C32.7872 30.9111 32.5117 31.1844 32.5117 31.5216C32.5117 31.8588 32.7872 32.1321 33.127 32.1321H38.4595C38.7993 32.1321 39.0747 31.8588 39.0747 31.5216C39.0748 31.1844 38.7994 30.9111 38.4595 30.9111Z" fill="#FABE1D"/>
<path d="M30.2027 15.356H7.48242C7.14265 15.356 6.86719 15.6292 6.86719 15.9664C6.86719 16.3036 7.14265 16.5769 7.48242 16.5769H30.2027C30.5425 16.5769 30.818 16.3036 30.818 15.9664C30.818 15.6292 30.5425 15.356 30.2027 15.356Z" fill="#FABE1D"/>
<path d="M29.7204 9.01562H7.96485C7.35962 9.01562 6.86719 9.50424 6.86719 10.1049V12.4198C6.86719 13.0203 7.35954 13.509 7.96485 13.509H29.7204C30.3256 13.509 30.8181 13.0204 30.8181 12.4198V10.1049C30.8181 9.50433 30.3255 9.01562 29.7204 9.01562ZM29.5875 12.2879H8.09774V10.2366H29.5875V12.2879Z" fill="#FABE1D"/>
<path d="M41.3848 28.2692C41.7245 28.2692 42 27.9959 42 27.6587V19.6606C42.0001 18.9064 41.3818 18.293 40.6217 18.293H38.2939V1.93437C38.2939 0.867679 37.4193 0 36.3444 0H1.94948C0.874619 0 0 0.867679 0 1.93437V25.5449V30.5455C0 31.6005 0.864693 32.4799 1.94948 32.4799H14.6989V35.7852H12.7971C11.8387 35.7852 11.0591 36.5587 11.0591 37.5096V38.2755C11.0591 39.2264 11.8388 39.9999 12.7971 39.9999H17.7113C18.0511 39.9999 18.3266 39.7267 18.3266 39.3895C18.3266 39.0522 18.0511 38.779 17.7113 38.779H12.7971C12.5173 38.779 12.2897 38.5532 12.2897 38.2755V37.5097C12.2897 37.2321 12.5173 37.0063 12.7971 37.0063C14.7781 37.0063 23.9995 37.0063 25.146 37.0063C25.4258 37.0063 25.6534 37.2321 25.6534 37.5097V38.2755C25.6534 38.5531 25.4258 38.779 25.146 38.779H20.5826C20.2428 38.779 19.9673 39.0522 19.9673 39.3895C19.9673 39.7267 20.2428 39.9999 20.5826 39.9999H25.146C26.1044 39.9999 26.8839 39.2263 26.8839 38.2755V37.5096C26.8839 36.5587 26.1043 35.7852 25.146 35.7852H23.2442V32.4799H29.5871C29.5871 33.746 29.5871 37.3397 29.5871 38.6324C29.5871 39.3865 30.2054 40 30.9654 40H40.6217C41.3817 40 42 39.3865 42 38.6324V30.5076C42 30.1704 41.7245 29.8972 41.3848 29.8972C41.045 29.8972 40.7695 30.1704 40.7695 30.5076V34.4097H30.8176C30.8176 34.0079 30.8176 23.4157 30.8176 23.0047H40.7694V27.6587C40.7694 27.9958 41.0449 28.2692 41.3848 28.2692ZM30.8177 35.6306H40.7695V38.6322C40.7695 38.713 40.7033 38.7788 40.6218 38.7788H30.9655C30.884 38.7788 30.8177 38.713 30.8177 38.6322V35.6306ZM1.23055 1.93437C1.23055 1.54107 1.5531 1.22094 1.94956 1.22094H36.3445C36.741 1.22094 37.0635 1.54098 37.0635 1.93437V18.2929H35.5517C35.5517 17.6817 35.5517 4.88529 35.5517 4.2841C35.5517 3.51499 34.921 2.88922 34.1459 2.88922C33.7887 2.88922 4.73018 2.88922 4.14825 2.88922C3.37305 2.88922 2.74247 3.51499 2.74247 4.2841C2.74247 5.19012 2.74247 24.1081 2.74247 24.9344H1.23064V1.93437H1.23055ZM34.321 4.2841V6.05698H7.48348V4.11024H34.1459C34.2425 4.11024 34.321 4.18822 34.321 4.2841ZM6.25293 4.11024V6.05698H3.97295V4.2841C3.97295 4.18822 4.05153 4.11024 4.14816 4.11024H6.25293ZM22.0136 35.7851H15.9294V32.4798H22.0136V35.7851ZM29.5872 31.2587C28.8694 31.2588 2.73813 31.2588 1.94956 31.2588C1.54908 31.2588 1.23055 30.931 1.23055 30.5453V26.1553C1.61052 26.1553 29.2219 26.1553 29.5872 26.1553V31.2587ZM30.4453 18.3947C30.3707 18.3629 30.2887 18.3451 30.2023 18.3451H7.48217C7.14239 18.3451 6.86693 18.6183 6.86693 18.9555C6.86693 19.2927 7.14239 19.566 7.48217 19.566H29.5919C29.5898 19.5973 29.5871 19.6285 29.5871 19.6603V21.3337H7.48217C7.14239 21.3337 6.86693 21.6069 6.86693 21.9441C6.86693 22.2814 7.14239 22.5546 7.48217 22.5546H29.5872V24.9341H3.97295V7.278C4.90745 7.278 33.6404 7.278 34.321 7.278V18.2928H30.9655C30.7815 18.2929 30.6061 18.3295 30.4453 18.3947ZM30.8177 21.7835V19.6604C30.8177 19.5796 30.884 19.5138 30.9655 19.5138C31.8518 19.5138 39.6779 19.5138 40.6218 19.5138C40.7033 19.5138 40.7695 19.5796 40.7695 19.6604V21.7835H30.8177Z" fill="#4F4F4F"/>
</svg>
