<svg width="56" height="56" viewBox="0 0 56 56" fill="none" xmlns="http://www.w3.org/2000/svg">
<g clip-path="url(#clip0)">
<path d="M33.8582 35.5265C33.7048 35.4809 33.5436 35.4708 33.3862 35.4938C33.3678 35.493 33.3493 35.4925 33.331 35.4918C34.7508 34.1047 35.6345 32.171 35.6345 30.034V19.1406C35.6345 18.5367 35.1447 18.0469 34.5408 18.0469H26.4388C23.0901 18.0469 20.3657 20.7713 20.3657 24.12V30.0339C20.3657 32.1709 21.2494 34.1045 22.6692 35.4916C22.6508 35.4924 22.6323 35.4928 22.614 35.4937C22.4567 35.4708 22.2954 35.4808 22.142 35.5264C16.4878 36.034 12.041 40.7983 12.041 46.5825V51.9531C12.041 52.5571 12.5308 53.0469 13.1348 53.0469H42.8655C43.4695 53.0469 43.9593 52.5571 43.9593 51.9531V46.5826C43.959 40.7985 39.5124 36.0341 33.8582 35.5265ZM22.5529 25.652V24.12C22.5529 21.9775 24.2962 20.2344 26.4386 20.2344H33.4468V23.1614C33.4468 24.6403 32.2436 25.8436 30.7646 25.8436H22.5529V25.652ZM22.5529 30.034V28.0311H30.7646C31.7552 28.0311 32.677 27.733 33.4468 27.223V30.0339C33.4468 33.0374 31.0032 35.4809 27.9998 35.4809C24.9964 35.4809 22.5529 33.0375 22.5529 30.034ZM30.9047 37.6684L27.9999 40.5732L25.0951 37.6684H30.9047ZM41.7715 50.8594H14.2283V47.7116H23.1537C23.7577 47.7116 24.2475 47.2218 24.2475 46.6178C24.2475 46.0138 23.7577 45.5241 23.1537 45.5241H14.2934C14.7768 41.4589 18.0055 38.2259 22.0685 37.7355L27.2265 42.8935C27.4401 43.107 27.72 43.2138 27.9999 43.2138C28.2798 43.2138 28.5597 43.107 28.7733 42.8935L33.9313 37.7355C38.3417 38.2678 41.7715 42.0311 41.7715 46.5826V50.8594Z" fill="black"/>
<path d="M28.7732 45.8445C28.5698 45.6411 28.2877 45.524 28 45.524C27.7123 45.524 27.4302 45.6411 27.2267 45.8445C27.0233 46.048 26.9062 46.3301 26.9062 46.6178C26.9062 46.9055 27.0232 47.1876 27.2267 47.3911C27.4302 47.5944 27.7123 47.7115 28 47.7115C28.2877 47.7115 28.5698 47.5945 28.7732 47.3911C28.9766 47.1876 29.0938 46.9055 29.0938 46.6178C29.0938 46.3301 28.9767 46.048 28.7732 45.8445Z" fill="black"/>
<path d="M28.0137 2.95312C25.7219 2.95312 23.8574 4.81764 23.8574 7.10938C23.8574 9.02256 25.1572 10.637 26.9199 11.1185V13.7898C26.9199 14.3938 27.4097 14.8835 28.0137 14.8835C28.6177 14.8835 29.1074 14.3938 29.1074 13.7898V11.1185C30.8701 10.637 32.1699 9.02256 32.1699 7.10938C32.1699 4.81764 30.3054 2.95312 28.0137 2.95312ZM28.0137 9.07812C26.9281 9.07812 26.0449 8.19492 26.0449 7.10938C26.0449 6.02383 26.9281 5.14062 28.0137 5.14062C29.0992 5.14062 29.9824 6.02383 29.9824 7.10938C29.9824 8.19492 29.0992 9.07812 28.0137 9.07812Z" fill="#FABE1D"/>
<path d="M49.9713 11.4846C49.1862 10.6996 48.1425 10.2672 47.0324 10.2672C45.9222 10.2672 44.8786 10.6996 44.0935 11.4847C42.7407 12.8375 42.5182 14.8981 43.4241 16.4851L41.5352 18.374C41.1081 18.8011 41.1081 19.4936 41.5352 19.9209C41.7489 20.1343 42.0288 20.2411 42.3087 20.2411C42.5887 20.2411 42.8685 20.1343 43.0821 19.9208L44.9701 18.0327C45.5913 18.389 46.2969 18.5798 47.0324 18.5798C48.1425 18.5798 49.1862 18.1475 49.9712 17.3625C50.7564 16.5775 51.1887 15.5337 51.1887 14.4236C51.1887 13.3134 50.7564 12.2696 49.9713 11.4846ZM48.4246 15.8158C47.657 16.5834 46.4079 16.5834 45.6405 15.8158C44.8728 15.0481 44.8728 13.799 45.6404 13.0314C46.0241 12.6475 46.5283 12.4557 47.0325 12.4557C47.5367 12.4557 48.0408 12.6475 48.4246 13.0314C48.7965 13.4033 49.0013 13.8977 49.0013 14.4237C49.0013 14.9496 48.7965 15.4439 48.4246 15.8158Z" fill="#FABE1D"/>
<path d="M51.8435 29.2942C49.9303 29.2942 48.3158 30.594 47.8344 32.3567H45.1631C44.5591 32.3567 44.0693 32.8465 44.0693 33.4504C44.0693 34.0544 44.5591 34.5442 45.1631 34.5442H47.8344C48.3158 36.3069 49.9303 37.6067 51.8435 37.6067C54.1352 37.6067 55.9997 35.7422 55.9997 33.4504C55.9997 31.1587 54.1352 29.2942 51.8435 29.2942ZM51.8435 35.4192C50.7579 35.4192 49.8747 34.536 49.8747 33.4504C49.8747 32.3649 50.7579 31.4817 51.8435 31.4817C52.929 31.4817 53.8122 32.3649 53.8122 33.4504C53.8122 34.536 52.929 35.4192 51.8435 35.4192Z" fill="#FABE1D"/>
<path d="M41.7888 32.6769C41.5855 32.4735 41.3033 32.3564 41.0156 32.3564C40.728 32.3564 40.4458 32.4734 40.2423 32.6769C40.0389 32.8805 39.9219 33.1625 39.9219 33.4502C39.9219 33.7389 40.0388 34.02 40.2423 34.2234C40.4458 34.428 40.728 34.5439 41.0156 34.5439C41.3033 34.5439 41.5855 34.4279 41.7888 34.2234C41.9922 34.02 42.1094 33.7379 42.1094 33.4502C42.1094 33.1625 41.9923 32.8814 41.7888 32.6769Z" fill="#FABE1D"/>
<path d="M10.8367 32.329H8.16539C7.68392 30.5663 6.06944 29.2665 4.15625 29.2665C1.86452 29.2665 0 31.131 0 33.4227C0 35.7145 1.86452 37.579 4.15625 37.579C6.06944 37.579 7.68392 36.2792 8.16539 34.5165H10.8367C11.4406 34.5165 11.9304 34.0267 11.9304 33.4227C11.9304 32.8188 11.4407 32.329 10.8367 32.329ZM4.15625 35.3915C3.0707 35.3915 2.1875 34.5083 2.1875 33.4227C2.1875 32.3372 3.0707 31.454 4.15625 31.454C5.2418 31.454 6.125 32.3372 6.125 33.4227C6.125 34.5083 5.2418 35.3915 4.15625 35.3915Z" fill="#FABE1D"/>
<path d="M14.3986 18.2684L12.5105 16.3805C12.8669 15.7592 13.0576 15.0535 13.0576 14.3181C13.0576 13.2079 12.6253 12.1642 11.8402 11.3791C11.0551 10.5941 10.0114 10.1617 8.90127 10.1617C7.79111 10.1617 6.74746 10.5941 5.96236 11.3792C4.34197 12.9997 4.34197 15.6365 5.96236 17.257C6.74746 18.042 7.79111 18.4744 8.90138 18.4744C9.63682 18.4744 10.3425 18.2835 10.9638 17.9273L12.8518 19.8153C13.0654 20.0288 13.3453 20.1356 13.6252 20.1356C13.9051 20.1356 14.185 20.0288 14.3986 19.8153C14.8257 19.3882 14.8257 18.6956 14.3986 18.2684ZM10.2941 15.7098C10.2939 15.71 10.2937 15.7101 10.2935 15.7103C9.52591 16.4781 8.27685 16.4781 7.50936 15.7103C6.74166 14.9426 6.74166 13.6936 7.50925 12.926C7.89305 12.5422 8.39716 12.3502 8.90138 12.3502C9.4056 12.3502 9.90971 12.5422 10.2935 12.926C10.6654 13.2979 10.8702 13.7922 10.8702 14.3182C10.8702 14.8438 10.6655 15.338 10.2941 15.7098Z" fill="#FABE1D"/>
</g>
<defs>
<clipPath id="clip0">
<rect width="56" height="56" fill="white"/>
</clipPath>
</defs>
</svg>
