<svg width="24" height="24" viewBox="0 0 24 24" fill="none" xmlns="http://www.w3.org/2000/svg">
<path d="M22.9977 13.7374C23.0873 13.1708 23.1344 12.5911 23.1344 11.9994C23.1344 5.8496 18.1493 0.864592 11.9993 0.864592C11.4092 0.864592 10.8278 0.913192 10.2617 1.00174C9.23621 0.367207 8.02584 0 6.7287 0C3.0126 0 0 3.01221 0 6.7287C0 8.02556 0.367431 9.23492 1.00169 10.2625C0.913918 10.8301 0.865596 11.4079 0.865596 11.9996C0.865596 18.1498 5.8506 23.1333 11.9991 23.1333C12.5897 23.1333 13.1713 23.0878 13.7373 22.9985C14.7639 23.6318 15.9733 24 17.2701 24C20.9872 24 23.9995 20.987 23.9995 17.2706C23.9998 15.9733 23.6326 14.7642 22.9977 13.7374ZM17.286 17.0636C16.815 17.7417 16.123 18.2717 15.2189 18.6527C14.3129 19.0347 13.2421 19.2249 12.0055 19.2249C10.5234 19.2249 9.29625 18.9655 8.32765 18.4418C7.64105 18.0668 7.08262 17.5637 6.65331 16.9363C6.22311 16.3085 6.00499 15.6937 6.00499 15.0942C6.00499 14.7405 6.13986 14.433 6.40239 14.1822C6.66765 13.9296 7.0093 13.803 7.41256 13.803C7.74288 13.803 8.02662 13.9025 8.25762 14.0996C8.48689 14.2967 8.67923 14.5832 8.83653 14.9613C9.02507 15.3993 9.22985 15.7655 9.44774 16.0576C9.66429 16.3462 9.96906 16.5871 10.3638 16.7756C10.7541 16.9646 11.2737 17.0592 11.9238 17.0592C12.8135 17.0592 13.5325 16.8667 14.0828 16.4871C14.6358 16.104 14.9015 15.6378 14.9015 15.0746C14.9015 14.6254 14.7583 14.2686 14.4645 13.9904C14.1681 13.7086 13.7854 13.4941 13.3104 13.3443C12.8335 13.1931 12.1933 13.0327 11.391 12.8636C10.3136 12.6285 9.41259 12.3548 8.68291 12.0405C7.95229 11.725 7.37043 11.2938 6.93917 10.749C6.50701 10.1989 6.29152 9.51514 6.29152 8.70529C6.29152 7.93304 6.51901 7.24243 6.97443 6.64137C7.42963 6.03864 8.08822 5.5773 8.94695 5.25596C9.80267 4.93473 10.8101 4.77403 11.9642 4.77403C12.8872 4.77403 13.6856 4.88083 14.3613 5.09331C15.0353 5.30735 15.597 5.5898 16.0462 5.94423C16.4925 6.29788 16.821 6.67089 17.029 7.06231C17.2368 7.45491 17.3415 7.83835 17.3415 8.21253C17.3415 8.56044 17.2066 8.87597 16.9438 9.15251C16.6811 9.42944 16.3449 9.57061 15.9524 9.56932C15.5985 9.56932 15.3209 9.48769 15.1284 9.31488C14.941 9.14771 14.744 8.88155 14.5311 8.51061C14.2618 7.99302 13.9394 7.58977 13.5644 7.30135C13.1993 7.01829 12.597 6.87092 11.7588 6.87271C10.9834 6.87271 10.3629 7.03118 9.89457 7.34108C9.42335 7.65595 9.1981 8.02126 9.19704 8.44929C9.19782 8.71751 9.27493 8.94366 9.43011 9.13705C9.58768 9.33224 9.80691 9.50136 10.0887 9.64392C10.3706 9.78872 10.6573 9.90071 10.9455 9.98128C11.237 10.0639 11.7207 10.1834 12.3931 10.3416C13.2363 10.5233 14.0011 10.7264 14.6884 10.9476C15.3743 11.1701 15.9597 11.4383 16.4433 11.7578C16.9308 12.0764 17.3118 12.4827 17.5837 12.9733C17.8576 13.4647 17.9941 14.0649 17.9941 14.7712C17.9951 15.6217 17.7582 16.3866 17.286 17.0636Z" fill="#FABE1D"/>
</svg>
