<svg width="50" height="44" viewBox="0 0 50 44" fill="none" xmlns="http://www.w3.org/2000/svg">
<path d="M48.3167 24.0864C50.8366 21.5777 50.058 16.5032 45.6932 16.5032L34.2086 16.5109C34.6448 14.0789 35.2765 10.0473 35.2515 9.66661C35.0103 6.06151 32.7123 1.67396 32.6129 1.49437C32.1938 0.713836 30.0776 -0.344411 27.948 0.109032C25.1946 0.698444 24.9134 2.45481 24.9246 2.93904C24.9246 2.93904 25.0433 7.74381 25.0548 9.02589C23.7384 11.9171 19.1995 19.5154 17.8238 20.1009C17.4948 19.9018 17.1215 19.7947 16.7331 19.7947H2.2236C0.991225 19.7947 0 20.7914 0 22.018L0.00192409 42.0711C0.0881873 43.1521 1.00662 44 2.09148 44H15.124C16.2797 44 17.2193 43.0604 17.2193 41.9047V41.2389C17.2193 41.2389 17.7035 41.2027 17.9235 41.3441C18.7614 41.8761 19.7969 42.5457 21.1476 42.5457H40.596C47.8671 42.5457 47.0866 36.0917 46.4224 35.2114C47.651 33.8739 48.4106 31.5146 47.3736 29.6508C48.1695 28.8071 49.5702 26.4879 48.3167 24.0864ZM14.6763 41.9008H2.08763V21.8878H14.6763V41.9008ZM44.9242 23.9141L44.8055 24.4096C48.156 25.3623 46.3727 29.224 43.9692 29.4744L43.8506 29.9699C47.0631 30.787 45.5306 34.7631 43.0142 35.0347L42.8956 35.5282C45.5191 35.9589 44.8838 40.4363 40.9093 40.4363L21.1277 40.444C19.7309 40.444 18.4584 38.8521 17.4309 38.8521H16.5343V23.4472C17.6519 22.7546 19.0257 21.8554 19.7892 21.2066C21.232 19.9762 27.137 10.434 27.137 9.23978C27.137 8.04557 27.0068 2.8794 27.0068 2.8794C27.0068 2.8794 28.1645 1.38695 30.7495 2.47566C30.7495 2.47566 32.925 6.55504 33.1469 9.8061C33.1469 9.8061 32.1672 16.5032 31.641 18.6043H45.3549C48.7243 18.6082 48.0813 23.4187 44.9242 23.9141Z" fill="#333333"/>
<mask id="mask0" mask-type="alpha" maskUnits="userSpaceOnUse" x="0" y="0" width="50" height="45">
<path d="M48.3167 24.0864C50.8366 21.5777 50.058 16.5032 45.6932 16.5032L34.2086 16.5109C34.6448 14.0789 35.2765 10.0473 35.2515 9.66661C35.0103 6.06151 32.7123 1.67396 32.6129 1.49437C32.1938 0.713836 30.0776 -0.344411 27.948 0.109032C25.1946 0.698444 24.9134 2.45481 24.9246 2.93904C24.9246 2.93904 25.0433 7.74381 25.0548 9.02589C23.7384 11.9171 19.1995 19.5154 17.8238 20.1009C17.4948 19.9018 17.1215 19.7947 16.7331 19.7947H2.2236C0.991225 19.7947 0 20.7914 0 22.018L0.00192409 42.0711C0.0881873 43.1521 1.00662 44 2.09148 44H15.124C16.2797 44 17.2193 43.0604 17.2193 41.9047V41.2389C17.2193 41.2389 17.7035 41.2027 17.9235 41.3441C18.7614 41.8761 19.7969 42.5457 21.1476 42.5457H40.596C47.8671 42.5457 47.0866 36.0917 46.4224 35.2114C47.651 33.8739 48.4106 31.5146 47.3736 29.6508C48.1695 28.8071 49.5702 26.4879 48.3167 24.0864ZM14.6763 41.9008H2.08763V21.8878H14.6763V41.9008ZM44.9242 23.9141L44.8055 24.4096C48.156 25.3623 46.3727 29.224 43.9692 29.4744L43.8506 29.9699C47.0631 30.787 45.5306 34.7631 43.0142 35.0347L42.8956 35.5282C45.5191 35.9589 44.8838 40.4363 40.9093 40.4363L21.1277 40.444C19.7309 40.444 18.4584 38.8521 17.4309 38.8521H16.5343V23.4472C17.6519 22.7546 19.0257 21.8554 19.7892 21.2066C21.232 19.9762 27.137 10.434 27.137 9.23978C27.137 8.04557 27.0068 2.8794 27.0068 2.8794C27.0068 2.8794 28.1645 1.38695 30.7495 2.47566C30.7495 2.47566 32.925 6.55504 33.1469 9.8061C33.1469 9.8061 32.1672 16.5032 31.641 18.6043H45.3549C48.7243 18.6082 48.0813 23.4187 44.9242 23.9141Z" fill="#010002"/>
</mask>
<g mask="url(#mask0)">
<rect y="17" width="18" height="27" fill="#FABE1D"/>
</g>
</svg>
