<svg width="42" height="43" viewBox="0 0 42 43" fill="none" xmlns="http://www.w3.org/2000/svg">
<path d="M42 19.7637H39.9645V10.4001C39.9645 8.15523 38.1382 6.32898 35.8934 6.32898H33.1364L30.3151 1.2564C29.8852 0.481173 29.0669 0 28.1794 0C27.7657 0 27.3554 0.106674 26.9931 0.307733L16.1655 6.32885H4.07109C1.82625 6.32885 0 8.1551 0 10.3999V38.3547C0 40.5996 1.82625 42.4258 4.07109 42.4258H35.8934C38.1382 42.4258 39.9645 40.5996 39.9645 38.3547V30.1449H42V19.7637ZM35.8934 7.95734C37.1472 7.95734 38.1715 8.90993 38.3091 10.1288H35.2493L34.0425 7.95734H35.8934ZM27.7853 1.73098C28.1671 1.51687 28.681 1.66662 28.8918 2.04695L33.3863 10.1281H12.6839L27.7853 1.73098ZM38.336 38.3547C38.336 39.7014 37.24 40.7974 35.8932 40.7974H4.07109C2.72436 40.7974 1.62836 39.7014 1.62836 38.3547V10.4001C1.62836 9.05334 2.72436 7.95734 4.07109 7.95734H13.2376L9.33257 10.129H4.58001C4.12975 10.129 3.76577 10.4937 3.76577 10.9432C3.76577 11.3927 4.12975 11.7574 4.58001 11.7574H6.40385H36.1547H38.336V19.7644H32.3816C29.6164 19.7644 27.366 22.015 27.366 24.78V25.1302C27.366 27.8954 29.6166 30.1458 32.3816 30.1458H38.336V38.3547ZM40.3715 28.5165H39.9645H32.3816C30.5138 28.5165 28.9944 26.9972 28.9944 25.1293V24.7791C28.9944 22.9113 30.5137 21.3919 32.3816 21.3919H39.9645H40.3715V28.5165ZM34.8755 25.0211C34.8755 26.0145 34.071 26.8189 33.0778 26.8189C32.0844 26.8189 31.28 26.0144 31.28 25.0211C31.28 24.0279 32.0845 23.2234 33.0778 23.2234C34.0712 23.2232 34.8755 24.0285 34.8755 25.0211Z" fill="#333333"/>
<mask id="mask0" mask-type="alpha" maskUnits="userSpaceOnUse" x="0" y="0" width="42" height="43">
<path d="M42 19.7637H39.9645V10.4001C39.9645 8.15523 38.1382 6.32898 35.8934 6.32898H33.1364L30.3151 1.2564C29.8852 0.481173 29.0669 0 28.1794 0C27.7657 0 27.3554 0.106674 26.9931 0.307733L16.1655 6.32885H4.07109C1.82625 6.32885 0 8.1551 0 10.3999V38.3547C0 40.5996 1.82625 42.4258 4.07109 42.4258H35.8934C38.1382 42.4258 39.9645 40.5996 39.9645 38.3547V30.1449H42V19.7637ZM35.8934 7.95734C37.1472 7.95734 38.1715 8.90993 38.3091 10.1288H35.2493L34.0425 7.95734H35.8934ZM27.7853 1.73098C28.1671 1.51687 28.681 1.66662 28.8918 2.04695L33.3863 10.1281H12.6839L27.7853 1.73098ZM38.336 38.3547C38.336 39.7014 37.24 40.7974 35.8932 40.7974H4.07109C2.72436 40.7974 1.62836 39.7014 1.62836 38.3547V10.4001C1.62836 9.05334 2.72436 7.95734 4.07109 7.95734H13.2376L9.33257 10.129H4.58001C4.12975 10.129 3.76577 10.4937 3.76577 10.9432C3.76577 11.3927 4.12975 11.7574 4.58001 11.7574H6.40385H36.1547H38.336V19.7644H32.3816C29.6164 19.7644 27.366 22.015 27.366 24.78V25.1302C27.366 27.8954 29.6166 30.1458 32.3816 30.1458H38.336V38.3547ZM40.3715 28.5165H39.9645H32.3816C30.5138 28.5165 28.9944 26.9972 28.9944 25.1293V24.7791C28.9944 22.9113 30.5137 21.3919 32.3816 21.3919H39.9645H40.3715V28.5165ZM34.8755 25.0211C34.8755 26.0145 34.071 26.8189 33.0778 26.8189C32.0844 26.8189 31.28 26.0144 31.28 25.0211C31.28 24.0279 32.0845 23.2234 33.0778 23.2234C34.0712 23.2232 34.8755 24.0285 34.8755 25.0211Z" fill="black"/>
</mask>
<g mask="url(#mask0)">
<path d="M23 19.7838H42.5V30.1535H23V19.7838Z" fill="#FABE1D"/>
</g>
</svg>
