<svg width="6" height="13" viewBox="0 0 6 13" version="1.1" xmlns="http://www.w3.org/2000/svg" xmlns:xlink="http://www.w3.org/1999/xlink">
<title>XMLID 835</title>
<desc>Created using Figma</desc>
<g id="Canvas" transform="translate(984 173)">
<g id="XMLID 835">
<use xlink:href="#path0_fill" transform="translate(-984 -172.4)" fill="#FFFFFF"/>
</g>
</g>
<defs>
<path id="path0_fill" d="M 0.191577 6.3912L 1.49357 6.3912L 1.49357 11.8065C 1.49357 11.9134 1.57932 12 1.68515 12L 3.89273 12C 3.99856 12 4.08431 11.9134 4.08431 11.8065L 4.08431 6.41671L 5.58106 6.41671C 5.67838 6.41671 5.76026 6.34293 5.77137 6.24526L 5.9987 4.25164C 6.00494 4.19679 5.98774 4.14186 5.95142 4.10071C 5.91505 4.05952 5.86302 4.03595 5.80842 4.03595L 4.08438 4.03595L 4.08438 2.78625C 4.08438 2.40952 4.28516 2.21849 4.68118 2.21849C 4.73762 2.21849 5.80842 2.21849 5.80842 2.21849C 5.91425 2.21849 6 2.13182 6 2.02494L 6 0.194981C 6 0.0880645 5.91425 0.00143226 5.80842 0.00143226L 4.25493 0.00143226C 4.24397 0.000890323 4.21964 0 4.18377 0C 3.91422 0 2.9773 0.053458 2.2372 0.741329C 1.41717 1.5036 1.53116 2.4163 1.5584 2.57454L 1.5584 4.03591L 0.191577 4.03591C 0.08575 4.03591 1.12252e-07 4.12254 1.12252e-07 4.22946L 1.12252e-07 6.19761C 1.12252e-07 6.30453 0.08575 6.3912 0.191577 6.3912Z"/>
</defs>
</svg>
