<svg width="12" height="12" viewBox="0 0 12 12" version="1.1" xmlns="http://www.w3.org/2000/svg" xmlns:xlink="http://www.w3.org/1999/xlink">
<title>Group</title>
<desc>Created using Figma</desc>
<g id="Canvas" transform="translate(1043 173)">
<g id="Group">
<g id="Vector">
<use xlink:href="#path0_fill" transform="translate(-1042.4 -172.4)" fill="#FFFFFF"/>
</g>
<g id="Vector">
<use xlink:href="#path1_fill" transform="translate(-1039.78 -169.783)" fill="#FFFFFF"/>
</g>
<g id="Vector">
<use xlink:href="#path2_fill" transform="translate(-1034.8 -170.595)" fill="#FFFFFF"/>
</g>
</g>
</g>
<defs>
<path id="path0_fill" d="M 7.81953 0L 2.98035 0C 1.33698 0 0 1.33705 0 2.98041L 0 7.81959C 0 9.46302 1.33698 10.8 2.98035 10.8L 7.81953 10.8C 9.46302 10.8 10.8 9.46295 10.8 7.81959L 10.8 2.98041C 10.8001 1.33705 9.46302 0 7.81953 0ZM 9.84184 7.81959C 9.84184 8.93465 8.93465 9.84177 7.81959 9.84177L 2.98035 9.84177C 1.86535 9.84184 0.958228 8.93465 0.958228 7.81959L 0.958228 2.98041C 0.958228 1.86541 1.86535 0.958228 2.98035 0.958228L 7.81953 0.958228C 8.93459 0.958228 9.84177 1.86541 9.84177 2.98041L 9.84177 7.81959L 9.84184 7.81959Z"/>
<path id="path1_fill" d="M 2.78289 7.79808e-08C 1.24838 7.79808e-08 -9.55265e-08 1.24838 -9.55265e-08 2.78289C -9.55265e-08 4.31733 1.24838 5.56565 2.78289 5.56565C 4.31739 5.56565 5.56577 4.31733 5.56577 2.78289C 5.56577 1.24838 4.31739 7.79808e-08 2.78289 7.79808e-08ZM 2.78289 4.60735C 1.77681 4.60735 0.958228 3.7889 0.958228 2.78282C 0.958228 1.77668 1.77675 0.958165 2.78289 0.958165C 3.78903 0.958165 4.60755 1.77668 4.60755 2.78282C 4.60755 3.7889 3.78896 4.60735 2.78289 4.60735Z"/>
<path id="path2_fill" d="M 0.702701 -3.50914e-08C 0.518082 -3.50914e-08 0.336722 0.0747419 0.206339 0.2057C 0.0753168 0.336019 -1.52063e-07 0.517443 -1.52063e-07 0.702701C -1.52063e-07 0.887383 0.0753807 1.06874 0.206339 1.1997C 0.336658 1.33002 0.518082 1.4054 0.702701 1.4054C 0.887959 1.4054 1.06874 1.33002 1.1997 1.1997C 1.33066 1.06874 1.4054 0.887319 1.4054 0.702701C 1.4054 0.517443 1.33066 0.336019 1.1997 0.2057C 1.06938 0.0747419 0.887959 -3.50914e-08 0.702701 -3.50914e-08Z"/>
</defs>
</svg>
