<svg width="14" height="8" viewBox="0 0 14 8" version="1.1" xmlns="http://www.w3.org/2000/svg" xmlns:xlink="http://www.w3.org/1999/xlink">
<title>XMLID 807</title>
<desc>Created using Figma</desc>
<g id="Canvas" transform="translate(1072 170)">
<g id="XMLID 807">
<use xlink:href="#path0_fill" transform="translate(-1071.6 -170)" fill="#FFFFFF"/>
</g>
</g>
<defs>
<path id="path0_fill" fill-rule="evenodd" d="M 11.3605 4.57809C 11.7983 4.99013 12.2605 5.3778 12.6532 5.8314C 12.8267 6.03297 12.9909 6.24098 13.1166 6.4749C 13.2946 6.80744 13.1333 7.17337 12.824 7.19323L 10.901 7.19239C 10.405 7.23206 10.0093 7.03961 9.67665 6.71276C 9.41041 6.45137 9.16385 6.17317 8.90784 5.90297C 8.80288 5.79252 8.69303 5.6886 8.56179 5.60646C 8.29927 5.44222 8.07141 5.49251 7.92139 5.75641C 7.7686 6.02482 7.73395 6.32203 7.71894 6.62117C 7.69834 7.05762 7.56147 7.17237 7.10661 7.19235C 6.13452 7.23654 5.21196 7.09479 4.35493 6.62213C 3.59934 6.20545 3.01342 5.61721 2.50343 4.95126C 1.51049 3.65451 0.750084 2.2296 0.0666645 0.76477C -0.0871679 0.434742 0.0253331 0.257585 0.403127 0.251314C 1.03047 0.239568 1.65773 0.240404 2.28581 0.250479C 2.54078 0.254074 2.70957 0.39503 2.80802 0.627199C 3.14743 1.4316 3.56274 2.19691 4.08404 2.90629C 4.22287 3.09516 4.36443 3.28402 4.56601 3.41695C 4.78902 3.56413 4.95881 3.51535 5.06372 3.27591C 5.13029 3.12408 5.15944 2.96055 5.17444 2.79794C 5.22415 2.2385 5.23069 1.68003 5.14352 1.12256C 5.09 0.774636 4.88669 0.549406 4.5265 0.483567C 4.3427 0.45 4.37007 0.384078 4.45906 0.282959C 4.61363 0.10856 4.75901 -5.61308e-08 5.0488 -5.61308e-08L 7.2221 -5.61308e-08C 7.56424 0.0650859 7.64023 0.213233 7.68707 0.545058L 7.68893 2.87189C 7.6852 3.00035 7.75551 3.38154 7.99556 3.46657C 8.18768 3.5271 8.31432 3.37895 8.4296 3.26153C 8.94995 2.72922 9.32132 2.10014 9.6531 1.44874C 9.80034 1.16231 9.92694 0.864845 10.0496 0.567631C 10.1405 0.347083 10.2832 0.238565 10.5409 0.243372L 12.6326 0.245169C 12.6946 0.245169 12.7574 0.246047 12.8174 0.255955C 13.1699 0.313851 13.2665 0.459991 13.1576 0.791733C 12.9861 1.31221 12.6524 1.74595 12.3261 2.1817C 11.9772 2.64691 11.6042 3.0962 11.2583 3.56418C 10.9404 3.99152 10.9657 4.20693 11.3605 4.57809Z"/>
</defs>
</svg>
