<svg width="12" height="8" viewBox="0 0 12 8" version="1.1" xmlns="http://www.w3.org/2000/svg" xmlns:xlink="http://www.w3.org/1999/xlink">
<title>XMLID 823</title>
<desc>Created using Figma</desc>
<g id="Canvas" transform="translate(1015 170)">
<g id="XMLID 823">
<use xlink:href="#path0_fill" transform="translate(-1014.4 -170)" fill="#FFFFFF"/>
</g>
</g>
<defs>
<path id="path0_fill" d="M 10.379 0.618069C 9.9892 0.179071 9.26943 -6.04292e-09 7.89483 -6.04292e-09L 2.90506 -6.04292e-09C 1.49901 -6.04292e-09 0.767044 0.190622 0.378662 0.658002C 0 1.1137 0 1.78513 0 2.71441L 0 4.48562C 0 6.28593 0.44928 7.2 2.90506 7.2L 7.89487 7.2C 9.08691 7.2 9.74745 7.04198 10.1748 6.65457C 10.613 6.25729 10.8 5.60862 10.8 4.48562L 10.8 2.71441C 10.8 1.73441 10.7707 1.05901 10.379 0.618069ZM 6.93363 3.84455L 4.6678 4.96633C 4.61714 4.99141 4.56175 5.00386 4.50642 5.00386C 4.44378 5.00386 4.38128 4.98788 4.32592 4.95613C 4.22168 4.8963 4.15803 4.78927 4.15803 4.67383L 4.15803 2.43746C 4.15803 2.32221 4.22151 2.21529 4.32554 2.15542C 4.4296 2.09555 4.55903 2.09146 4.66699 2.14459L 6.93283 3.25915C 7.04811 3.31585 7.12051 3.42859 7.12068 3.55159C 7.12082 3.67468 7.04874 3.78759 6.93363 3.84455Z"/>
</defs>
</svg>
