<svg xmlns="http://www.w3.org/2000/svg" xmlns:xlink="http://www.w3.org/1999/xlink" width="29" height="29" viewBox="0 0 29 29"><defs><path id="nfa8a" d="M643 1748.5c0 8.007-6.492 14.5-14.5 14.5-8.009 0-14.5-6.493-14.5-14.5 0-8.01 6.491-14.5 14.5-14.5 8.008 0 14.5 6.49 14.5 14.5zm-8.744-1.57l-6.151-5.619c-1.968-1.796-4.907 1.125-2.929 2.93l.049.045c.076.134.167.267.29.391.73.738 1.664 1.474 2.562 2.214l1.67 1.526-1.758 1.65c-.88.752-1.792 1.503-2.506 2.253a1.917 1.917 0 0 0-.262.353c-.024.023-.05.046-.073.07-1.95 1.833.986 4.758 2.93 2.93l6.178-5.814c.794-.747.815-2.185 0-2.929z"/></defs><g><g transform="translate(-614 -1734)"><use fill="#fff" xlink:href="#nfa8a"/></g></g></svg>