<svg xmlns="http://www.w3.org/2000/svg" xmlns:xlink="http://www.w3.org/1999/xlink" width="65" height="74" viewBox="0 0 65 74"><defs><path id="c0gra" d="M1017.282 5055.15c.897 1.43.945 3.23.124 4.703a4.653 4.653 0 0 1-4.068 2.39h-14.844v3.076a4.646 4.646 0 0 1-4.652 4.639h-26.99a4.645 4.645 0 0 1-4.65-4.639v-37.244a4.644 4.644 0 0 1 4.65-4.636h14.844v-3.076c0-2.56 2.083-4.636 4.652-4.636h26.993c2.57 0 4.651 2.075 4.651 4.636 0 .932-.276 1.8-.751 2.527l-9.988 16.271zm-50.43 10.169h24.22l-7.143-4.871c-.003-.003-.005-.005-.007-.005l-.005-.004c-.015-.01-.025-.023-.04-.032a1.516 1.516 0 0 1-.19-.16c-.034-.034-.06-.073-.09-.109-.033-.04-.07-.079-.099-.124-.027-.04-.047-.088-.071-.13-.024-.046-.05-.089-.07-.136-.019-.048-.03-.095-.045-.145-.013-.048-.031-.092-.04-.142-.014-.072-.019-.147-.023-.22 0-.027-.007-.05-.007-.076v-21.804c0-.854.693-1.544 1.55-1.544.856 0 1.55.69 1.55 1.544v20.257h7.5v-.011h19.496l-11.555-18.419 11.555-18.825h-26.99v7.712h-.005v2.27c0 .853-.695 1.544-1.551 1.544-.857 0-1.55-.69-1.55-1.544v-2.27h-16.39zm26.99-4.61h-4.038l4.038 2.754zm-35.495-34.508v60.48c0 1.28-1.041 2.319-2.326 2.319a2.322 2.322 0 0 1-2.326-2.32v-60.48a2.32 2.32 0 0 1 2.326-2.318 2.321 2.321 0 0 1 2.326 2.319zm.687-8.2a3.008 3.008 0 0 1-3.013 3.003 3.01 3.01 0 0 1-3.013-3.003 3.007 3.007 0 0 1 3.013-3.002 3.006 3.006 0 0 1 3.013 3.002z"/></defs><g><g transform="translate(-953 -5015)"><use fill="#ff7878" xlink:href="#c0gra"/><use fill="#cfd900" xlink:href="#c0gra"/></g></g></svg>