<svg xmlns="http://www.w3.org/2000/svg" xmlns:xlink="http://www.w3.org/1999/xlink" width="128" height="109" viewBox="0 0 128 109"><defs><path id="ogasa" d="M1417 868.061c0 11.858-5.787 20.176-10.44 26.86-13.511 19.412-47.496 43.57-48.937 44.59a8.002 8.002 0 0 1-9.25 0c-1.44-1.02-35.422-25.178-48.938-44.59-4.65-6.684-10.435-15.002-10.435-26.86 0-19.876 16.152-36.045 36.006-36.045 11.02 0 21.258 5.057 27.994 13.4 6.74-8.341 16.98-13.4 27.994-13.4 19.853 0 36.006 16.169 36.006 36.045zm-8.014 0c0-15.474-12.535-28.024-27.992-28.024-11.41 0-21.205 6.844-25.566 16.64h-.033a2.516 2.516 0 0 1-2.397 1.772 2.518 2.518 0 0 1-2.395-1.772h-.011v.05c-4.352-9.827-14.16-16.69-25.586-16.69-15.461 0-27.992 12.55-27.992 28.024 0 8.962 4.25 15.448 8.996 22.272 12.869 18.484 46.988 42.627 46.988 42.627s34.123-24.143 46.988-42.627c4.75-6.824 9-13.31 9-22.272zm-47.758-8.893c.055-.106.106-.215.153-.322 3.531-7.934 11.408-13.064 20.066-13.064 5.96 0 11.54 2.354 15.711 6.63a2.674 2.674 0 0 1-.045 3.782 2.667 2.667 0 0 1-3.777-.045c-3.158-3.234-7.381-5.017-11.889-5.017-6.55 0-12.512 3.883-15.187 9.896-.09.201-.18.391-.278.58a2.675 2.675 0 0 1-2.378 1.455 2.672 2.672 0 0 1-2.375-3.895zm42.194 8.612c0 6.922-3.307 12.21-7.983 18.924-9.101 13.08-29.494 29.305-40.84 37.813a2.664 2.664 0 0 1-3.203 0c-11.345-8.51-31.738-24.738-40.836-37.813-4.675-6.711-7.982-12-7.982-18.924 0-12.13 9.857-21.998 21.973-21.998 8.676 0 16.56 5.145 20.086 13.105.048.111.095.21.146.308a2.672 2.672 0 1 1-4.736 2.472c-.106-.203-.205-.41-.3-.624-2.663-6.016-8.63-9.911-15.196-9.911-9.17 0-16.631 7.47-16.631 16.648 0 5.39 2.652 9.588 7.023 15.866 8.496 12.209 28.354 28.022 38.055 35.382 9.701-7.358 29.558-23.172 38.058-35.382 4.372-6.278 7.024-10.477 7.024-15.866a2.674 2.674 0 0 1 2.672-2.676 2.673 2.673 0 0 1 2.67 2.676z"/><clipPath id="ogasb"><use fill="#fff" xlink:href="#ogasa"/></clipPath></defs><g><g transform="translate(-1289 -832)"><use fill="#ff7878" xlink:href="#ogasa"/><use fill="#cfd900" xlink:href="#ogasa"/><use fill="#fff" fill-opacity="0" stroke="#fff" stroke-linecap="round" stroke-linejoin="round" stroke-miterlimit="50" stroke-width="4" clip-path="url(&quot;#ogasb&quot;)" xlink:href="#ogasa"/></g></g></svg>