<svg xmlns="http://www.w3.org/2000/svg" xmlns:xlink="http://www.w3.org/1999/xlink" width="116" height="117" viewBox="0 0 116 117"><defs><path id="6b2wa" d="M624.004 919.812a7.367 7.367 0 0 1-2.132 5.187l-8.986 9.056a7.237 7.237 0 0 1-8.277 1.436c-4.094 2.956-8.34 6.026-9.42 6.823a10.703 10.703 0 0 1-7.056 2.685c-2.019 0-3.988-.574-5.702-1.669-26.613-17.015-55.833-46.472-72.71-73.303-2.56-4.082-2.131-9.259.989-12.831.821-1.155 3.814-5.45 6.694-9.59a7.371 7.371 0 0 1 1.395-8.4l8.986-9.06a7.225 7.225 0 0 1 5.142-2.147c1.863 0 3.726.716 5.147 2.148l25.093 25.294a7.37 7.37 0 0 1 2.129 5.188 7.363 7.363 0 0 1-2.129 5.186l-8.99 9.057a7.224 7.224 0 0 1-7.469 1.764l-.549.553c8.118 9.593 19.53 21.106 29.04 29.297l.559-.566a7.344 7.344 0 0 1-.383-2.344c0-1.946.765-3.812 2.129-5.188l8.989-9.059a7.25 7.25 0 0 1 5.143-2.148c1.93 0 3.782.774 5.146 2.148l25.09 25.297a7.37 7.37 0 0 1 2.132 5.186zm-7.278 0l-25.09-25.297-8.618 8.69 6.833 6.892c.949.955.949 2.505 0 3.459a2.408 2.408 0 0 1-3.429 0l-3.974-4.007-6.764 6.82c-12.255-9.651-29.762-27.315-39.325-39.674l6.75-6.804-10.277-10.362a2.458 2.458 0 0 1 0-3.46 2.413 2.413 0 0 1 3.428 0l13.14 13.247 8.62-8.687-25.093-25.294-8.617 8.687 6.07 6.12a2.46 2.46 0 0 1 0 3.457 2.407 2.407 0 0 1-3.428 0l-2.84-2.862c-3.014 4.333-7.661 11.013-7.778 11.131a3.437 3.437 0 0 0-.464 4.238c16.257 25.847 44.818 54.637 70.456 71.031a3.344 3.344 0 0 0 1.807.527c.882 0 1.75-.347 2.394-.995.117-.116 6.687-4.863 10.951-7.937l-9.173-9.248a2.456 2.456 0 0 1 0-3.458 2.413 2.413 0 0 1 3.428 0l12.375 12.476z"/><clipPath id="6b2wb"><use fill="#fff" xlink:href="#6b2wa"/></clipPath></defs><g><g transform="translate(-508 -828)"><use fill="#ff7878" xlink:href="#6b2wa"/><use fill="#cfd900" xlink:href="#6b2wa"/><use fill="#fff" fill-opacity="0" stroke="#fff" stroke-linecap="round" stroke-linejoin="round" stroke-miterlimit="50" stroke-width="4" clip-path="url(&quot;#6b2wb&quot;)" xlink:href="#6b2wa"/></g></g></svg>