<svg xmlns="http://www.w3.org/2000/svg" xmlns:xlink="http://www.w3.org/1999/xlink" width="31" height="31" viewBox="0 0 31 31"><defs><path id="j5p7a" d="M1520.993 5575.692c0 3.123-1.216 6.06-3.425 8.268a11.619 11.619 0 0 1-8.267 3.424c-2.11 0-4.132-.556-5.904-1.596l-8.927 8.928a.967.967 0 0 1-1.368 0l-2.812-2.812a.968.968 0 0 1 0-1.368l8.924-8.924a11.619 11.619 0 0 1-1.606-5.92c0-3.124 1.216-6.06 3.424-8.268a11.615 11.615 0 0 1 8.269-3.425c3.123 0 6.059 1.216 8.267 3.424a11.616 11.616 0 0 1 3.425 8.269zm-19.198 8.963c-.263-.22-.518-.45-.763-.695-.24-.24-.466-.49-.682-.747l-8.008 8.008 1.444 1.443zm17.263-8.963a9.695 9.695 0 0 0-2.858-6.9 9.696 9.696 0 0 0-6.9-2.858 9.696 9.696 0 0 0-6.9 2.857 9.695 9.695 0 0 0-2.857 6.9 9.694 9.694 0 0 0 2.858 6.9 9.694 9.694 0 0 0 6.9 2.858 9.694 9.694 0 0 0 6.9-2.857 9.694 9.694 0 0 0 2.857-6.9zm-1.619 1.932a8.346 8.346 0 0 1-2.224 3.982 8.304 8.304 0 0 1-5.914 2.45 8.304 8.304 0 0 1-5.915-2.45 8.425 8.425 0 0 1-.775-.892.645.645 0 1 1 1.03-.775c.2.265.421.52.657.755a7.028 7.028 0 0 0 5.003 2.073c1.889 0 3.665-.737 5.002-2.073a7.058 7.058 0 0 0 1.881-3.367.645.645 0 1 1 1.255.297zm-15.3 1.025a.646.646 0 0 1-.81-.419 8.343 8.343 0 0 1 2.057-8.453 8.31 8.31 0 0 1 5.914-2.45 8.31 8.31 0 0 1 5.915 2.45 8.351 8.351 0 0 1 2.193 3.853.645.645 0 0 1-1.25.317 7.064 7.064 0 0 0-1.855-3.258 7.028 7.028 0 0 0-5.003-2.072 7.03 7.03 0 0 0-5.002 2.072 7.056 7.056 0 0 0-1.74 7.15.645.645 0 0 1-.42.81zm11.183-6.98a.646.646 0 0 1-.912.913 4.388 4.388 0 0 0-2.117-1.175.645.645 0 0 1 .29-1.257 5.674 5.674 0 0 1 2.74 1.52zm.14 2.598a.645.645 0 1 1 1.221-.415c.14.413.234.842.277 1.276a.645.645 0 1 1-1.284.126 4.427 4.427 0 0 0-.214-.987z"/></defs><g><g transform="translate(-1490 -5564)"><use fill="#ff7878" xlink:href="#j5p7a"/><use fill="#887cba" xlink:href="#j5p7a"/></g></g></svg>