<svg xmlns="http://www.w3.org/2000/svg" xmlns:xlink="http://www.w3.org/1999/xlink" width="111" height="128" viewBox="0 0 111 128"><defs><path id="i1jea" d="M991.086 937.641l2.835 4.076a3.999 3.999 0 0 1-3.283 6.282c-1.27 0-2.515-.6-3.293-1.718l-3.567-5.126A55.302 55.302 0 0 1 963.5 945a55.303 55.303 0 0 1-20.279-3.846l-3.566 5.126a4.004 4.004 0 0 1-5.573 1.003 3.999 3.999 0 0 1-1.003-5.567l2.835-4.076c-16.677-9.58-27.936-27.545-27.936-48.1 0-25.252 16.99-46.602 40.147-53.281v-8.262c0-4.418 3.584-8 8.007-8h14.738c4.422 0 8.007 3.582 8.007 8v8.263c23.156 6.678 40.144 28.028 40.144 53.28 0 20.555-11.258 38.52-27.935 48.1zm-34.954-103.058a55.677 55.677 0 0 1 7.368-.502c2.5 0 4.957.18 7.37.502v-6.585h-14.738zm54.882 54.958c0-26.213-21.272-47.463-47.514-47.463-26.242 0-47.515 21.25-47.515 47.463 0 26.211 21.273 47.461 47.515 47.461s47.514-21.25 47.514-47.46zm-6.098 0c0 22.81-18.58 41.368-41.416 41.368s-41.414-18.557-41.414-41.368c0-22.81 18.578-41.368 41.414-41.368a2.667 2.667 0 1 1 0 5.332c-19.892 0-36.076 16.165-36.076 36.036 0 19.87 16.184 36.035 36.076 36.035 19.893 0 36.078-16.164 36.078-36.035 0-4.473-.812-8.84-2.411-12.977a2.665 2.665 0 0 1 1.53-3.447 2.672 2.672 0 0 1 3.45 1.526 41.144 41.144 0 0 1 2.769 14.898zm-32.871-37.853a2.669 2.669 0 0 1 3.322-1.792c8.161 2.434 15.288 7.266 20.609 13.972a2.664 2.664 0 0 1-2.092 4.322 2.665 2.665 0 0 1-2.092-1.01c-4.638-5.845-10.845-10.055-17.954-12.174a2.666 2.666 0 0 1-1.793-3.318zm-8.545 33.219a4.636 4.636 0 0 1 4.64 4.634 4.637 4.637 0 0 1-4.64 4.635 4.637 4.637 0 0 1-4.64-4.635 4.636 4.636 0 0 1 4.64-4.634zm0-4.2a2.667 2.667 0 0 1-2.67-2.666v-16.128a2.668 2.668 0 0 1 2.67-2.667 2.668 2.668 0 0 1 2.669 2.667v16.128a2.668 2.668 0 0 1-2.67 2.666zm30.606 8.834a2.667 2.667 0 0 1-2.666 2.666h-16.148a2.667 2.667 0 1 1 0-5.331h16.148a2.667 2.667 0 0 1 2.666 2.665z"/><clipPath id="i1jeb"><use fill="#fff" xlink:href="#i1jea"/></clipPath></defs><g><g transform="translate(-908 -820)"><use fill="#ff7878" xlink:href="#i1jea"/><use fill="#cfd900" xlink:href="#i1jea"/><use fill="#fff" fill-opacity="0" stroke="#fff" stroke-linecap="round" stroke-linejoin="round" stroke-miterlimit="50" stroke-width="4" clip-path="url(&quot;#i1jeb&quot;)" xlink:href="#i1jea"/></g></g></svg>