<?xml version="1.0" standalone="no"?>
<!DOCTYPE svg PUBLIC "-//W3C//DTD SVG 1.1//EN" "http://www.w3.org/Graphics/SVG/1.1/DTD/svg11.dtd" >
<svg xmlns="http://www.w3.org/2000/svg" xmlns:xlink="http://www.w3.org/1999/xlink" version="1.1">
<metadata></metadata>
<defs>
<font id="truenoultrablack" horiz-adv-x="1413" >
<font-face units-per-em="2048" ascent="1638" descent="-410" />
<missing-glyph horiz-adv-x="428" />
<glyph unicode="&#xfb01;" horiz-adv-x="1558" d="M31 774v307h153v68q0 180 129.5 286.5t345.5 104.5q135 0 232 -33l6 -4l-14 -387l-17 10q-53 37 -106 37q-46 1 -71 -20.5t-25 -61.5h217v-307h-217v-774h-480v774h-153zM973 1430q0 107 68.5 175t175.5 68t175 -68t68 -175t-68 -175.5t-175 -68.5t-175.5 68.5 t-68.5 175.5zM975 0v1120h481v-1120h-481z" />
<glyph unicode="&#xfb02;" horiz-adv-x="1579" d="M31 774v307h153v68q0 180 129.5 286.5t345.5 104.5q135 0 232 -33l6 -4l-14 -387l-17 10q-53 37 -106 37q-46 1 -71 -20.5t-25 -61.5h217v-307h-217v-774h-480v774h-153zM985 0v1520h481v-1520h-481z" />
<glyph horiz-adv-x="0" />
<glyph horiz-adv-x="682" />
<glyph unicode=" "  horiz-adv-x="428" />
<glyph unicode="&#x09;" horiz-adv-x="428" />
<glyph unicode="&#xa0;" horiz-adv-x="428" />
<glyph unicode="!" horiz-adv-x="602" d="M72 205q0 97 61 158t158 61q98 0 159.5 -61t61.5 -158q0 -98 -61.5 -159.5t-159.5 -61.5q-97 0 -158 61.5t-61 159.5zM72 1049v387h458v-387l-84 -541h-290z" />
<glyph unicode="&#x22;" horiz-adv-x="1042" d="M113 797v639h364v-639h-364zM565 797v639h365v-639h-365z" />
<glyph unicode="#" horiz-adv-x="1525" d="M-4 272l43 334h266l25 205h-264l40 334h267l37 291h348l-37 -301h194l37 301h348l-36 -297h266l-41 -330h-268l-25 -203h266l-43 -334h-266l-35 -282h-348l35 282h-195l-35 -282h-348l35 282h-266zM653 606h195l24 205h-194z" />
<glyph unicode="$" horiz-adv-x="1359" d="M4 213l184 375l11 -8q107 -90 270 -156t270 -66q105 0 105 64q0 26 -25.5 46t-68.5 33.5t-99 26.5t-117.5 29.5t-123 37.5t-117.5 54.5t-99 77.5t-68.5 110t-25.5 148q0 167 103 283t284 162v339h361v-319q291 -28 508 -166l6 -4l-180 -379l-8 6q-117 65 -260.5 115.5 t-229.5 50.5q-78 0 -78 -49q0 -25 25.5 -44.5t68.5 -33.5t99 -27.5t117.5 -31t123 -40t117.5 -58t99 -81.5t68.5 -115t25.5 -153q0 -104 -39.5 -188.5t-109.5 -140t-158.5 -89t-194.5 -45.5v-325h-361v350q-281 55 -477 205z" />
<glyph unicode="%" horiz-adv-x="2187" d="M41 999q0 201 117.5 323t312.5 122t311.5 -122t116.5 -323q0 -203 -116.5 -324.5t-311.5 -121.5t-312.5 122t-117.5 324zM350 999q0 -86 33 -134t88 -48t88 48t33 134q0 85 -33 134t-88 49t-88 -49t-33 -134zM360 -20l1012 1456h455l-1012 -1456h-455zM1288 436 q0 201 117.5 323t312.5 122t311.5 -122t116.5 -323q0 -203 -116.5 -324.5t-311.5 -121.5t-312.5 122t-117.5 324zM1597 436q0 -86 33 -134t88 -48t88 48t33 134q0 85 -33 133.5t-88 48.5t-88 -48.5t-33 -133.5z" />
<glyph unicode="&#x26;" horiz-adv-x="1445" d="M98 414q0 66 20 123t58.5 102t80.5 78.5t99 66.5q-55 83 -77.5 153.5t-22.5 147.5q0 172 122.5 271.5t330.5 99.5q201 0 331.5 -97.5t130.5 -250.5q0 -73 -26 -134t-75.5 -108.5t-99 -80t-118.5 -68.5q20 -21 135 -137q44 86 64 184l4 14l307 -217l-2 -8 q-44 -125 -111 -223l197 -180l-246 -236l-188 180q-177 -114 -381 -114q-232 0 -382.5 121.5t-150.5 312.5zM494 455q0 -63 43 -100.5t112 -37.5q59 0 109 23q-50 50 -122 127t-87 92q-55 -49 -55 -104zM633 1081q0 -66 41 -141q119 72 119 160q0 37 -22.5 59.5t-57.5 22.5 q-38 0 -59 -27.5t-21 -73.5z" />
<glyph unicode="'" horiz-adv-x="589" d="M113 797v639h364v-639h-364z" />
<glyph unicode="(" horiz-adv-x="757" d="M86 633q0 245 70.5 472t203.5 411l2 4h437l-11 -17q-117 -188 -183 -412t-66 -458t66.5 -458.5t182.5 -412.5l11 -16h-437l-2 4q-133 184 -203.5 411t-70.5 472z" />
<glyph unicode=")" horiz-adv-x="757" d="M-41 -254l10 16q117 188 183.5 412.5t66.5 458.5t-66.5 458t-183.5 412l-10 17h436l2 -4q134 -185 204.5 -412t70.5 -471t-70.5 -471t-204.5 -412l-2 -4h-436z" />
<glyph unicode="*" horiz-adv-x="831" d="M27 1028l151 84l-151 80l123 201l147 -84l-4 161h246l-4 -161l147 80l123 -197l-154 -80l154 -84l-123 -215l-150 92l7 -170h-246l6 172l-149 -90z" />
<glyph unicode="+" horiz-adv-x="1064" d="M51 520v307h328v318h307v-318h328v-307h-328v-327h-307v327h-328z" />
<glyph unicode="," horiz-adv-x="542" d="M23 -246l108 266q-78 57 -78 164q0 97 62 158t159 61q91 0 155.5 -58t64.5 -159q0 -84 -58 -170l-180 -262h-233z" />
<glyph unicode="-" horiz-adv-x="778" d="M92 479v307h594v-307h-594z" />
<glyph unicode="." horiz-adv-x="542" d="M51 184q0 97 61 158t158 61q98 0 160 -61t62 -158q0 -98 -62 -159.5t-160 -61.5q-97 0 -158 61.5t-61 159.5z" />
<glyph unicode="/" horiz-adv-x="763" d="M-117 -233l680 1884h408l-680 -1884h-408z" />
<glyph unicode="0" horiz-adv-x="1460" d="M61 719q0 352 173 541.5t497 189.5q321 0 494.5 -189.5t173.5 -541.5t-173.5 -542.5t-494.5 -190.5q-323 0 -496.5 190.5t-173.5 542.5zM569 719q0 -143 16 -223t50.5 -113t95.5 -33q89 0 124.5 79t35.5 290q0 143 -16 222t-50 111.5t-94 32.5q-91 0 -126.5 -77.5 t-35.5 -288.5z" />
<glyph unicode="1" horiz-adv-x="890" d="M-6 1040v396h745v-1456h-495v1060h-250z" />
<glyph unicode="2" horiz-adv-x="1249" d="M10 1225l6 4q333 227 646 227q148 0 268 -48.5t190 -140t70 -208.5q0 -119 -73.5 -237.5t-207.5 -252.5l-200 -196h501v-383h-1140v309l499 516q45 46 74 93.5t29 78.5q0 66 -84 66q-77 0 -177 -48.5t-206 -134.5l-10 -8z" />
<glyph unicode="3" horiz-adv-x="1177" d="M-27 178l199 381l10 -12q159 -197 344 -197q71 0 104.5 27t33.5 84q0 112 -138 112h-270v254l258 240h-463v365h1032v-277l-299 -283l43 -10q144 -34 233 -139t89 -262q0 -213 -160.5 -347t-423.5 -134q-162 0 -320.5 52t-264.5 140z" />
<glyph unicode="4" horiz-adv-x="1359" d="M41 266v322l424 848h475l-391 -809h168v274h461v-274h182v-361h-182v-276h-461v276h-676z" />
<glyph unicode="5" horiz-adv-x="1251" d="M-6 176l199 383l10 -12q150 -197 338 -197q143 0 143 115q0 53 -34.5 78.5t-108.5 25.5h-414v867h1022v-385h-567v-129h53q262 0 422 -118t160 -315q0 -231 -169.5 -370t-449.5 -139q-154 0 -316 52t-282 140z" />
<glyph unicode="6" horiz-adv-x="1327" d="M61 702q0 169 51 309.5t143.5 238.5t225.5 152t293 54q135 0 271.5 -34.5t230.5 -94.5l8 -4l-190 -352l-11 8q-115 92 -280 92q-256 0 -268 -194q109 92 286 92q214 0 344.5 -133t130.5 -347q0 -232 -157.5 -370.5t-415.5 -138.5q-307 0 -484.5 195.5t-177.5 526.5z M575 492q0 -115 132 -115q66 0 97.5 27.5t31.5 87.5q0 57 -30.5 84.5t-96.5 27.5q-68 0 -101 -27t-33 -85z" />
<glyph unicode="7" horiz-adv-x="1263" d="M49 1055v381h1206v-330l-497 -1126h-525l474 1071h-220v-207z" />
<glyph unicode="8" horiz-adv-x="1343" d="M41 403q0 113 66.5 213t177.5 154q-77 57 -121.5 136.5t-44.5 158.5q0 179 151 285t400 106q252 0 403.5 -110t151.5 -295q0 -79 -39.5 -155t-104.5 -128q103 -55 162.5 -151t59.5 -205q0 -197 -173 -314.5t-458 -117.5t-458 115t-173 308zM510 455q0 -115 162 -115 q164 0 164 115q0 116 -164 116q-84 0 -123 -28.5t-39 -87.5zM537 1026q0 -96 135 -96t135 96q0 51 -32.5 75.5t-102.5 24.5t-102.5 -24.5t-32.5 -75.5z" />
<glyph unicode="9" horiz-adv-x="1327" d="M31 946q0 232 157.5 371t415.5 139q307 0 484.5 -196t177.5 -527q0 -341 -194.5 -547t-518.5 -206q-135 0 -271.5 34.5t-230.5 94.5l-8 4l190 352l11 -8q115 -92 280 -92q257 0 269 194q-109 -92 -287 -92q-214 0 -344.5 133t-130.5 346zM492 944q0 -58 30.5 -85.5 t95.5 -27.5q134 0 134 115q0 58 -31.5 85.5t-99.5 27.5q-66 0 -97.5 -27.5t-31.5 -87.5z" />
<glyph unicode=":" horiz-adv-x="542" d="M51 205q0 97 61 158t158 61q98 0 160 -61t62 -158q0 -98 -62 -159.5t-160 -61.5q-97 0 -158 61.5t-61 159.5zM51 803q0 97 61 158t158 61q98 0 160 -61t62 -158q0 -98 -62 -159.5t-160 -61.5q-97 0 -158 61.5t-61 159.5z" />
<glyph unicode=";" horiz-adv-x="542" d="M23 -225l108 266q-78 57 -78 164q0 97 62 158t159 61q91 0 155.5 -58t64.5 -159q0 -84 -58 -170l-180 -262h-233zM51 803q0 97 61 158t158 61q98 0 160 -61t62 -158q0 -98 -62 -159.5t-160 -61.5q-97 0 -158 61.5t-61 159.5z" />
<glyph unicode="&#x3c;" horiz-adv-x="1064" d="M51 473v377l963 379v-332l-629 -235l629 -236v-332z" />
<glyph unicode="=" horiz-adv-x="1064" d="M51 295v307h963v-307h-963zM51 745v308h963v-308h-963z" />
<glyph unicode="&#x3e;" horiz-adv-x="1064" d="M51 96v340l629 236l-629 235v340l963 -387v-377z" />
<glyph unicode="?" horiz-adv-x="1019" d="M-8 911v11q0 251 136 392.5t380 141.5q226 0 353.5 -101t127.5 -282q0 -62 -17 -116.5t-44 -94.5t-59.5 -76.5t-65.5 -69t-60 -64.5t-44 -70.5t-17 -79.5v-10h-363v10q0 86 23.5 155.5t56.5 112.5t66 78.5t56.5 72.5t23.5 76q0 41 -18.5 58.5t-61.5 17.5q-52 0 -76 -35 t-24 -116v-11h-373zM274 205q0 97 61.5 158t158.5 61q98 0 159.5 -61t61.5 -158q0 -98 -61.5 -159.5t-159.5 -61.5q-97 0 -158.5 61.5t-61.5 159.5z" />
<glyph unicode="@" horiz-adv-x="1771" d="M20 549q0 182 69.5 345.5t187 281t280 186t342.5 68.5q179 0 337 -66t271 -180.5t178.5 -276.5t65.5 -346q0 -226 -112.5 -365t-290.5 -139q-202 0 -250 154q-106 -133 -267 -133q-82 0 -160 34.5t-139 95t-98 151.5t-37 196q0 131 48 240.5t141.5 177t214.5 67.5 q125 0 225 -94v70h297v-676q0 -48 12.5 -64t38.5 -16q49 0 93 84t44 211q0 137 -41 255.5t-117 206.5t-193 138.5t-261 50.5q-103 0 -200 -33t-175.5 -94t-137.5 -142t-91.5 -181t-32.5 -207q0 -175 80.5 -318t220.5 -224t311 -81q91 0 190.5 32t180.5 95l8 6l117 -192 l-8 -6q-88 -72 -225.5 -115t-262.5 -43q-179 0 -337.5 64.5t-272 176t-179 269t-65.5 336.5zM721 565q0 -92 38.5 -155.5t100.5 -63.5q69 0 108.5 61.5t39.5 155.5q0 88 -40.5 145.5t-109.5 57.5q-60 0 -98.5 -58t-38.5 -143z" />
<glyph unicode="A" horiz-adv-x="1636" d="M-37 0l617 1436h499l592 -1436h-528l-72 203h-522l-74 -203h-512zM678 553h270l-133 379z" />
<glyph unicode="B" horiz-adv-x="1482" d="M92 0v1436h737q262 0 421 -99.5t159 -267.5q0 -101 -58.5 -182t-158.5 -121q119 -37 189.5 -134t70.5 -224q0 -186 -161.5 -297t-426.5 -111h-772zM586 369h217q63 0 99 26.5t36 71.5q0 41 -36 65.5t-99 24.5h-217v-188zM586 893h217q46 0 72 23.5t26 64.5q0 40 -26 63 t-72 23h-217v-174z" />
<glyph unicode="C" horiz-adv-x="1409" d="M20 721q0 156 59.5 291.5t164 231.5t251 151t314.5 55q166 0 334 -72.5t280 -193.5l7 -6l-289 -342l-8 10q-62 85 -150 136.5t-168 51.5q-125 0 -206 -86t-81 -221q0 -136 81 -223.5t206 -87.5q75 0 162.5 43t155.5 116l8 9l289 -308l-7 -6q-122 -132 -293 -211t-339 -79 q-220 0 -396.5 95.5t-275.5 265t-99 380.5z" />
<glyph unicode="D" horiz-adv-x="1554" d="M92 0v1436h651q358 0 574.5 -195.5t216.5 -521.5q0 -216 -100 -379t-283.5 -251.5t-425.5 -88.5h-633zM588 389h168q125 0 198.5 88t73.5 238q0 152 -80.5 242t-214.5 90h-145v-658z" />
<glyph unicode="E" d="M92 0v1436h1235v-381h-739v-146h672v-381h-672v-147h758v-381h-1254z" />
<glyph unicode="F" horiz-adv-x="1292" d="M92 0v1436h1176v-381h-680v-217h637v-381h-637v-457h-496z" />
<glyph unicode="G" horiz-adv-x="1511" d="M20 717q0 157 62 293t170 232.5t260.5 152t327.5 55.5q169 0 339 -60.5t287 -162.5l9 -6l-283 -342l-6 6q-70 67 -166 108t-182 41q-134 0 -222 -89.5t-88 -227.5q0 -140 89 -231t225 -91q70 0 178 43v338h428v-608l-4 -2q-121 -81 -300 -133.5t-335 -52.5 q-225 0 -405.5 95t-282 263.5t-101.5 378.5z" />
<glyph unicode="H" horiz-adv-x="1599" d="M92 0v1436h496v-547h424v547h495v-1436h-495v508h-424v-508h-496z" />
<glyph unicode="I" horiz-adv-x="679" d="M92 0v1436h496v-1436h-496z" />
<glyph unicode="J" horiz-adv-x="1165" d="M-29 240l226 323l10 -8q79 -79 157.5 -119.5t133.5 -40.5q98 0 98 109v932h498v-947q0 -240 -148.5 -374.5t-402.5 -134.5q-338 0 -568 253z" />
<glyph unicode="K" horiz-adv-x="1583" d="M92 0v1436h496v-482l413 482h574l-522 -580l549 -856h-592l-295 487l-127 -143v-344h-496z" />
<glyph unicode="L" horiz-adv-x="1196" d="M92 0v1436h496v-1020h598v-416h-1094z" />
<glyph unicode="M" horiz-adv-x="1835" d="M92 0v1436h518l308 -734l307 734h518v-1436h-434v741l-230 -602h-323l-230 602v-741h-434z" />
<glyph unicode="N" horiz-adv-x="1599" d="M92 0v1436h412l553 -717v717h450v-1436h-411l-551 713v-713h-453z" />
<glyph unicode="O" horiz-adv-x="1638" d="M20 719q0 157 60.5 293.5t166 232.5t253.5 150.5t319 54.5t319 -55t253.5 -151t166 -232t60.5 -293q0 -210 -103 -379t-286 -264.5t-410 -95.5q-228 0 -410.5 95t-285.5 264t-103 380zM528 717q0 -137 88 -229.5t209 -92.5q120 0 202.5 92t82.5 230t-82.5 227.5 t-202.5 89.5q-123 0 -210 -90t-87 -227z" />
<glyph unicode="P" horiz-adv-x="1404" d="M92 0v1436h684q283 0 440.5 -137t157.5 -384q0 -262 -157.5 -407.5t-440.5 -145.5h-188v-362h-496zM588 743h164q72 0 111.5 41t39.5 117q0 73 -39.5 113.5t-111.5 40.5h-164v-312z" />
<glyph unicode="Q" horiz-adv-x="1632" d="M20 719q0 157 60.5 293.5t166 232.5t253.5 150.5t319 54.5t319 -55t253.5 -151t166 -232t60.5 -293q0 -225 -118.5 -401.5t-319.5 -264.5q47 -53 102 -53q40 0 101 26t122 70l11 6l165 -297l-6 -6q-84 -73 -206.5 -117t-237.5 -44q-163 0 -290.5 93t-186.5 251 q-212 14 -379 111.5t-261 261t-94 364.5zM528 707q0 -142 88 -237t209 -95q120 0 202.5 94.5t82.5 237.5t-82.5 235t-202.5 92q-123 0 -210 -92.5t-87 -234.5z" />
<glyph unicode="R" horiz-adv-x="1484" d="M92 0v1436h705q296 0 459 -134.5t163 -381.5q0 -153 -57 -268.5t-166 -184.5l287 -467h-561l-172 373h-162v-373h-496zM588 733h209q72 0 111.5 42.5t39.5 121.5q0 76 -39.5 117t-111.5 41h-209v-322z" />
<glyph unicode="S" horiz-adv-x="1359" d="M4 223l184 375l11 -8q107 -89 270 -155t270 -66q105 0 105 61q0 26 -25.5 45.5t-68.5 33t-99 26.5t-117.5 29t-123 37t-117.5 54.5t-99 76.5t-68.5 108.5t-25.5 146.5q0 215 171 342t454 127q170 0 338 -46.5t293 -125.5l6 -4l-180 -379l-8 6q-117 65 -260.5 115.5 t-229.5 50.5q-78 0 -78 -49q0 -25 25.5 -44t68.5 -32.5t99 -27t117.5 -30.5t123 -39t117.5 -57t99 -80.5t68.5 -113.5t25.5 -151q0 -94 -33 -171.5t-89.5 -131t-135 -90t-168 -53.5t-189.5 -17q-192 0 -387 61t-338 170z" />
<glyph unicode="T" horiz-adv-x="1312" d="M0 1040v396h1313v-396h-410v-1040h-495v1040h-408z" />
<glyph unicode="U" horiz-adv-x="1542" d="M72 610v826h495v-822q0 -97 62 -158t149 -61q85 0 141 60t56 159v822h495v-826q0 -286 -189.5 -458t-504.5 -172q-317 0 -510.5 172.5t-193.5 457.5z" />
<glyph unicode="V" horiz-adv-x="1564" d="M-25 1436h531l289 -918l286 918h508l-557 -1436h-504z" />
<glyph unicode="W" horiz-adv-x="2295" d="M-25 1436h531l209 -908l205 906l479 2l209 -908l204 908h508l-475 -1436h-506l-190 823l-197 -823h-506z" />
<glyph unicode="X" horiz-adv-x="1583" d="M-31 0l512 729l-479 707h578l202 -328l203 328h584l-471 -684l514 -752h-594l-236 362l-231 -362h-582z" />
<glyph unicode="Y" horiz-adv-x="1472" d="M-37 1436h496l282 -541l273 541h495l-520 -987v-449h-495v438z" />
<glyph unicode="Z" horiz-adv-x="1398" d="M31 0v305l657 746h-633v385h1299v-308l-658 -749h672v-379h-1337z" />
<glyph unicode="[" horiz-adv-x="772" d="M92 -254v1774h670v-361h-240v-1053h240v-360h-670z" />
<glyph unicode="\" horiz-adv-x="763" d="M-207 1651h408l680 -1884h-408z" />
<glyph unicode="]" horiz-adv-x="813" d="M51 106h240v1053h-240v361h670v-1774h-670v360z" />
<glyph unicode="^" horiz-adv-x="1245" d="M45 283l389 788h377l389 -788h-342l-235 520l-236 -520h-342z" />
<glyph unicode="_" horiz-adv-x="1226" d="M-10 -172h1247v-266h-1247v266z" />
<glyph unicode="`" horiz-adv-x="716" d="M35 1468l414 131l233 -409h-350z" />
<glyph unicode="a" horiz-adv-x="1255" d="M20 336q0 168 114.5 256.5t330.5 91.5h246q-10 92 -164 92q-147 0 -336 -71l-10 -3l-109 326l8 4q296 109 557 109q247 0 387 -110t140 -308v-723h-473v102q-110 -122 -305 -122q-180 0 -283 96.5t-103 259.5zM473 375q0 -82 92 -82q42 0 81 19.5t65 54.5v84h-150 q-88 0 -88 -76z" />
<glyph unicode="b" d="M113 0v1520h481v-496q110 113 274 113q238 0 381.5 -160t143.5 -424q0 -258 -139.5 -413.5t-372.5 -155.5q-173 0 -287 114v-98h-481zM594 565q0 -90 43 -143t113 -53q71 0 114 53t43 143t-43 143.5t-114 53.5q-70 0 -113 -53.5t-43 -143.5z" />
<glyph unicode="c" horiz-adv-x="1148" d="M20 555q0 264 165.5 423t437.5 159q186 0 327.5 -86.5t212.5 -243.5l4 -10l-387 -164l-4 10q-41 100 -133 100q-62 0 -99.5 -49.5t-37.5 -136.5q0 -88 37.5 -138t99.5 -50q47 0 78 26t49 86l4 13l391 -181l-2 -10q-63 -152 -207 -235.5t-338 -83.5q-270 0 -434 156 t-164 415z" />
<glyph unicode="d" d="M20 567q0 258 139.5 414t372.5 156q172 0 287 -115v498h481v-1520h-481v96q-109 -112 -274 -112q-238 0 -381.5 159.5t-143.5 423.5zM506 555q0 -90 43.5 -143.5t114.5 -53.5q70 0 112.5 53.5t42.5 143.5t-42.5 143.5t-112.5 53.5q-71 0 -114.5 -53.5t-43.5 -143.5z" />
<glyph unicode="e" horiz-adv-x="1257" d="M20 555q0 265 167 423.5t442 158.5q8 0 24.5 -1t24.5 -1q276 -15 426 -197q133 -161 133 -410q0 -32 -2 -65v-8h-725q50 -111 172 -111q115 0 221 98l6 7l254 -250l-6 -6q-190 -209 -516 -209q-288 0 -454.5 155t-166.5 416zM498 680h256q1 56 -33.5 92.5t-87.5 36.5 q-51 0 -86 -34.5t-49 -94.5z" />
<glyph unicode="f" horiz-adv-x="872" d="M31 754v307h153v88q0 180 130 287q127 104 337 104h8q98 0 199 -22t172 -60l10 -4l-163 -334l-11 6q-53 37 -106 37h-4q-43 0 -67 -21q-25 -21 -25 -61v-20h217v-305h-217v-756h-480v754h-153z" />
<glyph unicode="g" horiz-adv-x="1339" d="M20 602q0 241 129.5 388t333.5 147q169 0 279 -107v90h479v-1024q0 -154 -81 -271.5t-225.5 -180t-330.5 -62.5q-155 0 -296.5 42t-237.5 106l-7 4l154 327l10 -6q71 -44 163.5 -70t172.5 -26q97 0 148 32.5t51 88.5v82q-108 -105 -270 -105q-206 0 -339 150t-133 395z M471 592q0 -85 40 -135.5t105 -50.5t105.5 50.5t40.5 135.5q0 86 -40 136t-106 50q-65 0 -105 -49.5t-40 -136.5z" />
<glyph unicode="h" horiz-adv-x="1406" d="M113 0v1520h481v-537q124 158 330 158q183 0 297 -118t114 -310v-713h-481v575q0 65 -33.5 102.5t-89.5 37.5q-63 0 -100 -45t-37 -121v-549h-481z" />
<glyph unicode="i" horiz-adv-x="686" d="M100 1430q0 107 68.5 175t175.5 68t175.5 -68t68.5 -175t-68.5 -175.5t-175.5 -68.5t-175.5 68.5t-68.5 175.5zM102 0v1120h482v-1120h-482z" />
<glyph unicode="j" horiz-adv-x="712" d="M-195 -342l109 336l10 -4q63 -29 109 -29h7q34 0 52 19q21 21 21 63v1077h481v-1145q0 -181 -124 -287q-123 -104 -323 -104h-8q-181 0 -325 72zM90 1430q0 107 74 175t188 68q116 0 189 -68t73 -175t-73.5 -175.5t-188.5 -68.5q-114 0 -188 68.5t-74 175.5z" />
<glyph unicode="k" horiz-adv-x="1355" d="M113 0v1520h481v-674l246 274h549l-420 -436l407 -684h-571l-168 344l-43 -43v-301h-481z" />
<glyph unicode="l" horiz-adv-x="706" d="M113 0v1520h481v-1520h-481z" />
<glyph unicode="m" horiz-adv-x="2113" d="M102 0v1120h482v-137q123 158 323 158q123 0 218 -59.5t145 -166.5q58 109 151.5 167.5t214.5 58.5q180 0 293 -118t113 -310v-713h-481v575q0 65 -32 102.5t-85 37.5q-59 0 -95 -45t-36 -121v-549h-482v575q0 65 -31.5 102.5t-84.5 37.5q-59 0 -95 -45t-36 -121v-549 h-482z" />
<glyph unicode="n" horiz-adv-x="1396" d="M102 0v1120h482v-137q124 158 329 158q183 0 297.5 -118t114.5 -310v-713h-481v575q0 65 -33.5 102.5t-89.5 37.5q-63 0 -100 -45t-37 -121v-549h-482z" />
<glyph unicode="o" horiz-adv-x="1327" d="M20 561q0 262 176 419t468 157t467.5 -157t175.5 -419t-175.5 -419.5t-467.5 -157.5t-468 157.5t-176 419.5zM506 555q0 -90 43.5 -143.5t114.5 -53.5t114 53.5t43 143.5t-43 143.5t-114 53.5t-114.5 -53.5t-43.5 -143.5z" />
<glyph unicode="p" d="M113 -397v1517h481v-96q110 113 274 113q238 0 381.5 -160t143.5 -424q0 -258 -139.5 -413.5t-372.5 -155.5q-173 0 -287 114v-495h-481zM594 565q0 -90 43 -143t113 -53q71 0 114 53t43 143t-43 143.5t-114 53.5q-70 0 -113 -53.5t-43 -143.5z" />
<glyph unicode="q" d="M20 567q0 258 139.5 414t372.5 156q172 0 287 -115v98h481v-1517h-481v493q-109 -112 -274 -112q-238 0 -381.5 159.5t-143.5 423.5zM506 555q0 -90 43.5 -143.5t114.5 -53.5q70 0 112.5 53.5t42.5 143.5t-42.5 143.5t-112.5 53.5q-71 0 -114.5 -53.5t-43.5 -143.5z" />
<glyph unicode="r" horiz-adv-x="935" d="M102 0v1120h482v-141q125 162 331 162h11v-430l-13 2q-47 6 -84 6q-116 0 -180.5 -48t-64.5 -136v-535h-482z" />
<glyph unicode="s" horiz-adv-x="1130" d="M12 145l148 306l10 -7q219 -137 408 -137q29 0 44 7t15 16q0 15 -31.5 27t-81.5 24t-111 28t-121.5 43.5t-110.5 64.5t-81.5 98.5t-31.5 138.5q0 178 137.5 282.5t365.5 104.5q265 0 525 -144l10 -4l-162 -303l-8 6q-245 121 -375 121q-27 0 -40 -8t-13 -18 q0 -16 32 -29.5t83.5 -26.5t113.5 -29t124 -44t113.5 -65.5t83.5 -98.5t32 -138q0 -174 -142 -277t-377 -103q-320 0 -553 161z" />
<glyph unicode="t" horiz-adv-x="942" d="M6 756v307h154v309h479v-307h262v-305h-262v-322q0 -40 21.5 -62t58.5 -20q32 0 110 29l13 4l82 -334l-6 -4q-56 -33 -144.5 -52t-181.5 -19h-7q-191 0 -307 103q-118 105 -118 282v391h-154z" />
<glyph unicode="u" horiz-adv-x="1376" d="M72 408v712h481v-575q0 -65 30.5 -102t82.5 -37q57 0 92 44.5t35 120.5v549h481v-1120h-481v133q-119 -153 -320 -153q-178 0 -289.5 118t-111.5 310z" />
<glyph unicode="v" horiz-adv-x="1253" d="M-35 1120h496l170 -671l174 671h483l-422 -1120h-483z" />
<glyph unicode="w" horiz-adv-x="2000" d="M-35 1120h490l170 -637l163 637h443l170 -639l168 639h467l-418 -1120h-465l-152 561l-157 -561h-467z" />
<glyph unicode="x" horiz-adv-x="1339" d="M-29 0l377 573l-354 547h553l123 -250l145 250h528l-354 -545l379 -575h-555l-143 281l-168 -281h-531z" />
<glyph unicode="y" horiz-adv-x="1277" d="M-55 -279l205 322l8 -8q70 -64 143 -64q72 0 102 52l13 22l-469 1075h497l213 -614l174 614h482l-465 -1192q-72 -178 -195 -262t-307 -84q-112 0 -206.5 32t-186.5 101z" />
<glyph unicode="z" horiz-adv-x="1163" d="M41 0v274l455 482h-435v364h1049v-274l-455 -481h475v-365h-1089z" />
<glyph unicode="{" horiz-adv-x="780" d="M18 451v364h103q32 0 42.5 11t10.5 48v330q0 179 90.5 249.5t315.5 70.5h190v-355h-10q-98 0 -127 -21.5t-29 -86.5v-158q0 -115 -38.5 -178t-129.5 -92q92 -30 130 -93t38 -178v-157q0 -65 29 -87t127 -22h10v-354h-190q-226 0 -316 70t-90 249v330q0 37 -10.5 48.5 t-42.5 11.5h-103z" />
<glyph unicode="|" horiz-adv-x="667" d="M154 -231v1861h360v-1861h-360z" />
<glyph unicode="}" horiz-adv-x="780" d="M10 96h10q98 0 127 22t29 87v157q0 115 38.5 178.5t129.5 92.5q-92 30 -130 93t-38 177v158q0 65 -29 86.5t-127 21.5h-10v355h191q225 0 315 -70.5t90 -249.5v-330q0 -37 10.5 -48t42.5 -11h103v-364h-103q-32 0 -42.5 -11.5t-10.5 -48.5v-330q0 -179 -90 -249t-315 -70 h-191v354z" />
<glyph unicode="~" horiz-adv-x="1064" d="M86 459v10q0 213 66.5 317.5t205.5 104.5q49 0 94.5 -14t71.5 -31t50.5 -31t37.5 -14q22 0 32.5 16.5t10.5 56.5v11h324v-11q0 -214 -65.5 -317.5t-204.5 -103.5q-49 0 -94.5 14t-71.5 31t-50.5 31t-37.5 14q-22 0 -32.5 -17t-10.5 -57v-10h-326z" />
<glyph unicode="&#xa1;" horiz-adv-x="602" d="M72 70l84 540h290l84 -540v-387h-458v387zM90 913q0 98 61.5 160t159.5 62q97 0 158 -62t61 -160q0 -97 -61 -158t-158 -61q-98 0 -159.5 61t-61.5 158z" />
<glyph unicode="&#xa2;" horiz-adv-x="1148" d="M20 551q0 222 118.5 373.5t322.5 197.5v340h360v-354q116 -35 203.5 -112t138.5 -189l4 -10l-387 -164l-4 10q-41 100 -133 100q-62 0 -99.5 -51.5t-37.5 -140.5q0 -90 37.5 -141.5t99.5 -51.5q93 0 127 113l4 12l391 -180l-2 -10q-44 -109 -132.5 -184t-209.5 -109v-348 h-360v336q-206 43 -323.5 192.5t-117.5 370.5z" />
<glyph unicode="&#xa3;" horiz-adv-x="1159" d="M31 -10v375h143v165h-143v332h143v86q0 241 143.5 374.5t401.5 133.5q133 0 255 -44t212 -126l6 -6l-180 -367l-11 9q-130 118 -231 118q-50 0 -74 -24.5t-24 -79.5v-74h325v-332h-325v-165h487v-375h-1128z" />
<glyph unicode="&#xa4;" horiz-adv-x="1419" d="M16 233l211 209q-49 101 -49 220q0 105 43 202l-205 203l271 266l200 -190q101 49 222 49q119 0 223 -49l201 190l270 -266l-205 -203q41 -96 41 -202q0 -114 -49 -218l213 -211l-270 -266l-218 207q-98 -43 -206 -43q-107 0 -207 41l-215 -205zM557 662 q0 -63 44.5 -107.5t107.5 -44.5t108 44.5t45 107.5t-45 108t-108 45t-107.5 -45t-44.5 -108z" />
<glyph unicode="&#xa5;" horiz-adv-x="1431" d="M-37 1436h496l282 -541l273 541h495l-366 -697h168v-184h-264l-39 -74h303v-188h-322v-303h-495v303h-373v188h348l-39 74h-309v186h211z" />
<glyph unicode="&#xa6;" horiz-adv-x="667" d="M154 -221v715h360v-715h-360zM154 915v715h360v-715h-360z" />
<glyph unicode="&#xa7;" horiz-adv-x="1200" d="M12 -29l133 305l11 -6q226 -137 403 -137q68 0 68 21q0 14 -25.5 27t-67 24t-95 28t-108.5 35.5t-108.5 49.5t-95 68t-67 92.5t-25.5 121.5q0 184 178 285q-52 40 -69 80.5t-17 97.5q0 164 135 266.5t359 102.5q254 0 524 -144l10 -4l-147 -303l-9 4q-255 123 -374 123 q-22 0 -36 -4.5t-18 -9t-4 -9.5q0 -17 33.5 -32.5t86.5 -31t117.5 -35t129 -50t117.5 -69.5t86.5 -100t33.5 -136q0 -182 -178 -283q46 -40 66 -78t20 -102q0 -163 -138.5 -263t-371.5 -100q-146 0 -289 41t-262 121zM473 631q0 -21 42 -37t108 -16q35 0 58.5 5t31.5 11.5 t8 13.5q0 21 -47.5 38.5t-112.5 17.5q-88 0 -88 -33z" />
<glyph unicode="&#xa8;" horiz-adv-x="716" d="M-51 1419q0 88 54.5 143.5t141.5 55.5q88 0 142.5 -55.5t54.5 -143.5q0 -87 -55 -141.5t-142 -54.5t-141.5 54.5t-54.5 141.5zM375 1419q0 88 54.5 143.5t141.5 55.5q88 0 142.5 -55.5t54.5 -143.5q0 -87 -55 -141.5t-142 -54.5t-141.5 54.5t-54.5 141.5z" />
<glyph unicode="&#xa9;" horiz-adv-x="1447" d="M20 713q0 142 55 272.5t148.5 226t224.5 152.5t277 57q194 0 355.5 -95t254 -256.5t92.5 -352.5q0 -190 -93 -353t-256 -259.5t-357 -96.5t-355.5 95.5t-253.5 257.5t-92 352zM246 713q0 -198 138 -339t337 -141q133 0 244 66t174 177t63 241q0 129 -63 239t-173 175 t-241 65q-132 0 -242.5 -66t-173.5 -176.5t-63 -240.5zM379 715q0 147 102 243.5t258 96.5q75 0 152.5 -34t128.5 -89l6 -6l-137 -164l-8 10q-28 38 -66 61t-72 23q-55 0 -90 -38t-35 -99q0 -62 35 -100.5t90 -38.5q31 0 69.5 18.5t68.5 50.5l8 8l137 -145l-6 -6 q-55 -61 -133 -97t-156 -36q-154 0 -253 96.5t-99 245.5z" />
<glyph unicode="&#xaa;" horiz-adv-x="819" d="M12 1143q0 103 75 158t214 57h143q-16 26 -90 26q-88 0 -213 -38l-8 -3l-76 218l11 4q196 61 360 61q162 0 254.5 -66.5t91.5 -187.5v-434h-325v51q-65 -65 -187 -65q-116 0 -183 60t-67 159zM326 1167q0 -17 10 -24.5t35 -7.5q48 0 78 30v35h-82q-41 0 -41 -33z" />
<glyph unicode="&#xab;" horiz-adv-x="1114" d="M-47 559l260 395h391l-221 -395l221 -399h-391zM483 559l260 395h392l-222 -395l222 -399h-392z" />
<glyph unicode="&#xac;" horiz-adv-x="1214" d="M51 623v307h1065v-676h-348v369h-717z" />
<glyph unicode="&#xad;" horiz-adv-x="778" d="M92 479v307h594v-307h-594z" />
<glyph unicode="&#xae;" horiz-adv-x="1447" d="M20 713q0 142 55 272.5t148.5 226t224.5 152.5t277 57q194 0 355.5 -95t254 -256.5t92.5 -352.5q0 -190 -93 -353t-256 -259.5t-357 -96.5t-355.5 95.5t-253.5 257.5t-92 352zM246 713q0 -198 138 -339t337 -141q133 0 244 66t174 177t63 241q0 129 -63 239t-173 175 t-241 65q-132 0 -242.5 -66t-173.5 -176.5t-63 -240.5zM449 422v637h299q129 0 201.5 -60.5t72.5 -169.5q0 -137 -94 -200l127 -207h-256l-74 160h-51v-160h-225zM674 758h74q59 0 59 63q0 64 -59 64h-74v-127z" />
<glyph unicode="&#xaf;" horiz-adv-x="716" d="M41 1257v324h635v-324h-635z" />
<glyph unicode="&#xb0;" horiz-adv-x="819" d="M166 1440q0 103 75.5 175.5t182.5 72.5t182.5 -72.5t75.5 -175.5t-75.5 -175.5t-182.5 -72.5t-182.5 72.5t-75.5 175.5zM356 1440q0 -23 20 -40.5t48 -17.5t48 17.5t20 40.5t-20 40t-48 17t-48 -17t-20 -40z" />
<glyph unicode="&#xb1;" horiz-adv-x="1064" d="M51 -33v307h963v-307h-963zM51 696v293h328v301h307v-301h328v-293h-328v-311h-307v311h-328z" />
<glyph unicode="&#xb2;" horiz-adv-x="806" d="M4 1311l8 6q216 131 420 131q146 0 244 -65.5t98 -170.5q0 -72 -47.5 -142t-134.5 -148l-98 -93h288v-256h-735v205l313 307q58 51 58 76q0 19 -37 19q-97 0 -238 -88l-10 -9z" />
<glyph unicode="&#xb3;" horiz-adv-x="765" d="M-14 686l137 254l10 -12q97 -121 211 -121q38 0 54 11.5t16 39.5t-16 40.5t-54 12.5h-178v174l143 105h-274v242h672v-177l-177 -143l21 -4q87 -21 142 -87.5t55 -162.5q0 -133 -104 -216t-273 -83q-106 0 -209 33t-170 88z" />
<glyph unicode="&#xb4;" horiz-adv-x="716" d="M37 1190l233 409l414 -131l-297 -278h-350z" />
<glyph unicode="&#xb5;" horiz-adv-x="1417" d="M113 -397v1517h481v-592q0 -67 30.5 -105t82.5 -38q58 0 92.5 45.5t34.5 124.5v565h481v-1120h-481v133q-95 -121 -240 -145v-385h-481z" />
<glyph unicode="&#xb6;" horiz-adv-x="1396" d="M-31 1047q0 74 18.5 141.5t60 128.5t103 105.5t153.5 71t206 26.5h795v-1735h-361v1460h-127v-1460h-360v805h-35q-103 0 -185 31t-130.5 78.5t-81 111t-44.5 121t-12 115.5z" />
<glyph unicode="&#xb7;" horiz-adv-x="542" d="M51 598q0 97 61 158t158 61q98 0 160 -61t62 -158q0 -98 -62 -159.5t-160 -61.5q-97 0 -158 61.5t-61 159.5z" />
<glyph unicode="&#xb8;" horiz-adv-x="716" d="M98 -430l92 207l11 -13q28 -36 75 -36q32 0 50 14t18 39t-21 40t-57 15q-37 0 -73 -8l-21 -4l117 213h274l-78 -141q60 -23 95.5 -68.5t35.5 -99.5q0 -107 -82 -170.5t-217 -63.5q-48 0 -106 19.5t-107 52.5z" />
<glyph unicode="&#xb9;" horiz-adv-x="585" d="M-2 1171v265h496v-863h-340v598h-156z" />
<glyph unicode="&#xba;" horiz-adv-x="858" d="M14 1276q0 159 113 253.5t301 94.5q189 0 302.5 -94.5t113.5 -253.5q0 -158 -113.5 -253t-302.5 -95q-188 0 -301 95t-113 253zM348 1272q0 -44 22 -69t58 -25t58 25t22 69q0 45 -22 70.5t-58 25.5t-58 -25.5t-22 -70.5z" />
<glyph unicode="&#xbb;" horiz-adv-x="1114" d="M-20 160l221 395l-221 399h391l260 -399l-260 -395h-391zM510 160l221 395l-221 399h391l260 -399l-260 -395h-391z" />
<glyph unicode="&#xbc;" horiz-adv-x="1921" d="M-2 1171v265h496v-883h-340v618h-156zM150 -20l1011 1456h455l-1012 -1456h-454zM1065 147v213l262 512h328l-162 -329h315v-156h113v-240h-113v-157h-317v157h-426zM1417 387h74v152z" />
<glyph unicode="&#xbd;" horiz-adv-x="1966" d="M-2 1171v265h496v-883h-340v618h-156zM150 -20l1011 1456h455l-1012 -1456h-454zM1163 741l8 4q220 140 420 140q146 0 244 -68t98 -178q0 -75 -47.5 -147t-134.5 -154l-98 -92h289v-256h-736v205l314 307q57 61 57 92q0 22 -37 22q-97 0 -237 -108l-11 -8z" />
<glyph unicode="&#xbe;" horiz-adv-x="2039" d="M-14 676l137 254l10 -12q97 -121 211 -121q38 0 54 11.5t16 37.5q0 53 -70 53h-178v170l143 121h-274v242h672v-185l-177 -151l21 -4q87 -21 142 -86.5t55 -161.5q0 -131 -104 -213t-273 -82q-106 0 -209 33t-170 88zM268 -20l1012 1456h455l-1012 -1456h-455zM1184 147 v213l262 512h328l-162 -329h315v-156h113v-240h-113v-157h-317v157h-426zM1536 387h74v152z" />
<glyph unicode="&#xbf;" horiz-adv-x="1019" d="M31 37q0 62 17 116.5t44 94.5t59.5 76.5t65.5 69t60 64.5t44 70.5t17 79.5v10h362v-10q0 -73 -16.5 -134.5t-41.5 -100t-54.5 -75t-54.5 -62t-41.5 -58t-16.5 -65.5q0 -41 18.5 -58.5t61.5 -17.5q52 0 76 35t24 116v11h373v-11q0 -251 -136 -392.5t-380 -141.5 q-226 0 -353.5 101t-127.5 282zM305 915q0 98 61.5 160t159.5 62q97 0 158 -62t61 -160q0 -97 -61 -158t-158 -61q-98 0 -159.5 61t-61.5 158z" />
<glyph unicode="&#xc0;" horiz-adv-x="1636" d="M-37 0l617 1436h499l592 -1436h-528l-72 203h-522l-74 -203h-512zM420 1784l414 131l233 -410h-350zM678 553h270l-133 379z" />
<glyph unicode="&#xc1;" horiz-adv-x="1636" d="M-37 0l617 1436h499l592 -1436h-528l-72 203h-522l-74 -203h-512zM586 1505l233 410l414 -131l-297 -279h-350zM678 553h270l-133 379z" />
<glyph unicode="&#xc2;" horiz-adv-x="1636" d="M-37 0l617 1436h499l592 -1436h-528l-72 203h-522l-74 -203h-512zM379 1538l262 352h356l263 -352h-334l-107 160l-106 -160h-334zM678 553h270l-133 379z" />
<glyph unicode="&#xc3;" horiz-adv-x="1636" d="M-37 0l617 1436h499l592 -1436h-528l-72 203h-522l-74 -203h-512zM412 1552v11q0 194 61.5 289.5t188.5 95.5q57 0 106 -20.5t79.5 -41t43.5 -20.5q21 0 30 14.5t9 50.5v11h297v-11q0 -193 -60.5 -288t-187.5 -95q-58 0 -107 20.5t-79.5 41t-44.5 20.5q-20 0 -28.5 -14.5 t-8.5 -52.5v-11h-299zM678 553h270l-133 379z" />
<glyph unicode="&#xc4;" horiz-adv-x="1636" d="M-37 0l617 1436h499l592 -1436h-528l-72 203h-522l-74 -203h-512zM410 1735q0 88 54 143t142 55t142.5 -55t54.5 -143q0 -87 -55 -142t-142 -55t-141.5 55t-54.5 142zM678 553h270l-133 379zM836 1735q0 88 54 143t142 55t142.5 -55t54.5 -143q0 -87 -55 -142t-142 -55 t-141.5 55t-54.5 142z" />
<glyph unicode="&#xc5;" horiz-adv-x="1636" d="M-37 0l608 1423q-28 55 -28 125q0 120 82 202.5t202 82.5t202.5 -82.5t82.5 -202.5q0 -54 -29 -121l588 -1427h-528l-72 203h-522l-74 -203h-512zM678 553h270l-133 379zM752 1548q0 -32 21.5 -53.5t53.5 -21.5t54 21.5t22 53.5t-22 54t-54 22t-53.5 -22t-21.5 -54z" />
<glyph unicode="&#xc6;" horiz-adv-x="2349" d="M-39 0l811 1436h1491v-381h-739v-146h671v-381h-671v-147h757v-381h-1253v240h-428l-123 -240h-516zM780 600h248v455h-18z" />
<glyph unicode="&#xc7;" horiz-adv-x="1409" d="M20 721q0 156 59.5 291.5t164 231.5t251 151t314.5 55q166 0 334 -72.5t280 -193.5l7 -6l-289 -342l-8 10q-62 85 -150 136.5t-168 51.5q-125 0 -206 -87.5t-81 -223.5q0 -138 81 -226.5t206 -88.5q74 0 162 43t156 114l8 8l289 -303l-7 -6q-96 -103 -228 -174t-271 -96 l-43 -82q60 -25 95.5 -72t35.5 -104q0 -110 -82 -176t-217 -66q-48 0 -106 19.5t-107 52.5l-6 4l92 207l10 -13q28 -36 76 -36q32 0 49.5 15t17.5 42t-20.5 43t-56.5 16q-29 0 -74 -10l-21 -4l82 160q-185 29 -328 129.5t-222 257t-79 344.5z" />
<glyph unicode="&#xc8;" d="M92 0v1436h1235v-381h-739v-146h672v-381h-672v-147h758v-381h-1254zM313 1784l414 131l234 -410h-351z" />
<glyph unicode="&#xc9;" d="M92 0v1436h1235v-381h-739v-146h672v-381h-672v-147h758v-381h-1254zM479 1505l234 410l413 -131l-297 -279h-350z" />
<glyph unicode="&#xca;" d="M92 0v1436h1235v-381h-739v-146h672v-381h-672v-147h758v-381h-1254zM272 1538l263 352h356l262 -352h-334l-106 160l-107 -160h-334z" />
<glyph unicode="&#xcb;" d="M92 0v1436h1235v-381h-739v-146h672v-381h-672v-147h758v-381h-1254zM303 1735q0 88 54.5 143t142.5 55t142 -55t54 -143q0 -87 -54.5 -142t-141.5 -55t-142 55t-55 142zM729 1735q0 88 54.5 143t142.5 55t142 -55t54 -143q0 -87 -54.5 -142t-141.5 -55t-142 55t-55 142z " />
<glyph unicode="&#xcc;" horiz-adv-x="679" d="M-59 1784l413 131l234 -410h-350zM92 0v1436h496v-1436h-496z" />
<glyph unicode="&#xcd;" horiz-adv-x="679" d="M92 0v1436h496v-1436h-496zM106 1505l234 410l414 -131l-297 -279h-351z" />
<glyph unicode="&#xce;" horiz-adv-x="679" d="M-100 1538l262 352h356l262 -352h-334l-106 160l-107 -160h-333zM92 0v1436h496v-1436h-496z" />
<glyph unicode="&#xcf;" horiz-adv-x="679" d="M-70 1735q0 88 54.5 143t142.5 55t142.5 -55t54.5 -143q0 -87 -55 -142t-142 -55t-142 55t-55 142zM92 0v1436h496v-1436h-496zM356 1735q0 88 54.5 143t142.5 55t142.5 -55t54.5 -143q0 -87 -55 -142t-142 -55t-142 55t-55 142z" />
<glyph unicode="&#xd0;" horiz-adv-x="1642" d="M-10 586v264h190v586h651q358 0 574.5 -195.5t216.5 -521.5q0 -216 -100 -379t-283.5 -251.5t-425.5 -88.5h-633v586h-190zM676 389h168q125 0 198.5 88t73.5 238q0 152 -80.5 242t-214.5 90h-145v-197h252v-264h-252v-197z" />
<glyph unicode="&#xd1;" horiz-adv-x="1599" d="M92 0v1436h412l553 -717v717h450v-1436h-411l-551 713v-713h-453zM393 1552v11q0 194 61.5 289.5t188.5 95.5q57 0 106 -20.5t79.5 -41t43.5 -20.5q21 0 30 14.5t9 50.5v11h297v-11q0 -193 -60 -288t-187 -95q-58 0 -107 20.5t-80 41t-45 20.5q-20 0 -28.5 -14.5 t-8.5 -52.5v-11h-299z" />
<glyph unicode="&#xd2;" horiz-adv-x="1638" d="M20 719q0 157 60.5 293.5t166 232.5t253.5 150.5t319 54.5t319 -55t253.5 -151t166 -232t60.5 -293q0 -210 -103 -379t-286 -264.5t-410 -95.5q-228 0 -410.5 95t-285.5 264t-103 380zM399 1784l414 131l234 -410h-351zM528 717q0 -137 88 -229.5t209 -92.5 q120 0 202.5 92t82.5 230t-82.5 227.5t-202.5 89.5q-123 0 -210 -90t-87 -227z" />
<glyph unicode="&#xd3;" horiz-adv-x="1638" d="M20 719q0 157 60.5 293.5t166 232.5t253.5 150.5t319 54.5t319 -55t253.5 -151t166 -232t60.5 -293q0 -210 -103 -379t-286 -264.5t-410 -95.5q-228 0 -410.5 95t-285.5 264t-103 380zM528 717q0 -137 88 -229.5t209 -92.5q120 0 202.5 92t82.5 230t-82.5 227.5 t-202.5 89.5q-123 0 -210 -90t-87 -227zM565 1505l234 410l413 -131l-297 -279h-350z" />
<glyph unicode="&#xd4;" horiz-adv-x="1638" d="M20 719q0 157 60.5 293.5t166 232.5t253.5 150.5t319 54.5t319 -55t253.5 -151t166 -232t60.5 -293q0 -210 -103 -379t-286 -264.5t-410 -95.5q-228 0 -410.5 95t-285.5 264t-103 380zM358 1538l263 352h356l262 -352h-334l-106 160l-107 -160h-334zM528 717 q0 -137 88 -229.5t209 -92.5q120 0 202.5 92t82.5 230t-82.5 227.5t-202.5 89.5q-123 0 -210 -90t-87 -227z" />
<glyph unicode="&#xd5;" horiz-adv-x="1638" d="M20 719q0 157 60.5 293.5t166 232.5t253.5 150.5t319 54.5t319 -55t253.5 -151t166 -232t60.5 -293q0 -210 -103 -379t-286 -264.5t-410 -95.5q-228 0 -410.5 95t-285.5 264t-103 380zM391 1552v11q0 194 61.5 289.5t188.5 95.5q57 0 106 -20.5t79.5 -41t43.5 -20.5 q21 0 30 14.5t9 50.5v11h297v-11q0 -193 -60.5 -288t-187.5 -95q-58 0 -107 20.5t-79.5 41t-44.5 20.5q-20 0 -28.5 -14.5t-8.5 -52.5v-11h-299zM528 717q0 -137 88 -229.5t209 -92.5q120 0 202.5 92t82.5 230t-82.5 227.5t-202.5 89.5q-123 0 -210 -90t-87 -227z" />
<glyph unicode="&#xd6;" horiz-adv-x="1638" d="M20 719q0 157 60.5 293.5t166 232.5t253.5 150.5t319 54.5t319 -55t253.5 -151t166 -232t60.5 -293q0 -210 -103 -379t-286 -264.5t-410 -95.5q-228 0 -410.5 95t-285.5 264t-103 380zM389 1735q0 88 54.5 143t142.5 55t142 -55t54 -143q0 -87 -54.5 -142t-141.5 -55 t-142 55t-55 142zM528 717q0 -137 88 -229.5t209 -92.5q120 0 202.5 92t82.5 230t-82.5 227.5t-202.5 89.5q-123 0 -210 -90t-87 -227zM815 1735q0 88 54.5 143t142.5 55t142 -55t54 -143q0 -87 -54.5 -142t-141.5 -55t-142 55t-55 142z" />
<glyph unicode="&#xd7;" horiz-adv-x="1064" d="M84 442l231 232l-231 223l6 6v2l211 211l231 -231l232 231l217 -219l-231 -223l231 -232l-217 -211l-232 226l-231 -226z" />
<glyph unicode="&#xd8;" horiz-adv-x="1638" d="M20 717q0 210 103 377.5t285.5 261.5t410.5 94q38 0 88 -4l72 205h283l-97 -265q210 -87 331.5 -262.5t121.5 -402.5q0 -210 -103 -379.5t-286 -265.5t-410 -96q-87 0 -164 12l-75 -205h-281l107 289q-181 95 -283.5 263t-102.5 378zM528 717q0 -99 47 -178l179 495 q-98 -25 -162 -111.5t-64 -205.5zM801 395h24q120 0 202.5 94.5t82.5 237.5q0 155 -100 252z" />
<glyph unicode="&#xd9;" horiz-adv-x="1542" d="M72 610v826h495v-822q0 -97 62 -158t149 -61q85 0 141 60t56 159v822h495v-826q0 -286 -189.5 -458t-504.5 -172q-317 0 -510.5 172.5t-193.5 457.5zM373 1784l413 131l234 -410h-350z" />
<glyph unicode="&#xda;" horiz-adv-x="1542" d="M72 610v826h495v-822q0 -97 62 -158t149 -61q85 0 141 60t56 159v822h495v-826q0 -286 -189.5 -458t-504.5 -172q-317 0 -510.5 172.5t-193.5 457.5zM539 1505l233 410l414 -131l-297 -279h-350z" />
<glyph unicode="&#xdb;" horiz-adv-x="1542" d="M72 610v826h495v-822q0 -97 62 -158t149 -61q85 0 141 60t56 159v822h495v-826q0 -286 -189.5 -458t-504.5 -172q-317 0 -510.5 172.5t-193.5 457.5zM332 1538l262 352h356l262 -352h-333l-107 160l-106 -160h-334z" />
<glyph unicode="&#xdc;" horiz-adv-x="1542" d="M72 610v826h495v-822q0 -97 62 -158t149 -61q85 0 141 60t56 159v822h495v-826q0 -286 -189.5 -458t-504.5 -172q-317 0 -510.5 172.5t-193.5 457.5zM362 1735q0 88 54.5 143t142.5 55t142.5 -55t54.5 -143q0 -87 -55 -142t-142 -55t-142 55t-55 142zM788 1735 q0 88 54.5 143t142.5 55t142.5 -55t54.5 -143q0 -87 -55 -142t-142 -55t-142 55t-55 142z" />
<glyph unicode="&#xdd;" horiz-adv-x="1472" d="M-37 1436h496l282 -541l273 541h495l-520 -987v-449h-495v438zM504 1505l233 410l414 -131l-297 -279h-350z" />
<glyph unicode="&#xde;" horiz-adv-x="1429" d="M92 0v1436h496v-166h194q280 0 448.5 -141t168.5 -377q0 -252 -168.5 -402.5t-448.5 -150.5h-194v-199h-496zM588 580h174q59 0 94 42t35 115q0 70 -35 111t-94 41h-174v-309z" />
<glyph unicode="&#xdf;" horiz-adv-x="1372" d="M72 0v1012q0 241 162.5 384.5t431.5 143.5q265 0 425 -117t160 -313q0 -91 -40.5 -177t-108.5 -145q109 -43 174 -135.5t65 -206.5q0 -203 -165.5 -324.5t-440.5 -121.5h-106v344h57q100 0 144 29.5t44 91.5q0 58 -44 84t-144 26h-57v334h10q77 0 111 32t34 103 q0 72 -25.5 103t-84.5 31q-63 0 -92 -32t-29 -104v-1042h-481z" />
<glyph unicode="&#xe0;" horiz-adv-x="1255" d="M20 336q0 168 114.5 256.5t330.5 91.5h246q-10 92 -164 92q-147 0 -336 -71l-10 -3l-109 326l8 4q296 109 557 109q247 0 387 -110t140 -308v-723h-473v102q-110 -122 -305 -122q-180 0 -283 96.5t-103 259.5zM231 1468l414 131l234 -409h-351zM473 375q0 -82 92 -82 q42 0 81 19.5t65 54.5v84h-150q-88 0 -88 -76z" />
<glyph unicode="&#xe1;" horiz-adv-x="1255" d="M20 336q0 168 114.5 256.5t330.5 91.5h246q-10 92 -164 92q-147 0 -336 -71l-10 -3l-109 326l8 4q296 109 557 109q247 0 387 -110t140 -308v-723h-473v102q-110 -122 -305 -122q-180 0 -283 96.5t-103 259.5zM397 1190l234 409l413 -131l-296 -278h-351zM473 375 q0 -82 92 -82q42 0 81 19.5t65 54.5v84h-150q-88 0 -88 -76z" />
<glyph unicode="&#xe2;" horiz-adv-x="1255" d="M20 336q0 168 114.5 256.5t330.5 91.5h246q-10 92 -164 92q-147 0 -336 -71l-10 -3l-109 326l8 4q296 109 557 109q247 0 387 -110t140 -308v-723h-473v102q-110 -122 -305 -122q-180 0 -283 96.5t-103 259.5zM190 1223l263 352h356l262 -352h-334l-106 159l-107 -159 h-334zM473 375q0 -82 92 -82q42 0 81 19.5t65 54.5v84h-150q-88 0 -88 -76z" />
<glyph unicode="&#xe3;" horiz-adv-x="1255" d="M20 336q0 168 114.5 256.5t330.5 91.5h246q-10 92 -164 92q-147 0 -336 -71l-10 -3l-109 326l8 4q296 109 557 109q247 0 387 -110t140 -308v-723h-473v102q-110 -122 -305 -122q-180 0 -283 96.5t-103 259.5zM223 1237v10q0 194 61.5 289.5t188.5 95.5q57 0 106 -20.5 t79.5 -41t43.5 -20.5q21 0 30 15t9 51v10h297v-10q0 -193 -60 -288t-187 -95q-58 0 -107 20.5t-80 41t-45 20.5q-20 0 -28.5 -15t-8.5 -53v-10h-299zM473 375q0 -82 92 -82q42 0 81 19.5t65 54.5v84h-150q-88 0 -88 -76z" />
<glyph unicode="&#xe4;" horiz-adv-x="1255" d="M20 336q0 168 114.5 256.5t330.5 91.5h246q-10 92 -164 92q-147 0 -336 -71l-10 -3l-109 326l8 4q296 109 557 109q247 0 387 -110t140 -308v-723h-473v102q-110 -122 -305 -122q-180 0 -283 96.5t-103 259.5zM221 1419q0 88 54.5 143.5t142.5 55.5q87 0 141.5 -55.5 t54.5 -143.5q0 -87 -54.5 -141.5t-141.5 -54.5q-88 0 -142.5 54.5t-54.5 141.5zM473 375q0 -82 92 -82q42 0 81 19.5t65 54.5v84h-150q-88 0 -88 -76zM647 1419q0 88 54.5 143.5t142.5 55.5q87 0 141.5 -55.5t54.5 -143.5q0 -87 -54.5 -141.5t-141.5 -54.5 q-88 0 -142.5 54.5t-54.5 141.5z" />
<glyph unicode="&#xe5;" horiz-adv-x="1255" d="M20 336q0 168 114.5 256.5t330.5 91.5h246q-10 92 -164 92q-147 0 -336 -71l-10 -3l-109 326l8 4q296 109 557 109q247 0 387 -110t140 -308v-723h-473v102q-110 -122 -305 -122q-180 0 -283 96.5t-103 259.5zM367 1430q0 110 77 187t187 77t187 -77t77 -187t-77 -187.5 t-187 -77.5t-187 77.5t-77 187.5zM473 375q0 -82 92 -82q42 0 81 19.5t65 54.5v84h-150q-88 0 -88 -76zM561 1430q0 -29 20.5 -49.5t49.5 -20.5t49 20.5t20 49.5t-20 49t-49 20t-49.5 -20t-20.5 -49z" />
<glyph unicode="&#xe6;" horiz-adv-x="1961" d="M20 336q0 168 115 256.5t332 91.5h250q-5 44 -47 68t-119 24q-151 0 -340 -71l-10 -3l-109 326l8 4q301 109 559 109q225 0 359 -90q130 86 313 86q8 0 24.5 -1t24.5 -1q276 -15 427 -196.5t132 -475.5v-8h-727q50 -111 172 -111q118 0 224 98l6 7l254 -250l-6 -6 q-190 -209 -519 -209q-304 0 -450 198q-138 -205 -442 -205q-200 0 -315.5 97.5t-115.5 261.5zM473 375q0 -82 94 -82q42 0 82.5 19.5t67.5 54.5v84h-154q-90 0 -90 -76zM1200 670h258q1 61 -34 100t-89 39q-51 0 -86 -37t-49 -102z" />
<glyph unicode="&#xe7;" horiz-adv-x="1148" d="M20 555q0 264 165.5 423t437.5 159q186 0 327.5 -86.5t212.5 -243.5l4 -10l-387 -164l-4 10q-41 100 -133 100q-62 0 -99.5 -51t-37.5 -139q0 -90 37.5 -142.5t99.5 -52.5q47 0 78 26t49 85l4 10l391 -176l-2 -8q-51 -118 -154 -194.5t-243 -102.5l-45 -86 q60 -25 95.5 -72t35.5 -104q0 -110 -82 -176t-217 -66q-48 0 -106 19.5t-107 52.5l-6 4l92 207l10 -13q28 -36 76 -36q32 0 50 15.5t18 41.5q0 27 -21 43t-57 16q-29 0 -74 -10l-20 -4l84 164q-219 37 -345.5 186t-126.5 375z" />
<glyph unicode="&#xe8;" horiz-adv-x="1257" d="M20 555q0 265 167 423.5t442 158.5q8 0 24.5 -1t24.5 -1q276 -15 426 -196.5t131 -475.5v-8h-725q50 -111 172 -111q115 0 221 98l6 7l254 -250l-6 -6q-190 -209 -516 -209q-288 0 -454.5 155t-166.5 416zM221 1468l414 131l233 -409h-350zM498 680h256q1 56 -33.5 92.5 t-87.5 36.5q-51 0 -86 -34.5t-49 -94.5z" />
<glyph unicode="&#xe9;" horiz-adv-x="1257" d="M20 555q0 265 167 423.5t442 158.5q8 0 24.5 -1t24.5 -1q276 -15 426 -196.5t131 -475.5v-8h-725q50 -111 172 -111q115 0 221 98l6 7l254 -250l-6 -6q-190 -209 -516 -209q-288 0 -454.5 155t-166.5 416zM387 1190l234 409l413 -131l-297 -278h-350zM498 680h256 q1 56 -33.5 92.5t-87.5 36.5q-51 0 -86 -34.5t-49 -94.5z" />
<glyph unicode="&#xea;" horiz-adv-x="1257" d="M20 555q0 265 167 423.5t442 158.5q8 0 24.5 -1t24.5 -1q276 -15 426 -196.5t131 -475.5v-8h-725q50 -111 172 -111q115 0 221 98l6 7l254 -250l-6 -6q-190 -209 -516 -209q-288 0 -454.5 155t-166.5 416zM180 1223l262 352h357l262 -352h-334l-106 159l-107 -159h-334z M498 680h256q1 56 -33.5 92.5t-87.5 36.5q-51 0 -86 -34.5t-49 -94.5z" />
<glyph unicode="&#xeb;" horiz-adv-x="1257" d="M20 555q0 265 167 423.5t442 158.5q8 0 24.5 -1t24.5 -1q276 -15 426 -196.5t131 -475.5v-8h-725q50 -111 172 -111q115 0 221 98l6 7l254 -250l-6 -6q-190 -209 -516 -209q-288 0 -454.5 155t-166.5 416zM211 1419q0 88 54.5 143.5t142.5 55.5q87 0 141.5 -55.5 t54.5 -143.5q0 -87 -54.5 -141.5t-141.5 -54.5q-88 0 -142.5 54.5t-54.5 141.5zM498 680h256q1 56 -33.5 92.5t-87.5 36.5q-51 0 -86 -34.5t-49 -94.5zM637 1419q0 88 54.5 143.5t142.5 55.5q87 0 141.5 -55.5t54.5 -143.5q0 -87 -54.5 -141.5t-141.5 -54.5 q-88 0 -142.5 54.5t-54.5 141.5z" />
<glyph unicode="&#xec;" horiz-adv-x="686" d="M-55 1468l413 131l234 -409h-350zM102 0v1120h482v-1120h-482z" />
<glyph unicode="&#xed;" horiz-adv-x="686" d="M102 0v1120h482v-1120h-482zM111 1190l233 409l414 -131l-297 -278h-350z" />
<glyph unicode="&#xee;" horiz-adv-x="686" d="M-96 1223l262 352h356l262 -352h-333l-107 159l-106 -159h-334zM102 0v1120h482v-1120h-482z" />
<glyph unicode="&#xef;" horiz-adv-x="686" d="M-66 1419q0 88 54.5 143.5t142.5 55.5t142.5 -55.5t54.5 -143.5q0 -87 -55 -141.5t-142 -54.5t-142 54.5t-55 141.5zM102 0v1120h482v-1120h-482zM360 1419q0 88 54.5 143.5t142.5 55.5t142.5 -55.5t54.5 -143.5q0 -87 -55 -141.5t-142 -54.5t-142 54.5t-55 141.5z" />
<glyph unicode="&#xf0;" horiz-adv-x="1263" d="M8 469q0 207 130 333t345 126q160 0 275 -64q-46 94 -131 176l-363 -118l-76 213l222 75q-107 69 -242 127l-18 9l329 194h6q202 -68 353 -180l311 106l76 -225l-191 -65q209 -251 209 -555q0 -291 -180.5 -466t-480.5 -175q-260 0 -417 133t-157 356zM469 492 q0 -54 34.5 -84.5t94.5 -30.5q61 0 96 31t35 84t-35 82.5t-98 29.5q-60 0 -93.5 -29.5t-33.5 -82.5z" />
<glyph unicode="&#xf1;" horiz-adv-x="1396" d="M102 0v1120h482v-137q124 158 329 158q183 0 297.5 -118t114.5 -310v-713h-481v575q0 65 -33.5 102.5t-89.5 37.5q-63 0 -100 -45t-37 -121v-549h-482zM330 1237v10q0 194 61.5 289.5t188.5 95.5q57 0 106 -20.5t79.5 -41t43.5 -20.5q21 0 30 15t9 51v10h297v-10 q0 -193 -60.5 -288t-187.5 -95q-58 0 -107 20.5t-79.5 41t-44.5 20.5q-20 0 -28.5 -15t-8.5 -53v-10h-299z" />
<glyph unicode="&#xf2;" horiz-adv-x="1327" d="M20 561q0 262 176 419t468 157t467.5 -157t175.5 -419t-175.5 -419.5t-467.5 -157.5t-468 157.5t-176 419.5zM264 1468l414 131l233 -409h-350zM506 555q0 -90 43.5 -143.5t114.5 -53.5t114 53.5t43 143.5t-43 143.5t-114 53.5t-114.5 -53.5t-43.5 -143.5z" />
<glyph unicode="&#xf3;" horiz-adv-x="1327" d="M20 561q0 262 176 419t468 157t467.5 -157t175.5 -419t-175.5 -419.5t-467.5 -157.5t-468 157.5t-176 419.5zM430 1190l234 409l413 -131l-297 -278h-350zM506 555q0 -90 43.5 -143.5t114.5 -53.5t114 53.5t43 143.5t-43 143.5t-114 53.5t-114.5 -53.5t-43.5 -143.5z" />
<glyph unicode="&#xf4;" horiz-adv-x="1327" d="M20 561q0 262 176 419t468 157t467.5 -157t175.5 -419t-175.5 -419.5t-467.5 -157.5t-468 157.5t-176 419.5zM223 1223l262 352h357l262 -352h-334l-106 159l-107 -159h-334zM506 555q0 -90 43.5 -143.5t114.5 -53.5t114 53.5t43 143.5t-43 143.5t-114 53.5t-114.5 -53.5 t-43.5 -143.5z" />
<glyph unicode="&#xf5;" horiz-adv-x="1327" d="M20 561q0 262 176 419t468 157t467.5 -157t175.5 -419t-175.5 -419.5t-467.5 -157.5t-468 157.5t-176 419.5zM256 1237v10q0 194 61.5 289.5t188.5 95.5q57 0 106 -20.5t79.5 -41t43.5 -20.5q21 0 30 15t9 51v10h297v-10q0 -193 -60.5 -288t-187.5 -95q-58 0 -107 20.5 t-79.5 41t-44.5 20.5q-20 0 -28.5 -15t-8.5 -53v-10h-299zM506 555q0 -90 43.5 -143.5t114.5 -53.5t114 53.5t43 143.5t-43 143.5t-114 53.5t-114.5 -53.5t-43.5 -143.5z" />
<glyph unicode="&#xf6;" horiz-adv-x="1327" d="M20 561q0 262 176 419t468 157t467.5 -157t175.5 -419t-175.5 -419.5t-467.5 -157.5t-468 157.5t-176 419.5zM254 1419q0 88 54.5 143.5t142.5 55.5q87 0 141.5 -55.5t54.5 -143.5q0 -87 -54.5 -141.5t-141.5 -54.5t-142 54.5t-55 141.5zM506 555q0 -90 43.5 -143.5 t114.5 -53.5t114 53.5t43 143.5t-43 143.5t-114 53.5t-114.5 -53.5t-43.5 -143.5zM680 1419q0 88 54.5 143.5t142.5 55.5q87 0 141.5 -55.5t54.5 -143.5q0 -87 -54.5 -141.5t-141.5 -54.5t-142 54.5t-55 141.5z" />
<glyph unicode="&#xf7;" horiz-adv-x="1064" d="M51 520v307h963v-307h-963zM317 303q0 88 54.5 143.5t142.5 55.5t142.5 -55.5t54.5 -143.5q0 -87 -55 -142t-142 -55t-142 55t-55 142zM317 1030q0 88 54.5 143.5t142.5 55.5t142.5 -55.5t54.5 -143.5q0 -86 -54.5 -141t-142.5 -55t-142.5 55t-54.5 141z" />
<glyph unicode="&#xf8;" horiz-adv-x="1327" d="M20 559q0 262 176 420t468 158q45 0 92 -7l82 256h202l-98 -292q173 -63 269 -201.5t96 -329.5q0 -263 -175.5 -421t-467.5 -158q-36 0 -86 4l-91 -273h-202l104 310q-175 65 -272 203.5t-97 330.5zM475 555q0 -88 37 -156l131 400q-77 -9 -122.5 -73.5t-45.5 -170.5z M684 311q77 9 122.5 73.5t45.5 170.5q0 84 -37 156z" />
<glyph unicode="&#xf9;" horiz-adv-x="1376" d="M72 408v712h481v-575q0 -65 30.5 -102t82.5 -37q57 0 92 44.5t35 120.5v549h481v-1120h-481v133q-119 -153 -320 -153q-178 0 -289.5 118t-111.5 310zM276 1468l414 131l234 -409h-351z" />
<glyph unicode="&#xfa;" horiz-adv-x="1376" d="M72 408v712h481v-575q0 -65 30.5 -102t82.5 -37q57 0 92 44.5t35 120.5v549h481v-1120h-481v133q-119 -153 -320 -153q-178 0 -289.5 118t-111.5 310zM442 1190l234 409l414 -131l-297 -278h-351z" />
<glyph unicode="&#xfb;" horiz-adv-x="1376" d="M72 408v712h481v-575q0 -65 30.5 -102t82.5 -37q57 0 92 44.5t35 120.5v549h481v-1120h-481v133q-119 -153 -320 -153q-178 0 -289.5 118t-111.5 310zM236 1223l262 352h356l262 -352h-334l-106 159l-107 -159h-333z" />
<glyph unicode="&#xfc;" horiz-adv-x="1376" d="M72 408v712h481v-575q0 -65 30.5 -102t82.5 -37q57 0 92 44.5t35 120.5v549h481v-1120h-481v133q-119 -153 -320 -153q-178 0 -289.5 118t-111.5 310zM266 1419q0 88 54.5 143.5t142.5 55.5q87 0 141.5 -55.5t54.5 -143.5q0 -87 -54.5 -141.5t-141.5 -54.5t-142 54.5 t-55 141.5zM692 1419q0 88 54.5 143.5t142.5 55.5q87 0 141.5 -55.5t54.5 -143.5q0 -87 -54.5 -141.5t-141.5 -54.5t-142 54.5t-55 141.5z" />
<glyph unicode="&#xfd;" horiz-adv-x="1277" d="M-55 -279l205 322l8 -8q70 -64 143 -64q72 0 102 52l13 22l-469 1075h497l213 -614l174 614h482l-465 -1192q-72 -178 -195 -262t-307 -84q-112 0 -206.5 32t-186.5 101zM406 1190l233 409l414 -131l-297 -278h-350z" />
<glyph unicode="&#xfe;" d="M113 -397v1917h481v-496q110 113 274 113q238 0 381.5 -160t143.5 -424q0 -258 -139.5 -413.5t-372.5 -155.5q-173 0 -287 114v-495h-481zM594 565q0 -90 43 -143t113 -53q71 0 114 53t43 143t-43 143.5t-114 53.5q-70 0 -113 -53.5t-43 -143.5z" />
<glyph unicode="&#xff;" horiz-adv-x="1277" d="M-55 -279l205 322l8 -8q70 -64 143 -64q72 0 102 52l13 22l-469 1075h497l213 -614l174 614h482l-465 -1192q-72 -178 -195 -262t-307 -84q-112 0 -206.5 32t-186.5 101zM229 1419q0 88 54.5 143.5t142.5 55.5t142.5 -55.5t54.5 -143.5q0 -87 -54.5 -141.5t-142.5 -54.5 t-142.5 54.5t-54.5 141.5zM655 1419q0 88 54.5 143.5t142.5 55.5t142.5 -55.5t54.5 -143.5q0 -87 -54.5 -141.5t-142.5 -54.5t-142.5 54.5t-54.5 141.5z" />
<glyph unicode="&#x152;" horiz-adv-x="2308" d="M20 715q0 204 102.5 369t285 258.5t409.5 93.5h1405v-381h-739v-146h671v-381h-671v-147h758v-381h-1424q-226 0 -408 91.5t-285.5 255t-103.5 368.5zM528 723q0 -143 81.5 -235.5t207.5 -92.5l170 2v656h-170q-126 0 -207.5 -92.5t-81.5 -237.5z" />
<glyph unicode="&#x153;" horiz-adv-x="2045" d="M20 561q0 262 176 419t468 157q246 0 387 -144q135 144 362 144q8 0 24.5 -1t24.5 -1q278 -15 429 -196.5t132 -475.5v-8h-733q52 -111 176 -111q117 0 226 98l6 7l254 -250l-6 -6q-193 -209 -521 -209q-241 0 -376 141q-144 -141 -385 -141q-292 0 -468 157.5 t-176 419.5zM506 555q0 -90 43.5 -143.5t114.5 -53.5t114 53.5t43 143.5t-43 143.5t-114 53.5t-114.5 -53.5t-43.5 -143.5zM1278 670h264q1 61 -34.5 100t-90.5 39q-53 0 -89 -38t-50 -101z" />
<glyph unicode="&#x178;" horiz-adv-x="1472" d="M-37 1436h496l282 -541l273 541h495l-520 -987v-449h-495v438zM328 1735q0 88 54 143t142 55t142.5 -55t54.5 -143q0 -87 -55 -142t-142 -55t-141.5 55t-54.5 142zM754 1735q0 88 54 143t142 55t142.5 -55t54.5 -143q0 -87 -55 -142t-142 -55t-141.5 55t-54.5 142z" />
<glyph unicode="&#x2c6;" horiz-adv-x="716" d="M-82 1223l262 352h357l262 -352h-334l-107 159l-106 -159h-334z" />
<glyph unicode="&#x2dc;" horiz-adv-x="716" d="M-49 1237v10q0 194 61.5 289.5t188.5 95.5q57 0 106 -20.5t79.5 -41t43.5 -20.5q21 0 30 15t9 51v10h297v-10q0 -193 -60.5 -288t-187.5 -95q-58 0 -107 20.5t-79.5 41t-44.5 20.5q-20 0 -28.5 -15t-8.5 -53v-10h-299z" />
<glyph unicode="&#x2000;" horiz-adv-x="974" />
<glyph unicode="&#x2001;" horiz-adv-x="1948" />
<glyph unicode="&#x2002;" horiz-adv-x="974" />
<glyph unicode="&#x2003;" horiz-adv-x="1948" />
<glyph unicode="&#x2004;" horiz-adv-x="649" />
<glyph unicode="&#x2005;" horiz-adv-x="487" />
<glyph unicode="&#x2006;" horiz-adv-x="324" />
<glyph unicode="&#x2007;" horiz-adv-x="324" />
<glyph unicode="&#x2008;" horiz-adv-x="243" />
<glyph unicode="&#x2009;" horiz-adv-x="389" />
<glyph unicode="&#x200a;" horiz-adv-x="108" />
<glyph unicode="&#x2010;" horiz-adv-x="778" d="M92 479v307h594v-307h-594z" />
<glyph unicode="&#x2011;" horiz-adv-x="778" d="M92 479v307h594v-307h-594z" />
<glyph unicode="&#x2012;" horiz-adv-x="778" d="M92 479v307h594v-307h-594z" />
<glyph unicode="&#x2013;" horiz-adv-x="839" d="M-10 418v307h860v-307h-860z" />
<glyph unicode="&#x2014;" horiz-adv-x="1249" d="M-10 418v307h1270v-307h-1270z" />
<glyph unicode="&#x2018;" horiz-adv-x="542" d="M27 1024q0 84 57 162l180 250h234l-109 -254q78 -54 78 -156q0 -106 -62 -173t-159 -67q-92 0 -155.5 63t-63.5 175z" />
<glyph unicode="&#x2019;" horiz-adv-x="542" d="M23 786l108 287q-78 54 -78 156q0 91 62 149t159 58q91 0 155.5 -55t64.5 -150q0 -83 -58 -162l-180 -283h-233z" />
<glyph unicode="&#x201a;" horiz-adv-x="542" d="M23 -246l108 266q-78 57 -78 164q0 97 62 158t159 61q91 0 155.5 -58t64.5 -159q0 -84 -58 -170l-180 -262h-233z" />
<glyph unicode="&#x201c;" horiz-adv-x="989" d="M27 1024q0 84 57 162l180 250h234l-109 -254q78 -54 78 -156q0 -106 -62 -173t-159 -67q-92 0 -155.5 63t-63.5 175zM473 1024q0 84 57 162l181 250h233l-108 -254q77 -54 77 -156q0 -106 -62 -173t-159 -67q-92 0 -155.5 63t-63.5 175z" />
<glyph unicode="&#x201d;" horiz-adv-x="989" d="M23 786l108 287q-78 54 -78 156q0 91 62 149t159 58q91 0 155.5 -55t64.5 -150q0 -83 -58 -162l-180 -283h-233zM469 786l109 287q-78 54 -78 156q0 91 62 149t159 58q91 0 155 -55t64 -150q0 -84 -57 -162l-181 -283h-233z" />
<glyph unicode="&#x201e;" horiz-adv-x="989" d="M23 -246l108 266q-78 57 -78 164q0 97 62 158t159 61q91 0 155.5 -58t64.5 -159q0 -84 -58 -170l-180 -262h-233zM469 -225l109 245q-78 57 -78 164q0 97 62 158t159 61q91 0 155 -58t64 -159q0 -85 -57 -170l-181 -241h-233z" />
<glyph unicode="&#x2022;" horiz-adv-x="753" d="M51 582q0 142 90.5 232.5t233.5 90.5q146 0 236.5 -90t90.5 -233q0 -146 -90.5 -237t-236.5 -91q-143 0 -233.5 91t-90.5 237z" />
<glyph unicode="&#x2026;" horiz-adv-x="1525" d="M51 184q0 97 61 158t158 61q98 0 160 -61t62 -158q0 -98 -62 -159.5t-160 -61.5q-97 0 -158 61.5t-61 159.5zM543 184q0 97 61 158t158 61q98 0 159.5 -61t61.5 -158q0 -98 -61.5 -159.5t-159.5 -61.5q-97 0 -158 61.5t-61 159.5zM1034 184q0 97 61 158t158 61 q98 0 160 -61t62 -158q0 -98 -62 -159.5t-160 -61.5q-97 0 -158 61.5t-61 159.5z" />
<glyph unicode="&#x202f;" horiz-adv-x="389" />
<glyph unicode="&#x2039;" horiz-adv-x="583" d="M-47 559l260 395h391l-221 -395l221 -399h-391z" />
<glyph unicode="&#x203a;" horiz-adv-x="583" d="M-20 160l221 395l-221 399h391l260 -399l-260 -395h-391z" />
<glyph unicode="&#x205f;" horiz-adv-x="487" />
<glyph unicode="&#x20ac;" horiz-adv-x="1585" d="M31 500v188h168l-2 33v41h-166v186h198q74 228 278 365t478 137q166 0 334 -72.5t280 -193.5l7 -6l-289 -342l-8 10q-62 85 -150 136.5t-168 51.5q-133 0 -213 -86h404v-186h-477v-35q0 -6 1 -20t1 -19h475v-188h-400q81 -84 209 -84q75 0 162.5 43t155.5 116l8 9 l289 -308l-7 -6q-122 -132 -293 -211t-339 -79q-272 0 -472 142.5t-268 377.5h-196z" />
<glyph unicode="&#x2122;" horiz-adv-x="1886" d="M-33 1153v283h766v-283h-209v-600h-350v600h-207zM774 553v883h373l156 -357l157 357h373v-883h-315v365l-93 -263h-243l-92 263v-365h-316z" />
<glyph unicode="&#x25fc;" horiz-adv-x="1116" d="M0 0v1116h1116v-1116h-1116z" />
</font>
</defs>
</svg>
