<svg xmlns="http://www.w3.org/2000/svg" xmlns:xlink="http://www.w3.org/1999/xlink" width="8" height="194" viewBox="0 0 8 194"><defs><path id="stsma" d="M957 1702.5a2.5 2.5 0 0 1 5 0v5.69a2.5 2.5 0 0 1-5 0z"/><path id="stsmb" d="M957 1683.5a2.5 2.5 0 0 1 5 0v5.69a2.5 2.5 0 0 1-5 0z"/><path id="stsmc" d="M957 1720.5a2.5 2.5 0 0 1 5 0v5.66a2.5 2.5 0 0 1-5 0z"/><path id="stsmd" d="M957 1738.5a2.5 2.5 0 0 1 5 0v5.66a2.5 2.5 0 0 1-5 0z"/><path id="stsme" d="M957 1756.47a2.5 2.5 0 0 1 5 0v5.69a2.5 2.5 0 0 1-5 0z"/><path id="stsmf" d="M957 1774.44a2.5 2.5 0 0 1 5 0v5.69a2.5 2.5 0 0 1-5 0z"/><path id="stsmg" d="M957 1792.44a2.5 2.5 0 0 1 5 0v5.69a2.5 2.5 0 0 1-5 0z"/><path id="stsmh" d="M957 1809.88a2.5 2.5 0 0 1 5 0v5.69a2.5 2.5 0 0 1-5 0z"/><path id="stsmi" d="M957 1827.88a2.5 2.5 0 0 1 5 0v5.69a2.5 2.5 0 0 1-5 0z"/><path id="stsmj" d="M957 1845.84a2.5 2.5 0 0 1 5 0v5.69a2.5 2.5 0 0 1-5 0z"/><path id="stsmk" d="M957 1863.84a2.5 2.5 0 0 1 5 0v5.66a2.5 2.5 0 0 1-5 0z"/></defs><g><g opacity=".73" transform="translate(-955 -1679)"><use fill="#eee" xlink:href="#stsma"/></g><g opacity=".73" transform="translate(-955 -1679)"><use fill="#eee" xlink:href="#stsmb"/></g><g opacity=".73" transform="translate(-955 -1679)"><use fill="#eee" xlink:href="#stsmc"/></g><g opacity=".73" transform="translate(-955 -1679)"><use fill="#eee" xlink:href="#stsmd"/></g><g opacity=".73" transform="translate(-955 -1679)"><use fill="#eee" xlink:href="#stsme"/></g><g opacity=".73" transform="translate(-955 -1679)"><use fill="#eee" xlink:href="#stsmf"/></g><g opacity=".73" transform="translate(-955 -1679)"><use fill="#eee" xlink:href="#stsmg"/></g><g opacity=".73" transform="translate(-955 -1679)"><use fill="#eee" xlink:href="#stsmh"/></g><g opacity=".73" transform="translate(-955 -1679)"><use fill="#eee" xlink:href="#stsmi"/></g><g opacity=".73" transform="translate(-955 -1679)"><use fill="#eee" xlink:href="#stsmj"/></g><g opacity=".73" transform="translate(-955 -1679)"><use fill="#eee" xlink:href="#stsmk"/></g></g></svg>
