<svg width="60" height="60" viewBox="0 0 60 60" version="1.1" xmlns="http://www.w3.org/2000/svg" xmlns:xlink="http://www.w3.org/1999/xlink">
<title>accesories</title>
<desc>Created using Figma</desc>
<g id="Canvas" transform="translate(229 -179)">
<g id="accesories">
<g id="&#208;&#161;&#208;&#187;&#208;&#190;&#208;&#185; 3">
<g id="Vector">
<use xlink:href="#path0_fill" transform="translate(-229 179)"/>
</g>
<g id="Vector">
<use xlink:href="#path1_fill" transform="translate(-221.859 186.209)"/>
</g>
<g id="Vector">
<use xlink:href="#path2_fill" transform="translate(-195.811 193.558)"/>
</g>
</g>
</g>
</g>
<defs>
<path id="path0_fill" d="M 21.786 60C 21.066 60.0019 20.3528 59.8615 19.6873 59.587C 19.0218 59.3124 18.4171 58.909 17.908 58.4L 1.60618 42.1176C 1.09699 41.609 0.693047 41.005 0.417449 40.3402C 0.141852 39.6754 3.83913e-08 38.9628 3.83913e-08 38.2432C 3.83913e-08 37.5236 0.141852 36.811 0.417449 36.1462C 0.693047 35.4814 1.09699 34.8774 1.60618 34.3688L 34.3587 1.60409C 35.3877 0.57692 36.7825 -1.48338e-08 38.2366 -1.48338e-08C 39.6908 -1.48338e-08 41.0855 0.57692 42.1146 1.60409L 58.3959 17.9018C 59.4231 18.9297 60 20.3233 60 21.7762C 60 23.2292 59.4231 24.6227 58.3959 25.6507L 25.664 58.4C 25.1548 58.9087 24.5501 59.312 23.8846 59.5866C 23.2191 59.8611 22.5059 60.0016 21.786 60ZM 38.2366 1.53742C 37.7192 1.53694 37.2068 1.63862 36.7288 1.83664C 36.2508 2.03465 35.8167 2.32509 35.4513 2.69129L 2.69365 35.4508C 1.95472 36.1903 1.53965 37.1928 1.53965 38.2381C 1.53965 39.2833 1.95472 40.2858 2.69365 41.0253L 19.0006 57.3128C 19.741 58.0503 20.7435 58.4644 21.7886 58.4644C 22.8337 58.4644 23.8362 58.0503 24.5765 57.3128L 57.329 24.5686C 58.0679 23.8291 58.483 22.8266 58.483 21.7814C 58.483 20.7361 58.0679 19.7336 57.329 18.9941L 41.0271 2.69129C 40.6611 2.32448 40.2261 2.03368 39.7472 1.83565C 39.2683 1.63762 38.7549 1.53626 38.2366 1.53742Z"/>
<path id="path1_fill" d="M 14.4193 45.6521C 13.9384 45.6552 13.4614 45.5664 13.0138 45.3905L 13.5832 43.9597C 14.217 44.1795 14.91 44.1557 15.5273 43.8931L 16.0813 45.329C 15.5519 45.5382 14.9885 45.6477 14.4193 45.6521ZM 18.4255 43.6572L 17.338 42.57L 19.1539 40.7546L 20.2414 41.8418L 18.4255 43.6572ZM 10.8132 43.5751L 8.99731 41.7597L 10.0848 40.6725L 11.9007 42.4879L 10.8132 43.5751ZM 22.0162 40.0366L 20.939 38.9443L 22.7549 37.1289L 23.8424 38.216L 22.0162 40.0366ZM 7.17118 39.9545L 5.37069 38.1391L 6.45816 37.0519L 8.27404 38.8673L 7.17118 39.9545ZM 25.6377 36.4109L 24.581 35.3186L 26.3969 33.5032L 27.4844 34.5903L 25.6377 36.4109ZM 3.54968 36.3237L 1.7338 34.5083L 2.82128 33.4211L 4.63716 35.2365L 3.54968 36.3237ZM 29.2746 32.7801L 28.1717 31.6929L 29.9876 29.8774L 31.0751 30.9646L 29.2746 32.7801ZM 0.0872032 32.0672C 0.0291957 31.7958 -3.35977e-05 31.5191 -1.02221e-08 31.2416C 0.00768295 30.4835 0.195828 29.7381 0.548867 29.0672L 1.9236 29.78C 1.6824 30.2318 1.55228 30.7346 1.54401 31.2467C 1.54257 31.419 1.55976 31.5909 1.5953 31.7595L 0.0872032 32.0672ZM 32.9166 29.1544L 31.8291 28.0672L 33.645 26.2517L 34.7325 27.3389L 32.9166 29.1544ZM 2.652 28.7851L 1.56453 27.6979L 3.3804 25.8825L 4.46788 26.9697L 2.652 28.7851ZM 36.533 25.5287L 35.4455 24.4415L 37.2614 22.626L 38.3489 23.7132L 36.533 25.5287ZM 6.26837 25.1594L 5.18089 24.0722L 6.99677 22.2568L 8.08424 23.344L 6.26837 25.1594ZM 40.1494 21.9029L 39.0619 20.8157L 40.888 19.0106L 41.9755 20.0978L 40.1494 21.9029ZM 9.88473 21.5337L 8.79726 20.4465L 10.6131 18.6311L 11.7006 19.7183L 9.88473 21.5337ZM 43.7657 18.2772L 42.6782 17.19L 43.063 16.8054C 43.4715 16.4165 43.7917 15.9443 44.0017 15.4208L 45.4431 15.9336C 45.1664 16.67 44.7342 17.3382 44.1761 17.8926L 43.7657 18.2772ZM 13.5011 17.908L 12.4136 16.8208L 14.2295 15.0054L 15.3478 16.0926L 13.5011 17.908ZM 17.1277 14.2823L 16.0402 13.1951L 17.9126 11.3746L 19 12.4618L 17.1277 14.2823ZM 43.9914 13.4669C 43.9008 13.2543 43.7702 13.061 43.6067 12.8977L 42.5346 11.7746L 43.6221 10.6874L 44.7403 11.8053C 45.0395 12.1077 45.2781 12.4646 45.4431 12.8566L 43.9914 13.4669ZM 20.7903 10.6515L 19.7028 9.56427L 21.5033 7.72834L 22.5907 8.81554L 20.7903 10.6515ZM 40.7136 9.96428L 38.8977 8.14886L 39.9698 7.06166L 41.7857 8.87708L 40.7136 9.96428ZM 24.4169 7.02576L 23.3294 5.93857L 25.1453 4.13853L 26.2328 5.22573L 24.4169 7.02576ZM 37.0819 6.33857L 35.266 4.52316L 36.3791 3.43596L 38.195 5.25137L 37.0819 6.33857ZM 28.0435 3.40006L 26.956 2.31286L 27.7716 1.49746C 28.1573 1.11004 28.598 0.781699 29.0797 0.523086L 29.803 1.88208C 29.4564 2.07388 29.1401 2.31581 28.8642 2.60005L 28.0435 3.40006ZM 33.4552 2.71287L 32.7884 2.02568C 32.5168 1.75726 32.1695 1.57832 31.7932 1.51285L 32.0805 1.56503e-07C 32.7592 0.123633 33.3848 0.448894 33.8759 0.93335L 34.5632 1.62054L 33.4552 2.71287Z"/>
<path id="path2_fill" d="M 6.14044 12.3079C 4.71715 12.3044 3.33904 11.8079 2.24069 10.903C 1.14233 9.99798 0.391599 8.74044 0.116275 7.34438C -0.15905 5.94832 0.0580465 4.50001 0.730612 3.24597C 1.40318 1.99192 2.48965 1.00963 3.8051 0.466298C 5.12055 -0.0770373 6.58369 -0.147843 7.94548 0.265932C 9.30728 0.679707 10.4836 1.55249 11.2741 2.73573C 12.0647 3.91897 12.4207 5.33955 12.2815 6.75567C 12.1424 8.17179 11.5167 9.49593 10.5109 10.5027C 9.93737 11.0768 9.256 11.5318 8.50595 11.8416C 7.7559 12.1514 6.95198 12.3099 6.14044 12.3079ZM 6.14044 1.48719C 5.06643 1.48735 4.02571 1.85981 3.19559 2.5411C 2.36547 3.22239 1.79732 4.17036 1.58793 5.2235C 1.37855 6.27663 1.5409 7.36977 2.04731 8.31665C 2.55372 9.26353 3.37287 10.0056 4.36517 10.4163C 5.35748 10.8271 6.46155 10.8812 7.48928 10.5694C 8.517 10.2576 9.40478 9.59915 10.0014 8.7063C 10.5979 7.81345 10.8664 6.74142 10.761 5.67287C 10.6556 4.60432 10.1829 3.60535 9.42339 2.84619C 8.99351 2.41318 8.48203 2.06966 7.91852 1.83552C 7.35502 1.60137 6.75068 1.48124 6.14044 1.48206L 6.14044 1.48719Z"/>
</defs>
</svg>
