<svg width="42" height="60" viewBox="0 0 42 60" version="1.1" xmlns="http://www.w3.org/2000/svg" xmlns:xlink="http://www.w3.org/1999/xlink">
<title>backpack</title>
<desc>Created using Figma</desc>
<g id="Canvas" transform="translate(-198 -180)">
<g id="backpack">
<g id="&#208;&#161;&#208;&#187;&#208;&#190;&#208;&#185; 3">
<g id="Vector">
<use xlink:href="#path0_fill" transform="translate(203.047 190.124)"/>
</g>
<g id="Vector">
<use xlink:href="#path1_fill" transform="translate(198 180)"/>
</g>
<g id="Vector">
<use xlink:href="#path2_fill" transform="translate(208.093 218.402)"/>
</g>
</g>
</g>
</g>
<defs>
<path id="path0_fill" d="M 26.1969 45.3821L 23.6433 45.3821L 23.6433 43.8638L 26.1969 43.8638L 26.1969 45.3821ZM 21.0897 45.3821L 18.5362 45.3821L 18.5362 43.8638L 21.0897 43.8638L 21.0897 45.3821ZM 15.9826 45.3821L 13.424 45.3821L 13.424 43.8638L 15.9775 43.8638L 15.9826 45.3821ZM 10.8754 45.3821L 8.3168 45.3821L 8.3168 43.8638L 10.8704 43.8638L 10.8754 45.3821ZM 5.76826 45.3821L 3.13394 45.3821L 3.17431 43.8638L 5.76322 43.8638L 5.76826 45.3821ZM 28.801 45.3821L 28.7101 43.8638C 29.0053 43.8539 29.293 43.7682 29.5457 43.6149C 29.7984 43.4616 30.0077 43.2458 30.1534 42.9883L 31.5009 43.6664C 31.2374 44.1625 30.8491 44.5809 30.3747 44.8801C 29.9002 45.1793 29.3559 45.3489 28.7959 45.372L 28.801 45.3821ZM 0.363355 43.8031C 0.125878 43.387 0.000643099 42.916 -3.85025e-08 42.4366L -3.85025e-08 40.9183L 1.51398 40.9183L 1.51398 42.4366C 1.51463 42.6519 1.57209 42.8632 1.68052 43.049L 0.363355 43.8031ZM 31.7936 40.8019L 30.2796 40.8019L 30.2796 38.236L 31.7936 38.236L 31.7936 40.8019ZM 1.51398 38.3524L -3.85025e-08 38.3524L -3.85025e-08 35.7864L 1.51398 35.7864L 1.51398 38.3524ZM 31.7936 35.6801L 30.2796 35.6801L 30.2796 33.1142L 31.7936 33.1142L 31.7936 35.6801ZM 1.51398 33.2306L -3.85025e-08 33.2306L -3.85025e-08 30.6647L 1.51398 30.6647L 1.51398 33.2306ZM 31.7936 30.5584L 30.2796 30.5584L 30.2796 27.9925L 31.7936 27.9925L 31.7936 30.5584ZM 1.51398 28.1089L -3.85025e-08 28.1089L -3.85025e-08 25.5429L 1.51398 25.5429L 1.51398 28.1089ZM 31.7936 25.4367L 30.2796 25.4367L 30.2796 22.8707L 31.7936 22.8707L 31.7936 25.4367ZM 1.51398 22.9871L -3.85025e-08 22.9871L -3.85025e-08 20.4212L 1.51398 20.4212L 1.51398 22.9871ZM 31.7936 20.3149L 30.2796 20.3149L 30.2796 17.7439L 31.7936 17.7439L 31.7936 20.3149ZM 1.51398 17.8654L -3.85025e-08 17.8654L -3.85025e-08 17.6376C -3.85025e-08 16.8228 0.0403725 16.013 0.116072 15.2337L 1.63005 15.3855C 1.5594 16.1143 1.51903 16.8734 1.51903 17.6376L 1.51398 17.8654ZM 30.1585 15.2792C 30.0738 14.4616 29.9372 13.6502 29.7497 12.8499L 31.2233 12.5007C 31.4243 13.3628 31.571 14.2367 31.6624 15.1172L 30.1585 15.2792ZM 2.01864 12.9461L 0.545033 12.607C 0.74408 11.7461 1.00379 10.9005 1.32221 10.0765L 2.73526 10.6281C 2.44208 11.3828 2.20261 12.1574 2.01864 12.9461ZM 29.023 10.5067C 28.73 9.75089 28.3773 9.01978 27.9683 8.32031L 29.2703 7.54091C 29.7254 8.30959 30.1186 9.11347 30.4461 9.94489L 29.023 10.5067ZM 3.79 8.41141L 2.47788 7.64213C 2.92933 6.86721 3.44596 6.13238 4.02214 5.44565L 5.17781 6.42749C 4.65782 7.04764 4.19183 7.71138 3.78495 8.41141L 3.79 8.41141ZM 26.5502 6.34651C 26.0256 5.73324 25.448 5.16759 24.8242 4.65613L 25.7831 3.48198C 26.4761 4.05013 27.1178 4.67844 27.7008 5.35961L 26.5502 6.34651ZM 6.89366 4.72193L 5.92976 3.54271C 6.62028 2.97197 7.35999 2.46387 8.14017 2.02441L 8.88706 3.34533C 8.18329 3.74415 7.51621 4.20482 6.89366 4.72193ZM 22.8157 3.29472C 22.1098 2.89318 21.3702 2.55448 20.6053 2.28252L 21.1099 0.845189C 21.9577 1.13923 22.7783 1.5067 23.5626 1.94343L 22.8157 3.29472ZM 11.0823 2.34325L 10.5777 0.910982C 11.4218 0.612339 12.2895 0.385479 13.1716 0.232806L 13.429 1.75111C 12.6316 1.88191 11.8466 2.08 11.0823 2.34325ZM 18.2586 1.71062C 17.4812 1.58235 16.6947 1.51803 15.9069 1.5183L 15.8564 1.5183L 15.8564 1.0275e-09L 15.922 1.0275e-09C 16.7927 -9.86843e-06 17.6619 0.0710793 18.521 0.212563L 18.2586 1.71062Z"/>
<path id="path1_fill" d="M 37.9656 13.4387L 37.9656 2.2184C 37.9393 1.60618 37.6724 1.02929 37.2232 0.613888C 36.774 0.198483 36.179 -0.0216311 35.5684 0.00167951L 32.6717 0.00167951C 32.062 -0.0202627 31.4683 0.200465 31.0202 0.615726C 30.5721 1.03099 30.3059 1.60709 30.2796 2.2184L 30.2796 6.68222C 29.1462 6.11941 27.9637 5.662 26.747 5.31574L 26.747 4.41488C 26.747 1.37828 23.719 0.00167951 20.9434 0.00167951C 18.1678 0.00167951 15.1398 1.38334 15.1398 4.41488L 15.1398 5.31574C 13.9231 5.662 12.7406 6.11941 11.6072 6.68222L 11.6072 2.2184C 11.5809 1.60709 11.3147 1.03099 10.8666 0.615726C 10.4185 0.200465 9.82484 -0.0202627 9.21509 0.00167951L 6.31834 0.00167951C 5.7086 -0.0202627 5.11494 0.200465 4.66683 0.615726C 4.21872 1.03099 3.95251 1.60709 3.92626 2.2184L 3.92626 13.4387C 1.50893 17.0522 -3.85025e-08 21.7944 -3.85025e-08 27.7512L -3.85025e-08 56.3257C -3.85025e-08 58.3501 1.80668 60 4.03728 60L 37.8495 60C 40.07 60 41.8868 58.3501 41.8868 56.3257L 41.8868 27.7512C 41.8868 21.7944 40.3779 17.0522 37.9656 13.4387ZM 31.7936 2.2184C 31.8237 2.01172 31.9313 1.82435 32.0945 1.69455C 32.2577 1.56476 32.4642 1.50232 32.6717 1.51998L 35.5684 1.51998C 35.776 1.50232 35.9824 1.56476 36.1456 1.69455C 36.3088 1.82435 36.4164 2.01172 36.4466 2.2184L 36.4466 11.4598C 35.1083 9.9136 33.5385 8.58527 31.7936 7.52235L 31.7936 2.2184ZM 16.6538 4.41488C 16.6538 2.42591 18.8844 1.51998 20.9434 1.51998C 22.0181 1.49573 23.0785 1.77078 24.0067 2.31456C 24.3792 2.5237 24.6896 2.82843 24.906 3.19751C 25.1223 3.56659 25.237 3.98674 25.2381 4.41488L 25.2381 4.92099C 22.409 4.327 19.4879 4.327 16.6588 4.92099L 16.6538 4.41488ZM 5.44024 2.2184C 5.47035 2.01172 5.57799 1.82435 5.74118 1.69455C 5.90437 1.56476 6.11081 1.50232 6.31834 1.51998L 9.21509 1.51998C 9.42263 1.50232 9.62907 1.56476 9.79226 1.69455C 9.95545 1.82435 10.0631 2.01172 10.0932 2.2184L 10.0932 7.51729C 8.34825 8.58021 6.77854 9.90854 5.44024 11.4548L 5.44024 2.2184ZM 40.3779 56.3308C 40.3779 57.5201 39.2525 58.4868 37.8546 58.4868L 4.04233 58.4868C 2.65451 58.4868 1.51903 57.5201 1.51903 56.3308L 1.51903 27.7512C 1.51903 13.8132 10.29 6.96057 19.0711 6.11032L 19.0711 7.0871L 20.5851 7.0871L 20.5851 6.02429L 20.9484 6.02429L 21.0696 6.02429L 21.0696 7.0871L 22.5835 7.0871L 22.5835 6.0749C 26.9931 6.41415 31.1406 8.30739 34.2917 11.4193C 38.2734 15.3619 40.3728 21.0099 40.3728 27.7512L 40.3779 56.3308Z"/>
<path id="path2_fill" d="M 18.6068 12.6043L 3.09357 12.6043C 2.30792 12.6359 1.5417 12.3546 0.962125 11.8217C 0.382553 11.2888 0.0366845 10.5477 9.2406e-07 9.76004L 9.2406e-07 2.84669C 0.0366845 2.05902 0.382553 1.31788 0.962125 0.785009C 1.5417 0.252138 2.30792 -0.0291984 3.09357 0.00239947L 18.6068 0.00239947C 19.3925 -0.0291984 20.1587 0.252138 20.7383 0.785009C 21.3178 1.31788 21.6637 2.05902 21.7004 2.84669L 21.7004 9.76004C 21.6637 10.5477 21.3178 11.2888 20.7383 11.8217C 20.1587 12.3546 19.3925 12.6359 18.6068 12.6043ZM 3.09357 1.5207C 2.70945 1.48969 2.32857 1.61133 2.03307 1.85938C 1.73757 2.10744 1.55114 2.46203 1.51398 2.84669L 1.51398 9.76004C 1.55114 10.1447 1.73757 10.4993 2.03307 10.7473C 2.32857 10.9954 2.70945 11.117 3.09357 11.086L 18.6068 11.086C 18.9909 11.117 19.3718 10.9954 19.6673 10.7473C 19.9628 10.4993 20.1492 10.1447 20.1864 9.76004L 20.1864 2.84669C 20.1492 2.46203 19.9628 2.10744 19.6673 1.85938C 19.3718 1.61133 18.9909 1.48969 18.6068 1.5207L 3.09357 1.5207Z"/>
</defs>
</svg>
