<svg width="60" height="56" viewBox="0 0 60 56" version="1.1" xmlns="http://www.w3.org/2000/svg" xmlns:xlink="http://www.w3.org/1999/xlink">
<title>bag</title>
<desc>Created using Figma</desc>
<g id="Canvas" transform="translate(664 -32)">
<g id="bag">
<g id="&#208;&#161;&#208;&#187;&#208;&#190;&#208;&#185; 2">
<g id="Vector">
<use xlink:href="#path0_fill" transform="translate(-664 32)"/>
</g>
</g>
</g>
</g>
<defs>
<path id="path0_fill" d="M 56.9767 12.5L 55.7814 12.5C 55.1116 3.9213 42.1116 0 30 0C 17.8884 0 4.88372 3.9213 4.2186 12.5L 3.02326 12.5C 2.22182 12.5012 1.45355 12.8187 0.88685 13.3827C 0.320146 13.9468 0.00123015 14.7115 0 15.5093L 2.58191e-16 52.5463C 0.00123015 53.344 0.320146 54.1087 0.88685 54.6728C 1.45355 55.2369 2.22182 55.5543 3.02326 55.5556L 56.9767 55.5556C 57.7782 55.5543 58.5464 55.2369 59.1131 54.6728C 59.6799 54.1087 59.9988 53.344 60 52.5463L 60 15.5093C 59.9988 14.7115 59.6799 13.9468 59.1131 13.3827C 58.5464 12.8187 57.7782 12.5012 56.9767 12.5ZM 30 1.38889C 36.4837 1.38889 42.5163 2.47685 46.9767 4.4537C 50.1907 5.875 53.9814 8.40741 54.3721 12.5L 5.61395 12.5C 6.32558 5.2037 18.2326 1.38889 30 1.38889ZM 42.0558 37.5L 42.0558 34.7222L 47.2512 34.7222L 47.2512 37.5L 42.0558 37.5ZM 46.0465 38.8889L 46.0465 41.6667L 43.2558 41.6667L 43.2558 38.8889L 46.0465 38.8889ZM 43.2558 33.3333L 43.2558 13.8889L 46.0465 13.8889L 46.0465 33.3333L 43.2558 33.3333ZM 41.8605 13.8889L 41.8605 29.1667L 18.1395 29.1667L 18.1395 13.8889L 41.8605 13.8889ZM 12.7535 37.5L 12.7535 34.7222L 17.9442 34.7222L 17.9442 37.5L 12.7535 37.5ZM 16.7442 38.8889L 16.7442 41.6667L 13.9535 41.6667L 13.9535 38.8889L 16.7442 38.8889ZM 13.9535 33.3333L 13.9535 13.8889L 16.7442 13.8889L 16.7442 33.3333L 13.9535 33.3333ZM 1.39535 15.5093C 1.39535 15.0795 1.56686 14.6674 1.87215 14.3635C 2.17744 14.0596 2.59151 13.8889 3.02326 13.8889L 12.5581 13.8889L 12.5581 29.1667L 3.02326 29.1667C 2.59151 29.1667 2.17744 28.996 1.87215 28.6921C 1.56686 28.3882 1.39535 27.976 1.39535 27.5463L 1.39535 15.5093ZM 58.6047 52.5463C 58.6047 52.976 58.4331 53.3882 58.1278 53.6921C 57.8226 53.996 57.4085 54.1667 56.9767 54.1667L 3.02326 54.1667C 2.59151 54.1667 2.17744 53.996 1.87215 53.6921C 1.56686 53.3882 1.39535 52.976 1.39535 52.5463L 1.39535 30.0926C 1.88207 30.3993 2.44722 30.56 3.02326 30.5556L 12.5581 30.5556L 12.5581 33.3333L 11.3581 33.3333L 11.3581 38.8889L 12.5581 38.8889L 12.5581 43.0556L 18.1395 43.0556L 18.1395 38.8889L 19.3395 38.8889L 19.3395 33.3333L 18.1395 33.3333L 18.1395 30.5556L 41.8605 30.5556L 41.8605 33.3333L 40.6605 33.3333L 40.6605 38.8889L 41.8605 38.8889L 41.8605 43.0556L 47.4419 43.0556L 47.4419 38.8889L 48.6419 38.8889L 48.6419 33.3333L 47.4419 33.3333L 47.4419 30.5556L 56.9767 30.5556C 57.5528 30.56 58.1179 30.3993 58.6047 30.0926L 58.6047 52.5463ZM 58.6047 27.5463C 58.6047 27.976 58.4331 28.3882 58.1278 28.6921C 57.8226 28.996 57.4085 29.1667 56.9767 29.1667L 47.4419 29.1667L 47.4419 13.8889L 56.9767 13.8889C 57.4085 13.8889 57.8226 14.0596 58.1278 14.3635C 58.4331 14.6674 58.6047 15.0795 58.6047 15.5093L 58.6047 27.5463Z"/>
</defs>
</svg>
