<svg width="60" height="15" viewBox="0 0 60 15" version="1.1" xmlns="http://www.w3.org/2000/svg" xmlns:xlink="http://www.w3.org/1999/xlink">
<title>belt</title>
<desc>Created using Figma</desc>
<g id="Canvas" transform="translate(664 -202)">
<g id="belt">
<g id="Vector">
<use xlink:href="#path0_fill" transform="translate(-664 202)"/>
</g>
<g id="Vector">
<use xlink:href="#path1_fill" transform="translate(-654.363 208.334)"/>
</g>
</g>
</g>
<defs>
<path id="path0_fill" d="M 40.6558 2.45745C 40.5737 1.79403 40.2468 1.18105 39.7346 0.730041C 39.2224 0.279031 38.559 0.0199707 37.8651 -4.0981e-07L 18.9535 -4.0981e-07L 18.9535 2.46192L 0 2.46192L 0 11.862L 18.9535 11.862L 18.9535 14.4L 37.8651 14.4C 38.5706 14.3758 39.2429 14.1054 39.7564 13.6392C 40.2699 13.173 40.5896 12.5429 40.6558 11.8665L 60 11.8665L 60 2.4664L 40.6558 2.45745ZM 1.39535 10.5146L 1.39535 3.80031L 18.9535 3.80031L 18.9535 10.5146L 1.39535 10.5146ZM 37.7535 13.0527L 20.3488 13.0527L 20.3488 1.33839L 37.7535 1.33839C 38.0956 1.33497 38.4286 1.44402 38.6976 1.6475C 38.9665 1.85099 39.1553 2.13672 39.2326 2.45745L 21.9395 2.45745L 21.9395 6.52185L 21.307 6.52185L 21.307 7.86472L 21.9349 7.86472L 21.9349 11.9291L 39.2279 11.9291C 39.1517 12.2499 38.964 12.5361 38.696 12.7404C 38.4279 12.9447 38.0954 13.0548 37.7535 13.0527ZM 58.6047 10.5146L 23.3349 10.5146L 23.3349 7.86472L 29.014 7.86472L 29.014 6.52185L 23.3349 6.52185L 23.3349 3.80031L 58.6047 3.80031L 58.6047 10.5146Z"/>
<path id="path1_fill" d="M 0.855814 1.64725C 1.32847 1.64725 1.71163 1.2785 1.71163 0.823623C 1.71163 0.368748 1.32847 0 0.855814 0C 0.383161 0 0 0.368748 0 0.823623C 0 1.2785 0.383161 1.64725 0.855814 1.64725Z"/>
</defs>
</svg>
