<svg width="36" height="60" viewBox="0 0 36 60" version="1.1" xmlns="http://www.w3.org/2000/svg" xmlns:xlink="http://www.w3.org/1999/xlink">
<title>case_1</title>
<desc>Created using Figma</desc>
<g id="Canvas" transform="translate(11 -180)">
<g id="case_1">
<g id="&#208;&#161;&#208;&#187;&#208;&#190;&#208;&#185; 3">
<g id="Vector">
<use xlink:href="#path0_fill" transform="translate(-11 180)"/>
</g>
<g id="Vector">
<use xlink:href="#path1_fill" transform="translate(-6.20824 184.876)"/>
</g>
<g id="Vector">
<use xlink:href="#path2_fill" transform="translate(-5.98075 184.02)" fill="#FFFFFF"/>
</g>
<g id="Vector">
<use xlink:href="#path3_fill" transform="translate(-6.75586 183.246)"/>
</g>
</g>
</g>
</g>
<defs>
<path id="path0_fill" d="M 31.9384 60L 3.15597 60C 2.31936 59.9986 1.51741 59.6606 0.925836 59.0599C 0.334267 58.4592 0.00133536 57.6449 1.79396e-15 56.7954L 1.79396e-15 3.20458C 0.00133536 2.35509 0.334267 1.54078 0.925836 0.940098C 1.51741 0.339416 2.31936 0.00135594 3.15597 4.8898e-09L 31.9384 4.8898e-09C 32.775 0.00135594 33.5769 0.339416 34.1685 0.940098C 34.7601 1.54078 35.093 2.35509 35.0943 3.20458L 35.0943 56.7903C 35.0943 57.6407 34.762 58.4563 34.1703 59.0581C 33.5786 59.6599 32.7759 59.9986 31.9384 60ZM 3.15597 1.5382C 2.72072 1.5382 2.3033 1.71376 1.99553 2.02627C 1.68777 2.33878 1.51486 2.76263 1.51486 3.20458L 1.51486 56.7903C 1.5142 57.0096 1.55616 57.2268 1.63833 57.4296C 1.72051 57.6323 1.84129 57.8166 1.99374 57.9719C 2.1462 58.1272 2.32734 58.2504 2.52677 58.3345C 2.72621 58.4185 2.94003 58.4618 3.15597 58.4618L 31.9384 58.4618C 32.3736 58.4618 32.791 58.2862 33.0988 57.9737C 33.4066 57.6612 33.5795 57.2374 33.5795 56.7954L 33.5795 3.20458C 33.5795 2.76263 33.4066 2.33878 33.0988 2.02627C 32.791 1.71376 32.3736 1.5382 31.9384 1.5382L 3.15597 1.5382Z"/>
<path id="path1_fill" d="M 21.4962 50.2478L 18.9714 50.2478L 18.9714 48.7096L 21.4962 48.7096L 21.4962 50.2478ZM 16.4466 50.2478L 13.9219 50.2478L 13.9219 48.7096L 16.4466 48.7096L 16.4466 50.2478ZM 11.3971 50.2478L 8.87231 50.2478L 8.87231 48.7096L 11.3971 48.7096L 11.3971 50.2478ZM 6.34754 50.2478L 3.82276 50.2478L 3.82276 48.7096L 6.34754 48.7096L 6.34754 50.2478ZM 24.4047 49.7812L 23.5059 48.5456C 23.6673 48.4142 23.7968 48.247 23.8844 48.0567C 23.9719 47.8664 24.0152 47.6583 24.0108 47.4483L 24.0108 46.8535L 25.5257 46.8535L 25.5257 47.4483C 25.531 47.9003 25.4319 48.3472 25.2364 48.7532C 25.0408 49.1593 24.7542 49.5131 24.3997 49.7864L 24.4047 49.7812ZM 0.888977 49.6069C 0.603275 49.3291 0.376938 48.9945 0.224045 48.624C 0.071153 48.2535 -0.00502244 47.8551 0.000257712 47.4534L 0.000257712 46.6587L 1.51512 46.6587L 1.51512 47.4534C 1.51103 47.6432 1.54469 47.8318 1.61411 48.008C 1.68352 48.1842 1.78725 48.3444 1.91908 48.4789L 0.888977 49.6069ZM 25.5055 44.2899L 23.9906 44.2899L 23.9906 41.7262L 25.5055 41.7262L 25.5055 44.2899ZM 1.52017 44.095L 0.00530641 44.095L 0.00530641 41.5314L 1.52017 41.5314L 1.52017 44.095ZM 25.5055 39.1677L 23.9906 39.1677L 23.9906 36.604L 25.5055 36.604L 25.5055 39.1677ZM 1.52017 38.9677L 0.00530641 38.9677L 0.00530641 36.404L 1.52017 36.404L 1.52017 38.9677ZM 25.5055 34.0403L 23.9906 34.0403L 23.9906 31.4767L 25.5055 31.4767L 25.5055 34.0403ZM 1.52017 33.8404L 0.00530641 33.8404L 0.00530641 31.2767L 1.52017 31.2767L 1.52017 33.8404ZM 25.5055 28.913L 23.9906 28.913L 23.9906 26.3493L 25.5055 26.3493L 25.5055 28.913ZM 1.52017 28.713L 0.00530641 28.713L 0.00530641 26.1494L 1.52017 26.1494L 1.52017 28.713ZM 25.5055 23.7857L 23.9906 23.7857L 23.9906 21.222L 25.5055 21.222L 25.5055 23.7857ZM 1.52017 23.5857L 0.00530641 23.5857L 0.00530641 21.022L 1.52017 21.022L 1.52017 23.5857ZM 25.5055 18.6583L 23.9906 18.6583L 23.9906 16.0947L 25.5055 16.0947L 25.5055 18.6583ZM 1.52017 18.4584L 0.00530641 18.4584L 0.00530641 15.8947L 1.52017 15.8947L 1.52017 18.4584ZM 25.5055 13.531L 23.9906 13.531L 23.9906 10.9674L 25.5055 10.9674L 25.5055 13.531ZM 1.52017 13.3311L 0.00530641 13.3311L 0.00530641 10.7674L 1.52017 10.7674L 1.52017 13.3311ZM 25.5055 8.40369L 23.9906 8.40369L 23.9906 5.84003L 25.5055 5.84003L 25.5055 8.40369ZM 1.52017 8.20373L 0.00530641 8.20373L 0.00530641 5.64006L 1.52017 5.64006L 1.52017 8.20373ZM 25.5055 3.27636L 23.9906 3.27636L 23.9906 2.79952C 23.9976 2.57982 23.9515 2.36172 23.8565 2.16422C 23.7614 1.96673 23.6203 1.79582 23.4453 1.66638L 24.2583 0.369168C 24.6496 0.637426 24.9687 1.00074 25.1865 1.42609C 25.4043 1.85143 25.514 2.32531 25.5055 2.80465L 25.5055 3.27636ZM 21.375 1.5382L 18.8502 1.5382L 18.8502 0L 21.375 0L 21.375 1.5382ZM 16.3254 1.5382L 13.8007 1.5382L 13.8007 0L 16.3254 0L 16.3254 1.5382ZM 11.2759 1.5382L 10.3569 1.5382L 10.3569 0L 11.2759 0L 11.2759 1.5382Z"/>
<path id="path2_fill" d="M 5.06469 0L 1.68655 0C 0.755093 0 0 0.766725 0 1.71253L 0 1.71766C 0 2.66346 0.755093 3.43018 1.68655 3.43018L 5.06469 3.43018C 5.99615 3.43018 6.75124 2.66346 6.75124 1.71766L 6.75124 1.71253C 6.75124 0.766725 5.99615 0 5.06469 0Z"/>
<path id="path3_fill" d="M 5.8398 4.96838L 2.4465 4.96838C 1.79765 4.96838 1.17537 4.70666 0.716564 4.24078C 0.257755 3.7749 -6.164e-07 3.14304 -6.164e-07 2.48419C -6.164e-07 1.82534 0.257755 1.19348 0.716564 0.727603C 1.17537 0.261727 1.79765 8.80164e-08 2.4465 8.80164e-08L 5.82465 8.80164e-08C 6.4735 8.80164e-08 7.09578 0.261727 7.55459 0.727603C 8.0134 1.19348 8.27116 1.82534 8.27116 2.48419C 8.27116 3.14304 8.0134 3.7749 7.55459 4.24078C 7.09578 4.70666 6.4735 4.96838 5.82465 4.96838L 5.8398 4.96838ZM 2.4465 1.54333C 2.19942 1.54333 1.96245 1.64299 1.78774 1.8204C 1.61302 1.99781 1.51486 2.23843 1.51486 2.48932C 1.51486 2.74021 1.61302 2.98083 1.78774 3.15824C 1.96245 3.33564 2.19942 3.43531 2.4465 3.43531L 5.82465 3.43531C 6.07174 3.43531 6.3087 3.33564 6.48342 3.15824C 6.65814 2.98083 6.75629 2.74021 6.75629 2.48932C 6.75629 2.23843 6.65814 1.99781 6.48342 1.8204C 6.3087 1.64299 6.07174 1.54333 5.82465 1.54333L 2.4465 1.54333Z"/>
</defs>
</svg>
