<svg width="60" height="52" viewBox="0 0 60 52" version="1.1" xmlns="http://www.w3.org/2000/svg" xmlns:xlink="http://www.w3.org/1999/xlink">
<title>case</title>
<desc>Created using Figma</desc>
<g id="Canvas" transform="translate(446 -32)">
<g id="case">
<g id="&#208;&#161;&#208;&#187;&#208;&#190;&#208;&#185; 2">
<g id="Vector">
<use xlink:href="#path0_fill" transform="translate(-446 32)"/>
</g>
</g>
</g>
</g>
<defs>
<path id="path0_fill" d="M 56.9767 8.38264L 39.0698 8.38264L 39.0698 4.61109L 38.8651 4.40672C 32.9814 -1.46891 27.0186 -1.46891 21.1349 4.40672L 20.9302 4.61109L 20.9302 8.38264L 3.02326 8.38264C 2.22182 8.38387 1.45355 8.70234 0.88685 9.26827C 0.320146 9.83419 0.00123015 10.6014 0 11.4017L 2.58191e-16 48.5599C 0.00123015 49.3602 0.320146 50.1274 0.88685 50.6933C 1.45355 51.2592 2.22182 51.5777 3.02326 51.5789L 56.9767 51.5789C 57.7782 51.5777 58.5464 51.2592 59.1131 50.6933C 59.6799 50.1274 59.9988 49.3602 60 48.5599L 60 11.4017C 59.9988 10.6014 59.6799 9.83419 59.1131 9.26827C 58.5464 8.70234 57.7782 8.38387 56.9767 8.38264ZM 22.3256 5.19169C 27.4884 0.16605 32.5116 0.16605 37.6744 5.19169L 37.6744 8.38264L 22.3256 8.38264L 22.3256 5.19169ZM 58.6047 48.5599C 58.6047 48.991 58.4331 49.4045 58.1278 49.7094C 57.8226 50.0142 57.4085 50.1855 56.9767 50.1855L 3.02326 50.1855C 2.59151 50.1855 2.17744 50.0142 1.87215 49.7094C 1.56686 49.4045 1.39535 48.991 1.39535 48.5599L 1.39535 26.0188C 1.88207 26.3265 2.44722 26.4878 3.02326 26.4833L 27.2093 26.4833L 27.2093 30.6636L 32.7907 30.6636L 32.7907 26.4833L 56.9767 26.4833C 57.5528 26.4878 58.1179 26.3265 58.6047 26.0188L 58.6047 48.5599ZM 28.6047 29.2841L 28.6047 22.3169L 31.3953 22.3169L 31.3953 29.2841L 28.6047 29.2841ZM 58.6047 23.4781C 58.6047 23.9093 58.4331 24.3228 58.1278 24.6276C 57.8226 24.9325 57.4085 25.1038 56.9767 25.1038L 32.7907 25.1038L 32.7907 20.9235L 27.2093 20.9235L 27.2093 25.1038L 3.02326 25.1038C 2.59151 25.1038 2.17744 24.9325 1.87215 24.6276C 1.56686 24.3228 1.39535 23.9093 1.39535 23.4781L 1.39535 11.4017C 1.39535 10.9706 1.56686 10.5571 1.87215 10.2522C 2.17744 9.94734 2.59151 9.77607 3.02326 9.77607L 56.9767 9.77607C 57.4085 9.77607 57.8226 9.94734 58.1278 10.2522C 58.4331 10.5571 58.6047 10.9706 58.6047 11.4017L 58.6047 23.4781Z"/>
</defs>
</svg>
