<svg width="44" height="60" viewBox="0 0 44 60" version="1.1" xmlns="http://www.w3.org/2000/svg" xmlns:xlink="http://www.w3.org/1999/xlink">
<title>dock</title>
<desc>Created using Figma</desc>
<g id="Canvas" transform="translate(446 -179)">
<g id="dock">
<g id="Vector">
<use xlink:href="#path0_fill" transform="translate(-446 179)"/>
</g>
<g id="Vector">
<use xlink:href="#path1_fill" transform="translate(-441.815 188.603)"/>
</g>
</g>
</g>
<defs>
<path id="path0_fill" d="M 40.4304 4.17568L 39.3294 4.17568L 39.3294 3.08108C 39.3294 2.67647 39.2492 2.27582 39.0935 1.902C 38.9377 1.52819 38.7095 1.18853 38.4217 0.902428C 38.1339 0.616323 37.7923 0.389372 37.4163 0.234533C 37.0403 0.0796945 36.6373 -3.62461e-09 36.2303 -3.62461e-09L 3.0175 4.18074C 2.21067 4.20186 1.44397 4.53508 0.880447 5.10953C 0.316925 5.68398 0.00104762 6.45434 -3.49991e-07 7.25676L -3.49991e-07 56.9189C -3.49991e-07 57.7361 0.326506 58.5198 0.907691 59.0976C 1.48888 59.6754 2.27713 60 3.09905 60L 40.4304 60C 41.2523 60 42.0405 59.6754 42.6217 59.0976C 43.2029 58.5198 43.5294 57.7361 43.5294 56.9189L 43.5294 7.25676C 43.5294 6.4396 43.2029 5.65592 42.6217 5.0781C 42.0405 4.50029 41.2523 4.17568 40.4304 4.17568ZM 36.2711 1.52027C 36.6804 1.53084 37.0693 1.69994 37.3549 1.99151C 37.6406 2.28308 37.8004 2.67406 37.8002 3.08108L 37.8002 4.17568L 15.2098 4.17568L 36.2711 1.52027ZM 41.9952 56.8986C 41.9952 57.3126 41.8298 57.7096 41.5354 58.0023C 41.2409 58.295 40.8416 58.4595 40.4253 58.4595L 3.09905 58.4595C 2.68268 58.4595 2.28337 58.295 1.98895 58.0023C 1.69454 57.7096 1.52914 57.3126 1.52914 56.8986L 1.52914 7.23649C 1.52914 6.82253 1.69454 6.42554 1.98895 6.13283C 2.28337 5.84012 2.68268 5.67568 3.09905 5.67568L 40.4304 5.67568C 40.8467 5.67568 41.246 5.84012 41.5405 6.13283C 41.8349 6.42554 42.0003 6.82253 42.0003 7.23649L 41.9952 56.8986Z"/>
<path id="path1_fill" d="M 32.5094 44.9493L 30.3635 44.9493L 30.3635 43.4291L 32.4941 43.4291C 32.5704 43.437 32.6473 43.437 32.7235 43.4291L 33.0395 44.9189C 32.8643 44.9468 32.6867 44.957 32.5094 44.9493ZM 27.8558 44.9493L 25.3327 44.9493L 25.3327 43.4291L 27.8558 43.4291L 27.8558 44.9493ZM 22.8096 44.9493L 20.2916 44.9493L 20.2916 43.4291L 22.8147 43.4291L 22.8096 44.9493ZM 17.7635 44.9493L 15.2455 44.9493L 15.2455 43.4291L 17.7686 43.4291L 17.7635 44.9493ZM 12.7173 44.9493L 10.1993 44.9493L 10.1993 43.4291L 12.7224 43.4291L 12.7173 44.9493ZM 7.67117 44.9493L 5.15829 44.9493L 5.15829 43.4291L 7.68136 43.4291L 7.67117 44.9493ZM 2.61992 44.9493C 2.02344 44.9416 1.4471 44.7336 0.984456 44.3592C 0.521817 43.9848 0.200041 43.4659 0.0713595 42.8868L 1.56482 42.5676C 1.61898 42.8103 1.7543 43.0277 1.9487 43.1841C 2.14311 43.3406 2.3851 43.4269 2.63521 43.4291L 2.61992 44.9493ZM 33.6002 42.3547L 33.6002 39.8209L 35.1294 39.8209L 35.1294 42.3294L 33.6002 42.3547ZM 1.52914 40.2264L 1.55552e-07 40.2264L 1.55552e-07 37.7128L 1.52914 37.7128L 1.52914 40.2264ZM 35.1294 37.3226L 33.6002 37.3226L 33.6002 34.8091L 35.1294 34.8091L 35.1294 37.3226ZM 1.54443 35.2044L 0.0152909 35.2044L 0.0152909 32.6959L 1.54443 32.6959L 1.54443 35.2044ZM 35.1446 32.3007L 33.6155 32.3007L 33.6155 29.7922L 35.1446 29.7922L 35.1446 32.3007ZM 1.54443 30.1926L 0.0152909 30.1926L 0.0152909 27.6841L 1.54443 27.6841L 1.54443 30.1926ZM 35.1446 27.2889L 33.6155 27.2889L 33.6155 24.7804L 35.1446 24.7804L 35.1446 27.2889ZM 1.54443 25.1757L 0.0152909 25.1757L 0.0152909 22.6672L 1.54443 22.6672L 1.54443 25.1757ZM 35.1446 22.272L 33.6155 22.272L 33.6155 19.7635L 35.1446 19.7635L 35.1446 22.272ZM 1.54443 20.1588L 0.0152909 20.1588L 0.0152909 17.6554L 1.54443 17.6554L 1.54443 20.1588ZM 35.1446 17.2551L 33.6155 17.2551L 33.6155 14.7466L 35.1446 14.7466L 35.1446 17.2551ZM 1.54443 15.147L 0.0152909 15.147L 0.0152909 12.6385L 1.54443 12.6385L 1.54443 15.147ZM 35.1446 12.2432L 33.6155 12.2432L 33.6155 9.74493L 35.1446 9.74493L 35.1446 12.2432ZM 1.54443 10.1301L 0.0152909 10.1301L 0.0152909 7.62162L 1.54443 7.62162L 1.54443 10.1301ZM 35.1396 7.21115L 33.6104 7.21115L 33.6104 4.71791L 35.1396 4.71791L 35.1396 7.21115ZM 1.54443 5.11318L 0.0152909 5.11318L 0.0152909 2.61993L 1.54443 2.61993L 1.54443 5.11318ZM 33.5849 2.37669C 33.5287 2.13445 33.392 1.91814 33.1968 1.76273C 33.0017 1.60732 32.7595 1.52189 32.5094 1.52027L 32.5094 2.31975e-07C 33.1011 0.00587028 33.6736 0.208744 34.1356 0.576199C 34.5976 0.943653 34.9224 1.45448 35.058 2.02703L 33.5849 2.37669ZM 2.41094 1.54561L 2.08472 0.0608105C 2.26888 0.0206183 2.45686 0.000231396 2.64541 2.31975e-07L 4.76581 2.31975e-07L 4.76581 1.52027L 2.64541 1.52027C 2.56656 1.52038 2.48796 1.52888 2.41094 1.54561ZM 29.9864 1.54561L 27.4684 1.54561L 27.4684 0.0253377L 29.9915 0.0253377L 29.9864 1.54561ZM 24.9402 1.54561L 22.4222 1.54561L 22.4222 0.0253377L 24.9453 0.0253377L 24.9402 1.54561ZM 19.8941 1.54561L 17.3761 1.54561L 17.3761 0.0253377L 19.8992 0.0253377L 19.8941 1.54561ZM 14.8479 1.54561L 12.335 1.54561L 12.335 0.0253377L 14.8581 0.0253377L 14.8479 1.54561ZM 9.80176 1.54561L 7.28888 1.54561L 7.28888 0.0253377L 9.81196 0.0253377L 9.80176 1.54561Z"/>
</defs>
</svg>
