<svg width="60" height="35" viewBox="0 0 60 35" version="1.1" xmlns="http://www.w3.org/2000/svg" xmlns:xlink="http://www.w3.org/1999/xlink">
<title>purce</title>
<desc>Created using Figma</desc>
<g id="Canvas" transform="translate(14 -38)">
<g id="purce">
<g id="Vector">
<use xlink:href="#path0_fill" transform="translate(-9.81428 43.0121)"/>
</g>
<g id="Vector">
<use xlink:href="#path1_fill" transform="translate(-6.62847 63.7766)"/>
</g>
<g id="Vector">
<use xlink:href="#path2_fill" transform="translate(7.65878 63.7766)"/>
</g>
<g id="Vector">
<use xlink:href="#path3_fill" transform="translate(-1.86604 63.7766)"/>
</g>
<g id="Vector">
<use xlink:href="#path4_fill" transform="translate(-9.81428 46.6495)"/>
</g>
<g id="Vector">
<use xlink:href="#path5_fill" transform="translate(-9.81428 51.5375)"/>
</g>
<g id="Vector">
<use xlink:href="#path6_fill" transform="translate(-9.81432 61.3135)"/>
</g>
<g id="Vector">
<use xlink:href="#path7_fill" transform="translate(-9.81428 56.4255)"/>
</g>
<g id="Vector">
<use xlink:href="#path8_fill" transform="translate(2.89635 63.7766)"/>
</g>
<g id="Vector">
<use xlink:href="#path9_fill" transform="translate(40.4144 51.547)"/>
</g>
<g id="Vector">
<use xlink:href="#path10_fill" transform="translate(40.4144 56.435)"/>
</g>
<g id="Vector">
<use xlink:href="#path11_fill" transform="translate(40.4144 46.659)"/>
</g>
<g id="Vector">
<use xlink:href="#path12_fill" transform="translate(40.1633 61.323)"/>
</g>
<g id="Vector">
<use xlink:href="#path13_fill" transform="translate(21.9461 63.7766)"/>
</g>
<g id="Vector">
<use xlink:href="#path14_fill" transform="translate(26.7085 63.7766)"/>
</g>
<g id="Vector">
<use xlink:href="#path15_fill" transform="translate(36.2333 63.7766)"/>
</g>
<g id="Vector">
<use xlink:href="#path1_fill" transform="translate(31.4709 63.7766)"/>
</g>
<g id="Vector">
<use xlink:href="#path0_fill" transform="translate(40.4144 43.0121)"/>
</g>
<g id="Vector">
<use xlink:href="#path16_fill" transform="translate(-14 38)"/>
</g>
<g id="Vector">
<use xlink:href="#path17_fill" transform="translate(14.0211 63.0606)"/>
</g>
</g>
</g>
<defs>
<path id="path0_fill" d="M 1.39524 0L 0 0L 0 1.19336L 1.39524 1.19336L 1.39524 0Z"/>
<path id="path1_fill" d="M 2.38121 0L 0 0L 0 1.43203L 2.38121 1.43203L 2.38121 0Z"/>
<path id="path2_fill" d="M 2.38121 0L 0 0L 0 1.43203L 2.38121 1.43203L 2.38121 0Z"/>
<path id="path3_fill" d="M 2.38121 0L 0 0L 0 1.43203L 2.38121 1.43203L 2.38121 0Z"/>
<path id="path4_fill" d="M 1.39524 0L 0 0L 0 2.444L 1.39524 2.444L 1.39524 0Z"/>
<path id="path5_fill" d="M 1.39524 0L 0 0L 0 2.444L 1.39524 2.444L 1.39524 0Z"/>
<path id="path6_fill" d="M 1.39526 1.45674e-06L 2.38334e-05 1.45674e-06L 2.38334e-05 1.13608C -0.00235343 1.72363 0.173163 2.29742 0.50231 2.77814L 1.64176 1.95234C 1.47966 1.711 1.39362 1.42442 1.39526 1.1313L 1.39526 1.45674e-06Z"/>
<path id="path7_fill" d="M 1.39524 0L 0 0L 0 2.444L 1.39524 2.444L 1.39524 0Z"/>
<path id="path8_fill" d="M 2.38121 0L 0 0L 0 1.43203L 2.38121 1.43203L 2.38121 0Z"/>
<path id="path9_fill" d="M 1.39524 0L 0 0L 0 2.444L 1.39524 2.444L 1.39524 0Z"/>
<path id="path10_fill" d="M 1.39524 0L 0 0L 0 2.444L 1.39524 2.444L 1.39524 0Z"/>
<path id="path11_fill" d="M 1.39524 0L 0 0L 0 2.444L 1.39524 2.444L 1.39524 0Z"/>
<path id="path12_fill" d="M 0.251143 1.12176C 0.252377 1.41702 0.164659 1.70545 -4.25794e-07 1.94756L 1.13945 2.77814C 1.47133 2.29315 1.64845 1.71442 1.64638 1.12176L 1.64638 -1.45674e-07L 0.251143 -1.45674e-07L 0.251143 1.12176Z"/>
<path id="path13_fill" d="M 2.38121 0L 0 0L 0 1.43203L 2.38121 1.43203L 2.38121 0Z"/>
<path id="path14_fill" d="M 2.38121 0L 0 0L 0 1.43203L 2.38121 1.43203L 2.38121 0Z"/>
<path id="path15_fill" d="M 2.38121 0L 0 0L 0 1.43203L 2.38121 1.43203L 2.38121 0Z"/>
<path id="path16_fill" d="M 56.9723 -4.37019e-07L 3.02302 -4.37019e-07C 2.22164 0.00126205 1.45344 0.328562 0.886781 0.910164C 0.320121 1.49177 0.00123005 2.28023 5.16343e-17 3.10274L 0 28.402C 0.00123005 29.2245 0.320121 30.0129 0.886781 30.5945C 1.45344 31.1761 2.22164 31.5034 3.02302 31.5047L 26.277 31.5047L 26.277 32.3019C 26.2746 32.5279 26.3158 32.7522 26.3984 32.9617C 26.481 33.1712 26.6032 33.3619 26.7581 33.5226C 26.9129 33.6833 27.0973 33.8109 27.3005 33.898C 27.5038 33.985 27.7218 34.0299 27.942 34.0299L 32.058 34.0299C 32.4996 34.0299 32.9231 33.8498 33.2353 33.5293C 33.5476 33.2088 33.723 32.7742 33.723 32.321L 33.723 31.5047L 56.977 31.5047C 57.7784 31.5034 58.5466 31.1761 59.1132 30.5945C 59.6799 30.0129 59.9988 29.2245 60 28.402L 60 3.10274C 59.9988 2.2794 59.6792 1.49022 59.1116 0.90848C 58.5439 0.326741 57.7745 -1.40839e-06 56.9723 -4.37019e-07ZM 32.3231 32.3019C 32.3231 32.3753 32.2947 32.4457 32.2441 32.4976C 32.1935 32.5496 32.1249 32.5787 32.0533 32.5787L 27.942 32.5787C 27.8705 32.5787 27.8019 32.5496 27.7513 32.4976C 27.7007 32.4457 27.6723 32.3753 27.6723 32.3019L 27.6723 24.9603C 27.6723 24.8869 27.7007 24.8165 27.7513 24.7645C 27.8019 24.7126 27.8705 24.6835 27.942 24.6835L 32.058 24.6835C 32.1295 24.6835 32.1981 24.7126 32.2487 24.7645C 32.2993 24.8165 32.3277 24.8869 32.3277 24.9603L 32.3231 32.3019ZM 58.6001 28.402C 58.6001 28.8451 58.4286 29.27 58.1233 29.5833C 57.8181 29.8967 57.404 30.0727 56.9723 30.0727L 33.7183 30.0727L 33.7183 24.9603C 33.7183 24.5071 33.5429 24.0724 33.2307 23.7519C 32.9184 23.4315 32.4949 23.2514 32.0533 23.2514L 27.942 23.2514C 27.5004 23.2514 27.0769 23.4315 26.7647 23.7519C 26.4525 24.0724 26.277 24.5071 26.277 24.9603L 26.277 30.0727L 3.02302 30.0727C 2.59131 30.0727 2.17727 29.8967 1.87201 29.5833C 1.56674 29.27 1.39524 28.8451 1.39524 28.402L 1.39524 3.10274C 1.39524 2.65964 1.56674 2.23469 1.87201 1.92137C 2.17727 1.60805 2.59131 1.43203 3.02302 1.43203L 56.9723 1.43203C 57.404 1.43203 57.8181 1.60805 58.1233 1.92137C 58.4286 2.23469 58.6001 2.65964 58.6001 3.10274L 58.6001 28.402Z"/>
<path id="path17_fill" d="M 1.97659 4.05742C 1.58566 4.05742 1.20351 3.93844 0.878458 3.71552C 0.553409 3.49261 0.300064 3.17577 0.15046 2.80507C 0.00085691 2.43437 -0.0382873 2.02646 0.0379799 1.63293C 0.114247 1.2394 0.3025 0.877917 0.578931 0.594197C 0.855362 0.310476 1.20756 0.117261 1.59098 0.0389828C 1.9744 -0.0392955 2.37183 0.000877244 2.733 0.154426C 3.09418 0.307974 3.40288 0.567999 3.62007 0.901619C 3.83726 1.23524 3.95318 1.62747 3.95318 2.02871C 3.95318 2.56676 3.74494 3.08277 3.37425 3.46323C 3.00357 3.84369 2.50082 4.05742 1.97659 4.05742ZM 1.97659 0.954688C 1.76963 0.954688 1.56731 1.01768 1.39523 1.1357C 1.22314 1.25371 1.08902 1.42145 1.00982 1.6177C 0.930615 1.81395 0.909891 2.02991 0.950268 2.23825C 0.990644 2.44659 1.09031 2.63796 1.23665 2.78816C 1.383 2.93837 1.56946 3.04066 1.77245 3.0821C 1.97543 3.12354 2.18583 3.10227 2.37704 3.02098C 2.56825 2.93969 2.73168 2.80203 2.84667 2.62541C 2.96165 2.44878 3.02302 2.24113 3.02302 2.02871C 3.02302 1.74386 2.91277 1.47068 2.71653 1.26926C 2.52029 1.06785 2.25412 0.954688 1.97659 0.954688Z"/>
</defs>
</svg>
