<svg width="53" height="68" viewBox="0 0 53 68" version="1.1" xmlns="http://www.w3.org/2000/svg" xmlns:xlink="http://www.w3.org/1999/xlink">
<title>Vector</title>
<desc>Created using Figma</desc>
<g id="Canvas" transform="translate(-12864 -181)">
<g id="Vector">
<use xlink:href="#path0_fill" transform="translate(12864 181)"/>
</g>
</g>
<defs>
<path id="path0_fill" d="M 47.9865 5.78727L 38.6758 5.78727L 38.6758 1.44685C 38.6756 0.651063 38.0312 0 37.2433 0L 15.9859 0C 14.3244 0 14.3244 1.47574 14.3244 2.89357L 14.3244 5.78714L 5.64382 5.78714C 2.52117 5.78714 2.45893e-08 8.33347 2.45893e-08 11.4876L 2.45893e-08 28.0825C 2.45893e-08 29.8187 1.18887 31.3233 2.86482 31.7285L 2.86482 66.5531C 2.86482 67.3489 3.50941 68 4.29729 68L 48.7027 68C 49.4906 68 50.1352 67.3489 50.1352 66.5531L 50.1352 31.5837C 51.8397 30.9906 53 29.3701 53 27.5472L 53 10.851C 53 8.05867 50.751 5.78727 47.9865 5.78727ZM 17.1892 2.89357L 35.8108 2.89357L 35.8108 5.78714L 17.1892 5.78714L 17.1892 2.89357ZM 40.1081 65.1063L 12.8919 65.1063L 12.8919 54.9786L 34.3783 54.9786L 34.3783 57.8722C 34.3783 58.668 35.0229 59.319 35.8108 59.319C 36.5987 59.319 37.2433 58.668 37.2433 57.8722L 37.2433 54.9786L 40.1081 54.9786L 40.1081 65.1063ZM 40.1081 52.085L 12.8919 52.085L 12.8919 48.1932C 12.8919 46.4715 14.5249 44.851 16.2438 44.851L 36.7705 44.851C 38.4894 44.851 40.1224 46.4859 40.1224 48.1932L 40.1224 52.085L 40.1081 52.085ZM 47.2705 65.1063L 47.2702 65.1063L 42.9729 65.1063L 42.9729 48.1932C 42.9729 44.8656 40.0651 41.9575 36.7562 41.9575L 16.2439 41.9575C 12.935 41.9575 10.0272 44.8801 10.0272 48.1932L 10.0272 65.1063L 5.72977 65.1063L 5.72977 31.8298L 11.4595 31.8298L 11.4595 34.7234C 11.4595 35.5191 12.1041 36.1702 12.892 36.1702L 17.1893 36.1702C 17.9772 36.1702 18.6218 35.5191 18.6218 34.7234L 18.6218 31.8298L 34.3785 31.8298L 34.3785 34.7234C 34.3785 35.5191 35.0231 36.1702 35.811 36.1702L 40.1083 36.1702C 40.8961 36.1702 41.5407 35.5191 41.5407 34.7234L 41.5407 31.8298L 47.2705 31.8298L 47.2705 65.1063ZM 14.3244 33.2765L 14.3244 24.5957L 15.7568 24.5957L 15.7568 33.2765L 14.3244 33.2765ZM 37.2433 33.2765L 37.2433 24.5957L 38.6758 24.5957L 38.6758 33.2765L 37.2433 33.2765ZM 50.1352 27.5328C 50.1352 28.2995 49.5192 28.9362 48.7457 28.9362L 41.5406 28.9362L 41.5406 23.149C 41.5406 22.3532 40.896 21.7021 40.1081 21.7021L 35.8108 21.7021C 35.0229 21.7021 34.3783 22.3532 34.3783 23.149L 34.3783 28.9362L 18.6217 28.9362L 18.6217 23.149C 18.6217 22.3532 17.9771 21.7021 17.1892 21.7021L 12.8919 21.7021C 12.104 21.7021 11.4594 22.3532 11.4594 23.149L 11.4594 28.9362L 3.71018 28.9362C 3.23747 28.9362 2.86509 28.5601 2.86509 28.0827L 2.86509 11.4876C 2.86495 9.93956 4.1113 8.68084 5.64382 8.68084L 47.9865 8.68084C 49.1754 8.68084 50.1352 9.65024 50.1352 10.851L 50.1352 27.5328Z"/>
</defs>
</svg>
