<svg width="72" height="58" viewBox="0 0 72 58" version="1.1" xmlns="http://www.w3.org/2000/svg" xmlns:xlink="http://www.w3.org/1999/xlink">
<title>Group</title>
<desc>Created using Figma</desc>
<g id="Canvas" transform="translate(-12600 -191)">
<g id="Group">
<g id="Vector">
<use xlink:href="#path0_fill" transform="matrix(1 0 0 -1 12662.4 221.208)"/>
</g>
<g id="Vector">
<use xlink:href="#path1_fill" transform="matrix(1 0 0 -1 12600 249)"/>
</g>
<g id="Vector">
<use xlink:href="#path2_fill" transform="matrix(1 0 0 -1 12604.8 244.167)"/>
</g>
<g id="Vector">
<use xlink:href="#path3_fill" transform="matrix(1 0 0 -1 12649.2 203.084)"/>
</g>
<g id="Vector">
<use xlink:href="#path4_fill" transform="matrix(1 0 0 -1 12625.2 229.667)"/>
</g>
</g>
</g>
<defs>
<path id="path0_fill" d="M 1.19995 -6.74128e-07C 0.536342 -6.74128e-07 1.23596e-06 0.541343 1.23596e-06 1.20829C 1.23596e-06 1.87523 0.536342 2.41657 1.19995 2.41657C 1.86356 2.41657 2.3999 1.87523 2.3999 1.20829C 2.3999 0.541343 1.86356 -6.74128e-07 1.19995 -6.74128e-07Z"/>
<path id="path1_fill" d="M 69.5998 22.9583L 69.5998 3.625C 69.5998 1.62644 67.9846 1.08033e-07 65.9998 1.08033e-07L 6.00004 1.08033e-07C 2.69156 1.08033e-07 0 2.71025 0 6.04171L 0 51.9584C 0 55.2897 2.69156 58 6.00004 58L 66 58C 67.9847 58 69.6 56.3736 69.6 54.375L 69.6 35.0417C 70.9235 35.0417 72 33.9579 72 32.625L 72 25.375C 71.9999 24.0422 70.9235 22.9583 69.5998 22.9583ZM 67.1999 54.375C 67.1999 55.0408 66.6623 55.5833 66 55.5833L 6.00004 55.5833C 4.01526 55.5833 2.40004 53.9568 2.40004 51.9583L 2.40004 6.04171C 2.40004 4.04315 4.01526 2.41671 6.00004 2.41671L 66 2.41671C 66.6623 2.41671 67.1999 2.95919 67.1999 3.625L 67.1999 22.9583L 63.8064 22.9583L 63.5999 22.9583C 60.6932 22.9583 58.2634 25.0506 57.716 27.8179C 57.7011 27.8917 57.6885 27.966 57.6764 28.0406C 57.674 28.0561 57.6708 28.0712 57.6685 28.0867C 57.6521 28.1937 57.6379 28.3013 57.6276 28.4102C 57.6218 28.4714 57.619 28.5327 57.6151 28.5939C 57.6125 28.6313 57.6092 28.6685 57.6073 28.706C 57.6054 28.7498 57.6051 28.7934 57.6041 28.8372C 57.6027 28.8914 57.6 28.9453 57.6 28.9999C 57.6 29.0119 57.6009 29.0236 57.6009 29.0355C 57.601 29.0538 57.602 29.0721 57.6023 29.0903C 57.6148 29.9388 57.8018 30.7451 58.1289 31.4752C 58.1327 31.4837 58.1365 31.4922 58.1405 31.5007C 58.175 31.577 58.2112 31.6525 58.2487 31.727C 58.2622 31.754 58.2759 31.7809 58.2898 31.8077C 58.3174 31.8602 58.3458 31.9122 58.3747 31.9639C 58.4002 32.0095 58.4258 32.0548 58.4525 32.0998C 58.4692 32.128 58.4865 32.1556 58.5038 32.1835C 58.5433 32.2479 58.5837 32.3118 58.6256 32.3746C 58.6263 32.3758 58.627 32.3768 58.6279 32.3778C 58.7882 32.6176 58.9649 32.8475 59.1601 33.0635C 59.4184 33.3499 59.7032 33.6069 60.0071 33.8354C 60.0101 33.8375 60.0129 33.8398 60.0157 33.8419C 60.0807 33.8906 60.1467 33.9378 60.2135 33.9837C 60.2344 33.9981 60.2552 34.0124 60.2761 34.0266C 60.3291 34.0621 60.3827 34.0967 60.4369 34.1305C 60.475 34.1544 60.5135 34.1779 60.5522 34.201C 60.5925 34.225 60.633 34.2486 60.6738 34.2715C 60.7298 34.3031 60.7863 34.3336 60.8434 34.3634C 60.8703 34.3775 60.8968 34.3915 60.9238 34.4051C 60.9977 34.4423 61.0725 34.4777 61.148 34.512C 61.1605 34.5176 61.173 34.5236 61.1857 34.5291C 61.9249 34.8578 62.7414 35.0417 63.6001 35.0417L 67.2001 35.0417L 67.2001 54.375L 67.1999 54.375ZM 68.3999 32.625L 63.5999 32.625C 63.5368 32.625 63.4738 32.6233 63.4111 32.62C 63.4081 32.6199 63.4052 32.6195 63.4021 32.6193C 63.0906 32.6019 62.7846 32.5441 62.4917 32.4484C 62.4911 32.4483 62.4905 32.448 62.4901 32.4479C 62.4336 32.4294 62.3776 32.4093 62.3222 32.3882C 62.3145 32.3853 62.3069 32.382 62.2991 32.379C 62.2519 32.3606 62.2051 32.3412 62.1587 32.3207C 62.1435 32.3139 62.1283 32.307 62.1132 32.3C 62.076 32.283 62.0389 32.2653 62.0023 32.2471C 61.9791 32.2355 61.956 32.2234 61.9331 32.2114C 61.9062 32.1972 61.8795 32.1828 61.8531 32.1679C 61.822 32.1505 61.7912 32.1326 61.7607 32.1144C 61.7442 32.1045 61.7278 32.0944 61.7115 32.0844C 61.6729 32.0603 61.6347 32.0359 61.5971 32.0105C 61.591 32.0062 61.5848 32.002 61.5786 31.9977C 60.6751 31.3779 60.0648 30.3556 60.005 29.1889C 60.0047 29.1825 60.0047 29.176 60.0044 29.1696C 60.0019 29.1148 60.0004 29.0599 60.0002 29.0045C 60.0002 28.9926 60.0008 28.9807 60.0009 28.969C 60.0013 28.9173 60.0022 28.8658 60.0049 28.8146C 60.005 28.8125 60.0051 28.8104 60.0053 28.8083C 60.0147 28.6263 60.0376 28.4478 60.0729 28.2737C 60.0762 28.258 60.0799 28.2426 60.0835 28.2269C 60.0905 28.1943 60.0978 28.162 60.1058 28.1297C 60.509 26.5497 62.0408 25.3749 63.8066 25.3749L 68.3999 25.3749L 69.5998 25.3749L 69.6011 32.6249L 68.3999 32.6249L 68.3999 32.625Z"/>
<path id="path2_fill" d="M 6.00004 45.9166C 4.01526 45.9166 2.40004 44.2901 2.40004 42.2916L 2.40004 6.04157C 2.40004 4.04301 4.01526 2.41657 6.00004 2.41657L 58.8 2.41657C 59.4636 2.41657 59.9999 1.87523 59.9999 1.20829C 59.9999 0.541342 59.4636 -5.1856e-08 58.8 -5.1856e-08L 6.00004 -5.1856e-08C 2.6917 -5.1856e-08 -8.1539e-08 2.71025 -8.1539e-08 6.04171L -8.1539e-08 42.2917C -8.1539e-08 45.623 2.69156 48.3334 6.00004 48.3334L 58.8 48.3334C 59.4636 48.3334 59.9999 47.7921 59.9999 47.1251C 59.9999 46.4582 59.4636 45.9169 58.8 45.9169L 6.00004 45.9169L 6.00004 45.9166Z"/>
<path id="path3_fill" d="M 1.19995 1.48654e-06C 0.536342 1.48654e-06 6.1798e-07 0.541343 6.1798e-07 1.20829C 6.1798e-07 1.87523 0.536342 2.41657 1.19995 2.41657L 5.99989 2.41657C 6.6635 2.41657 7.19985 1.87523 7.19985 1.20829C 7.19985 0.541343 6.6635 1.48654e-06 5.99989 1.48654e-06L 1.19995 1.48654e-06Z"/>
<path id="path4_fill" d="M 19.143 7.81782C 19.0051 7.37432 18.6247 7.05048 18.1674 6.98535L 12.987 6.24944L 10.7071 0.743124C 10.521 0.293681 10.0831 -9.16123e-07 9.59953 -9.16123e-07C 9.11592 -9.16123e-07 8.67788 0.293681 8.49197 0.743124L 6.21202 6.24944L 1.03169 6.98535C 0.574514 7.05062 0.194126 7.37447 0.0560323 7.81782C -0.0831862 8.26132 0.0416883 8.74588 0.378766 9.06363L 4.19602 12.662L 3.32963 17.9268C 3.25046 18.4076 3.46646 18.8898 3.87568 19.1496C 4.28842 19.4082 4.81294 19.3925 5.20768 19.111L 9.59967 15.9802L 13.9917 19.111C 14.1992 19.2584 14.4417 19.3333 14.6852 19.3333C 14.906 19.3333 15.1268 19.2717 15.3237 19.1496C 15.7329 18.8898 15.9489 18.4076 15.8697 17.9268L 15.0033 12.662L 18.8206 9.06363C 19.1575 8.74588 19.2822 8.26132 19.143 7.81782ZM 12.8935 11.3389C 12.6007 11.6156 12.4652 12.0204 12.5299 12.4192L 13.0315 15.4654L 10.2931 13.514C 10.0843 13.3653 9.84197 13.2917 9.59953 13.2917C 9.35709 13.2917 9.1148 13.3655 8.90597 13.514L 6.16758 15.4654L 6.66919 12.4192C 6.73402 12.0204 6.59846 11.6156 6.30554 11.3389L 3.85037 9.02611L 7.2248 8.54636C 7.64358 8.48717 8.00119 8.20921 8.16445 7.81527L 9.59967 4.34858L 11.0349 7.81527C 11.1982 8.20921 11.5556 8.48717 11.9745 8.54636L 15.349 9.02611L 12.8935 11.3389Z"/>
</defs>
</svg>
