<svg width="60" height="57" viewBox="0 0 60 57" version="1.1" xmlns="http://www.w3.org/2000/svg" xmlns:xlink="http://www.w3.org/1999/xlink">
<title>trends</title>
<desc>Created using Figma</desc>
<g id="Canvas" transform="translate(-194 -33)">
<g id="trends">
<g id="Vector">
<use xlink:href="#path0_fill" transform="translate(222.62 33)"/>
</g>
<g id="Vector">
<use xlink:href="#path1_fill" transform="translate(224.934 37.9171)"/>
</g>
<g id="Vector">
<use xlink:href="#path2_fill" transform="translate(231.326 50.7553)"/>
</g>
<g id="Vector">
<use xlink:href="#path3_fill" transform="translate(236.379 52.0755)"/>
</g>
<g id="Vector">
<use xlink:href="#path4_fill" transform="translate(250.579 54.1509)"/>
</g>
<g id="Vector">
<use xlink:href="#path5_fill" transform="translate(240.235 57.1549)"/>
</g>
<g id="Vector">
<use xlink:href="#path6_fill" transform="translate(237.181 67.2129)"/>
</g>
<g id="Vector">
<use xlink:href="#path7_fill" transform="translate(237.903 72.3537)"/>
</g>
<g id="Vector">
<use xlink:href="#path8_fill" transform="translate(239.772 86.4841)"/>
</g>
<g id="Vector">
<use xlink:href="#path9_fill" transform="translate(226.978 79.9056)"/>
</g>
<g id="Vector">
<use xlink:href="#path10_fill" transform="translate(222.36 77.9869)"/>
</g>
<g id="Vector">
<use xlink:href="#path11_fill" transform="translate(209.572 79.9056)"/>
</g>
<g id="Vector">
<use xlink:href="#path12_fill" transform="translate(205.461 86.4841)"/>
</g>
<g id="Vector">
<use xlink:href="#path13_fill" transform="translate(206.37 72.3705)"/>
</g>
<g id="Vector">
<use xlink:href="#path14_fill" transform="translate(208.307 67.2129)"/>
</g>
<g id="Vector">
<use xlink:href="#path15_fill" transform="translate(197.958 57.1549)"/>
</g>
<g id="Vector">
<use xlink:href="#path16_fill" transform="translate(194 54.1509)"/>
</g>
<g id="Vector">
<use xlink:href="#path17_fill" transform="translate(199.482 52.0755)"/>
</g>
<g id="Vector">
<use xlink:href="#path18_fill" transform="translate(213.772 50.7553)"/>
</g>
<g id="Vector">
<use xlink:href="#path19_fill" transform="translate(216.223 37.9171)"/>
</g>
</g>
</g>
<defs>
<path id="path0_fill" d="M 1.51312 3.52421L 1.38327 3.45709L 1.24777 3.52421L 1.16308 3.3508L 2.06763e-06 2.78021L 1.38327 1.92054e-07L 2.76654 2.78021L 1.60346 3.3508L 1.51312 3.52421Z"/>
<path id="path1_fill" d="M 5.32418 11.4397L 4.25708 9.30281L 5.77585 8.55881L 6.84295 10.6957L 5.32418 11.4397ZM 3.19563 7.16031L 2.12854 5.0234L 3.66425 4.2794L 4.73134 6.41631L 3.19563 7.16031ZM 1.06709 2.88091L 1.20611e-06 0.744001L 1.51877 1.70715e-07L 2.58586 2.1369L 1.06709 2.88091Z"/>
<path id="path2_fill" d="M 2.65927 2.65715L 0.818669 2.39423L 1.03381e-06 0.738407L 1.51877 5.97503e-07L 1.94787 0.85588L 2.90204 0.99573L 2.65927 2.65715Z"/>
<path id="path3_fill" d="M 11.9018 3.39555L 9.51915 3.05432L 9.76193 1.37612L 12.1445 1.71736L 11.9018 3.39555ZM 7.13654 2.70749L 4.75393 2.36626L 4.99671 0.688061L 7.37932 1.0293L 7.13654 2.70749ZM 2.38261 2.01943L -6.89209e-07 1.6782L 0.242777 9.38933e-07L 2.62539 0.341233L 2.38261 2.01943Z"/>
<path id="path4_fill" d="M 1.18001 2.6068L 0.276653 1.68939L 0.084691 1.66141L 0.107275 1.51597L 1.72302e-07 1.40969L 0.14115 1.26984L 0.327469 4.26788e-07L 3.42147 0.447519L 1.18001 2.6068Z"/>
<path id="path5_fill" d="M 1.18001 9.59369L 3.44604e-07 8.39099L 1.72203 6.71279L 2.90204 7.9155L 1.18001 9.59369ZM 4.62972 6.2373L 3.4497 5.03459L 5.17173 3.35639L 6.35175 4.5591L 4.62972 6.2373ZM 8.07942 2.88091L 6.89941 1.6782L 8.62144 -1.70715e-07L 9.81839 1.26984L 8.07942 2.88091Z"/>
<path id="path6_fill" d="M 0.316177 3.09907L -1.72302e-06 1.28662L 1.33245 1.70715e-06L 2.51247 1.20271L 1.81801 1.86839L 1.98174 2.81378L 0.316177 3.09907Z"/>
<path id="path7_fill" d="M 2.03256 12.0606L 1.62605 9.71117L 3.31985 9.42587L 3.72636 11.7754L 2.03256 12.0606ZM 1.21953 7.3561L 0.813022 5.00662L 2.50682 4.72133L 2.91333 7.0708L 1.21953 7.3561ZM 0.40651 2.65714L 1.89532e-06 0.285294L 1.6938 -1.19501e-06L 2.10031 2.34948L 0.40651 2.65714Z"/>
<path id="path8_fill" d="M 2.76654 3.05432L 5.16906e-07 1.61107L 0.604122 0.475488L 0.570247 0.285295L 0.71704 0.257323L 0.790441 0.128664L 0.965465 0.218165L 2.24146 0L 2.76654 3.05432Z"/>
<path id="path9_fill" d="M 10.654 7.08199L 8.52546 5.96319L 9.31589 4.47519L 11.4444 5.59399L 10.654 7.08199ZM 6.39127 4.8444L 4.26273 3.7256L 5.05881 2.24319L 7.18735 3.36199L 6.39127 4.8444ZM 2.12854 2.6068L -1.55072e-06 1.488L 0.790439 -1.19501e-06L 2.91898 1.1188L 2.12854 2.6068Z"/>
<path id="path10_fill" d="M 2.49553 2.33829L 1.64299 1.89636L 0.784791 2.33829L 4.30755e-07 0.855878L 1.64299 -1.36572e-06L 3.28597 0.855878L 2.49553 2.33829Z"/>
<path id="path11_fill" d="M 0.79044 7.08199L -4.30755e-07 5.59958L 2.12854 4.48079L 2.91898 5.96319L 0.79044 7.08199ZM 5.05317 4.8444L 4.26273 3.36199L 6.39127 2.24319L 7.17042 3.74798L 5.05317 4.8444ZM 9.31589 2.6068L 8.52546 1.1188L 10.654 -1.19501e-06L 11.4444 1.488L 9.31589 2.6068Z"/>
<path id="path12_fill" d="M 2.58453e-07 3.05432L 0.525078 0L 1.80672 0.218165L 1.98174 0.128664L 2.0495 0.257323L 2.19629 0.285295L 2.16242 0.475488L 2.76654 1.61107L 2.58453e-07 3.05432Z"/>
<path id="path13_fill" d="M 1.6938 12.0439L 6.03057e-07 11.7586L 0.406511 9.40909L 2.10031 9.69438L 1.6938 12.0439ZM 2.50682 7.33932L 0.813023 7.05402L 1.21954 4.70455L 2.91333 4.98984L 2.50682 7.33932ZM 3.31984 2.63477L 1.62605 2.34948L 2.03256 -1.87787e-06L 3.72636 0.285293L 3.31984 2.63477Z"/>
<path id="path14_fill" d="M 2.20194 3.09907L 0.530724 2.81378L 0.694458 1.86839L 7.7536e-07 1.20271L 1.18566 1.70715e-06L 2.51247 1.28662L 2.20194 3.09907Z"/>
<path id="path15_fill" d="M 8.62144 9.59369L 6.92764 7.93228L 8.10765 6.72957L 9.82968 8.40777L 8.62144 9.59369ZM 5.17173 6.2373L 3.4497 4.5591L 4.62972 3.35639L 6.35175 5.03459L 5.17173 6.2373ZM 1.72203 2.88091L -2.58453e-07 1.20271L 1.18001 -1.70715e-07L 2.90204 1.6782L 1.72203 2.88091Z"/>
<path id="path16_fill" d="M 2.24146 2.6068L 1.50764e-07 0.447519L 3.09965 4.26788e-07L 3.28597 1.26984L 3.42147 1.40969L 3.31985 1.51597L 3.34243 1.66141L 3.14482 1.68939L 2.24146 2.6068Z"/>
<path id="path17_fill" d="M 0.242778 3.39555L 1.72302e-07 1.71736L 2.38261 1.37612L 2.62539 3.05432L 0.242778 3.39555ZM 5.008 2.70749L 4.76522 1.0293L 7.14783 0.688061L 7.39061 2.36626L 5.008 2.70749ZM 9.77322 2.01943L 9.53044 0.341233L 11.9131 9.38933e-07L 12.1558 1.6782L 9.77322 2.01943Z"/>
<path id="path18_fill" d="M 0.242777 2.65715L 9.47662e-07 0.99573L 0.959819 0.85588L 1.38892 5.97503e-07L 2.90204 0.738407L 2.08337 2.39423L 0.242777 2.65715Z"/>
<path id="path19_fill" d="M 1.51877 11.4397L 1.03381e-06 10.6957L 1.08403 8.55881L 2.6028 9.30281L 1.51877 11.4397ZM 3.64731 7.16031L 2.12854 6.41631L 3.19563 4.2794L 4.71441 5.0234L 3.64731 7.16031ZM 5.77586 2.88091L 4.25708 2.1369L 5.32417 1.70715e-07L 6.84295 0.744001L 5.77586 2.88091Z"/>
</defs>
</svg>
