<svg width="60" height="44" viewBox="0 0 60 44" version="1.1" xmlns="http://www.w3.org/2000/svg" xmlns:xlink="http://www.w3.org/1999/xlink">
<title>wallet</title>
<desc>Created using Figma</desc>
<g id="Canvas" transform="translate(229 -40)">
<g id="wallet">
<g id="Vector">
<use xlink:href="#path0_fill" transform="translate(-178.67 44.1704)"/>
</g>
<g id="Vector">
<use xlink:href="#path1_fill" transform="translate(-220.628 75.1054)"/>
</g>
<g id="Vector">
<use xlink:href="#path2_fill" transform="translate(-220.628 44.1696)"/>
</g>
<g id="Vector">
<use xlink:href="#path3_fill" transform="translate(-211.353 77.5335)"/>
</g>
<g id="Vector">
<use xlink:href="#path4_fill" transform="translate(-189.567 77.5335)"/>
</g>
<g id="Vector">
<use xlink:href="#path5_fill" transform="translate(-200.451 44.1704)"/>
</g>
<g id="Vector">
<use xlink:href="#path6_fill" transform="translate(-189.558 44.1704)"/>
</g>
<g id="Vector">
<use xlink:href="#path7_fill" transform="translate(-211.34 44.1704)"/>
</g>
<g id="Vector">
<use xlink:href="#path8_fill" transform="translate(-200.46 77.5335)"/>
</g>
<g id="Vector">
<use xlink:href="#path9_fill" transform="translate(-178.67 77.5335)"/>
</g>
<g id="Vector">
<use xlink:href="#path10_fill" transform="translate(-229 40)"/>
</g>
<g id="Vector">
<use xlink:href="#path11_fill" transform="translate(-223.033 58.4516)"/>
</g>
</g>
</g>
<defs>
<path id="path0_fill" d="M 2.7907 0L 0 0L 0 1.39013L 2.7907 1.39013L 2.7907 0Z"/>
<path id="path1_fill" d="M 1.39535 1.26965L 1.39535 -7.07056e-07L 0 -7.07056e-07L 0 1.26965C 0.0182702 1.96326 0.312166 2.62129 0.81712 3.09915C 1.32207 3.57702 1.99678 3.83565 2.69302 3.81822L 3.83256 3.81822L 3.83256 2.42809L 2.69302 2.42809C 2.36709 2.44454 2.04783 2.33203 1.80477 2.11506C 1.56172 1.89808 1.41456 1.59422 1.39535 1.26965Z"/>
<path id="path2_fill" d="M 1.65243e-15 2.54939L 1.65243e-15 3.80978L 1.39535 3.80978L 1.39535 2.54939C 1.41456 2.22483 1.56172 1.92096 1.80477 1.70399C 2.04783 1.48701 2.36709 1.3745 2.69302 1.39096L 3.84651 1.39096L 3.84651 0.000827399L 2.69302 0.000827399C 1.99679 -0.0166042 1.32207 0.242024 0.81712 0.719891C 0.312166 1.19776 0.0182702 1.85578 1.65243e-15 2.54939Z"/>
<path id="path3_fill" d="M 5.44651 0L 0 0L 0 1.39013L 5.44651 1.39013L 5.44651 0Z"/>
<path id="path4_fill" d="M 5.44651 0L 0 0L 0 1.39013L 5.44651 1.39013L 5.44651 0Z"/>
<path id="path5_fill" d="M 5.44651 0L 0 0L 0 1.39013L 5.44651 1.39013L 5.44651 0Z"/>
<path id="path6_fill" d="M 5.44651 0L 0 0L 0 1.39013L 5.44651 1.39013L 5.44651 0Z"/>
<path id="path7_fill" d="M 5.44651 0L 0 0L 0 1.39013L 5.44651 1.39013L 5.44651 0Z"/>
<path id="path8_fill" d="M 5.44651 0L 0 0L 0 1.39013L 5.44651 1.39013L 5.44651 0Z"/>
<path id="path9_fill" d="M 2.7907 0L 0 0L 0 1.39013L 2.7907 1.39013L 2.7907 0Z"/>
<path id="path10_fill" d="M 56.9767 7.07055e-08L 7.2093 7.07055e-08C 6.40786 0.00122561 5.6396 0.318948 5.0729 0.883531C 4.50619 1.44811 4.18728 2.2135 4.18605 3.01194L 4.18605 16.6815L 2.03256 16.6815C 1.49306 16.6828 0.976085 16.8971 0.595039 17.2776C 0.213994 17.6581 -1.40608e-06 18.1736 6.92914e-12 18.7111L 6.92909e-12 24.3875C -1.40608e-06 24.9249 0.213994 25.4405 0.595039 25.821C 0.976085 26.2015 1.49306 26.4158 2.03256 26.4171L 4.18605 26.4171L 4.18605 40.0866C 4.18728 40.8851 4.50619 41.6505 5.0729 42.2151C 5.6396 42.7796 6.40786 43.0974 7.2093 43.0986L 56.9767 43.0986C 57.7782 43.0974 58.5464 42.7796 59.1131 42.2151C 59.6799 41.6505 59.9988 40.8851 60 40.0866L 60 3.01658C 60 2.21733 59.6816 1.45076 59.1148 0.885172C 58.548 0.319587 57.779 0.00122779 56.9767 7.07055e-08ZM 1.39535 24.3875L 1.39535 18.7111C 1.39658 18.5423 1.46474 18.3809 1.58498 18.2619C 1.70522 18.143 1.86778 18.0763 2.03721 18.0763L 11.9163 18.0763C 12.0857 18.0763 12.2483 18.143 12.3685 18.2619C 12.4887 18.3809 12.5569 18.5423 12.5581 18.7111L 12.5581 24.3875C 12.5581 24.5563 12.4912 24.7182 12.3718 24.838C 12.2524 24.9578 12.0904 25.0257 11.9209 25.0269L 2.03256 25.0269C 1.86313 25.0257 1.70107 24.9578 1.5817 24.838C 1.46233 24.7182 1.39534 24.5563 1.39535 24.3875ZM 58.6047 40.0866C 58.6047 40.5168 58.4331 40.9293 58.1278 41.2334C 57.8226 41.5376 57.4085 41.7085 56.9767 41.7085L 7.2093 41.7085C 6.77755 41.7085 6.36349 41.5376 6.0582 41.2334C 5.75291 40.9293 5.5814 40.5168 5.5814 40.0866L 5.5814 26.4124L 8.37209 26.4124L 8.37209 29.6561L 9.76744 29.6561L 9.76744 26.4124L 11.9209 26.4124C 12.4596 26.4112 12.9759 26.1975 13.3568 25.818C 13.7377 25.4385 13.9523 24.9241 13.9535 24.3875L 13.9535 18.7111C 13.9523 18.1744 13.7377 17.6601 13.3568 17.2806C 12.9759 16.9011 12.4596 16.6874 11.9209 16.6862L 9.76744 16.6862L 9.76744 13.4055L 8.37209 13.4055L 8.37209 16.6815L 5.5814 16.6815L 5.5814 3.01194C 5.5814 2.58181 5.75291 2.1693 6.0582 1.86515C 6.36349 1.561 6.77755 1.39013 7.2093 1.39013L 56.9767 1.39013C 57.4085 1.39013 57.8226 1.561 58.1278 1.86515C 58.4331 2.1693 58.6047 2.58181 58.6047 3.01194L 58.6047 40.0866Z"/>
<path id="path11_fill" d="M 3.10233 6.18144C 2.48874 6.18144 1.88894 6.00017 1.37877 5.66055C 0.868592 5.32094 0.47096 4.83824 0.236152 4.27349C 0.00134429 3.70873 -0.0600921 3.08729 0.0596118 2.48775C 0.179316 1.88821 0.474784 1.3375 0.908652 0.905252C 1.34252 0.473007 1.8953 0.178645 2.49709 0.0593887C 3.09889 -0.0598673 3.72266 0.00133968 4.28954 0.235269C 4.85641 0.469198 5.34093 0.865343 5.68182 1.37361C 6.0227 1.88187 6.20465 2.47943 6.20465 3.09072C 6.20465 3.4966 6.12441 3.8985 5.9685 4.27349C 5.8126 4.64847 5.58408 4.98919 5.296 5.27619C 5.00792 5.56319 4.66593 5.79085 4.28954 5.94617C 3.91314 6.10149 3.50973 6.18144 3.10233 6.18144ZM 3.10233 1.39476C 2.76472 1.39476 2.43469 1.4945 2.15398 1.68136C 1.87327 1.86823 1.65448 2.13382 1.52529 2.44457C 1.39609 2.75531 1.36229 3.09724 1.42815 3.42712C 1.49401 3.757 1.65659 4.06002 1.89531 4.29785C 2.13404 4.53568 2.43819 4.69765 2.76931 4.76327C 3.10043 4.82888 3.44365 4.79521 3.75556 4.66649C 4.06747 4.53778 4.33406 4.31981 4.52163 4.04015C 4.70919 3.76049 4.8093 3.4317 4.8093 3.09535C 4.80807 2.64513 4.62769 2.21377 4.3077 1.89585C 3.98771 1.57793 3.55424 1.39939 3.10233 1.3994L 3.10233 1.39476Z"/>
</defs>
</svg>
