<svg width="17" height="17" viewBox="0 0 17 17" version="1.1" xmlns="http://www.w3.org/2000/svg" xmlns:xlink="http://www.w3.org/1999/xlink">
<title>Vector</title>
<desc>Created using Figma</desc>
<g id="Canvas" transform="translate(-5344 -157)">
<g id="Vector">
<use xlink:href="#path0_fill" transform="translate(5344 157)"/>
</g>
</g>
<defs>
<path id="path0_fill" d="M 4.62778 6.70556L 3.30556 8.02778L 7.55556 12.2778L 17 2.83333L 15.6778 1.51111L 7.55556 9.63333L 4.62778 6.70556ZM 15.1111 15.1111L 1.88889 15.1111L 1.88889 1.88889L 11.3333 1.88889L 11.3333 0L 1.88889 0C 0.85 0 0 0.85 0 1.88889L 0 15.1111C 0 16.15 0.85 17 1.88889 17L 15.1111 17C 16.15 17 17 16.15 17 15.1111L 17 7.55556L 15.1111 7.55556L 15.1111 15.1111Z"/>
</defs>
</svg>
