<svg width="19" height="18" viewBox="0 0 19 18" version="1.1" xmlns="http://www.w3.org/2000/svg" xmlns:xlink="http://www.w3.org/1999/xlink">
<title>Vector</title>
<desc>Created using Figma</desc>
<g id="Canvas" transform="translate(3155 1184)">
<g id="Vector">
<use xlink:href="#path0_fill" transform="translate(-3155 -1184)" fill="#FFFFFF"/>
</g>
</g>
<defs>
<path id="path0_fill" d="M 18.926 4.56566L 16.4788 1.57576C 15.9188 1.63636 15.3796 1.67677 14.8196 1.67677C 11.1073 1.67677 9.46889 0 9.46889 0C 9.42741 0.040404 7.83049 1.67677 4.18037 1.67677C 3.62041 1.67677 3.08119 1.63636 2.52123 1.57576L 0.0739957 4.56566C 7.12535 7.9596 -0.838533 12.3232 0.0739957 13.4343L 2.52123 16.4242C 3.08119 16.3636 3.64115 16.3232 4.18037 16.3232C 7.87197 16.3232 9.44815 18 9.44815 18C 9.44815 18 11.0866 16.3232 14.7989 16.3232C 15.3588 16.3232 15.9188 16.3636 16.4788 16.4242L 18.926 13.4343C 19.8385 12.3232 11.8746 7.9596 18.926 4.56566ZM 3.72411 2.70707L 4.90625 2.74747L 4.88551 3.13131L 3.72411 3.07071L 3.72411 2.70707ZM 4.38777 8.22222L 3.99372 8.24242L 3.91076 7.09091L 4.30481 7.07071L 4.38777 8.22222ZM 2.99823 2.9697L 3.30932 3.21212L 2.58345 4.12121L 2.27236 3.87879L 2.99823 2.9697ZM 2.60419 5.25253L 1.65018 4.56566L 1.87831 4.26263L 2.83232 4.94949L 2.60419 5.25253ZM 2.95676 5.57576L 3.24711 5.33333L 3.99372 6.22222L 3.70337 6.46465L 2.95676 5.57576ZM 3.30932 10.3636L 3.62041 10.5859L 2.93602 11.5152L 2.62493 11.3131L 3.30932 10.3636ZM 2.37606 11.6364L 2.68715 11.8586L 1.98201 12.7677L 1.67092 12.5455L 2.37606 11.6364ZM 2.45901 14.1414L 1.7124 13.2525L 2.00275 13.0101L 2.74936 13.899L 2.45901 14.1414ZM 3.41302 15.2727L 2.66641 14.3838L 2.95676 14.1414L 3.70337 15.0303L 3.41302 15.2727ZM 3.59967 9.87879L 3.95224 8.78788L 4.32555 8.90909L 3.97298 10L 3.59967 9.87879ZM 5.25882 15.3333L 4.07668 15.3333L 4.07668 14.9495L 5.25882 14.9495L 5.25882 15.3333ZM 5.34177 2.68687L 6.50317 2.58586L 6.54465 2.9697L 5.38325 3.07071L 5.34177 2.68687ZM 6.81426 15.5152L 5.65286 15.3535L 5.71508 14.9899L 6.87648 15.1717L 6.81426 15.5152ZM 6.79352 2.48485L 7.91345 2.14141L 8.03788 2.50505L 6.91796 2.84848L 6.79352 2.48485ZM 8.22453 16.0202L 7.14609 15.5758L 7.29127 15.2323L 8.36971 15.6768L 8.22453 16.0202ZM 8.30749 2.0202L 9.1578 1.45455L 9.32372 1.77778L 8.45267 2.34343L 8.30749 2.0202ZM 9.22002 16.5657L 8.53562 16.0808L 8.66006 15.798L 9.34446 16.2828L 9.22002 16.5657ZM 16.3129 11.3131L 16.0018 11.5354L 15.3174 10.6061L 15.6285 10.3838L 16.3129 11.3131ZM 14.9441 6.22222L 15.6907 5.33333L 15.981 5.57576L 15.2344 6.46465L 14.9441 6.22222ZM 15.11 7.07071L 15.027 8.22222L 14.633 8.20202L 14.7159 7.05051L 15.11 7.07071ZM 17.2876 4.58586L 16.3336 5.25253L 16.1055 4.94949L 17.0595 4.26263L 17.2876 4.58586ZM 15.9395 2.9697L 16.6654 3.87879L 16.3543 4.12121L 15.6285 3.21212L 15.9395 2.9697ZM 15.2759 2.70707L 15.2966 3.09091L 14.1145 3.13131L 14.0938 2.74747L 15.2759 2.70707ZM 9.71776 16.5657L 9.59333 16.2828L 10.2777 15.798L 10.4022 16.0808L 9.71776 16.5657ZM 9.63481 1.77778L 9.80072 1.45455L 10.651 2.0202L 10.4851 2.34343L 9.63481 1.77778ZM 10.7132 16.0202L 10.5681 15.6768L 11.6465 15.2323L 11.7917 15.5758L 10.7132 16.0202ZM 11.9576 2.86869L 10.8377 2.52525L 10.9621 2.16162L 12.082 2.50505L 11.9576 2.86869ZM 12.1443 15.5152L 12.082 15.1515L 13.2434 14.9697L 13.3057 15.3333L 12.1443 15.5152ZM 13.6375 3.07071L 12.4761 2.9697L 12.5176 2.58586L 13.679 2.68687L 13.6375 3.07071ZM 13.679 15.3333L 13.679 14.9495L 14.8611 14.9495L 14.8611 15.3333L 13.679 15.3333ZM 14.6952 8.90909L 15.0685 8.78788L 15.4211 9.87879L 15.0478 10L 14.6952 8.90909ZM 15.5662 15.2929L 15.2759 15.0505L 16.0225 14.1616L 16.3129 14.404L 15.5662 15.2929ZM 16.4995 14.1414L 16.2092 13.899L 16.9558 13.0101L 17.2461 13.2525L 16.4995 14.1414ZM 16.9765 12.7677L 16.2714 11.8586L 16.5825 11.6364L 17.2876 12.5455L 16.9765 12.7677Z"/>
</defs>
</svg>
