<svg width="93" height="15" viewBox="0 0 93 15" version="1.1" xmlns="http://www.w3.org/2000/svg" xmlns:xlink="http://www.w3.org/1999/xlink">
<title>Vector</title>
<desc>Created using Figma</desc>
<g id="Canvas" transform="translate(-1010 1411)">
<g id="Vector">
<use xlink:href="#path0_fill" transform="translate(1010 -1411)" fill="#FFFFFF"/>
</g>
</g>
<defs>
<path id="path0_fill" d="M 11.6 0.300002L 11.6 9.6C 11.6 11.4 11.1 12.6 10 13.4C 9 14.2 7.6 14.6 5.9 14.6C 4.1 14.6 2.7 14.2 1.6 13.5C 0.5 12.8 2.38419e-08 11.5 2.38419e-08 9.9L 2.38419e-08 0.300002L 4.4 0.300002L 4.4 9.3C 4.4 10 4.5 10.5 4.8 10.8C 5.1 11.1 5.6 11.3 6.2 11.3C 6.7 11.3 7.1 11.2 7.5 11C 7.8 10.8 8 10.5 8.1 10.2C 8.2 9.9 8.2 9.3 8.2 8.6L 8.2 0.4L 11.6 0.4L 11.6 0.300002ZM 29.3 0.300002L 29.3 14.4L 25.3 14.4L 25.3 4.3L 22.6 14.4L 19.9 14.4L 17.2 4.3L 17.2 14.4L 14 14.4L 14 0.300002L 19.6 0.300002L 21.6 7.8L 23.6 0.300002L 29.3 0.300002ZM 43.8 14.4L 40.3 14.4L 36.4 8.2C 35.9 7.4 35.4 6.4 34.9 5.3C 35.1 6.2 35.2 7 35.2 7.6L 35.2 14.4L 31.7 14.4L 31.7 0.300002L 35.8 0.300002L 39.1 5.5C 39.8 6.5 40.3 7.4 40.6 8.2C 40.4 7 40.3 5.8 40.3 4.5L 40.3 0.300002L 43.8 0.300002L 43.8 14.4ZM 50.6 0.300002L 50.6 14.4L 46.3 14.4L 46.3 0.300002L 50.6 0.300002ZM 65.7 14.4L 61 14.4L 58.6 9.1L 57.2 11.1L 57.2 14.4L 53.1 14.4L 53.1 0.300002L 57.2 0.300002L 57.2 6.1L 61.1 0.300002L 65 0.300002L 61.3 5.4L 65.7 14.4ZM 72.4 14.6C 70.4 14.6 68.8 13.9 67.6 12.6C 66.4 11.3 65.7 9.5 65.7 7.3C 65.7 5.2 66.3 3.4 67.5 2.1C 68.7 0.700001 70.4 -1.52588e-06 72.5 -1.52588e-06C 74.5 -1.52588e-06 76.1 0.699998 77.3 2C 78.5 3.3 79.2 5 79.2 7.2C 79.2 9.4 78.6 11.3 77.3 12.6C 76 13.9 74.4 14.6 72.4 14.6ZM 72.4 11.4C 73.1 11.4 73.6 11.1 74 10.4C 74.3 9.8 74.5 8.6 74.5 6.9C 74.5 4.4 73.8 3.2 72.5 3.2C 71.1 3.2 70.3 4.6 70.3 7.4C 70.4 10.1 71 11.4 72.4 11.4ZM 92.7 0.300002L 88.4 14.4L 84 14.4L 79.4 0.300002L 84 0.300002L 86.2 8C 86.3 8.5 86.5 8.9 86.6 9.3L 89.2 0.300002L 92.7 0.300002Z"/>
</defs>
</svg>
