<svg width="176" height="28" viewBox="0 0 176 28" version="1.1" xmlns="http://www.w3.org/2000/svg" xmlns:xlink="http://www.w3.org/1999/xlink">
<title>Vector</title>
<desc>Created using Figma</desc>
<g id="Canvas" transform="translate(2132 178)">
<g id="Vector">
<use xlink:href="#path0_fill" transform="translate(-2132 -178)" fill="#141515"/>
</g>
</g>
<defs>
<path id="path0_fill" d="M 22.0237 0.575348L 22.0237 18.411C 22.0237 21.863 21.0744 24.1644 18.986 25.6986C 17.0874 27.2329 14.4293 28 11.2017 28C 7.78425 28 5.12621 27.2329 3.03776 25.8904C 0.949299 24.5479 0 22.0548 0 18.9863L 0 0.575348L 8.35383 0.575348L 8.35383 17.8356C 8.35383 19.1781 8.54369 20.137 9.11327 20.7123C 9.68285 21.2877 10.6321 21.6712 11.7713 21.6712C 12.7206 21.6712 13.48 21.4794 14.2395 21.0959C 14.8091 20.7123 15.1888 20.137 15.3786 19.5616C 15.5685 18.9863 15.5685 17.8356 15.5685 16.4932L 15.5685 0.767126L 22.0237 0.767126L 22.0237 0.575348ZM 55.6289 0.575348L 55.6289 27.6164L 48.0345 27.6164L 48.0345 8.24658L 42.9083 27.6164L 37.7821 27.6164L 32.6559 8.24658L 32.6559 27.6164L 26.5804 27.6164L 26.5804 0.575348L 37.2125 0.575348L 41.0097 14.9589L 44.8069 0.575348L 55.6289 0.575348ZM 83.1586 27.6164L 76.5135 27.6164L 69.109 15.726C 68.1597 14.1918 67.2104 12.274 66.2611 10.1644C 66.6408 11.8904 66.8306 13.4247 66.8306 14.5753L 66.8306 27.6164L 60.1855 27.6164L 60.1855 0.575348L 67.9698 0.575348L 74.2352 10.5479C 75.5642 12.4658 76.5135 14.1918 77.0831 15.726C 76.7033 13.4247 76.5135 11.1233 76.5135 8.63014L 76.5135 0.575348L 83.1586 0.575348L 83.1586 27.6164ZM 96.069 0.575348L 96.069 27.6164L 87.9051 27.6164L 87.9051 0.575348L 96.069 0.575348ZM 124.738 27.6164L 115.814 27.6164L 111.258 17.4521L 108.6 21.2877L 108.6 27.6164L 100.816 27.6164L 100.816 0.575348L 108.6 0.575348L 108.6 11.6986L 116.004 0.575348L 123.409 0.575348L 116.384 10.3562L 124.738 27.6164ZM 137.458 28C 133.661 28 130.624 26.6575 128.345 24.1644C 126.067 21.6712 124.738 18.2192 124.738 14C 124.738 9.97261 125.877 6.52055 128.155 4.0274C 130.434 1.34247 133.661 0 137.648 0C 141.446 0 144.483 1.34247 146.762 3.83562C 149.04 6.32877 150.369 9.58904 150.369 13.8082C 150.369 18.0274 149.23 21.6712 146.762 24.1644C 144.293 26.6575 141.256 28 137.458 28ZM 137.458 21.863C 138.787 21.863 139.737 21.2877 140.496 19.9452C 141.066 18.7945 141.446 16.4932 141.446 13.2329C 141.446 8.43836 140.117 6.13699 137.648 6.13699C 134.99 6.13699 133.471 8.82192 133.471 14.1918C 133.661 19.3699 134.8 21.863 137.458 21.863ZM 176 0.575348L 167.836 27.6164L 159.482 27.6164L 150.749 0.575348L 159.482 0.575348L 163.659 15.3425C 163.849 16.3014 164.229 17.0685 164.419 17.8356L 169.355 0.575348L 176 0.575348Z"/>
</defs>
</svg>
