<svg width="38" height="38" viewBox="0 0 38 38" version="1.1" xmlns="http://www.w3.org/2000/svg" xmlns:xlink="http://www.w3.org/1999/xlink">
<title>Group</title>
<desc>Created using Figma</desc>
<g id="Canvas" transform="translate(1944 182)">
<g id="Group">
<g id="Vector">
<use xlink:href="#path0_fill" transform="translate(-1944 -182)" fill="#2B2A29"/>
</g>
</g>
</g>
<defs>
<path id="path0_fill" d="M 37.852 9.63861L 32.9575 3.3266C 31.8376 3.45455 30.7592 3.53984 29.6393 3.53984C 22.2146 3.53984 18.9378 0 18.9378 0C 18.8548 0.0852974 15.661 3.53984 8.36075 3.53984C 7.24083 3.53984 6.16238 3.45455 5.04246 3.3266L 0.147991 9.63861C 14.2507 16.8036 -1.67707 26.0157 0.147991 28.3614L 5.04246 34.6734C 6.16238 34.5455 7.28231 34.4602 8.36075 34.4602C 15.7439 34.4602 18.8963 38 18.8963 38C 18.8963 38 22.1731 34.4602 29.5978 34.4602C 30.7177 34.4602 31.8376 34.5455 32.9575 34.6734L 37.852 28.3614C 39.6771 26.0157 23.7493 16.8036 37.852 9.63861ZM 7.44822 5.71493L 9.8125 5.80022L 9.77102 6.61055L 7.44822 6.4826L 7.44822 5.71493ZM 8.77553 17.358L 7.98744 17.4007L 7.82153 14.9697L 8.60962 14.927L 8.77553 17.358ZM 5.99647 6.26936L 6.61865 6.78114L 5.1669 8.70034L 4.54472 8.18855L 5.99647 6.26936ZM 5.20838 11.0887L 3.30036 9.63861L 3.75663 8.99888L 5.66464 10.4489L 5.20838 11.0887ZM 5.91351 11.771L 6.49421 11.2593L 7.98744 13.1358L 7.40674 13.6476L 5.91351 11.771ZM 6.61865 21.8788L 7.24083 22.3479L 5.87203 24.3098L 5.24986 23.8833L 6.61865 21.8788ZM 4.75211 24.5657L 5.37429 25.0348L 3.96402 26.954L 3.34184 26.4848L 4.75211 24.5657ZM 4.91803 29.8541L 3.4248 27.9776L 4.0055 27.4658L 5.49873 29.3423L 4.91803 29.8541ZM 6.82604 32.2424L 5.33281 30.3659L 5.91351 29.8541L 7.40674 31.7306L 6.82604 32.2424ZM 7.19935 20.8552L 7.90448 18.5522L 8.6511 18.8081L 7.94596 21.1111L 7.19935 20.8552ZM 10.5176 32.3704L 8.15336 32.3704L 8.15336 31.56L 10.5176 31.56L 10.5176 32.3704ZM 10.6835 5.67228L 13.0063 5.45903L 13.0893 6.26936L 10.7665 6.4826L 10.6835 5.67228ZM 13.6285 32.7542L 11.3057 32.413L 11.4302 31.6453L 13.753 32.0292L 13.6285 32.7542ZM 13.587 5.24579L 15.8269 4.52076L 16.0758 5.28844L 13.8359 6.01347L 13.587 5.24579ZM 16.4491 33.8204L 14.2922 32.8822L 14.5825 32.1571L 16.7394 33.0954L 16.4491 33.8204ZM 16.615 4.26487L 18.3156 3.07071L 18.6474 3.75309L 16.9053 4.94725L 16.615 4.26487ZM 18.44 34.9719L 17.0712 33.9484L 17.3201 33.3513L 18.6889 34.3749L 18.44 34.9719ZM 32.6257 23.8833L 32.0035 24.3524L 30.6347 22.3906L 31.2569 21.9214L 32.6257 23.8833ZM 29.8881 13.1358L 31.3813 11.2593L 31.9621 11.771L 30.4688 13.6476L 29.8881 13.1358ZM 30.22 14.927L 30.054 17.358L 29.2659 17.3154L 29.4319 14.8844L 30.22 14.927ZM 34.5752 9.68126L 32.6672 11.0887L 32.2109 10.4489L 34.1189 8.99888L 34.5752 9.68126ZM 31.8791 6.26936L 33.3308 8.18855L 32.7087 8.70034L 31.2569 6.78114L 31.8791 6.26936ZM 30.5518 5.71493L 30.5933 6.52525L 28.229 6.61055L 28.1875 5.80022L 30.5518 5.71493ZM 19.4355 34.9719L 19.1867 34.3749L 20.5554 33.3513L 20.8043 33.9484L 19.4355 34.9719ZM 19.2696 3.75309L 19.6014 3.07071L 21.3021 4.26487L 20.9702 4.94725L 19.2696 3.75309ZM 21.4265 33.8204L 21.1361 33.0954L 23.293 32.1571L 23.5834 32.8822L 21.4265 33.8204ZM 23.9152 6.05612L 21.6754 5.33109L 21.9242 4.56341L 24.1641 5.28844L 23.9152 6.05612ZM 24.2885 32.7542L 24.1641 31.9865L 26.4869 31.6027L 26.6113 32.3704L 24.2885 32.7542ZM 27.275 6.4826L 24.9522 6.26936L 25.0351 5.45903L 27.3579 5.67228L 27.275 6.4826ZM 27.3579 32.3704L 27.3579 31.56L 29.7222 31.56L 29.7222 32.3704L 27.3579 32.3704ZM 29.3904 18.8081L 30.137 18.5522L 30.8421 20.8552L 30.0955 21.1111L 29.3904 18.8081ZM 31.1325 32.2851L 30.5518 31.7733L 32.045 29.8967L 32.6257 30.4085L 31.1325 32.2851ZM 32.999 29.8541L 32.4183 29.3423L 33.9115 27.4658L 34.4922 27.9776L 32.999 29.8541ZM 33.953 26.954L 32.5428 25.0348L 33.1649 24.5657L 34.5752 26.4848L 33.953 26.954Z"/>
</defs>
</svg>
