<svg width="27" height="23" viewBox="0 0 27 23" version="1.1" xmlns="http://www.w3.org/2000/svg" xmlns:xlink="http://www.w3.org/1999/xlink">
<title>commerce</title>
<desc>Created using Figma</desc>
<g id="Canvas" transform="translate(7219 184)">
<g id="commerce">
<g id="Group">
<g id="Group">
<g id="Vector">
<use xlink:href="#path0_fill" transform="translate(-7217.83 -175.526)" fill="#2B2A29"/>
</g>
</g>
</g>
<g id="Group">
<g id="Group">
<g id="Vector">
<use xlink:href="#path1_fill" transform="translate(-7219 -182.579)" fill="#2B2A29"/>
</g>
</g>
</g>
<g id="Group">
<g id="Group">
<g id="Vector">
<use xlink:href="#path2_fill" transform="translate(-7210.78 -184)" fill="#2B2A29"/>
</g>
</g>
</g>
</g>
</g>
<defs>
<path id="path0_fill" d="M 24.2188 0.0212373C 23.9089 -0.0659207 23.5825 0.122921 23.498 0.446132L 23.4569 0.604731L 1.19489 0.604731L 1.15263 0.446132C 1.06811 0.122921 0.744106 -0.0659207 0.433037 0.0212373C 0.119603 0.108395 -0.0646831 0.441309 0.0209941 0.763271L 3.07082 12.2947C 3.41826 13.6094 4.58159 14.5258 5.90224 14.5258L 18.7495 14.5258C 20.0702 14.5258 21.2335 13.6094 21.581 12.296L 24.6308 0.76452C 24.7166 0.441309 24.5322 0.108395 24.2188 0.0212373ZM 6.61715 12.0817C 6.56317 12.0974 6.50913 12.1047 6.45631 12.1047C 6.20159 12.1047 5.96679 11.9316 5.89283 11.6653L 3.54504 3.19161C 3.45584 2.87084 3.63661 2.53548 3.94889 2.4435C 4.25764 2.35634 4.58516 2.53792 4.67436 2.85994L 7.02221 11.3336C 7.11019 11.6544 6.92943 11.9897 6.61715 12.0817ZM 9.47449 12.0987C 9.44632 12.1035 9.41814 12.1048 9.39112 12.1048C 9.1035 12.1048 8.8523 11.8869 8.81004 11.5854L 7.63614 3.11177C 7.59036 2.7813 7.81339 2.4738 8.13386 2.42659C 8.45434 2.37575 8.75254 2.60817 8.79832 2.93984L 9.97221 11.4135C 10.018 11.7452 9.79497 12.0515 9.47449 12.0987ZM 12.9129 11.4995C 12.9129 11.8336 12.6499 12.1048 12.3259 12.1048C 12.0019 12.1048 11.7389 11.8336 11.7389 11.4995L 11.7389 3.02575C 11.7389 2.69164 12.0019 2.42046 12.3259 2.42046C 12.6499 2.42046 12.9129 2.69164 12.9129 3.02575L 12.9129 11.4995ZM 17.0157 3.11171L 15.8418 11.5854C 15.7995 11.888 15.5483 12.1047 15.2607 12.1047C 15.2337 12.1047 15.2055 12.1035 15.1773 12.0986C 14.8569 12.0514 14.6338 11.7452 14.6796 11.4135L 15.8535 2.93978C 15.8993 2.60931 16.1963 2.38052 16.518 2.42654C 16.8384 2.47375 17.0615 2.78005 17.0157 3.11171ZM 21.1079 3.19161L 18.7601 11.6653C 18.6861 11.9316 18.4513 12.1047 18.1955 12.1047C 18.1415 12.1047 18.0874 12.0974 18.0335 12.0817C 17.7212 11.9897 17.5416 11.6544 17.6296 11.3336L 19.9775 2.85994C 20.0667 2.53792 20.3954 2.35515 20.7029 2.4435C 21.0164 2.53548 21.1971 2.87084 21.1079 3.19161Z"/>
<path id="path1_fill" d="M 26.413 7.05253L 25.8038 7.05253C 25.5478 3.59527 23.1132 0.763824 19.9178 -1.1429e-07C 19.9342 0.130737 19.9565 0.259034 19.9565 0.394651C 19.9565 0.691249 19.9025 0.970881 19.8251 1.242C 22.4112 1.9429 24.3787 4.23442 24.6264 7.05253L 2.37365 7.05253C 2.62133 4.23442 4.58882 1.9417 7.17493 1.242C 7.09746 0.970824 7.04347 0.691192 7.04347 0.394651C 7.04347 0.259091 7.06576 0.130737 7.08221 -1.1429e-07C 3.888 0.763824 1.45211 3.59527 1.19623 7.05253L 0.586974 7.05253C 0.262975 7.05253 0 7.32371 0 7.65781C 0 7.99192 0.262975 8.2631 0.586974 8.2631L 26.413 8.2631C 26.737 8.2631 27 7.99192 27 7.65781C 27 7.32371 26.737 7.05253 26.413 7.05253Z"/>
<path id="path2_fill" d="M 8.80434 -1.039e-08L 1.76087 -1.039e-08C 0.790024 -1.039e-08 -4.09748e-07 0.814666 -4.09748e-07 1.81579C -4.09748e-07 2.81692 0.790024 3.63158 1.76087 3.63158L 8.80434 3.63158C 9.77519 3.63158 10.5652 2.81692 10.5652 1.81579C 10.5652 0.814666 9.77519 -1.039e-08 8.80434 -1.039e-08ZM 8.80434 2.42102L 1.76087 2.42102C 1.43687 2.42102 1.17389 2.14984 1.17389 1.81573C 1.17389 1.48163 1.43687 1.21051 1.76087 1.21051L 8.80434 1.21051C 9.12834 1.21051 9.39132 1.48169 9.39132 1.81579C 9.39132 2.1499 9.12834 2.42102 8.80434 2.42102Z"/>
</defs>
</svg>
