<svg width="14" height="14" viewBox="0 0 14 14" version="1.1" xmlns="http://www.w3.org/2000/svg" xmlns:xlink="http://www.w3.org/1999/xlink">
<title>Vector</title>
<desc>Created using Figma</desc>
<g id="Canvas" transform="translate(1087 125)">
<g id="Vector">
<use xlink:href="#path0_fill" transform="translate(-1087 -125)" fill="#FFFFFF"/>
</g>
</g>
<defs>
<path id="path0_fill" d="M 13.8286 13.0057L 10.4629 9.64C 11.2971 8.62286 11.8 7.32 11.8 5.9C 11.8 2.64286 9.15714 0 5.9 0C 2.64 0 0 2.64286 0 5.9C 0 9.15714 2.64 11.8 5.9 11.8C 7.32 11.8 8.62 11.3 9.63714 10.4657L 13.0029 13.8286C 13.2314 14.0571 13.6 14.0571 13.8286 13.8286C 14.0571 13.6029 14.0571 13.2314 13.8286 13.0057ZM 5.9 10.6257C 3.29143 10.6257 1.17143 8.50571 1.17143 5.9C 1.17143 3.29429 3.29143 1.17143 5.9 1.17143C 8.50571 1.17143 10.6286 3.29429 10.6286 5.9C 10.6286 8.50571 8.50571 10.6257 5.9 10.6257Z"/>
</defs>
</svg>
