<svg xmlns="http://www.w3.org/2000/svg" xmlns:xlink="http://www.w3.org/1999/xlink" width="35" height="37" viewBox="0 0 35 37"><defs><path id="ny0ea" d="M1131.05 2684.72l-12.31-14.6c-2.83-3.34-7.65 1.45-4.85 4.78l10.34 12.25-10.44 12.9c-2.73 3.36 2.09 8.17 4.84 4.77l12.42-15.34c1.25-1.54 1.3-3.22 0-4.76zm-15.98 0l-12.32-14.6c-2.83-3.34-7.64 1.45-4.84 4.78l10.34 12.25-10.45 12.9c-2.72 3.36 2.1 8.17 4.85 4.77l12.42-15.34c1.25-1.54 1.3-3.22 0-4.76z"/></defs><g><g transform="translate(-1097 -2669)"><use fill="#f4f4f2" xlink:href="#ny0ea"/></g></g></svg>