<svg xmlns="http://www.w3.org/2000/svg" xmlns:xlink="http://www.w3.org/1999/xlink" width="1920" height="907" viewBox="0 0 1920 907"><defs><path id="9xaxa" d="M581.07 3122.42s30.08-280.41 212.98-231.65c182.9 48.76 152.3 243.56 184.79 306.95 32.48 63.4 277.37 148.7 300.17 245.63 22.8 96.91-70.73 193.4-186.58 140.2-115.86-53.21-243.06-116.55-366.92-96.69-123.87 19.86-290.3 94.73-339.86-79.23-32.5-91.76 137.77-185.52 137.77-185.52s21.39-1.84 41.6-43.23c20.23-41.38 16.05-56.46 16.05-56.46z"/><path id="9xaxb" d="M-431 1935s21.5 92.4 153 65c131.5-27.4 304-257.56 511-36s198 586.02-69 634c-267 47.98-369.5 61.56-427 168s56.5 409.62-92 435c-148.5 25.38-205-62-205-62l49-1213z"/><path id="9xaxc" d="M1997 1328s-46-60-98-44-106 38-102 268-10 282-88 310-266 64-272 266 216 338 288 432 90 212 68 308-72 262 24 338 220 84 220 84V1746z"/></defs><g><g clip-path="url(#clip-6132)" opacity=".03" transform="translate(0 -2129)"><use fill="#9bb0bf" xlink:href="#9xaxa"/></g><g clip-path="url(#clip-6132)" opacity=".03" transform="translate(0 -2129)"><use fill="#05a9f4" xlink:href="#9xaxb"/></g><g clip-path="url(#clip-6132)" opacity=".03" transform="translate(0 -2129)"><use fill="#37d592" xlink:href="#9xaxc"/></g></g></svg>