<svg xmlns="http://www.w3.org/2000/svg" xmlns:xlink="http://www.w3.org/1999/xlink" width="14" height="16" viewBox="0 0 14 16"><defs><path id="bbpea" d="M1220.87 3844.05a6.74 6.74 0 1 1 0 13.5 6.74 6.74 0 0 1 0-13.5z"/><path id="bbpeb" d="M1221.23 3846.73c.95 0 1.71.37 1.71.83 0 .45-.76.82-1.7.82-.95 0-1.72-.37-1.72-.82 0-.46.77-.83 1.71-.83z"/><path id="bbpec" d="M1211 3861v-20h20v20zm3.12-10.2a6.74 6.74 0 1 0 13.5 0 6.74 6.74 0 0 0-13.5 0z"/><mask id="bbpeg" width="2" height="2" x="-1" y="-1"><path fill="#fff" d="M1214 3844h14v14h-14z"/><use xlink:href="#bbpea"/></mask><filter id="bbpef" width="34" height="35" x="1204" y="3834" filterUnits="userSpaceOnUse"><feOffset dy="1" in="SourceGraphic" result="FeOffset1023Out"/><feGaussianBlur in="FeOffset1023Out" result="FeGaussianBlur1024Out" stdDeviation="0 0"/></filter><radialGradient id="bbpeh" cx="1227.13" cy="3857.05" r="18.04" gradientUnits="userSpaceOnUse"><stop offset="0" stop-color="#00b4ff"/><stop offset="1" stop-color="#176da6"/></radialGradient><filter id="bbped" width="200%" height="200%" x="-50%" y="-50%"><feGaussianBlur in="SourceGraphic" result="FeGaussianBlur1045Out" stdDeviation="1.5 1.5"/></filter><mask id="bbpee"><use fill="#fff" xlink:href="#bbpea"/></mask><mask id="bbpej" width="2" height="2" x="-1" y="-1"><path fill="#fff" d="M1219 3846h4v3h-4z"/><use xlink:href="#bbpeb"/></mask><filter id="bbpei" width="34" height="33" x="1204" y="3831" filterUnits="userSpaceOnUse"><feOffset in="SourceGraphic" result="FeOffset1062Out"/><feGaussianBlur in="FeOffset1062Out" result="FeGaussianBlur1063Out" stdDeviation="2 2"/></filter></defs><g><g transform="translate(-1214 -3843)"><use fill-opacity=".3" stroke="#000" stroke-opacity=".3" stroke-width="0" filter="url(#bbped)" mask="url(&quot;#bbpee&quot;)" xlink:href="#bbpec"/><g filter="url(#bbpef)"><use fill="none" stroke-opacity=".75" stroke-width="0" mask="url(&quot;#bbpeg&quot;)" xlink:href="#bbpea"/><use fill="#fff" fill-opacity=".75" xlink:href="#bbpea"/></g><use fill="#04a8ef" xlink:href="#bbpea"/><use fill="url(#bbpeh)" xlink:href="#bbpea"/><use fill-opacity=".3" stroke="#000" stroke-opacity=".3" stroke-width="0" filter="url(#bbped)" mask="url(&quot;#bbpee&quot;)" xlink:href="#bbpec"/></g><g transform="translate(-1214 -3843)"><g filter="url(#bbpei)"><use fill="none" stroke-width="0" mask="url(&quot;#bbpej&quot;)" xlink:href="#bbpeb"/><use fill="#fff" xlink:href="#bbpeb"/></g><g filter="url(#bbpei)"><use fill="none" stroke-width="0" mask="url(&quot;#bbpej&quot;)" xlink:href="#bbpeb"/><use fill="#fff" xlink:href="#bbpeb"/></g><use fill="#fff" xlink:href="#bbpeb"/></g></g></svg>