<svg xmlns="http://www.w3.org/2000/svg" xmlns:xlink="http://www.w3.org/1999/xlink" width="45" height="45" viewBox="0 0 45 45"><defs><path id="hj6fa" d="M943.9 529.02v.72l4-4 4.5-4.51v-8c0-.68.54-1.22 1.21-1.22a7.3 7.3 0 0 1 7.29 7.3v6.07h7.9a4.26 4.26 0 0 1 2.24 7.86 4.23 4.23 0 0 1-.49 5.5 4.24 4.24 0 0 1-.72 6.65 4.26 4.26 0 0 1-3.46 6.72h-22.48v1.22c0 .67-.54 1.22-1.21 1.22h-9.72c-.67 0-1.22-.55-1.22-1.22v-24.3c0-.68.55-1.22 1.22-1.22h9.72c.67 0 1.21.54 1.21 1.21zm-2.44 1.22h-7.29v21.87h7.3zm17-10.94a4.87 4.87 0 0 0-3.64-4.7v7.13c0 .32-.12.63-.35.86l-2.79 2.79h6.79zm12.16 10.33c0-1-.82-1.82-1.83-1.82h-19.54l-5.36 5.36v16.51h22.48a1.82 1.82 0 0 0 0-3.64 1.21 1.21 0 1 1 0-2.43h1.21a1.82 1.82 0 0 0 0-3.65 1.21 1.21 0 1 1 0-2.43 1.82 1.82 0 0 0 0-3.64 1.21 1.21 0 1 1 0-2.43h1.21c1.01 0 1.83-.82 1.83-1.83zm-34.02 17.62h2.43v2.43h-2.43z"/></defs><g><g transform="translate(-930 -511)"><use fill="#fff" xlink:href="#hj6fa"/></g></g></svg>