<svg xmlns="http://www.w3.org/2000/svg" xmlns:xlink="http://www.w3.org/1999/xlink" width="72" height="44" viewBox="0 0 72 44"><defs><path id="fj6aa" d="M1187.76 540.29v13.36c0 .76-.62 1.37-1.38 1.37h-7.08a6.94 6.94 0 0 1-13.6 0h-28.03a6.94 6.94 0 0 1-13.6 0h-4.45c-.76 0-1.38-.61-1.38-1.37v-32.81c0-.76.62-1.38 1.38-1.38h42.65c.77 0 1.39.62 1.39 1.38v1.81h11.53a5.7 5.7 0 0 1 5.58 4.4l2.29 9.73 4.01 2.32c.43.25.69.7.69 1.19zm-52.72 13.36a4.16 4.16 0 0 0-8.33 0 4.16 4.16 0 0 0 8.33 0zm25.85-6.32v-2.18h-39.88v7.12h3.07a6.94 6.94 0 0 1 13.59 0h23.22v-2.18h-12.5a1.38 1.38 0 0 1 0-2.75zm0-25.12h-39.88v20.19h39.88zm10.8 3.2v10.89h8.41l-2.03-8.62a2.95 2.95 0 0 0-2.88-2.27zm4.97 28.24a4.16 4.16 0 0 0-8.32-.28 1.37 1.37 0 0 1 0 .55 4.16 4.16 0 0 0 8.32-.27zm8.33-9.37h-2.63v1.46h2.63zm0-2.75v-.45l-3.52-2.03h-11.16c-.77 0-1.39-.61-1.39-1.37V525.4h-5.26v26.86h2.04a6.94 6.94 0 0 1 13.6 0h5.69v-3.78h-4.02c-.76 0-1.38-.62-1.38-1.38v-4.2c0-.77.62-1.38 1.38-1.38zm-39.88 7.18c0 .76-.62 1.38-1.38 1.38h-1.17a1.38 1.38 0 0 1 0-2.75h1.17c.76 0 1.38.61 1.38 1.37z"/></defs><g><g transform="translate(-1117 -518)"><use fill="#fff" xlink:href="#fj6aa"/></g></g></svg>