<svg xmlns="http://www.w3.org/2000/svg" xmlns:xlink="http://www.w3.org/1999/xlink" width="61" height="48" viewBox="0 0 61 48"><defs><path id="w7sra" d="M753.35 525.29c0 .74-.6 1.34-1.32 1.34a12.33 12.33 0 0 0-12.23 12.4c0 6.84 5.49 12.4 12.23 12.4s12.23-5.56 12.23-12.4c0-3.47-1.44-6.8-3.97-9.15a1.35 1.35 0 0 1-.08-1.88 1.3 1.3 0 0 1 1.87-.09 15.22 15.22 0 0 1 4.82 11.12 15 15 0 0 1-14.87 15.08 15 15 0 0 1-14.87-15.08 15 15 0 0 1 14.87-15.08c.73 0 1.32.6 1.32 1.34zM788 547.83v7.68c0 .74-.6 1.34-1.32 1.34h-13.62v1.81c0 .74-.59 1.34-1.32 1.34h-39.44c-.73 0-1.32-.6-1.32-1.34 0-.74.6-1.34 1.32-1.34h38.12v-18.86c0-10.19-8.16-18.47-18.2-18.47h-.4c-10.04 0-18.2 8.28-18.2 18.47v10.93c0 .74-.6 1.34-1.32 1.34-.73 0-1.32-.6-1.32-1.34v-10.93c0-11.66 9.35-21.14 20.84-21.14h.4c2.68 0 5.25.51 7.6 1.45l3.34-3.38a1.3 1.3 0 0 1 1.87 0l9.47 9.61c.52.53.52 1.37 0 1.9l-1.25 1.26a1.3 1.3 0 0 1-1.86 0 1.35 1.35 0 0 1 0-1.89l.32-.32-7.62-7.72-1.73 1.76a21.2 21.2 0 0 1 10.7 18.47v15.72h7.47v-6.35c0-.74.59-1.34 1.32-1.34h4.83c.73 0 1.32.6 1.32 1.34zm-2.64 1.33h-2.2v5.02h2.2z"/></defs><g><g transform="translate(-729 -513)"><use fill="#fff" xlink:href="#w7sra"/></g></g></svg>