<svg xmlns="http://www.w3.org/2000/svg" xmlns:xlink="http://www.w3.org/1999/xlink" width="65" height="55" viewBox="0 0 65 55"><defs><path id="56mka" d="M843.5 2802.291c0 5.922-2.894 10.076-5.22 13.414-6.756 9.696-23.748 21.761-24.469 22.27a4.002 4.002 0 0 1-4.625 0c-.72-.509-17.71-12.574-24.468-22.27-2.326-3.338-5.218-7.492-5.218-13.414 0-9.926 8.076-18.002 18.003-18.002a18.01 18.01 0 0 1 13.997 6.693 18.02 18.02 0 0 1 13.997-6.693c9.927 0 18.003 8.076 18.003 18.002zm-4.007 0c0-7.728-6.268-13.996-13.996-13.996-5.705 0-10.603 3.418-12.783 8.31h-.017a1.258 1.258 0 0 1-1.198.885 1.259 1.259 0 0 1-1.197-.885h-.006v.025c-2.176-4.907-7.08-8.335-12.793-8.335-7.73 0-13.996 6.268-13.996 13.996 0 4.476 2.125 7.715 4.498 11.123 6.434 9.232 23.494 21.29 23.494 21.29s17.061-12.058 23.494-21.29c2.375-3.408 4.5-6.647 4.5-11.123zm-23.879-4.441c.027-.053.053-.108.076-.161a11.002 11.002 0 0 1 10.033-6.525c2.98 0 5.77 1.176 7.856 3.312a1.335 1.335 0 1 1-1.911 1.866 8.253 8.253 0 0 0-5.945-2.506 8.327 8.327 0 0 0-7.593 4.942c-.045.101-.09.196-.139.29a1.338 1.338 0 0 1-1.799.579 1.334 1.334 0 0 1-.578-1.797zm21.097 4.3c0 3.458-1.654 6.098-3.992 9.452-4.55 6.532-14.746 14.636-20.42 18.884a1.333 1.333 0 0 1-1.6 0c-5.674-4.25-15.87-12.354-20.419-18.884-2.338-3.352-3.991-5.993-3.991-9.451 0-6.058 4.929-10.987 10.986-10.987a11 11 0 0 1 10.043 6.545c.025.056.048.105.073.154a1.336 1.336 0 0 1-2.368 1.234 5.424 5.424 0 0 1-.15-.31 8.324 8.324 0 0 0-7.598-4.95c-4.585 0-8.315 3.73-8.315 8.314 0 2.692 1.326 4.789 3.512 7.923 4.247 6.098 14.176 13.996 19.027 17.671 4.85-3.675 14.78-11.572 19.03-17.67 2.185-3.135 3.51-5.233 3.51-7.924a1.336 1.336 0 0 1 2.672 0z"/></defs><g><g transform="translate(-779 -2784)"><use fill="#ff7878" xlink:href="#56mka"/><use fill="#860000" xlink:href="#56mka"/></g></g></svg>