<svg xmlns="http://www.w3.org/2000/svg" xmlns:xlink="http://www.w3.org/1999/xlink" width="33" height="41" viewBox="0 0 33 41"><defs><path id="88haa" d="M924.828 745.782v35.565a2.55 2.55 0 0 1-2.56 2.54h-26.86a2.55 2.55 0 0 1-2.56-2.54v-24.036c0-.674.268-1.32.748-1.796l11.619-11.529a2.567 2.567 0 0 1 1.81-.744h15.243a2.55 2.55 0 0 1 2.56 2.54zm-27.784 9.904h8.427v-8.363zm25.224-9.904h-15.09v10.751a.85.85 0 0 1-.853.847h-10.918v23.967h26.861zm-4.533 16.102a.85.85 0 0 1 .853.846.85.85 0 0 1-.853.847h-18.45a.85.85 0 0 1-.854-.847.85.85 0 0 1 .854-.846zm-19.304 5.37a.85.85 0 0 1 .854-.847h9.225a.85.85 0 0 1 .853.847.85.85 0 0 1-.853.847h-9.225a.85.85 0 0 1-.854-.847zm19.632-.847c.471 0 .853.38.853.847a.85.85 0 0 1-.853.847h-5.026a.85.85 0 0 1-.853-.847.85.85 0 0 1 .853-.847zm-19.632 5.37a.85.85 0 0 1 .854-.846h18.45a.85.85 0 0 1 .853.846.85.85 0 0 1-.853.847h-18.45a.85.85 0 0 1-.854-.847zm20.485 4.524a.85.85 0 0 1-.853.847h-9.225a.85.85 0 0 1-.853-.847.85.85 0 0 1 .853-.847h9.225c.471 0 .853.38.853.847zm-13.753 0a.85.85 0 0 1-.853.847h-5.025a.85.85 0 0 1-.854-.847.85.85 0 0 1 .854-.847h5.025a.85.85 0 0 1 .853.847z"/></defs><g><g transform="translate(-892 -743)"><use fill="#ff7878" xlink:href="#88haa"/><use fill="#fff" xlink:href="#88haa"/></g></g></svg>