<svg xmlns="http://www.w3.org/2000/svg" xmlns:xlink="http://www.w3.org/1999/xlink" width="65" height="64" viewBox="0 0 65 64"><defs><path id="kxzxa" d="M1133.326 2842.827a4.002 4.002 0 0 1-3.557 1.105l-15.893-2.928a3.995 3.995 0 0 1-2.105-1.106l-40.098-40.095a4.007 4.007 0 0 1 0-5.664l12.966-12.967a4.002 4.002 0 0 1 5.664 0l40.097 40.097a4.002 4.002 0 0 1 1.106 2.106l2.927 15.893a4.002 4.002 0 0 1-1.107 3.559zm-11.973-4.518l7.458-7.458-.864-4.692-11.287 11.287zm-7.42-1.912l2.924-2.923-6.06-6.058a1.335 1.335 0 1 1 1.888-1.888l6.059 6.059 3.122-3.121-28.525-28.525a1.334 1.334 0 1 1 1.889-1.888l28.523 28.524 3.146-3.145-39.428-39.427-3.144 3.144 5.882 5.885a1.333 1.333 0 0 1-.943 2.278c-.342 0-.684-.13-.944-.391l-5.883-5.883-3.122 3.12 28.347 28.35a1.334 1.334 0 1 1-1.887 1.887l-28.348-28.348-2.924 2.923zm16.562 3.598l-1.097-5.955-4.858 4.857z"/></defs><g><g transform="translate(-1070 -2780)"><use fill="#ff7878" xlink:href="#kxzxa"/><use fill="#860000" xlink:href="#kxzxa"/></g></g></svg>