<svg xmlns="http://www.w3.org/2000/svg" xmlns:xlink="http://www.w3.org/1999/xlink" width="64" height="64" viewBox="0 0 64 64"><defs><path id="dygza" d="M783.97 2234.222a4.012 4.012 0 0 1-1.175 2.837l-4.955 4.954a4.018 4.018 0 0 1-4.564.785c-2.258 1.618-4.6 3.297-5.196 3.733a5.93 5.93 0 0 1-3.89 1.469c-1.114 0-2.2-.315-3.145-.913-14.676-9.308-30.789-25.422-40.096-40.098a5.842 5.842 0 0 1 .545-7.019c.453-.632 2.104-2.981 3.692-5.246a4.015 4.015 0 0 1 .77-4.595l4.954-4.955a4 4 0 0 1 2.836-1.174c1.028 0 2.055.391 2.838 1.174l13.838 13.836a4.015 4.015 0 0 1 0 5.675l-4.957 4.954a4 4 0 0 1-2.836 1.175c-.434 0-.867-.069-1.283-.21l-.303.303c4.477 5.247 10.77 11.545 16.014 16.025l.308-.31a4.014 4.014 0 0 1 .963-4.12l4.957-4.955a4.014 4.014 0 0 1 5.674 0l13.836 13.839a4.014 4.014 0 0 1 1.176 2.836zm-4.013 0l-13.836-13.838-4.752 4.754 3.768 3.77a1.336 1.336 0 0 1-.945 2.283c-.342 0-.684-.13-.946-.391l-2.191-2.192-3.73 3.73c-6.758-5.279-16.413-14.94-21.686-21.702l3.722-3.721-5.668-5.668a1.337 1.337 0 1 1 1.891-1.893l7.246 7.246 4.754-4.752-13.838-13.836-4.752 4.752 3.348 3.348a1.338 1.338 0 0 1-1.89 1.89l-1.567-1.565c-1.662 2.37-4.225 6.025-4.29 6.09a1.869 1.869 0 0 0-.255 2.317c8.965 14.14 24.715 29.887 38.853 38.855a1.87 1.87 0 0 0 2.316-.256c.065-.064 3.688-2.66 6.04-4.342l-5.059-5.058a1.338 1.338 0 0 1 1.89-1.892l6.825 6.824z"/></defs><g><g transform="translate(-720 -2184)"><use fill="#ff7878" xlink:href="#dygza"/><use fill="#860000" xlink:href="#dygza"/></g></g></svg>