<svg xmlns="http://www.w3.org/2000/svg" xmlns:xlink="http://www.w3.org/1999/xlink" width="59" height="64" viewBox="0 0 59 64"><defs><path id="q8bja" d="M1423.281 2813.464a1.996 1.996 0 0 1-2.009 1.995h-.015a1.995 1.995 0 0 1-1.993-2.12 4.707 4.707 0 0 0-4.7-4.658 4.705 4.705 0 0 0-4.698 4.783 1.996 1.996 0 0 1-1.996 1.995h-.008a1.996 1.996 0 0 1-1.996-1.995c0-.03.002-.069.004-.108a4.706 4.706 0 0 0-4.7-4.675 4.706 4.706 0 0 0-4.702 4.701 1.996 1.996 0 1 1-3.992 0c0-2.592-2.109-4.7-4.7-4.7a4.705 4.705 0 0 0-4.7 4.7 1.996 1.996 0 1 1-3.993 0c0-2.592-2.11-4.7-4.701-4.7-2.418 0-4.473 1.886-4.679 4.295-.092 1.074-1.022 1.9-2.098 1.823a1.995 1.995 0 0 1-1.885-2.042c.181-7.539 3.254-14.6 8.65-19.878a28.593 28.593 0 0 1 18.123-8.125v-1.76a1.997 1.997 0 0 1 3.992 0v1.762c14.862 1.027 26.658 13.377 26.781 28.465.01.08.015.16.015.242zm-42.804-6.27c.88-7.399 3.287-13.594 6.562-17.355-7.41 2.373-13.378 8.173-15.956 15.511a8.565 8.565 0 0 1 3.299-.661c2.373 0 4.525.957 6.095 2.505zm25.162-1.258c-1.435-9.245-5.412-16.296-10.081-17.24a23.876 23.876 0 0 0-2.168.002c-4.694.953-8.64 7.928-10.056 17.222a8.645 8.645 0 0 1 9.825.644v-11.448a1.33 1.33 0 1 1 2.661 0v11.419a8.65 8.65 0 0 1 9.82-.599zm12.279-.574a24.91 24.91 0 0 0-15.936-15.528c3.269 3.75 5.65 9.926 6.523 17.321a8.66 8.66 0 0 1 6.058-2.466c1.189 0 2.322.24 3.355.673zm-12.802 33.318a6.327 6.327 0 0 1-6.32 6.32 6.327 6.327 0 0 1-6.32-6.32v-18.08a1.996 1.996 0 0 1 3.992 0v18.08a2.331 2.331 0 0 0 2.328 2.328 2.33 2.33 0 0 0 2.328-2.328 1.996 1.996 0 1 1 3.992 0z"/></defs><g><g transform="translate(-1365 -2781)"><use fill="#ff7878" xlink:href="#q8bja"/><use fill="#860000" xlink:href="#q8bja"/></g></g></svg>