<svg xmlns="http://www.w3.org/2000/svg" xmlns:xlink="http://www.w3.org/1999/xlink" width="56" height="65" viewBox="0 0 56 65"><defs><path id="mwy6a" d="M533.777 2833.32l1.416 2.038a2 2 0 0 1-3.284 2.283l-1.781-2.564a27.586 27.586 0 0 1-10.128 1.924c-3.573 0-6.987-.687-10.128-1.924l-1.781 2.564a2 2 0 1 1-3.285-2.283l1.417-2.037c-8.33-4.79-13.953-13.773-13.953-24.05 0-12.626 8.486-23.302 20.051-26.641v-4.13c0-2.21 1.79-4 4-4h7.36a4 4 0 0 1 3.998 4v4.13c11.566 3.34 20.05 14.015 20.05 26.64 0 10.278-5.623 19.26-13.952 24.05zm-17.457-51.528c1.205-.161 2.43-.252 3.68-.252 1.249 0 2.475.09 3.68.252v-3.293h-7.36zm27.41 27.479c0-13.107-10.624-23.732-23.73-23.732-13.107 0-23.73 10.625-23.73 23.732 0 13.105 10.623 23.73 23.73 23.73 13.106 0 23.73-10.625 23.73-23.73zm-3.046 0c0 11.405-9.279 20.684-20.684 20.684-11.405 0-20.684-9.28-20.684-20.684 0-11.405 9.279-20.684 20.684-20.684a1.333 1.333 0 1 1 0 2.666c-9.935 0-18.018 8.082-18.018 18.018 0 9.935 8.083 18.017 18.018 18.017s18.018-8.082 18.018-18.017c0-2.237-.405-4.42-1.204-6.49a1.333 1.333 0 0 1 2.488-.96 20.595 20.595 0 0 1 1.382 7.45zm-16.417-18.927a1.333 1.333 0 0 1 1.66-.896 20.599 20.599 0 0 1 10.293 6.986 1.333 1.333 0 1 1-2.09 1.656 17.941 17.941 0 0 0-8.967-6.087 1.333 1.333 0 0 1-.896-1.66zm-4.267 16.61a2.317 2.317 0 1 1 0 4.633 2.317 2.317 0 0 1 0-4.634zm0-2.1a1.333 1.333 0 0 1-1.333-1.333v-8.065a1.333 1.333 0 0 1 2.666 0v8.065c0 .736-.597 1.333-1.333 1.333zm15.286 4.417c0 .736-.597 1.333-1.332 1.333h-8.065a1.333 1.333 0 0 1 0-2.666h8.065c.735 0 1.332.596 1.332 1.333z"/></defs><g><g transform="translate(-492 -2774)"><use fill="#ff7878" xlink:href="#mwy6a"/><use fill="#860000" xlink:href="#mwy6a"/></g></g></svg>