<?xml version="1.0" encoding="utf-8"?><svg xmlns="http://www.w3.org/2000/svg" xmlns:xlink="http://www.w3.org/1999/xlink"><symbol viewBox="0 0 24 28" id="brand" xmlns="http://www.w3.org/2000/svg"><defs><path id="aa" d="M1402 757c0 6.02-4.71 10.93-10.5 10.93v.94c0 .1-.1.16-.19.1l-2.47-1.76a.13.13 0 0 1 0-.2l2.47-1.77c.08-.05.19 0 .19.1v.95c4.93 0 8.93-4.16 8.93-9.3a9.45 9.45 0 0 0-3.69-7.52l.92-1.31A11.11 11.11 0 0 1 1402 757zm-3.92-.64v1.27c0 .23-.16.44-.39.48l-1.23.22c-.11.47-.3.93-.54 1.37l.72 1.05c.13.2.1.46-.05.63l-.44.45-.43.45a.46.46 0 0 1-.61.06l-1.01-.75c-.4.25-.84.44-1.29.56l-.2 1.28a.48.48 0 0 1-.47.41h-1.22a.48.48 0 0 1-.46-.4l-.2-1.27a4.9 4.9 0 0 1-1.32-.56l-1.02.76a.46.46 0 0 1-.61-.06l-.43-.45-.44-.45a.5.5 0 0 1-.05-.63l.7-1.05c-.24-.43-.43-.89-.55-1.37l-1.23-.21a.48.48 0 0 1-.4-.48v-1.27c0-.24.17-.44.4-.48l1.22-.2c.11-.47.29-.94.53-1.38l-.72-1.06a.51.51 0 0 1 .05-.63l.43-.45.44-.45c.16-.18.42-.2.6-.06l1.01.74c.43-.27.88-.46 1.35-.59l.2-1.27c.05-.24.24-.41.47-.41h1.22c.23 0 .42.17.46.4l.2 1.28c.47.13.91.32 1.33.57l1.01-.75a.47.47 0 0 1 .6.04l.44.45.43.45a.5.5 0 0 1 .05.64l-.71 1.05c.24.43.43.9.54 1.37l1.23.22c.23.04.4.25.4.48zm-4.51-1.51a2.8 2.8 0 0 0-4.07 0 3.07 3.07 0 0 0 0 4.23 2.8 2.8 0 0 0 4.07 0 3.08 3.08 0 0 0 0-4.23zm.59-7.86l-2.47 1.76c-.08.06-.19 0-.19-.1v-.95c-4.93 0-8.93 4.17-8.93 9.3a9.47 9.47 0 0 0 3.69 7.53l-.92 1.31A11.11 11.11 0 0 1 1381 757c0-6.03 4.71-10.93 10.5-10.93v-.94c0-.1.1-.17.19-.1l2.47 1.75c.07.06.07.16 0 .21z"/></defs><use xlink:href="#aa" transform="translate(-1379 -743)"/></symbol><symbol viewBox="0 0 44 35" id="cash" xmlns="http://www.w3.org/2000/svg"><defs><path id="ba" d="M416.4 1607.2c0-.35.28-.64.63-.64h1.28a.64.64 0 1 1 0 1.28h-1.28a.64.64 0 0 1-.64-.64zm-28.84 0c0-.35.29-.64.64-.64h26.27a.64.64 0 1 1 0 1.28H388.2a.64.64 0 0 1-.64-.64zM426 1620v5.12c0 .83-.54 1.55-1.28 1.81v5.87a3.2 3.2 0 0 1-3.2 3.2H388.2a3.2 3.2 0 0 1-3.2-3.2v-25.6a3.2 3.2 0 0 1 3.2-3.2h33.32a3.2 3.2 0 0 1 3.2 3.2v10.99c.74.26 1.28.98 1.28 1.8zm-39.72-12.8c0 1.06.86 1.92 1.92 1.92h33.32c.72 0 1.38.24 1.92.64 0-1.06-.86-1.92-1.92-1.92h-.64a.64.64 0 1 1 0-1.28h.64c.72 0 1.38.24 1.92.64 0-1.06-.86-1.92-1.92-1.92H388.2c-1.06 0-1.92.86-1.92 1.92zm37.16 25.6v-5.76h-7.69a2.56 2.56 0 0 1-2.56-2.56v-3.84a2.56 2.56 0 0 1 2.56-2.56h7.69v-5.76c0-1.06-.86-1.92-1.92-1.92H388.2c-.72 0-1.38-.24-1.92-.64v23.04c0 1.06.86 1.92 1.92 1.92h33.32c1.06 0 1.92-.86 1.92-1.92zm1.28-12.8a.64.64 0 0 0-.64-.64h-8.33c-.7 0-1.28.57-1.28 1.28v3.84c0 .7.57 1.28 1.28 1.28h8.33c.35 0 .64-.29.64-.64zm-4.49 2.56a1.92 1.92 0 1 1-1.92-1.92.64.64 0 1 1 0 1.28.64.64 0 1 0 .64.64.64.64 0 0 1 1.28 0z"/></defs><use xlink:href="#ba" transform="translate(-383 -1602)"/></symbol><symbol viewBox="0 0 16 17" id="check-ok" xmlns="http://www.w3.org/2000/svg"><defs><path id="ca" d="M998 662.76a6.63 6.63 0 0 1-6.5 6.76c-3.6 0-6.5-3.03-6.5-6.76s2.9-6.76 6.5-6.76c3.59 0 6.5 3.03 6.5 6.76zm-2.52-1.91l-1.22-1.28-3.68 3.83-1.84-1.92-1.22 1.28 3.06 3.19z"/></defs><use xlink:href="#ca" opacity=".9" transform="translate(-983 -654)"/></symbol><symbol viewBox="0 0 24 23" id="comment" xmlns="http://www.w3.org/2000/svg"><defs><path id="da" d="M916 752.07v7.3c0 1.12-.93 2.04-2.08 2.04h-.37v3.45a.35.35 0 0 1-.35.34c-.1 0-.2-.04-.26-.1l-1.22-1.33c.05-.2.08-.42.08-.64v-7.29c0-1.5-1.25-2.74-2.78-2.74l-9.12.02v-1.08c0-1.12.93-2.04 2.08-2.04l11.95.02c1.14 0 2.07.92 2.07 2.05zm-4.9 3.77v7.3c0 1.12-.93 2.04-2.08 2.04l-5.81.02-3.4 3.69a.35.35 0 0 1-.39.09.35.35 0 0 1-.22-.32v-3.46h-2.12a2.06 2.06 0 0 1-2.08-2.04v-7.3c0-1.12.93-2.04 2.08-2.04l11.94-.03c1.15 0 2.08.92 2.08 2.05zm-10.5 3.81a1.4 1.4 0 0 0-1.4-1.38c-.77 0-1.4.62-1.4 1.38 0 .77.63 1.38 1.4 1.38.77 0 1.4-.61 1.4-1.38zm3.85 0a1.4 1.4 0 0 0-1.4-1.38c-.77 0-1.4.62-1.4 1.38 0 .77.63 1.38 1.4 1.38.77 0 1.4-.61 1.4-1.38zm3.85 0a1.4 1.4 0 0 0-1.4-1.38c-.77 0-1.4.62-1.4 1.38 0 .77.63 1.38 1.4 1.38.77 0 1.4-.61 1.4-1.38z"/></defs><use xlink:href="#da" transform="translate(-893 -748)"/></symbol><symbol viewBox="0 0 27 18" id="delivery" xmlns="http://www.w3.org/2000/svg"><defs><path id="ea" d="M1153.84 762.99c0 1.1-.92 2-2.04 2s-2.04-.9-2.04-2c0-1.11.92-2.02 2.04-2.02s2.04.9 2.04 2.02zm-1.44 0a.6.6 0 0 0-.6-.6.6.6 0 0 0-.6.6c0 .32.27.59.6.59a.6.6 0 0 0 .6-.6zm-.43-10.22l3.92 4.62c.07.09.11.2.11.3v4.63c0 .26-.22.47-.48.47h-.5a.48.48 0 0 1-.49-.4c-.19-1.43-1.34-2.31-2.73-2.31-1.4 0-2.54.88-2.73 2.3a.48.48 0 0 1-.48.4h-.51a.48.48 0 0 1-.48-.46v-9.24c0-.26.21-.48.48-.48h3.52c.15 0 .28.07.37.17zm-2.93 4.1h4.11c.41 0 .63-.47.37-.78l-2-2.37a.48.48 0 0 0-.37-.17h-2.11a.48.48 0 0 0-.48.48v2.36c0 .27.21.48.48.48zm-17.04 5.45v-11.85c0-.26.21-.47.48-.47h13.68c.26 0 .48.21.48.47v11.85c0 .26-.22.47-.48.47h-6.03a.48.48 0 0 1-.48-.4c-.19-1.43-1.34-2.31-2.73-2.31-1.4 0-2.54.88-2.73 2.3a.48.48 0 0 1-.48.4h-1.23a.48.48 0 0 1-.48-.46zm6.96.67c0 1.1-.92 2-2.04 2s-2.04-.9-2.04-2c0-1.11.92-2.02 2.04-2.02s2.04.9 2.04 2.02zm-1.44 0a.6.6 0 0 0-.6-.6.6.6 0 0 0-.6.6c0 .32.27.59.6.59a.6.6 0 0 0 .6-.6z"/></defs><use xlink:href="#ea" transform="translate(-1130 -748)"/></symbol><symbol viewBox="0 0 46 35" id="non-cash" xmlns="http://www.w3.org/2000/svg"><defs><path id="fa" d="M727 1607.07v25.86c0 1.7-1.36 3.07-3.02 3.07h-36.96a3.05 3.05 0 0 1-3.02-3.07v-25.86c0-1.7 1.36-3.07 3.02-3.07h36.96a3.05 3.05 0 0 1 3.02 3.07zm-1.43 0a1.6 1.6 0 0 0-1.6-1.62h-36.95a1.6 1.6 0 0 0-1.59 1.62v25.86c0 .9.72 1.61 1.6 1.61h36.95a1.6 1.6 0 0 0 1.59-1.6zm-29.39 18.75c0 .4-.32.72-.71.72h-6.45a.72.72 0 0 1-.72-.72c0-.4.32-.73.72-.73h6.45c.4 0 .71.33.71.73zm9.32 0c0 .4-.32.72-.72.72h-6.45a.72.72 0 0 1-.71-.72c0-.4.32-.73.71-.73h6.45c.4 0 .72.33.72.73zm-15.05 3.63c0 .4-.32.73-.72.73h-.71a.72.72 0 0 1-.72-.73c0-.4.32-.72.72-.72h.71c.4 0 .72.32.72.72zm4.3 0c0 .4-.32.73-.72.73h-1.43a.72.72 0 0 1-.72-.73c0-.4.32-.72.72-.72h1.43c.4 0 .72.32.72.72zm3.58 0c0 .4-.32.73-.71.73h-.72a.72.72 0 0 1-.72-.73c0-.4.32-.72.72-.72h.72c.4 0 .71.32.71.72zm4.3 0c0 .4-.32.73-.71.73h-1.44a.72.72 0 0 1-.71-.73c0-.4.32-.72.71-.72h1.44c.4 0 .71.32.71.72zm2.66-.51c.13.14.21.32.21.51a.8.8 0 0 1-.2.52.75.75 0 0 1-.52.21.75.75 0 0 1-.5-.21.77.77 0 0 1-.21-.52c0-.19.07-.37.2-.51.26-.27.75-.27 1.02 0zm18.13-1.67c0 2.8-2.25 5.1-5.02 5.1-.91 0-1.77-.26-2.5-.7-.75.44-1.6.7-2.52.7a5.06 5.06 0 0 1-5.01-5.1c0-2.8 2.25-5.09 5.01-5.09.92 0 1.77.25 2.51.69a4.9 4.9 0 0 1 2.51-.69 5.06 5.06 0 0 1 5.02 5.1zm-7.53-2.59a3.65 3.65 0 0 0 0 5.18 3.65 3.65 0 0 0 0-5.18zm-2.5 6.23c.45 0 .87-.1 1.27-.25a5.1 5.1 0 0 1 0-6.77 3.5 3.5 0 0 0-1.28-.25 3.61 3.61 0 0 0-3.58 3.63c0 2 1.6 3.64 3.58 3.64zm8.6-3.64c0-2-1.61-3.63-3.59-3.63-.45 0-.88.09-1.28.25a5.1 5.1 0 0 1 0 6.77c.4.15.83.25 1.28.25a3.61 3.61 0 0 0 3.58-3.64zm-33.69-8.91v-6.9c0-.9.73-1.64 1.62-1.64h9.66c.9 0 1.62.73 1.62 1.64v6.9c0 .9-.73 1.64-1.62 1.64h-9.66c-.9 0-1.62-.74-1.62-1.64zm4.3-4.18h-2.87v1.46h2.87zm-2.68 4.36h2.7l-.02-.18v-1.27h-2.87v1.27c0 .1.08.18.19.18zm9.85-4.38l-.19.02h-2.5c-.1 0-.18.08-.18.19v1.27h2.87zm0 4.2v-1.27h-2.87v1.27l-.02.18h2.7c.1 0 .19-.08.19-.18zm-5.55-7.09c-.1 0-.19.09-.19.19v6.9c0 .1.08.18.19.18h1.06c.1 0 .19-.08.19-.18v-4c0-.9.72-1.63 1.61-1.63h2.5c.1 0 .19-.09.19-.19v-1.08c0-.1-.09-.19-.19-.19zm-4.49.19v1.27h2.87v-1.27l.02-.19h-2.7c-.1 0-.19.09-.19.19z"/></defs><use xlink:href="#fa" transform="translate(-682 -1602)"/></symbol><symbol viewBox="0 0 19 15" id="scale" xmlns="http://www.w3.org/2000/svg"><defs><path id="ga" d="M14 15V0h5v15z"/><path id="gb" d="M7 15V4h5v11z"/><path id="gc" d="M0 15V7h5v8z"/></defs><use xlink:href="#ga"/><use xlink:href="#gb"/><use xlink:href="#gc"/></symbol></svg>