<svg xmlns="http://www.w3.org/2000/svg" xmlns:xlink="http://www.w3.org/1999/xlink" width="19" height="19" viewBox="0 0 19 19"><defs><path id="uew6a" d="M396.49 4036.326l7.111-8.494a.675.675 0 0 1 .927-.08.67.67 0 0 1 .08.924l-7.558 9.036a.727.727 0 0 1-.48.24h-.032a.641.641 0 0 1-.463-.192l-3.02-3.012a.653.653 0 0 1 0-.924.657.657 0 0 1 .927 0zm6.424-8.909a.65.65 0 0 1-.895.208 7.974 7.974 0 0 0-9.859 1.13c-3.1 3.093-3.1 8.145 0 11.236 3.1 3.092 8.165 3.092 11.265 0 2.653-2.645 3.116-6.693 1.119-9.848a.65.65 0 0 1 1.102-.685c2.317 3.665 1.79 8.382-1.294 11.458a9.27 9.27 0 0 1-13.103 0c-3.61-3.602-3.61-9.482 0-13.084a9.235 9.235 0 0 1 11.457-1.307c.304.191.4.59.208.892z"/></defs><g><g transform="translate(-388 -4025)"><use fill="#7a69e6" xlink:href="#uew6a"/></g></g></svg>