<svg xmlns="http://www.w3.org/2000/svg" xmlns:xlink="http://www.w3.org/1999/xlink" width="16" height="12" viewBox="0 0 16 12"><defs><path id="1081a" d="M231.286 1211.728a9.393 9.393 0 0 1-1.572-.137c-.738.5-1.565.864-2.482 1.091-.214.051-.47.097-.768.136h-.026a.286.286 0 0 1-.184-.068.28.28 0 0 1-.102-.178.166.166 0 0 1-.01-.056c0-.02.002-.038.005-.055a.18.18 0 0 1 .018-.051l.023-.043.03-.047c.022-.03.034-.045.036-.042.003.003.017-.011.04-.043.024-.031.036-.044.036-.038.03-.034.099-.105.206-.213.107-.108.184-.192.232-.252l.2-.246a2.14 2.14 0 0 0 .224-.329c.063-.114.124-.238.183-.375-.738-.409-1.318-.912-1.74-1.508-.424-.597-.635-1.233-.635-1.91 0-.789.28-1.519.84-2.19.559-.67 1.322-1.2 2.29-1.589.967-.39 2.019-.584 3.156-.584s2.189.195 3.156.584c.967.39 1.73.919 2.29 1.59.56.67.84 1.4.84 2.19s-.28 1.52-.84 2.19c-.56.67-1.323 1.2-2.29 1.59-.967.388-2.02.583-3.156.583zm-1.366-1.21c.464.08.92.12 1.366.12.91 0 1.762-.148 2.553-.444.792-.295 1.421-.696 1.889-1.202.467-.505.7-1.048.7-1.627 0-.58-.233-1.122-.7-1.628-.468-.506-1.097-.906-1.889-1.202a7.25 7.25 0 0 0-2.553-.443 7.25 7.25 0 0 0-2.554.443c-.791.296-1.421.696-1.888 1.202-.467.506-.701 1.048-.701 1.628 0 .466.158.914.473 1.346.316.432.759.807 1.33 1.125l.867.477-.313.716c.202-.113.387-.224.553-.332l.393-.264zm8.705 2.446c.06.137.12.261.183.375.063.114.137.223.223.328l.201.247c.048.06.125.144.232.252a5.96 5.96 0 0 1 .281.294.43.43 0 0 1 .067.09l.023.042.018.05c.011.035.013.053.004.056-.009.003-.012.021-.009.056a.313.313 0 0 1-.116.187.277.277 0 0 1-.196.06 7.617 7.617 0 0 1-.768-.137 7.684 7.684 0 0 1-2.482-1.09c-.536.09-1.06.135-1.572.135-1.613 0-3.018-.375-4.214-1.124a9.849 9.849 0 0 0 3.544-.35 8.061 8.061 0 0 0 2.358-1.1c.743-.522 1.315-1.124 1.714-1.806a4.218 4.218 0 0 0 .393-3.46c.767.403 1.375.909 1.821 1.517.447.608.67 1.261.67 1.96 0 .682-.211 1.32-.634 1.913-.423.594-1.003 1.096-1.74 1.505z"/></defs><g><g transform="translate(-225 -1203)"><use fill="#212121" xlink:href="#1081a"/></g></g></svg>