<svg xmlns="http://www.w3.org/2000/svg" xmlns:xlink="http://www.w3.org/1999/xlink" width="26" height="20" viewBox="0 0 26 20"><defs><path id="8wvna" d="M778 1003.667v16.665c0 .92-.77 1.667-1.715 1.667h-22.57c-.946 0-1.715-.747-1.715-1.667v-16.665c0-.92.77-1.667 1.715-1.667h22.57c.945 0 1.715.747 1.715 1.667zm-24.53 0v12.492l4.452-3.293c.676-.5 1.727-.545 2.446-.105l4.194 2.568c.155.094.428.058.55-.074l5.101-5.48c.319-.342.761-.53 1.214-.513.453.016.88.234 1.171.599l3.932 4.904v-11.098a.245.245 0 0 0-.245-.238h-22.57a.245.245 0 0 0-.245.238zm23.06 16.665v-3.242l-5.091-6.351c-.028-.035-.053-.048-.066-.049-.017.001-.039.011-.07.044l-5.1 5.48c-.601.645-1.666.788-2.424.324l-4.194-2.568c-.197-.12-.587-.104-.773.034l-5.342 3.952v2.376c0 .13.112.238.245.238h22.57c.132 0 .245-.109.245-.238zm-16.27-11.188c0-1.396 1.169-2.531 2.605-2.531 1.435 0 2.603 1.135 2.603 2.53 0 1.396-1.168 2.532-2.603 2.532-1.436 0-2.604-1.136-2.604-2.531zm1.47 0c0 .608.51 1.102 1.135 1.102s1.133-.494 1.133-1.102c0-.608-.508-1.102-1.133-1.102-.626 0-1.134.494-1.134 1.102z"/></defs><g><g transform="translate(-752 -1002)"><use fill="#fff" xlink:href="#8wvna"/></g></g></svg>