<svg xmlns="http://www.w3.org/2000/svg" xmlns:xlink="http://www.w3.org/1999/xlink" width="21" height="21" viewBox="0 0 21 21"><defs><path id="gtn0a" d="M1164.945 1783.117l-3.83 3.829a3.591 3.591 0 0 1-4.227.625l-1.316 1.317a3.591 3.591 0 0 1-.626 4.228l-3.83 3.829a3.59 3.59 0 0 1-5.07 0 3.589 3.589 0 0 1 0-5.07l3.83-3.83a3.59 3.59 0 0 1 4.058-.71l1.401-1.401a3.59 3.59 0 0 1 .71-4.058l3.83-3.83a3.589 3.589 0 0 1 5.07 0 3.59 3.59 0 0 1 0 5.07zm-10.65 7.048l-1.114 1.114a1.13 1.13 0 0 1-1.596 0 1.13 1.13 0 0 1 0-1.595l1.022-1.023a1.927 1.927 0 0 0-1.561.554l-3.83 3.83a1.933 1.933 0 0 0 .001 2.73 1.933 1.933 0 0 0 2.73 0l3.83-3.83a1.93 1.93 0 0 0 .518-1.78zm9.48-10.948a1.933 1.933 0 0 0-2.73 0l-3.83 3.829a1.927 1.927 0 0 0-.553 1.56l.597-.595a1.129 1.129 0 0 1 1.595 1.595l-.688.688a1.928 1.928 0 0 0 1.78-.518l3.829-3.83a1.932 1.932 0 0 0 0-2.73z"/></defs><g><g transform="translate(-1145 -1777)"><use xlink:href="#gtn0a"/></g></g></svg>