<svg xmlns="http://www.w3.org/2000/svg" xmlns:xlink="http://www.w3.org/1999/xlink" width="15" height="17" viewBox="0 0 15 17"><defs><path id="29g3a" d="M1541.285 1843.36v6.59c-.734-.316-1.751-.316-2.736.184-1.463.746-1.876 2.104-1.313 2.965.563.861 2.102 1.224 3.566.48 1.054-.538 1.562-1.393 1.554-2.15v-8.282l8.58-1.7v7.44c-.733-.316-1.75-.316-2.735.185-1.463.746-1.876 2.104-1.313 2.965.563.86 2.102 1.224 3.566.48 1.052-.537 1.56-1.39 1.554-2.148v-13.382l-10.723 2.124z"/></defs><g><g transform="translate(-1537 -1837)"><use fill="#fff" xlink:href="#29g3a"/></g></g></svg>