<svg xmlns="http://www.w3.org/2000/svg" xmlns:xlink="http://www.w3.org/1999/xlink" width="26" height="22" viewBox="0 0 26 22"><defs><path id="9fvua" d="M778.872 1743.699a.877.877 0 0 1-1.184.274c-3.382-2.012-7.082-.666-8.336-.099a11.612 11.612 0 0 1-5.004 1.125c-6.267 0-11.348-4.924-11.348-11 0-6.075 5.08-11 11.347-11 6.267 0 11.348 4.925 11.348 11 0 2.79-1.07 5.335-2.835 7.273 1.744-.133 3.77.113 5.729 1.279a.82.82 0 0 1 .283 1.148zm-11.203-10.878c.418 1.247 1.801 1.93 3.088 1.525 1.287-.406 1.991-1.746 1.573-2.994-.418-1.247-1.8-1.93-3.088-1.524-1.287.405-1.99 1.745-1.573 2.993zm-5.772-4.715c0 1.312 1.097 2.375 2.45 2.375 1.354 0 2.451-1.063 2.451-2.375s-1.097-2.375-2.45-2.375c-1.354 0-2.45 1.063-2.45 2.375zm-3.959 6.24c1.287.405 2.67-.278 3.088-1.525.418-1.248-.286-2.588-1.573-2.993-1.287-.406-2.67.277-3.088 1.524-.418 1.248.286 2.588 1.573 2.994zm4.356 2.26c-1.094-.771-2.627-.536-3.422.525a2.329 2.329 0 0 0 .542 3.318c1.095.771 2.627.536 3.423-.525.795-1.062.552-2.547-.543-3.318zm3.025-2.606c0-.52-.435-.942-.972-.942-.536 0-.97.422-.97.942s.434.941.97.941c.537 0 .972-.421.972-.941zm3.962 6.449c1.095-.771 1.338-2.256.542-3.318-.795-1.061-2.328-1.296-3.422-.525-1.095.77-1.338 2.256-.543 3.318.796 1.06 2.328 1.296 3.423.525z"/></defs><g><g transform="translate(-753 -1723)"><use fill="#fff" xlink:href="#9fvua"/></g></g></svg>