<svg xmlns="http://www.w3.org/2000/svg" xmlns:xlink="http://www.w3.org/1999/xlink" width="25" height="22" viewBox="0 0 25 22"><defs><path id="mnoya" d="M622.3 6725.1v5.7c0 1.91-1.56 3.45-3.43 3.45h-5.95l-4.95 3.84a.49.49 0 0 1-.3.11c-.1 0-.16-.02-.23-.04a.56.56 0 0 1-.28-.47v-3.44h-.51a3.4 3.4 0 0 1-3.3-2.59 3.46 3.46 0 0 1-2.67-3.35v-5.7c0-1.91 1.55-3.45 3.43-3.45h12.21c1.55 0 2.92 1.1 3.31 2.59a3.44 3.44 0 0 1 2.66 3.35zm-15.65-3.45h11.9a2.41 2.41 0 0 0-2.2-1.46H604.1c-1.32 0-2.41 1.1-2.41 2.42v5.7c0 1.03.62 1.91 1.53 2.26v-5.47c0-1.9 1.55-3.45 3.42-3.45zm14.65 9.15v-5.7a2.43 2.43 0 0 0-2.4-2.42h-12.25c-1.32 0-2.4 1.1-2.4 2.42v5.7a2.43 2.43 0 0 0 2.4 2.42h1.02c.28 0 .5.23.5.51v2.94l4.29-3.33a.44.44 0 0 1 .3-.12h6.1c1.33 0 2.41-1.1 2.41-2.42zm-2.83-5.35c0 .28-.23.51-.5.51h-10.42a.52.52 0 0 1-.5-.51c0-.28.23-.51.5-.51h10.41c.28 0 .51.23.51.5zm0 2.23c0 .28-.23.52-.5.52h-10.42a.52.52 0 0 1-.5-.52c0-.28.23-.5.5-.5h10.41c.28 0 .51.22.51.5zm0 2.26c0 .28-.23.51-.5.51h-10.42a.51.51 0 0 1-.5-.51c0-.28.23-.51.5-.51h10.41c.28 0 .51.2.51.51z"/></defs><g><g transform="translate(-599 -6718)"><use fill="#fff" xlink:href="#mnoya"/></g></g></svg>