<svg xmlns="http://www.w3.org/2000/svg" xmlns:xlink="http://www.w3.org/1999/xlink" width="39" height="37" viewBox="0 0 39 37"><defs><path id="95g8a" d="M1246.25 8908.62v33.75H1211v-33.75zm-11.64 20.11c-.71-.7-1.61-.7-2.32 0l-1.62 1.6c-.15.16-.27.19-.45.09-.35-.2-.73-.34-1.06-.55a16.77 16.77 0 0 1-4.07-3.66 9.5 9.5 0 0 1-1.46-2.3c-.07-.17-.06-.29.09-.43.54-.51 1.07-1.05 1.6-1.58.75-.74.75-1.6 0-2.35l-1.27-1.26-1.32-1.3c-.72-.7-1.61-.7-2.32 0-.55.54-1.08 1.08-1.63 1.6a2.6 2.6 0 0 0-.84 1.77 7.4 7.4 0 0 0 .59 3.22 19.5 19.5 0 0 0 3.51 5.77c2 2.36 4.4 4.22 7.2 5.57a10.5 10.5 0 0 0 3.98 1.14c.98.06 1.83-.19 2.51-.94.47-.52 1-.98 1.49-1.48.73-.73.73-1.61 0-2.33l-2.6-2.58zm-.87-3.6l1.69-.28a7.53 7.53 0 0 0-6.4-6.13l-.24 1.67a5.84 5.84 0 0 1 4.95 4.75zm2.64-7.23a12.48 12.48 0 0 0-7.13-3.51l-.24 1.67a10.82 10.82 0 0 1 9.18 8.79l1.68-.29a12.32 12.32 0 0 0-3.5-6.66z"/></defs><g><g transform="translate(-1209 -8907)"><use fill="#fff" xlink:href="#95g8a"/></g></g></svg>