<svg xmlns="http://www.w3.org/2000/svg" xmlns:xlink="http://www.w3.org/1999/xlink" width="39" height="37" viewBox="0 0 39 37"><defs><path id="g8b0a" d="M1245.1 20.8v33.76h-35.26V20.8zm-11.65 20.11c-.71-.7-1.6-.7-2.32 0l-1.62 1.6c-.15.16-.27.19-.45.09-.35-.19-.73-.34-1.06-.55a16.78 16.78 0 0 1-4.07-3.65 9.5 9.5 0 0 1-1.46-2.31c-.07-.17-.05-.28.09-.42.54-.52 1.07-1.06 1.6-1.59.75-.74.75-1.6 0-2.35l-1.27-1.26-1.32-1.3c-.72-.69-1.61-.69-2.32 0-.55.54-1.08 1.08-1.63 1.6a2.6 2.6 0 0 0-.84 1.77 7.4 7.4 0 0 0 .59 3.22 19.5 19.5 0 0 0 3.51 5.77c2 2.36 4.4 4.22 7.2 5.57 1.26.6 2.56 1.07 3.98 1.14.98.06 1.83-.19 2.51-.94.47-.51 1-.98 1.49-1.47.73-.74.73-1.62 0-2.34l-2.6-2.58zm-.87-3.6l1.69-.28a7.53 7.53 0 0 0-6.4-6.13l-.24 1.68a5.84 5.84 0 0 1 4.95 4.74zm2.64-7.23a12.48 12.48 0 0 0-7.13-3.5l-.24 1.67a10.82 10.82 0 0 1 9.18 8.78l1.68-.29a12.31 12.31 0 0 0-3.5-6.66z"/><linearGradient id="g8b0b" x1="1227.09" x2="1227.84" y1="54.56" y2="20.81" gradientUnits="userSpaceOnUse"><stop offset="0" stop-color="#c4121a"/><stop offset="1" stop-color="#d7131c"/></linearGradient></defs><g><g transform="translate(-1208 -19)"><use fill="url(#g8b0b)" xlink:href="#g8b0a"/></g></g></svg>