<svg xmlns="http://www.w3.org/2000/svg" xmlns:xlink="http://www.w3.org/1999/xlink" width="133" height="129" viewBox="0 0 133 129"><defs><path id="o1gua" d="M40.53 12.8l60.53-8.6a31.8 31.8 0 0 1 35.75 27.32l7.44 56.31A31.85 31.85 0 0 1 117 123.67l-60.53 8.6a31.8 31.8 0 0 1-35.75-27.32l-7.44-56.31A31.85 31.85 0 0 1 40.53 12.8z"/><path id="o1gub" d="M106.59 44.07c6.76-.2 12.4 5.09 12.61 11.83a12.23 12.23 0 0 1-11.87 12.57c-6.76.2-12.41-5.09-12.62-11.83a12.23 12.23 0 0 1 11.88-12.57z"/><path id="o1guc" d="M50.02 52.06c6.76-.2 12.41 5.09 12.62 11.83a12.23 12.23 0 0 1-11.88 12.57c-6.76.2-12.4-5.09-12.61-11.83a12.23 12.23 0 0 1 11.87-12.57z"/><path id="o1gud" d="M63.1 92.9s8.93 4.5 20.76 3.08c11.83-1.43 19.38-7.5 19.38-7.5"/></defs><g><g transform="translate(-12 -4)"><use fill="#fff" xlink:href="#o1gua"/></g><g transform="translate(-12 -4)"><use fill="#b7dfff" xlink:href="#o1gub"/></g><g transform="translate(-12 -4)"><use fill="#b7dfff" xlink:href="#o1guc"/></g><g transform="translate(-12 -4)"><use fill="#b7dfff" xlink:href="#o1gud"/><use fill="#fff" fill-opacity="0" stroke="#b7dfff" stroke-linecap="round" stroke-linejoin="round" stroke-miterlimit="50" stroke-width="10.6" xlink:href="#o1gud"/></g></g></svg>