<svg xmlns="http://www.w3.org/2000/svg" xmlns:xlink="http://www.w3.org/1999/xlink" width="18.5" height="18.5" viewBox="0 0 37 37"><defs><path id="tne5a" d="M596.11 186.04c.76.75.76 1.96 0 2.7l-15 14.74 15 14.73c.76.74.76 1.95 0 2.7-.76.75-2 .75-2.75 0l-15-14.73-15 14.73c-.76.75-1.99.75-2.75 0a1.89 1.89 0 0 1 0-2.7l15-14.73-15-14.73a1.89 1.89 0 0 1 0-2.7c.76-.76 2-.76 2.75 0l15 14.72 15-14.73c.76-.75 1.99-.75 2.75 0z"/></defs><g><g transform="translate(-560 -185)"><use fill="#fff" xlink:href="#tne5a"/></g></g></svg>