<svg xmlns="http://www.w3.org/2000/svg" xmlns:xlink="http://www.w3.org/1999/xlink" width="24" height="24" viewBox="0 0 24 24"><defs><path id="ffzca" d="M1324.91 597.38l.71.7-1.41 1.42 1.41 1.41-.7.71-1.42-1.41-1.41 1.41-.71-.7 1.41-1.42-1.41-1.41.7-.71 1.42 1.41zM1318 599v6h11v-11h-6a5 5 0 0 0-5 5zm21 1h-5v-1h5zm-2.5 2a.5.5 0 1 1 0-1 .5.5 0 0 1 0 1zm0-5a.5.5 0 1 1 0 1 .5.5 0 0 1 0-1zm.5-3h-6v11h11v-6a5 5 0 0 0-5-5zm-16 18h2v-2h1v2h2v1h-2v2h-1v-2h-2zm-3 1a5 5 0 0 0 5 5h6v-11h-11zm16 0h5v1h-5zm0-2h5v1h-5zm-3 7h6a5 5 0 0 0 5-5v-6h-11z"/></defs><g><g transform="translate(-1318 -594)"><use fill="#e5007d" xlink:href="#ffzca"/></g></g></svg>