<svg xmlns="http://www.w3.org/2000/svg" xmlns:xlink="http://www.w3.org/1999/xlink" width="27" height="18.5" viewBox="0 0 54 37"><defs><path id="fgkua" d="M137.07 839.87h-8.62a2.46 2.46 0 0 1-2.45-2.47c0-1.36 1.1-2.47 2.45-2.47h8.62a12.39 12.39 0 0 0 0 4.94zm9.81 22.2h-18.43a2.46 2.46 0 0 1-2.45-2.47c0-1.36 1.1-2.47 2.45-2.47h18.43a12.39 12.39 0 0 0 0 4.94zm12.24-27.14h18.43c1.35 0 2.45 1.1 2.45 2.47 0 1.36-1.1 2.47-2.45 2.47h-18.43a12.39 12.39 0 0 0 0-4.94zm9.81 22.2h8.62c1.35 0 2.45 1.1 2.45 2.47 0 1.36-1.1 2.47-2.45 2.47h-8.62a12.38 12.38 0 0 0 0-4.94zM148.1 844.8a7.38 7.38 0 0 1-7.36-7.4c0-4.09 3.3-7.4 7.36-7.4a7.38 7.38 0 0 1 7.36 7.4c0 4.09-3.3 7.4-7.36 7.4zm9.82 22.2a7.38 7.38 0 0 1-7.36-7.4c0-4.09 3.3-7.4 7.36-7.4a7.38 7.38 0 0 1 7.36 7.4c0 4.09-3.3 7.4-7.36 7.4z"/></defs><g><g transform="translate(-126 -830)"><use fill="#898b8f" xlink:href="#fgkua"/></g></g></svg>