<svg xmlns="http://www.w3.org/2000/svg" xmlns:xlink="http://www.w3.org/1999/xlink" width="20" height="28" viewBox="0 0 20 28"><defs><path id="w58ba" d="M1024 827.67l-8 11.33-8.01-11.35c-3-3.9-2.56-10.35.94-13.78A10.04 10.04 0 0 1 1016 811c2.67 0 5.18 1.02 7.07 2.87 3.5 3.43 3.93 9.88.93 13.8zm-4.26-6.95a3.62 3.62 0 0 0-3.65-3.58 3.62 3.62 0 0 0-3.65 3.58 3.62 3.62 0 0 0 3.65 3.57c2.01 0 3.65-1.6 3.65-3.57z"/></defs><g><g transform="translate(-1006 -811)"><use fill="#c33bc2" xlink:href="#w58ba"/></g></g></svg>