<svg xmlns="http://www.w3.org/2000/svg" xmlns:xlink="http://www.w3.org/1999/xlink" width="29" height="40" viewBox="0 0 29 40"><defs><path id="6goea" d="M756.1 352.81L744.5 369l-11.62-16.2c-4.33-5.59-3.7-14.8 1.37-19.7a14.67 14.67 0 0 1 10.25-4.1c3.87 0 7.51 1.46 10.25 4.1 5.07 4.9 5.7 14.11 1.35 19.71zm-6.17-9.93a5.21 5.21 0 0 0-5.3-5.11c-2.91 0-5.29 2.3-5.29 5.11a5.21 5.21 0 0 0 5.3 5.11c2.91 0 5.29-2.3 5.29-5.11z"/></defs><g><g transform="translate(-730 -329)"><use fill="#112687" xlink:href="#6goea"/></g></g></svg>