<svg xmlns="http://www.w3.org/2000/svg" xmlns:xlink="http://www.w3.org/1999/xlink" width="26" height="29" viewBox="0 0 26 29"><defs><path id="kebda" d="M1015.83 726.74c-1.81 1.34-4.3 1.46-5.06.13-.58-1.01-.38-2.16-.16-3.5.25-1.44.53-3.09-.36-4.63-1.5-2.6-4.78-2.48-7.25-.84l1.17 1.83c1.02-.68 2.2-.97 3.06-.76 2.03.48 1.42 3.16 1.27 4.04-.26 1.52-.55 3.26.41 4.96 1.53 2.67 5.62 2.6 8.4.39-.52-.5-1-1.05-1.48-1.62zm13.17.54l-4.32-8.5-2.53 1.27c-2.75 1.35-7.35-7.78-4.66-9.25l2.56-1.28-4.3-8.52-2.58 1.3c-8.83 4.7 4.2 30.48 13.24 26.27l2.59-1.3z"/></defs><g><g transform="translate(-1003 -701)"><use fill="#f8498e" xlink:href="#kebda"/></g></g></svg>