<svg xmlns="http://www.w3.org/2000/svg" xmlns:xlink="http://www.w3.org/1999/xlink" width="32" height="28" viewBox="0 0 32 28"><defs><path id="v2uza" d="M678.91 570.91l2.16-5.65 17.54 6.1-1.94 5.1v7.44l5.33-14.06-22.53-7.84-3.4 8.91zm7.1 8.91a2.61 2.61 0 0 0-2.68 2.55c0 1.4 1.2 2.55 2.67 2.55a2.61 2.61 0 0 0 2.67-2.55c0-1.4-1.2-2.55-2.67-2.55zm0 7.64a5.22 5.22 0 0 1-5.34-5.09c0-2.81 2.39-5.1 5.33-5.1a5.22 5.22 0 0 1 5.33 5.1c0 2.81-2.38 5.1-5.33 5.1zm-9.34-8.9h-4V576h4zm-6.67-5.1V590h24v-16.55z"/></defs><g><g transform="translate(-670 -562)"><use fill="#fff" xlink:href="#v2uza"/></g></g></svg>