<svg xmlns="http://www.w3.org/2000/svg" xmlns:xlink="http://www.w3.org/1999/xlink" width="21" height="21" viewBox="0 0 21 21"><defs><path id="vugea" d="M1047 407.5a10.5 10.5 0 1 1-21 0 10.5 10.5 0 0 1 21 0zm-6.33-1.14l-4.46-4.07c-1.42-1.3-3.55.82-2.12 2.13l.04.03c.05.1.12.2.2.28.54.54 1.21 1.07 1.86 1.6l1.21 1.11-1.27 1.2c-.64.54-1.3 1.08-1.81 1.63-.08.08-.14.16-.2.25l-.05.05c-1.4 1.33.72 3.45 2.12 2.12l4.48-4.2c.57-.55.59-1.59 0-2.13z"/></defs><g><g transform="translate(-1026 -397)"><use fill="#721c13" xlink:href="#vugea"/><use fill="#fff" xlink:href="#vugea"/></g></g></svg>